<svg width="80" height="40" viewBox="0 0 80 40" fill="none" xmlns="http://www.w3.org/2000/svg">
<path d="M4.47339 24.9245H74.9615V25.4174H4.47339V24.9245Z" fill="#296FF5"/>
<path d="M26.2308 20.7932H26.266L29.1913 12.824H31.8463V13.0823C31.6114 13.0823 31.4117 13.1057 31.2707 13.1527C31.118 13.1996 31.0005 13.27 30.9182 13.3757C30.8243 13.4696 30.7773 13.6339 30.742 13.8217C30.7068 14.0094 30.695 14.2442 30.695 14.5258V21.9199C30.695 22.2133 30.7185 22.4598 30.7538 22.6476C30.789 22.8353 30.8478 22.9879 30.9417 23.0935C31.0357 23.1992 31.1415 23.2696 31.2942 23.3048C31.4469 23.34 31.6349 23.3635 31.8581 23.3635V23.6334H27.8403V23.3635C28.1105 23.3635 28.3219 23.3517 28.4982 23.3165C28.6744 23.2813 28.8154 23.2226 28.9211 23.117C29.0151 23.0231 29.0973 22.8705 29.1443 22.671C29.1913 22.4832 29.2148 22.225 29.2148 21.9082V14.6432H29.1795L25.9018 23.6217H25.7139L22.4479 14.8427H22.4127V21.9199C22.4127 22.2368 22.4362 22.495 22.4714 22.6828C22.5067 22.8705 22.5771 23.0114 22.6829 23.1288C22.7769 23.2226 22.9296 23.2931 23.0941 23.3283C23.2703 23.3635 23.4817 23.3752 23.7519 23.3752V23.6452H20.533V23.3752C20.7914 23.3752 20.9912 23.3517 21.1556 23.3165C21.3201 23.2813 21.4493 23.2109 21.5551 23.1053C21.649 23.0114 21.7195 22.8588 21.7548 22.6593C21.79 22.4715 21.8135 22.2133 21.8135 21.9082V14.5141C21.8135 14.2324 21.8018 13.9977 21.7665 13.8099C21.7313 13.6221 21.6725 13.4813 21.5786 13.3639C21.4846 13.2583 21.3436 13.1879 21.1791 13.1409C21.0147 13.094 20.7914 13.0705 20.533 13.0705V12.8006H23.3173L26.2308 20.7932Z" fill="#296FF5"/>
<path d="M37.3326 22.7415C37.3326 22.9528 37.4149 23.1171 37.5676 23.211C37.7203 23.3166 38.014 23.3636 38.4369 23.3518V23.6218H35.3707V23.3518C35.5704 23.3518 35.7466 23.3283 35.8994 23.2814C36.0521 23.2345 36.1696 23.164 36.287 23.0467C36.4045 22.9293 36.4985 22.7767 36.5807 22.5889C36.663 22.4012 36.757 22.143 36.851 21.8495L39.7645 12.5659H40.0347L43.1597 21.8495C43.2771 22.2134 43.3946 22.4833 43.4769 22.6828C43.5708 22.8824 43.6766 23.0349 43.7823 23.1288C43.888 23.2227 44.0173 23.2814 44.1465 23.3049C44.2757 23.3283 44.4402 23.3401 44.6399 23.3401V23.61H40.7631V23.3401C41.1155 23.3401 41.374 23.2931 41.5149 23.1992C41.6559 23.1054 41.7381 22.941 41.7381 22.7298C41.7381 22.6359 41.7264 22.5537 41.7029 22.4598C41.6794 22.3659 41.6324 22.2134 41.5737 22.0139L40.951 20.1595H38.0845L37.4384 22.2486C37.3679 22.495 37.3326 22.6476 37.3326 22.7415ZM39.4238 15.7231L38.2607 19.5726H40.7396L39.459 15.7231H39.4238Z" fill="#296FF5"/>
<path d="M51.207 22.671C51.254 22.8588 51.3245 22.9997 51.4305 23.1171C51.536 23.2109 51.689 23.2813 51.8765 23.3165C52.0765 23.3518 52.323 23.3635 52.617 23.3635V23.6334H48.1056V23.3635C48.3993 23.3635 48.6578 23.3518 48.8458 23.3165C49.0455 23.2931 49.1864 23.2227 49.2922 23.1288C49.3979 23.0349 49.4684 22.8706 49.5154 22.6828C49.5624 22.4833 49.5859 22.2368 49.5859 21.9082V13.4227H48.4111C48.0704 13.4227 47.7767 13.4579 47.5417 13.5166C47.295 13.587 47.107 13.6808 46.9543 13.8334C46.8016 13.9742 46.6841 14.1738 46.6254 14.4085C46.5431 14.6432 46.5196 14.925 46.5079 15.277H46.2377V12.8358H54.52V15.277H54.25C54.2265 14.6081 54.0735 14.1269 53.7915 13.8451C53.5095 13.5635 53.028 13.4227 52.3465 13.4227H51.1485V21.9082C51.1365 22.2368 51.16 22.4833 51.207 22.671Z" fill="#296FF5"/>
<path d="M62.2735 13.094C62.0035 13.094 61.7685 13.1057 61.5805 13.141C61.3925 13.1762 61.2515 13.2348 61.146 13.3522C61.052 13.4578 60.9695 13.6104 60.9225 13.7982C60.8755 13.986 60.864 14.2325 60.864 14.5376V21.9316C60.864 22.2603 60.8875 22.5185 60.946 22.7063C61.005 22.894 61.0755 23.0349 61.181 23.1522C61.287 23.2461 61.428 23.3166 61.616 23.34C61.792 23.3635 62.0155 23.387 62.2735 23.387V23.6569H57.915V23.387C58.197 23.387 58.444 23.3635 58.62 23.3283C58.808 23.2931 58.9375 23.2227 59.055 23.1053C59.149 22.9997 59.2195 22.8471 59.266 22.6593C59.313 22.4715 59.325 22.2251 59.325 21.9434V14.5493C59.325 14.2442 59.3015 13.9977 59.266 13.8099C59.2195 13.6222 59.1605 13.4813 59.043 13.3639C58.9375 13.2583 58.7845 13.1879 58.6085 13.1527C58.4205 13.1175 58.1855 13.1057 57.915 13.1057V12.8475H62.2735V13.094Z" fill="#296FF5"/>
<path d="M73.963 16.1573C73.881 15.2301 73.587 14.479 73.082 13.9508C72.577 13.3992 71.919 13.1293 71.12 13.1293C70.0745 13.1293 69.299 13.587 68.8055 14.5024C68.3125 15.4179 68.054 16.7793 68.054 18.575C68.054 19.4083 68.136 20.1243 68.277 20.7346C68.4295 21.3449 68.641 21.8261 68.923 22.2251C69.205 22.6124 69.546 22.8941 69.957 23.0701C70.368 23.2462 70.8145 23.3401 71.308 23.3401C71.966 23.3401 72.53 23.1758 72.988 22.8354C73.4345 22.495 73.869 21.9669 74.257 21.2392L74.527 21.3683C73.74 23.0466 72.5065 23.9034 70.85 23.9034C70.2625 23.9034 69.6985 23.7978 69.1345 23.5631C68.5825 23.3283 68.089 22.9997 67.6425 22.5537C67.196 22.1077 66.844 21.5561 66.5855 20.8754C66.315 20.2181 66.186 19.4435 66.186 18.5633C66.186 17.7065 66.3035 16.9202 66.5385 16.1925C66.785 15.4648 67.114 14.8428 67.537 14.3147C67.9715 13.7865 68.4765 13.364 69.0405 13.0706C69.628 12.7772 70.2625 12.6246 70.944 12.6246C71.273 12.6246 71.5665 12.6598 71.8365 12.7185C72.107 12.7889 72.3185 12.8593 72.5065 12.9532C72.6945 13.0471 72.8585 13.1175 72.9995 13.1879C73.1405 13.2584 73.27 13.2818 73.364 13.2818C73.4695 13.2818 73.5635 13.2232 73.6225 13.1293C73.681 13.0354 73.7165 12.8593 73.7515 12.6128H74.0335L74.2335 16.1808L73.963 16.1573Z" fill="#296FF5"/>
<path d="M7.92724 22.542C7.92724 22.8119 8.03294 23.0231 8.25619 23.164C8.47939 23.3048 8.87884 23.3635 9.46624 23.3518V23.7039H5.14294V23.3518C5.41314 23.3518 5.67159 23.3166 5.88309 23.2579C6.09454 23.1992 6.28249 23.1053 6.43524 22.9527C6.58794 22.8119 6.72894 22.6006 6.85814 22.3424C6.97564 22.0842 7.11664 21.7556 7.23409 21.3683L11.2989 9.09185H11.6748L16.0334 21.3918C16.2096 21.8612 16.3506 22.2368 16.4798 22.5068C16.609 22.7767 16.75 22.9645 16.9145 23.0936C17.0789 23.2227 17.2434 23.2931 17.4314 23.3283C17.6193 23.3635 17.8543 23.3752 18.1245 23.3752V23.7274H12.7087V23.3752C13.2021 23.3752 13.5545 23.3048 13.7542 23.1875C13.954 23.0701 14.0479 22.8589 14.0479 22.5655C14.0479 22.4598 14.0362 22.3307 14.001 22.2251C13.9657 22.1077 13.907 21.9082 13.813 21.6265L12.9319 19.1735H8.93754L8.03294 21.9317C7.95074 22.2251 7.92724 22.4363 7.92724 22.542ZM10.829 13.2466L9.19604 18.352H12.6617L10.876 13.2466H10.829Z" fill="#296FF5"/>
<path d="M20.2863 26.8962H19.9338H19.3582V27.3305V29.936V30.3468H19.9338H20.4272C20.8032 30.3233 20.9794 30.1708 21.0029 29.936V27.3305C20.9207 27.0488 20.674 26.9197 20.2863 26.8962ZM20.4272 29.9242H19.9338V27.3187H20.4272V29.9242Z" fill="#296FF5"/>
<path d="M5.04905 26.8967H4.47339V30.3355H5.04905V26.8967Z" fill="#296FF5"/>
<path d="M43.5122 26.8962H43.054V27.3774H43.5122V30.3351H44.0878V27.3774H44.5342V26.8962H44.0878H43.5122Z" fill="#296FF5"/>
<path d="M59.2545 26.8962H58.679V30.3351H59.2545V26.8962Z" fill="#296FF5"/>
<path d="M52.006 26.8962H51.8415H51.348H50.7725V27.3187V28.3868V28.8093V30.3351H51.348V28.8093H51.7355C51.7945 28.8093 51.8415 28.8562 51.8415 28.9149V30.3351H52.417V28.868C52.417 28.7271 52.323 28.5981 52.182 28.5628H52.1585L52.229 28.5276C52.335 28.4806 52.4055 28.375 52.4055 28.2577V27.2953C52.417 27.0723 52.229 26.8962 52.006 26.8962ZM51.8415 28.2811C51.8415 28.3398 51.7945 28.3868 51.7355 28.3868H51.348V27.3187H51.8415V28.2811Z" fill="#296FF5"/>
<path d="M65.622 26.8962H65.61V30.3351H65.622H66.2095H66.914V29.8538H66.2095V28.868H66.7495V28.3868H66.2095V27.3774H66.914V26.8962H66.2095H65.622Z" fill="#296FF5"/>
<path d="M12.556 28.9032L11.9568 26.9901V26.8962H11.9333H11.3929V30.3351H11.9568V28.7036L12.4737 30.3351H12.556H13.0142H13.0964V26.8962H12.556V28.9032Z" fill="#296FF5"/>
<path d="M28.3689 29.8538C28.3689 29.889 28.3336 29.9242 28.2866 29.9242H27.9459C27.899 29.9242 27.8755 29.889 27.8637 29.8538V26.8845H27.2881V29.8538V29.9125C27.2881 30.1473 27.476 30.3351 27.711 30.3351H28.4981C28.7331 30.3351 28.921 30.1473 28.921 29.9125V29.8538V26.8845H28.3454V29.8538H28.3689Z" fill="#296FF5"/>
<path d="M36.4046 26.8962H35.6292C35.406 26.8962 35.218 27.084 35.218 27.3187V27.3774V28.5041C35.218 28.6802 35.3708 28.8327 35.547 28.8327H35.7702H36.2519V29.8773C36.2519 29.9125 36.2166 29.9477 36.1814 29.9477H35.8524C35.8172 29.9477 35.7819 29.9125 35.7819 29.8773V29.3492H35.2298V29.8773V29.936C35.2298 30.1707 35.4178 30.3585 35.641 30.3585H36.4163C36.6396 30.3585 36.8275 30.1707 36.8275 29.936V29.8773V28.7389C36.8275 28.5628 36.6865 28.422 36.5103 28.422H36.2636H35.7819V27.3774C35.7819 27.3422 35.8172 27.307 35.8524 27.307H36.1814C36.2166 27.307 36.2519 27.3422 36.2519 27.3774V27.8234H36.804V27.3774V27.3187C36.8158 27.084 36.6278 26.8962 36.4046 26.8962Z" fill="#296FF5"/>
<path d="M74.5505 26.8962H73.775C73.552 26.8962 73.364 27.084 73.364 27.3187V27.3774V28.5041C73.364 28.6802 73.5165 28.8327 73.693 28.8327H73.916H74.3975V29.8773C74.3975 29.9125 74.3625 29.9477 74.327 29.9477H73.9985C73.963 29.9477 73.928 29.9125 73.928 29.8773V29.3492H73.3755V29.8773V29.936C73.3755 30.1707 73.5635 30.3585 73.787 30.3585H74.562C74.7855 30.3585 74.9735 30.1707 74.9735 29.936V29.8773V28.7389C74.9735 28.5628 74.8325 28.422 74.656 28.422H74.4095H73.928V27.3774C73.928 27.3422 73.963 27.307 73.9985 27.307H74.327C74.3625 27.307 74.3975 27.3422 74.3975 27.3774V27.8234H74.95V27.3774V27.3187C74.9615 27.084 74.7735 26.8962 74.5505 26.8962Z" fill="#296FF5"/>
</svg>
