<svg width="80" height="40" viewBox="0 0 80 40" fill="none" xmlns="http://www.w3.org/2000/svg">
<g clip-path="url(#clip0_10_7248)">
<path d="M8.16824 23.3599C8.48824 23.3599 8.76824 23.2933 9.03489 23.1733C9.30159 23.0399 9.51489 22.8799 9.70159 22.6533C9.88824 22.4399 10.0216 22.1866 10.1282 21.8933C10.2216 21.5999 10.2749 21.2933 10.2749 20.9599C10.2749 20.5066 10.1416 20.1333 9.88824 19.8266C9.63489 19.5199 9.26159 19.3733 8.76824 19.3733C8.47489 19.3733 8.19489 19.4399 7.92824 19.5599C7.66159 19.6933 7.43489 19.8666 7.24824 20.08C7.06159 20.3066 6.90159 20.56 6.79489 20.8533C6.68824 21.1466 6.63489 21.4533 6.63489 21.7733C6.63489 22.24 6.78159 22.6266 7.06159 22.92C7.31489 23.2133 7.68824 23.3599 8.16824 23.3599Z" fill="#E8561B"/>
<path d="M16.1014 19.2666C15.8347 19.2666 15.5947 19.3066 15.3814 19.4132C15.1681 19.5066 14.9814 19.6266 14.8214 19.7733C14.6614 19.92 14.5281 20.0932 14.4347 20.2666C14.3281 20.4399 14.2614 20.6133 14.2347 20.7733H17.4214C17.4347 20.72 17.4347 20.6533 17.4347 20.6133C17.4347 20.56 17.4347 20.5066 17.4347 20.4533C17.4347 20.12 17.3147 19.84 17.0881 19.6133C16.8614 19.3733 16.5281 19.2666 16.1014 19.2666Z" fill="#E8561B"/>
<path d="M28.4082 13.7999C26.9815 10.4533 20.4215 9.7733 11.4349 13.56C10.0615 14.1333 8.82152 14.7467 7.68822 15.3733L6.95487 19.2799H6.98152C7.23487 18.9199 7.54152 18.64 7.92822 18.44C8.31487 18.24 8.72822 18.1333 9.19487 18.1333C9.58152 18.1333 9.94152 18.2 10.2615 18.32C10.5815 18.4533 10.8482 18.6267 11.0749 18.8667C11.3015 19.1067 11.4749 19.3867 11.5949 19.7066C11.7149 20.0266 11.7815 20.3867 11.7815 20.7866C11.7815 21.32 11.7015 21.8133 11.5282 22.2666C11.3549 22.7199 11.1282 23.1333 10.8349 23.4799C10.5415 23.8266 10.1815 24.0933 9.76822 24.2933C9.35487 24.4933 8.90152 24.6 8.40822 24.6C7.95487 24.6 7.51487 24.4933 7.11487 24.2933C6.71487 24.0933 6.40822 23.7866 6.20822 23.4H6.18152L6.00822 24.4533H4.6082L6.02152 16.4C0.99487 19.6533 -0.96513 23.28 0.128204 25.8533C1.55487 29.1999 9.03487 29.24 16.8482 25.92C18.1149 25.3733 19.3149 24.7866 20.4349 24.1466C20.1949 23.8933 20.0749 23.5733 20.0749 23.16C20.0749 23.04 20.0882 22.9067 20.0882 22.7733C20.1015 22.6399 20.1149 22.5066 20.1415 22.3867L20.6615 19.5466H19.5682L19.7815 18.32H20.8482L21.1549 16.5333H22.6349L22.3282 18.32H23.7015L23.4882 19.5466H22.1282L21.5949 22.4133C21.5682 22.5333 21.5549 22.6533 21.5549 22.7733C21.5549 22.9867 21.6215 23.1466 21.7549 23.2266C21.7815 23.24 21.8215 23.2666 21.8482 23.2799C26.7282 20.1333 29.5015 16.36 28.4082 13.7999ZM18.7682 21.16C18.7415 21.4 18.7015 21.6267 18.6482 21.84H14.1015C14.0882 21.88 14.0882 21.9333 14.0882 21.9867C14.0882 22.1867 14.1282 22.3733 14.2082 22.5466C14.2882 22.7199 14.3949 22.8666 14.5415 22.9866C14.6882 23.1067 14.8615 23.2133 15.0482 23.2799C15.2482 23.3466 15.4615 23.3867 15.6882 23.3867C16.0749 23.3867 16.4082 23.32 16.6882 23.1733C16.9682 23.0266 17.2082 22.8266 17.4349 22.5867L18.2882 23.3867C17.5282 24.2 16.6082 24.6133 15.5149 24.6133C15.1015 24.6133 14.7149 24.5466 14.3682 24.4266C14.0215 24.3066 13.7149 24.1199 13.4615 23.8933C13.2082 23.6666 13.0082 23.3866 12.8615 23.0399C12.7149 22.7066 12.6482 22.3199 12.6482 21.8799C12.6482 21.3466 12.7415 20.8666 12.9149 20.4C13.0882 19.9466 13.3415 19.5466 13.6615 19.1999C13.9815 18.8533 14.3549 18.5867 14.7949 18.4C15.2349 18.2133 15.7149 18.1066 16.2349 18.1066C16.5949 18.1066 16.9415 18.1599 17.2482 18.2666C17.5549 18.3733 17.8349 18.52 18.0615 18.72C18.2882 18.92 18.4749 19.1733 18.5949 19.4799C18.7282 19.7866 18.7815 20.1466 18.7815 20.5599C18.7949 20.7333 18.7815 20.92 18.7682 21.16Z" fill="#E8561B"/>
<path d="M33.7015 19.24L33.8615 18.3066H35.2881L34.3148 23.92C34.2215 24.4533 34.0881 24.9466 33.9015 25.3866C33.7281 25.8266 33.4881 26.2133 33.1815 26.52C32.8881 26.84 32.5148 27.08 32.0748 27.2533C31.6348 27.4266 31.1015 27.5066 30.4748 27.5066C30.2215 27.5066 29.9548 27.48 29.6881 27.44C29.4215 27.4 29.1415 27.32 28.8881 27.2266C28.6215 27.1333 28.3681 27.0132 28.1415 26.8799C27.9015 26.7466 27.7015 26.5866 27.5281 26.4132L28.5281 25.32C28.7681 25.6 29.0615 25.8133 29.4081 25.9733C29.7548 26.12 30.1281 26.1999 30.5148 26.1999C30.8881 26.1999 31.2081 26.1466 31.4615 26.0399C31.7281 25.9333 31.9415 25.7866 32.1148 25.6C32.2881 25.4133 32.4348 25.1866 32.5415 24.92C32.6481 24.6533 32.7281 24.3733 32.7948 24.0666L32.9015 23.5732H32.8881C32.6615 23.8666 32.3681 24.1066 32.0081 24.2799C31.6481 24.4532 31.2348 24.5466 30.7681 24.5466C30.3815 24.5466 30.0215 24.4799 29.7015 24.3599C29.3815 24.2266 29.1148 24.0532 28.8881 23.8266C28.6615 23.5999 28.4881 23.32 28.3681 23C28.2481 22.68 28.1815 22.32 28.1815 21.9333C28.1815 21.4133 28.2615 20.92 28.4348 20.4666C28.5948 20.0133 28.8348 19.6 29.1281 19.2533C29.4215 18.9066 29.7815 18.64 30.1948 18.44C30.6081 18.24 31.0615 18.1466 31.5548 18.1466C32.1148 18.1466 32.5681 18.2533 32.9148 18.4533C33.2615 18.6533 33.5148 18.92 33.6748 19.24H33.7015ZM29.7148 21.7332C29.7148 22.1866 29.8481 22.5599 30.1015 22.8666C30.3681 23.1733 30.7281 23.32 31.2215 23.32C31.5148 23.32 31.7948 23.2532 32.0615 23.1332C32.3281 22.9999 32.5548 22.8266 32.7415 22.6133C32.9281 22.3866 33.0881 22.1333 33.1948 21.8533C33.3015 21.56 33.3548 21.2533 33.3548 20.9333C33.3548 20.4666 33.2215 20.08 32.9281 19.7866C32.6481 19.4933 32.2615 19.3466 31.7948 19.3466C31.4748 19.3466 31.1948 19.4133 30.9281 19.5333C30.6748 19.6666 30.4481 19.8266 30.2615 20.0532C30.0748 20.2666 29.9415 20.5199 29.8348 20.8132C29.7681 21.0932 29.7148 21.3999 29.7148 21.7332Z" fill="#E8561B"/>
<path d="M40.2082 20.5599C40.2215 20.4533 40.2349 20.3733 40.2349 20.3199C40.2349 20.2666 40.2482 20.2133 40.2482 20.1599C40.2482 19.8666 40.1549 19.6533 39.9549 19.52C39.7682 19.3867 39.4749 19.3333 39.1015 19.3333C38.8082 19.3333 38.4882 19.3867 38.1815 19.5067C37.8615 19.6267 37.5815 19.7733 37.3282 19.9466L36.7549 18.9333C37.1015 18.6799 37.5015 18.4933 37.9549 18.3466C38.4082 18.1999 38.8615 18.1333 39.3282 18.1333C39.6215 18.1333 39.9015 18.16 40.1949 18.2267C40.4882 18.2933 40.7415 18.4 40.9682 18.5333C41.1949 18.68 41.3682 18.8666 41.5149 19.1066C41.6482 19.3466 41.7149 19.6266 41.7149 19.9866C41.7149 20.0666 41.7149 20.1599 41.7015 20.2666C41.6882 20.3733 41.6749 20.4799 41.6615 20.5599L41.2082 23.0533C41.1682 23.2933 41.1282 23.5333 41.1015 23.7999C41.0749 24.0533 41.0615 24.2666 41.0615 24.4399H39.6882C39.6882 24.2133 39.7149 23.9733 39.7682 23.7066H39.7415C39.2615 24.2799 38.5949 24.5599 37.7415 24.5599C37.5282 24.5599 37.3015 24.5333 37.0749 24.4799C36.8482 24.4266 36.6349 24.3466 36.4482 24.2133C36.2615 24.0933 36.1015 23.9199 35.9815 23.7199C35.8615 23.5066 35.8082 23.2533 35.8082 22.9333C35.8082 22.4266 35.9415 22.0266 36.2082 21.7199C36.4749 21.4133 36.8215 21.1599 37.2482 20.9866C37.6749 20.8133 38.1549 20.6933 38.6749 20.6399C39.1949 20.5866 39.7015 20.5599 40.2082 20.5599ZM39.8882 21.6266C39.5949 21.6266 39.3015 21.6399 38.9815 21.6533C38.6749 21.6799 38.3815 21.7199 38.1282 21.7999C37.8615 21.8799 37.6615 21.9866 37.4882 22.1333C37.3282 22.2666 37.2349 22.4666 37.2349 22.7066C37.2349 22.8533 37.2615 22.9733 37.3149 23.0666C37.3682 23.1599 37.4482 23.2399 37.5415 23.3066C37.6349 23.3599 37.7415 23.4133 37.8615 23.4399C37.9815 23.4666 38.1015 23.4799 38.2349 23.4799C38.4615 23.4799 38.6749 23.4399 38.8749 23.3599C39.0749 23.2799 39.2482 23.1733 39.3949 23.0533C39.5415 22.9199 39.6615 22.7733 39.7682 22.5866C39.8615 22.4133 39.9415 22.2266 39.9815 22.0133L40.0615 21.6266H39.8882Z" fill="#E8561B"/>
<path d="M43.5683 19C43.6083 18.7466 43.635 18.52 43.6483 18.3066H45.0483C45.035 18.4 45.0216 18.5466 44.995 18.76C44.9683 18.96 44.955 19.1332 44.9283 19.2666H44.955C45.1416 18.9732 45.3816 18.72 45.6883 18.4933C45.995 18.2666 46.3816 18.1466 46.8483 18.1466C47.355 18.1466 47.7683 18.2532 48.0749 18.48C48.3816 18.7066 48.5949 18.9866 48.6883 19.3466C48.9549 18.9732 49.2616 18.68 49.6216 18.4666C49.9816 18.2533 50.395 18.1466 50.8615 18.1466C51.2215 18.1466 51.5285 18.1999 51.7815 18.2932C52.035 18.3999 52.2485 18.5333 52.4215 18.7066C52.595 18.88 52.715 19.08 52.795 19.32C52.875 19.56 52.915 19.7999 52.915 20.0533C52.915 20.2666 52.9015 20.4533 52.8615 20.6266L52.1815 24.44H50.6885L51.275 21.0666C51.2885 20.96 51.3015 20.8666 51.315 20.76C51.3285 20.6533 51.3285 20.56 51.3285 20.4533C51.3285 20.32 51.315 20.1866 51.275 20.0533C51.235 19.92 51.1815 19.8133 51.115 19.72C51.035 19.6266 50.9285 19.5466 50.8085 19.4933C50.6885 19.44 50.515 19.4 50.315 19.4C50.075 19.4 49.8616 19.4533 49.6749 19.5466C49.4883 19.6533 49.3283 19.7866 49.1816 19.9466C49.035 20.1066 48.9283 20.2933 48.8483 20.4933C48.7683 20.6933 48.7016 20.8933 48.6749 21.0933L48.0883 24.44H46.5816L47.235 20.7333C47.2616 20.6 47.2749 20.4933 47.2749 20.3866C47.2749 20.0933 47.195 19.8666 47.0483 19.68C46.9016 19.4933 46.6616 19.4 46.3283 19.4C46.1016 19.4 45.8883 19.4533 45.7016 19.5466C45.515 19.64 45.355 19.7733 45.2216 19.92C45.0883 20.0666 44.9683 20.2533 44.8883 20.4533C44.795 20.6533 44.7416 20.8533 44.7016 21.0533L44.1016 24.4266H42.6216L43.4616 19.6133C43.5016 19.4666 43.5283 19.2533 43.5683 19Z" fill="#E8561B"/>
<path d="M55.3815 21.84C55.3685 21.88 55.3685 21.9332 55.3685 21.9732C55.3685 22.1732 55.4085 22.36 55.4885 22.5333C55.5685 22.7066 55.675 22.8532 55.8215 22.9732C55.9685 23.0932 56.1415 23.1999 56.3285 23.2666C56.5285 23.3332 56.7415 23.3732 56.9685 23.3732C57.355 23.3732 57.7015 23.3066 57.9685 23.16C58.2485 23.0133 58.4885 22.8132 58.715 22.5732L59.5685 23.3732C58.8085 24.1866 57.8885 24.6 56.795 24.6C56.3815 24.6 55.995 24.5332 55.6485 24.4132C55.3015 24.2933 54.995 24.1066 54.7415 23.8799C54.4885 23.6532 54.2885 23.3733 54.1415 23.0266C53.995 22.6932 53.9285 22.3066 53.9285 21.8666C53.9285 21.3333 54.0215 20.84 54.195 20.3866C54.3685 19.9333 54.6215 19.5332 54.9415 19.1866C55.2615 18.8399 55.635 18.5866 56.075 18.3866C56.515 18.2 56.995 18.0933 57.515 18.0933C57.875 18.0933 58.2215 18.1466 58.5285 18.24C58.835 18.3466 59.115 18.4933 59.3415 18.7066C59.5685 18.9066 59.755 19.16 59.875 19.4666C60.0085 19.7733 60.0615 20.1333 60.0615 20.5466C60.0615 20.68 60.0485 20.8666 60.0215 21.1199C59.995 21.3599 59.955 21.5866 59.9015 21.7999H55.3815V21.84ZM58.7015 20.7733C58.715 20.72 58.715 20.6533 58.715 20.6133C58.715 20.56 58.715 20.5066 58.715 20.4533C58.715 20.12 58.595 19.84 58.3685 19.6133C58.1285 19.3866 57.8085 19.2666 57.3815 19.2666C57.115 19.2666 56.875 19.3066 56.6615 19.4132C56.4485 19.5066 56.2615 19.6266 56.1015 19.7733C55.9415 19.92 55.8085 20.0932 55.715 20.2666C55.6085 20.4399 55.5415 20.6133 55.515 20.7733H58.7015Z" fill="#E8561B"/>
<path d="M61.475 22.6799C61.608 22.9332 61.795 23.1199 62.048 23.2533C62.3015 23.3866 62.5815 23.4533 62.888 23.4533C63.235 23.4533 63.515 23.3866 63.728 23.2533C63.9415 23.1199 64.035 22.9333 64.035 22.6933C64.035 22.4666 63.955 22.3066 63.7815 22.1999C63.6215 22.0932 63.355 21.9866 62.9815 21.8666C62.688 21.7733 62.435 21.6799 62.2215 21.5732C62.008 21.4799 61.8215 21.3599 61.675 21.2266C61.528 21.0933 61.4215 20.9466 61.355 20.7733C61.288 20.5999 61.248 20.3999 61.248 20.1733C61.248 19.8799 61.315 19.5999 61.448 19.3599C61.5815 19.1066 61.768 18.9066 62.008 18.7199C62.248 18.5466 62.528 18.3999 62.848 18.3066C63.168 18.2133 63.528 18.1599 63.915 18.1599C64.395 18.1599 64.8215 18.2532 65.208 18.4266C65.595 18.5999 65.9015 18.8666 66.128 19.2266L64.968 19.9199C64.8615 19.7466 64.715 19.6132 64.528 19.4932C64.355 19.3732 64.1015 19.3199 63.795 19.3199C63.6615 19.3199 63.5415 19.3332 63.408 19.3599C63.275 19.3866 63.155 19.4266 63.0615 19.4799C62.955 19.5333 62.875 19.6133 62.808 19.7066C62.7415 19.7999 62.715 19.9199 62.715 20.0532C62.715 20.2532 62.795 20.3999 62.968 20.4932C63.128 20.5866 63.3815 20.6799 63.7015 20.7733C64.275 20.9333 64.715 21.1599 65.035 21.4266C65.355 21.7066 65.5015 22.0933 65.5015 22.6133C65.5015 22.9599 65.435 23.2532 65.288 23.5199C65.1415 23.7732 64.955 23.9999 64.7015 24.1733C64.4615 24.3466 64.1815 24.4799 63.8615 24.5732C63.5415 24.6666 63.208 24.7066 62.848 24.7066C62.1815 24.7066 61.648 24.5866 61.248 24.3599C60.848 24.1199 60.528 23.8399 60.328 23.4799L61.475 22.6799Z" fill="#E8561B"/>
<path d="M68.1415 23.52C68.1415 23.7867 68.0485 24.0133 67.8615 24.2C67.675 24.3867 67.4485 24.4933 67.195 24.4933C66.9415 24.4933 66.715 24.4133 66.5415 24.2533C66.355 24.0933 66.2615 23.8667 66.2615 23.5733C66.2615 23.2933 66.355 23.0666 66.555 22.88C66.755 22.6933 66.9815 22.6 67.235 22.6C67.4885 22.6 67.7015 22.68 67.875 22.8533C68.0615 23.0133 68.1415 23.24 68.1415 23.52Z" fill="#E8561B"/>
<path d="M69.0885 19.5333L69.3015 18.3065H70.3685L70.675 16.5199H72.155L71.848 18.3065H73.235L73.0215 19.5333H71.6615L71.1285 22.3999C71.1015 22.5333 71.0885 22.6399 71.0885 22.7599C71.0885 22.9865 71.155 23.1332 71.2885 23.2132C71.4215 23.2932 71.595 23.3333 71.8215 23.3333C71.9285 23.3333 72.0215 23.3332 72.1285 23.3065C72.2215 23.2932 72.315 23.2799 72.408 23.2533L72.315 24.3866C72.1815 24.4399 72.035 24.4799 71.8615 24.5065C71.6885 24.5332 71.528 24.5466 71.3815 24.5466C70.728 24.5466 70.275 24.4133 69.995 24.1599C69.715 23.9066 69.5815 23.5599 69.5815 23.1332C69.5815 23.0132 69.595 22.8799 69.595 22.7465C69.6085 22.6132 69.6215 22.4799 69.648 22.3599L70.1685 19.5199H69.0885V19.5333Z" fill="#E8561B"/>
<path d="M76.195 24.44H74.5815L73.3815 18.3067H74.955L75.6615 22.8H75.6885L78.2485 18.3067H79.835L76.195 24.44Z" fill="#E8561B"/>
</g>
<defs>
<clipPath id="clip0_10_7248">
<rect width="80" height="40" fill="white"/>
</clipPath>
</defs>
</svg>
