<svg width="80" height="40" viewBox="0 0 80 40" fill="none" xmlns="http://www.w3.org/2000/svg">
<path d="M8.34493 20.549C10.8724 20.549 13.3809 20.549 15.8894 20.549C16.1745 20.9737 16.3645 21.4467 16.4405 21.9486C16.4976 22.2768 16.5166 22.6243 16.5166 22.9621C16.5261 24.8637 16.5451 26.7653 16.5261 28.6572C16.5166 30.2595 15.7754 31.4758 14.4451 32.3156C13.8655 32.6824 13.2194 32.8464 12.5353 32.8561C11.1765 32.8657 9.81773 32.8561 8.44948 32.8561C8.41148 32.8561 8.37343 32.8464 8.32593 32.8464C8.34493 28.7537 8.34493 24.661 8.34493 20.549ZM11.0815 21.4177C11.0815 24.3135 11.0815 27.1803 11.0815 30.0665C11.5661 30.0665 12.0317 30.0665 12.5068 30.0665C12.8203 30.0665 13.0769 29.9313 13.3049 29.7286C13.6185 29.4391 13.7705 29.0723 13.7705 28.6379C13.7705 26.7846 13.7895 24.9313 13.7895 23.078C13.7895 22.9042 13.78 22.7401 13.761 22.5664C13.6755 21.9293 13.1339 21.437 12.4973 21.4177C12.2597 21.4081 12.0222 21.4177 11.7941 21.4177C11.5661 21.4177 11.3285 21.4177 11.0815 21.4177Z" fill="white"/>
<path d="M8.34497 19.4774C8.34497 15.3654 8.34497 11.2823 8.34497 7.18C8.40197 7.17035 8.44947 7.17035 8.50647 7.17035C9.73222 7.17035 10.958 7.17035 12.1742 7.17035C14.3407 7.17035 15.6899 8.76305 16.07 10.0468C16.2125 10.5101 16.2695 10.9735 16.2695 11.4561C16.2695 13.377 16.2695 15.2978 16.2695 17.2187C16.2695 17.9813 16.0795 18.6956 15.6899 19.3519C15.6709 19.3906 15.6424 19.4292 15.6139 19.4774C13.2004 19.4774 10.7774 19.4774 8.34497 19.4774ZM11.053 18.6087C11.4521 18.6087 11.8227 18.6087 12.1932 18.6087C12.6398 18.599 12.9914 18.3963 13.2574 18.0295C13.457 17.7689 13.514 17.46 13.514 17.1318C13.5045 15.8577 13.5045 14.5835 13.5045 13.3094C13.5045 12.653 13.5045 11.9966 13.5045 11.3403C13.495 10.5294 12.8584 9.931 12.1267 9.95995C11.8322 9.9696 11.5376 9.95995 11.2335 9.95995C11.1765 9.95995 11.1195 9.9696 11.053 9.97925C11.053 12.8557 11.053 15.7226 11.053 18.6087Z" fill="white"/>
<path d="M46.9891 20.52C47.9108 20.52 48.7944 20.52 49.6971 20.52C49.6971 20.6262 49.6971 20.713 49.6971 20.7999C49.6971 23.3675 49.6876 25.9254 49.6876 28.493C49.6876 28.6861 49.7066 28.8791 49.7446 29.0625C49.8586 29.5644 50.3625 30.1146 51.1605 30.0567C51.778 30.0181 52.31 29.5259 52.405 28.8985C52.424 28.7633 52.4335 28.6185 52.4335 28.4834C52.4335 25.9255 52.4335 23.3772 52.4335 20.8192C52.4335 20.7227 52.4335 20.6358 52.4335 20.5296C53.346 20.5296 54.2295 20.5296 55.151 20.5296C55.151 20.6069 55.1605 20.684 55.1605 20.7612C55.1605 22.9427 55.1605 25.1339 55.1605 27.3154C55.1605 27.8559 55.1605 28.3965 55.1415 28.937C55.0655 30.8386 53.574 32.5279 51.721 32.8174C49.5831 33.1553 47.5877 31.8039 47.0841 29.6803C46.9986 29.3039 46.9701 28.9178 46.9701 28.5317C46.9796 25.9641 46.9796 23.3868 46.9796 20.8192C46.9891 20.7227 46.9891 20.6262 46.9891 20.52Z" fill="#FAE309"/>
<path d="M49.6972 19.4291C48.785 19.4291 47.9013 19.4291 46.9986 19.4291C46.9986 19.3615 46.9891 19.2939 46.9891 19.2264C46.9891 17.3152 46.9891 15.3943 46.9891 13.4831C46.9891 12.7591 46.9891 12.0352 46.9986 11.3016C47.0366 9.67995 47.7778 8.4637 49.1366 7.66255C50.6 6.80345 52.738 6.9772 54.106 8.52165C54.828 9.3421 55.17 10.2977 55.1605 11.3981C55.151 13.9753 55.151 16.5526 55.151 19.1395C55.151 19.2264 55.151 19.3229 55.151 19.4291C54.239 19.4291 53.346 19.4291 52.424 19.4291C52.424 19.3326 52.424 19.236 52.424 19.1492C52.424 16.6105 52.424 14.0719 52.424 11.5236C52.424 11.3691 52.4145 11.2147 52.386 11.0603C52.253 10.346 51.6545 9.90195 50.904 9.9599C50.2485 10.0178 49.6972 10.6162 49.6972 11.3016C49.6877 12.3054 49.6972 13.3093 49.6877 14.3132C49.6877 15.9252 49.6877 17.5372 49.6877 19.1588C49.6972 19.2553 49.6972 19.3326 49.6972 19.4291Z" fill="#FAE309"/>
<path d="M39.7107 20.5103C39.7677 20.5103 39.8247 20.5103 39.8817 20.5103C41.231 20.5103 42.5708 20.5103 43.92 20.5103C44.0721 20.5103 44.1671 20.549 44.2621 20.6744C44.7942 21.3984 45.1268 22.2092 45.2883 23.0972C45.3833 23.6474 45.4213 24.1976 45.4118 24.7575C45.4023 25.8193 45.4118 26.8714 45.4023 27.9332C45.3928 28.4062 45.3928 28.8791 45.3358 29.3424C45.1268 31.051 43.578 32.663 41.7441 32.8464C39.4826 33.0684 37.8008 31.495 37.3732 29.8637C37.2687 29.4776 37.2117 29.0819 37.2212 28.6765C37.2307 28.0877 37.2212 27.4988 37.2307 26.9196C37.2307 26.8617 37.2402 26.8039 37.2497 26.7266C38.1524 26.7266 39.0361 26.7266 39.9482 26.7266C39.9482 26.8135 39.9577 26.8907 39.9577 26.9679C39.9482 27.5084 39.9482 28.049 39.9387 28.5896C39.9292 29.0047 40.0433 29.3714 40.3378 29.661C40.7369 30.0567 41.212 30.163 41.7251 29.9892C42.2382 29.8251 42.5613 29.4486 42.6563 28.8888C42.6753 28.8019 42.6848 28.7054 42.6848 28.6089C42.6753 27.4506 42.6848 26.2922 42.6658 25.1339C42.6468 24.1204 42.3617 23.1841 41.7346 22.3829C41.5256 22.1223 41.2785 21.881 41.0315 21.659C40.6419 21.3115 40.2238 20.9736 39.8247 20.6358C39.7867 20.6068 39.7392 20.5779 39.7012 20.549C39.6917 20.549 39.7012 20.5296 39.7107 20.5103Z" fill="#FAE309"/>
<path d="M45.4404 13.2996C44.5377 13.2996 43.6445 13.2996 42.7418 13.2996C42.7418 13.2127 42.7323 13.1355 42.7323 13.0582C42.7323 12.4984 42.7418 11.9482 42.7323 11.3883C42.7323 10.9733 42.5993 10.5968 42.2858 10.3072C41.8962 9.9501 41.4306 9.86325 40.946 10.0273C40.4519 10.1914 40.1383 10.5582 40.0338 11.0891C40.0148 11.2049 40.0053 11.3208 40.0053 11.4366C39.9958 12.4598 39.9958 13.4733 39.9958 14.4965C39.9958 15.2494 40.1098 15.9734 40.4044 16.6587C40.6799 17.2958 41.0885 17.846 41.6111 18.29C42.0387 18.6568 42.4758 19.0236 42.9319 19.4097C42.8559 19.429 42.8084 19.4387 42.7608 19.4387C41.3925 19.4387 40.0243 19.4387 38.656 19.4387C38.523 19.4387 38.447 19.3808 38.3805 19.2842C37.8579 18.5796 37.5443 17.7784 37.3923 16.9193C37.2973 16.3691 37.2592 15.8189 37.2687 15.2591C37.2782 14.1876 37.2687 13.1162 37.2782 12.0447C37.2877 11.5814 37.2877 11.1181 37.3447 10.6644C37.5443 9.1007 38.9031 7.4887 40.7084 7.20875C43.1219 6.8323 44.8513 8.47325 45.3074 10.1528C45.4119 10.5389 45.4689 10.9347 45.4594 11.3401C45.4499 11.9289 45.4593 12.5177 45.4498 13.0969C45.4498 13.1644 45.4404 13.232 45.4404 13.2996Z" fill="#FAE309"/>
<path d="M25.6003 20.5295C25.6003 20.8287 25.6003 21.1087 25.6003 21.4079C24.1465 21.4079 22.7117 21.4079 21.258 21.4079C21.258 24.294 21.258 27.1609 21.258 30.0663C22.7022 30.0663 24.1465 30.0663 25.6003 30.0663C25.6003 31.0123 25.6003 31.9293 25.6003 32.8559C23.2343 32.8559 20.8874 32.8559 18.5499 32.8559C18.5024 32.6822 18.4834 21.0894 18.5309 20.5295C20.8684 20.5295 23.2248 20.5295 25.6003 20.5295Z" fill="white"/>
<path d="M18.5215 19.4388C18.5215 15.3461 18.5215 11.263 18.5215 7.17035C20.878 7.17035 23.2249 7.17035 25.5814 7.17035C25.5814 8.10665 25.5814 9.02365 25.5814 9.95995C24.1371 9.95995 22.7023 9.95995 21.2295 9.95995C21.22 12.8461 21.2295 15.7129 21.22 18.599C22.6833 18.599 24.1371 18.599 25.6099 18.599C25.6099 18.8886 25.6099 19.1589 25.6099 19.4388C23.2439 19.4388 20.8875 19.4388 18.5215 19.4388Z" fill="white"/>
<path d="M57.0135 7.17035C59.3986 7.17035 61.7646 7.17035 64.1306 7.17035C64.1781 7.3441 64.1781 9.6897 64.1306 9.95995C62.6766 9.95995 61.2231 9.95995 59.7596 9.95995C59.7596 12.8461 59.7596 15.7032 59.7596 18.599C61.2136 18.6087 62.6671 18.599 64.1496 18.599C64.1781 18.879 64.1686 19.1396 64.1591 19.4195C61.7741 19.4195 59.3986 19.4195 57.0135 19.4195C57.0135 15.3461 57.0135 11.2727 57.0135 7.17035Z" fill="#FAE309"/>
<path d="M70.6679 19.4388C69.7269 19.4388 68.834 19.4388 67.912 19.4388C67.912 16.2824 67.912 13.1356 67.912 9.9696C66.9905 9.9696 66.0975 9.9696 65.2135 9.9696C65.1565 9.7862 65.1565 7.43095 65.204 7.17035C67.836 7.17035 70.4684 7.17035 73.1194 7.17035C73.1194 8.08735 73.1194 9.00435 73.1194 9.94065C72.9099 9.9696 72.7104 9.9503 72.5109 9.95995C72.3019 9.95995 72.1024 9.95995 71.8934 9.95995C71.6939 9.95995 71.4944 9.95995 71.3044 9.95995C71.1049 9.95995 70.8959 9.95995 70.6679 9.95995C70.6679 13.1356 70.6679 16.2824 70.6679 19.4388Z" fill="#FAE309"/>
<path d="M27.5198 9.9792C27.5198 9.03325 27.5198 8.11625 27.5198 7.17995C30.1613 7.17995 32.7838 7.17995 35.4253 7.17995C35.4253 8.0873 35.4253 9.0043 35.4253 9.95025C34.6177 9.96955 33.81 9.95025 32.9834 9.96955C32.9834 13.1259 32.9834 16.2727 32.9834 19.4387C32.0617 19.4387 31.159 19.4387 30.2468 19.4387C30.2468 16.292 30.2468 13.1452 30.2468 9.9792C29.3251 9.9792 28.432 9.9792 27.5198 9.9792Z" fill="white"/>
<path d="M59.75 32.8463C58.819 32.8463 57.926 32.8463 57.0325 32.8463C57.023 32.8366 57.023 32.8366 57.0135 32.827C57.004 32.8173 57.004 32.8174 57.004 32.8077C57.004 32.7402 56.9945 32.6725 56.9945 32.605C56.9945 28.5798 56.9945 24.5643 56.9945 20.5392C57.175 20.4909 63.7885 20.4716 64.1495 20.5199C64.1495 20.7998 64.1495 21.0894 64.1495 21.3983C62.6955 21.3983 61.242 21.3983 59.769 21.3983C59.7595 23.3288 59.75 25.2304 59.75 27.132C59.75 29.0431 59.75 30.9447 59.75 32.8463Z" fill="#FAE309"/>
<path d="M67.922 32.8463C67.922 28.7343 67.922 24.6416 67.922 20.5489C68.0835 20.5006 70.297 20.4813 70.6395 20.5296C70.6395 24.6319 70.6395 28.7247 70.6395 32.8463C69.7365 32.8463 68.8435 32.8463 67.922 32.8463Z" fill="#FAE309"/>
<path d="M30.2373 32.8463C30.2373 28.7343 30.2373 24.6415 30.2373 20.5295C31.1495 20.5295 32.0427 20.5295 32.9548 20.5295C32.9548 24.6319 32.9548 28.7343 32.9548 32.827C32.7933 32.8656 30.6744 32.8849 30.2373 32.8463Z" fill="white"/>
<path d="M78.9725 24.8152C77.3665 23.2032 75.78 21.6105 74.1835 20.0082C75.78 18.4059 77.3665 16.8132 78.9535 15.2205C79.001 15.3942 79.02 24.3905 78.9725 24.8152Z" fill="#FAE309"/>
<path d="M1 24.8248C1 21.5912 1 18.4155 1 15.1915C2.61532 16.8131 4.20214 18.4058 5.79845 20.0082C4.20214 21.6201 2.61532 23.2032 1 24.8248Z" fill="#FAE309"/>
</svg>
