<svg width="80" height="40" viewBox="0 0 80 40" fill="none" xmlns="http://www.w3.org/2000/svg">
<path d="M1 12.7908H12.4305V27.2092H1V12.7908ZM3.76546 25.0293V15.4123H6.57345C7.5662 15.4123 8.332 15.626 8.8851 16.0677C9.4382 16.5094 9.7218 17.1647 9.7218 18.0338C9.7218 18.4897 9.62255 18.9029 9.424 19.2591C9.21125 19.6153 8.91345 19.8717 8.5022 20.0569C9.01275 20.1709 9.38145 20.4274 9.62255 20.8263C9.86365 21.2252 9.99125 21.6811 9.99125 22.2225C9.99125 23.1344 9.7218 23.8325 9.1971 24.3169C8.67235 24.7871 7.9349 25.0293 6.95635 25.0293H3.76546ZM5.49565 20.7836V23.5191H6.81455C7.21165 23.5191 7.50945 23.4051 7.708 23.1914C7.89235 22.9635 7.99165 22.65 7.99165 22.2083C7.99165 21.7524 7.90655 21.3962 7.75055 21.154C7.58035 20.8975 7.3109 20.7836 6.9422 20.7836H5.49565ZM5.49565 19.4729H6.5309C6.9138 19.4586 7.21165 19.3446 7.4102 19.1309C7.60875 18.9172 7.708 18.618 7.708 18.2048C7.708 17.7631 7.60875 17.4355 7.396 17.2218C7.18325 17.0081 6.87125 16.9083 6.4458 16.9083H5.49565V19.4729Z" fill="#FFCC29"/>
<path d="M20.8262 23.4336C20.6134 23.8182 20.2589 24.1744 19.7625 24.4736C19.2662 24.7871 18.6422 24.9438 17.8763 24.9438C16.8694 24.9438 16.0611 24.6304 15.4512 24.0177C14.8414 23.4193 14.5294 22.536 14.5294 21.4104V18.561C14.5294 17.4497 14.8272 16.5806 15.4087 15.9823C15.9902 15.3696 16.756 15.0562 17.7203 15.0562C18.6989 15.0562 19.4505 15.3126 19.9611 15.797C20.4858 16.2957 20.7552 16.9938 20.7978 17.8771L20.7836 17.9198H19.5214C19.4931 17.3215 19.3371 16.8655 19.0392 16.5521C18.7556 16.2244 18.316 16.0677 17.7345 16.0677C17.1531 16.0677 16.6992 16.2814 16.3589 16.7089C16.0185 17.122 15.8625 17.7346 15.8625 18.5467V21.4104C15.8625 22.2225 16.0327 22.8494 16.4014 23.2768C16.756 23.7185 17.2523 23.9322 17.8763 23.9322C18.3302 23.9322 18.6847 23.8468 18.94 23.6901C19.1811 23.5333 19.3796 23.3338 19.4931 23.0917V20.9118H17.8622V19.943H20.8262V23.4336Z" fill="white"/>
<path d="M24.0596 27.2092H23.3931V12.7908H24.0596V27.2092ZM35.7312 27.2092H35.0647V12.7908H35.7312V27.2092ZM47.3462 27.2092H46.6938V12.7908H47.3462V27.2092ZM70.6895 27.2092H70.023V12.7908H70.6895V27.2092ZM59.018 27.2092H58.3515V12.7908H59.018V27.2092Z" fill="white" fill-opacity="0.3"/>
<path d="M28.2574 21.5102H30.6966L29.5054 17.3072H29.4628L28.2574 21.5102ZM31.0086 22.5645H27.9596L27.2647 24.9865H25.9032L28.853 15.3839H30.1294L33.0508 24.9865H31.7036L31.0086 22.5645Z" fill="white"/>
<path d="M38.9505 15.3839L41.1912 23.2199H41.2337L43.4745 15.3839H45.1905V24.9865H43.8716V21.2965L43.985 17.6064L43.9425 17.5922L41.645 24.9865H40.7657L38.4683 17.6064H38.4399L38.5534 21.2965V24.9865H37.2345V15.3839H38.9505Z" fill="white"/>
<path d="M53.4726 24.9865H52.1541V15.3839H53.4726V24.9865Z" fill="white"/>
<path d="M67.8245 24.9865H66.506L62.8755 17.8486H62.8325V24.9865H61.4995V15.3839H62.8325L66.4635 22.5075L66.506 22.4932V15.3839H67.8245V24.9865Z" fill="white"/>
<path d="M79 23.4905C78.773 23.8752 78.4185 24.2172 77.922 24.5306C77.44 24.844 76.802 24.9865 76.036 24.9865C75.0435 24.9865 74.2205 24.6873 73.611 24.0747C73.001 23.462 72.689 22.593 72.689 21.4674V18.618C72.689 17.5067 72.987 16.6376 73.5685 16.025C74.15 15.4123 74.93 15.1131 75.894 15.1131C76.8585 15.1131 77.61 15.3554 78.135 15.854C78.6455 16.3527 78.915 17.0365 78.9575 17.9341L78.9435 17.9769H77.681C77.667 17.3642 77.4965 16.9083 77.213 16.5949C76.9155 16.2814 76.49 16.1247 75.9085 16.1247C75.327 16.1247 74.873 16.3384 74.5325 16.7516C74.1925 17.179 74.022 17.7917 74.022 18.5895V21.4532C74.022 22.2795 74.2065 22.9064 74.561 23.3339C74.93 23.7613 75.412 23.975 76.036 23.975C76.49 23.975 76.8445 23.9037 77.0995 23.747C77.355 23.5903 77.5395 23.3908 77.667 23.1486V20.9688H76.022V19.9857H79V23.4905Z" fill="white"/>
<path d="M3.7655 25.0293V15.4123H6.5735C7.56625 15.4123 8.33205 15.6261 8.88515 16.0678C9.43825 16.5094 9.72185 17.1648 9.72185 18.0338C9.72185 18.4898 9.6226 18.9029 9.42405 19.2591C9.2113 19.6153 8.9135 19.8717 8.50225 20.057C9.0128 20.1709 9.3815 20.4274 9.6226 20.8263C9.8637 21.2252 9.9913 21.6812 9.9913 22.2226C9.9913 23.1344 9.72185 23.8325 9.19715 24.3169C8.6724 24.7871 7.93495 25.0293 6.9564 25.0293H3.7655Z" fill="#040404"/>
<path d="M5.49561 20.7836V23.5191H6.81451C7.21161 23.5191 7.50941 23.4051 7.70796 23.1914C7.89231 22.9635 7.99161 22.65 7.99161 22.2083C7.99161 21.7524 7.90651 21.3963 7.7505 21.1541C7.58031 20.8976 7.31086 20.7836 6.94216 20.7836H5.49561Z" fill="#FFCC29"/>
<path d="M5.49561 19.4729H6.53086C6.91376 19.4586 7.21161 19.3446 7.41016 19.1309C7.60871 18.9172 7.70796 18.618 7.70796 18.2048C7.70796 17.7631 7.60871 17.4355 7.39596 17.2218C7.18321 17.0081 6.87121 16.9083 6.44576 16.9083H5.49561V19.4729Z" fill="#FFCC29"/>
</svg>
