<svg width="80" height="40" viewBox="0 0 80 40" fill="none" xmlns="http://www.w3.org/2000/svg">
<g clip-path="url(#clip0_10_7199)">
<path d="M10.5001 10.0378C16.1141 9.55358 21.0476 13.7804 21.5318 19.4991C21.8197 22.8884 20.4587 26.2123 17.8938 28.3846C14.2166 31.4992 8.91665 31.5777 5.14782 28.6071C0.698509 25.0869 -0.112836 18.5569 3.34192 14.016C5.0693 11.739 7.67346 10.2995 10.5001 10.0378ZM10.5786 10.3911C5.16091 10.836 1.11727 15.6779 1.54911 21.2003C1.98096 26.7227 6.73125 30.8448 12.1489 30.3999C17.5797 29.955 21.6103 25.1262 21.1784 19.5907C20.9298 16.45 19.2417 13.6234 16.6375 11.9222C14.8447 10.7575 12.7247 10.221 10.5786 10.3911Z" fill="white"/>
<path d="M9.96354 10.9145C14.6615 10.1817 19.1632 13.1392 20.4456 17.811C21.1523 20.389 20.7728 23.2941 19.3071 25.5318C17.9723 26.1469 16.4674 26.2516 15.0279 26.1862C12.62 26.0684 10.2645 25.4272 7.84358 25.3617C6.48261 25.3225 5.08239 25.5057 3.81303 26.0684C0.737768 21.8023 1.64072 15.7957 5.8283 12.6681C7.03223 11.7521 8.45863 11.1632 9.96354 10.9145ZM11.3769 11.0978C11.1806 11.6866 10.9974 12.2755 10.8011 12.8775C10.186 12.8775 9.57096 12.8644 8.95591 12.8906C9.45318 13.257 9.95046 13.6234 10.4477 14.0029C10.2645 14.5918 10.0682 15.1807 9.88503 15.7826C10.3823 15.4162 10.8796 15.0498 11.3769 14.6834C11.8741 15.0498 12.3714 15.4162 12.8687 15.7826C12.6855 15.1937 12.4892 14.5918 12.306 14.0029C12.8033 13.6365 13.3005 13.2701 13.7978 12.8906C13.1828 12.8775 12.5677 12.8906 11.9526 12.8906C11.7564 12.2755 11.5601 11.6866 11.3769 11.0978ZM7.09766 13.414C7.03223 13.715 6.99298 14.016 6.92754 14.317L6.0246 14.4347L6.82285 14.8797C6.77051 15.1807 6.71817 15.4947 6.66582 15.7826C6.88829 15.5732 7.11075 15.3639 7.33322 15.1414C7.59494 15.2853 7.85667 15.4424 8.13148 15.5732C8.00061 15.2984 7.86975 15.0105 7.73889 14.7357C7.96135 14.5263 8.18382 14.3039 8.3932 14.0945C8.09222 14.1338 7.79123 14.173 7.49025 14.2123C7.35939 13.9767 7.22853 13.7019 7.09766 13.414ZM15.2635 14.2515L14.3605 14.1338C14.583 14.3562 14.7924 14.5656 15.0148 14.775C14.884 15.0498 14.7531 15.3377 14.6222 15.6125L15.4205 15.1807C15.643 15.39 15.8654 15.6125 16.0879 15.8219C16.0225 15.5209 15.9832 15.2068 15.9309 14.9058C16.1926 14.7619 16.4543 14.6049 16.7291 14.4609L15.8262 14.3431C15.7607 14.0422 15.7215 13.7281 15.656 13.4402C15.5252 13.7019 15.3943 13.9767 15.2635 14.2515ZM4.23178 15.5732C4.24487 15.7564 4.25796 15.9397 4.27104 16.1229L3.76068 16.3322L4.28413 16.4631C4.29722 16.6463 4.3103 16.8295 4.32339 17.0127C4.41499 16.8557 4.5066 16.6987 4.61129 16.5547L5.13473 16.6725L4.79449 16.2537L5.08239 15.7826L4.57203 15.992C4.46734 15.848 4.34956 15.7041 4.23178 15.5732ZM18.1686 15.992L17.6713 15.7826L17.9592 16.2537C17.8414 16.3977 17.7237 16.5285 17.6059 16.6725L18.1293 16.5547L18.4172 17.0127L18.4565 16.4631L18.9799 16.3322L18.4827 16.1229L18.5219 15.5732L18.1686 15.992ZM5.61892 16.9473C5.04313 17.1043 4.49351 17.4707 4.20561 18.0073C4.17944 19.8917 4.20561 21.7761 4.19253 23.6736C4.62437 23.9746 5.09547 24.184 5.60584 24.3148C6.19472 24.4719 6.79668 24.4326 7.39865 24.3933C8.00061 24.3541 8.61566 24.1971 9.0606 23.7783C9.75416 23.1632 9.96354 22.0771 9.59713 21.2134C9.40084 20.7292 8.96899 20.389 8.51098 20.1796C8.96899 19.8917 9.32232 19.3944 9.29615 18.8317C9.30923 17.8241 8.44554 16.9473 7.49025 16.8426C6.8752 16.7772 6.23398 16.7772 5.61892 16.9473ZM8.20999 16.8033C8.89048 17.052 9.33541 17.6801 9.57096 18.3475C9.87194 18.3475 10.1729 18.3475 10.4739 18.3475C10.4739 20.3628 10.4739 22.3912 10.4739 24.4064H12.0181C12.0181 22.3912 12.0181 20.3628 12.0181 18.3475C12.306 18.3475 12.5939 18.3475 12.8687 18.3475C13.3267 17.6539 13.9679 17.0651 14.7531 16.8033C12.5677 16.8164 10.3823 16.8033 8.20999 16.8033ZM14.9494 17.0127C14.1119 17.3137 13.4314 17.9157 13.0388 18.727C12.607 19.6038 12.5415 20.6114 12.6855 21.5667C12.8163 22.4697 13.2613 23.3203 13.981 23.883C14.6615 24.4195 15.5514 24.5896 16.3758 24.5242C17.2133 24.4588 18.0901 24.2232 18.7575 23.6736C18.7575 22.4697 18.7575 21.2657 18.7575 20.0487C17.92 20.0487 17.0824 20.0487 16.2449 20.0487C16.2449 20.5067 16.2449 20.9778 16.2449 21.4359H17.2264C17.2264 21.8939 17.2264 22.365 17.2264 22.823C16.716 23.1763 16.0355 23.1763 15.4598 22.9669C14.8316 22.7183 14.3998 22.0902 14.2689 21.4359C14.138 20.7685 14.1773 20.0749 14.4259 19.4468C14.6615 18.871 15.1457 18.3999 15.7476 18.2821C16.4936 18.0858 17.2656 18.4129 17.8284 18.8971C18.0508 18.4653 18.2602 18.0334 18.4958 17.6016C17.5535 16.7248 16.1271 16.6201 14.9494 17.0127Z" fill="white"/>
<path d="M32.8121 19.63C33.0476 19.8393 33.2963 20.0487 33.5449 20.2581C33.3879 20.3759 33.2177 20.4806 33.0607 20.5983C33.3748 21.1087 33.3879 21.763 33.1261 22.2995C32.8382 22.8099 32.2624 23.0978 31.6867 23.0978C31.438 23.1109 31.1763 23.0062 30.9407 23.1502C30.836 23.1894 30.679 23.3464 30.8491 23.425C31.0323 23.5035 31.2417 23.4381 31.438 23.4119C32.0007 23.3072 32.6419 23.2941 33.1392 23.6082C33.7412 24.04 33.6627 25.0607 33.0476 25.4402C32.0138 26.1076 30.6005 25.9899 29.5929 25.3094C29.8153 25.0477 30.0378 24.7859 30.2603 24.5373C30.823 25.0346 31.6736 25.1785 32.341 24.8121C32.498 24.7336 32.5503 24.5373 32.4718 24.3803C32.4326 24.3148 32.3671 24.2494 32.2886 24.2232C31.6867 24.04 31.0716 24.3148 30.4696 24.2101C30.1425 24.184 29.7761 23.9877 29.7499 23.6213C29.6845 23.2287 30.0247 22.9539 30.3257 22.7837C29.5798 22.365 29.3311 21.2527 29.8677 20.5722C30.4565 19.8001 31.582 19.7216 32.4195 20.088L32.8121 19.63ZM31.0978 20.7554C30.5874 20.9517 30.5089 21.7107 30.8753 22.064C31.1109 22.2995 31.4773 22.3257 31.7783 22.2341C32.2363 22.064 32.354 21.3966 32.0923 21.0171C31.8829 20.6899 31.438 20.6245 31.0978 20.7554ZM78.5614 20.0749C78.6923 19.9309 78.8363 19.7739 78.9671 19.63C79.2027 19.8393 79.4513 20.0487 79.7 20.2581C79.5429 20.3759 79.3728 20.4806 79.2158 20.5983C79.4906 21.0564 79.5429 21.6322 79.3466 22.1294C79.1372 22.6267 78.6923 22.98 78.1558 23.0585C77.881 23.1109 77.6062 23.0585 77.3313 23.0585C77.1743 23.1109 76.9388 23.1502 76.9257 23.3595C77.0827 23.5297 77.3183 23.4511 77.5145 23.425C78.0773 23.3072 78.7054 23.281 79.2288 23.582C79.8308 23.9353 79.8439 24.9168 79.3204 25.3486C78.797 25.7805 78.1165 25.9113 77.4622 25.8852C76.8472 25.859 76.2452 25.6627 75.7348 25.3094C75.9573 25.0477 76.1798 24.799 76.3891 24.5373C76.7817 24.8775 77.2921 25.0477 77.8025 25.0084C78.0903 24.9691 78.4568 24.943 78.6269 24.6551C78.7185 24.4326 78.5091 24.2101 78.2997 24.1971C77.6585 24.1054 76.9911 24.3803 76.363 24.1578C76.0751 24.0924 75.8788 23.8306 75.8788 23.5297C75.8657 23.1763 76.1928 22.9408 76.4546 22.7837C75.7087 22.3781 75.46 21.2527 75.9966 20.5722C76.6116 19.8001 77.737 19.7085 78.5614 20.0749ZM77.2397 20.7554C76.677 20.9778 76.664 21.8939 77.1743 22.1687C77.5146 22.3519 78.0249 22.3126 78.2474 21.9593C78.4306 21.6322 78.4306 21.1741 78.1558 20.8993C77.9333 20.6638 77.5407 20.6376 77.2397 20.7554ZM41.8939 20.3104C42.5613 19.6823 43.6736 19.7477 44.3672 20.3104C44.9822 19.8001 45.9375 19.7085 46.618 20.1403C47.0106 20.402 47.1938 20.8862 47.1938 21.3443C47.1938 22.2995 47.1938 23.2548 47.1938 24.2101H46.1469C46.1469 23.3334 46.1469 22.4828 46.1469 21.606C46.1469 21.3443 46.1077 21.0433 45.8983 20.8731C45.5057 20.5722 44.8775 20.703 44.6289 21.1218C44.6027 22.1556 44.6289 23.1763 44.6158 24.2101H43.5689C43.5689 23.2548 43.582 22.2995 43.5689 21.3443C43.582 20.7815 42.8623 20.5591 42.4435 20.8077C42.2865 20.9124 42.0378 21.0302 42.0378 21.2527C42.0248 22.2341 42.0378 23.2156 42.0378 24.2101H40.9909V19.9571H41.7107L41.8939 20.3104ZM48.136 20.6245C48.9081 19.7216 50.3607 19.63 51.2898 20.3497C51.8918 20.8208 52.1142 21.6714 51.8918 22.3912C50.8187 22.3912 49.7587 22.3912 48.6856 22.3912C48.7249 22.8099 48.9604 23.2156 49.353 23.3464C49.9027 23.5427 50.5831 23.4904 51.0673 23.0978C51.1982 23.3464 51.3421 23.6082 51.473 23.8699C50.8579 24.2887 50.0859 24.3279 49.3661 24.2625C48.6595 24.1971 47.9659 23.6998 47.7303 22.9931C47.4686 22.2079 47.5602 21.2527 48.136 20.6245ZM49.3923 20.7815C49.0259 20.8993 48.8165 21.2657 48.7249 21.6322C49.4577 21.6322 50.1906 21.6322 50.9234 21.6322C50.8579 21.3573 50.7925 21.0825 50.557 20.9124C50.2298 20.6769 49.7718 20.6638 49.3923 20.7815ZM58.4741 20.1142C59.22 19.8132 60.0576 19.787 60.8296 20.0487C61.2746 20.2058 61.5756 20.6376 61.6541 21.0956C61.8111 21.8415 61.6933 22.5874 61.7718 23.3334C61.798 23.5951 61.9158 23.8306 62.099 24.0008C61.9158 24.2756 61.5756 24.3279 61.2746 24.2625C61.039 24.1971 60.9082 23.9877 60.7904 23.8045C60.5025 24.1316 60.0445 24.2625 59.6257 24.2887C59.1677 24.3017 58.6835 24.2101 58.3433 23.8699C57.9899 23.5166 57.9376 22.9408 58.0815 22.4697C58.2255 21.9986 58.6573 21.6976 59.1153 21.5405C59.6257 21.3835 60.1622 21.3443 60.6988 21.4359C60.6595 21.1741 60.5548 20.8993 60.2931 20.8077C59.7827 20.6114 59.1939 20.6899 58.6966 20.8862C58.6181 20.6376 58.5396 20.3759 58.4741 20.1142ZM59.3378 22.3781C58.9714 22.6005 58.9452 23.281 59.3771 23.438C59.7304 23.5427 60.1753 23.5297 60.4763 23.2679C60.7511 22.9931 60.6857 22.5744 60.6988 22.2079C60.2408 22.1425 59.7304 22.1294 59.3378 22.3781ZM63.3553 20.3104C64.0096 19.6823 65.135 19.7477 65.8155 20.3104C66.4305 19.8001 67.3858 19.7085 68.0532 20.1403C68.4458 20.402 68.6421 20.8862 68.629 21.3443C68.6421 22.2995 68.629 23.2548 68.629 24.2232H67.5821C67.5821 23.3595 67.5821 22.4958 67.5821 21.6191C67.5821 21.3573 67.5429 21.0564 67.3335 20.8731C66.9409 20.5722 66.3128 20.703 66.051 21.1218C66.0249 22.1556 66.051 23.1763 66.0379 24.2101H64.9911C64.978 23.2548 65.0041 22.2995 64.978 21.3443C64.978 20.7815 64.2582 20.5591 63.8395 20.8077C63.6824 20.9124 63.4338 21.0302 63.4338 21.2527C63.4338 22.2341 63.4338 23.2156 63.4338 24.2101H62.3869C62.3869 22.7968 62.3869 21.3704 62.3869 19.9571H63.1066C63.2113 20.0749 63.2898 20.1927 63.3553 20.3104ZM72.4109 20.3366C72.9213 19.8263 73.7326 19.7739 74.3869 19.9833C74.9758 20.1796 75.3684 20.7685 75.3946 21.3966C75.4208 22.3388 75.3946 23.281 75.4077 24.2232H74.3608C74.3608 23.3857 74.3608 22.5482 74.3608 21.7107C74.3608 21.3835 74.2823 21.004 73.9813 20.8339C73.4971 20.5853 72.9082 20.7423 72.5418 21.1087C72.5287 22.1425 72.5418 23.1763 72.5418 24.2101H71.4949C71.4949 22.7968 71.4949 21.3704 71.4949 19.9571H72.2539C72.2932 20.088 72.3455 20.2058 72.4109 20.3366ZM27.5121 19.9571H29.1479C29.1479 21.3704 29.1479 22.7968 29.1479 24.2101H28.0879C28.0879 23.0585 28.0879 21.92 28.0879 20.7685H27.5121C27.5252 20.5067 27.5121 20.2319 27.5121 19.9571ZM38.5569 19.9571H40.1927V24.2101H39.1327C39.1327 23.0585 39.1327 21.92 39.1327 20.7685C38.9495 20.7685 38.7532 20.7685 38.5569 20.7685V19.9571ZM69.0478 19.9571H70.6835C70.6835 21.3704 70.6835 22.7968 70.6835 24.2101H69.6367C69.6367 23.0585 69.6367 21.92 69.6367 20.7685H69.0609C69.0478 20.4937 69.0478 20.2319 69.0478 19.9571ZM53.8678 18.8971C54.4959 18.4129 55.3334 18.2559 56.1186 18.3083C56.6421 18.3475 57.1524 18.5307 57.5843 18.871C57.4272 19.1458 57.2833 19.4337 57.1262 19.7085C56.6028 19.3552 55.9747 19.1196 55.3465 19.2766C54.666 19.3944 54.1295 19.9833 53.9855 20.6507C53.8416 21.2919 53.8678 22.0117 54.2211 22.5874C54.7315 23.425 55.9616 23.6474 56.7598 23.0978C56.7598 22.7183 56.7598 22.3257 56.7598 21.9462H55.9092C55.9092 21.6452 55.9092 21.3573 55.9092 21.0564C56.5635 21.0564 57.2048 21.0564 57.846 21.0564C57.846 21.9331 57.846 22.7968 57.846 23.6736C57.1917 24.1316 56.3803 24.3017 55.6082 24.3017C54.8492 24.3148 54.0379 24.0531 53.5275 23.4642C52.847 22.7445 52.6769 21.6845 52.8209 20.7161C52.9125 20.0095 53.292 19.3421 53.8678 18.8971ZM23.2068 18.3868C23.8088 18.3737 24.3976 18.3344 24.9996 18.3344C25.523 18.3475 26.0727 18.4391 26.4914 18.7663C26.8971 19.0934 27.0541 19.6692 26.9102 20.1665C26.8055 20.5198 26.5045 20.7423 26.2035 20.9124C26.6092 21.0564 27.0018 21.3181 27.1719 21.7238C27.4205 22.2995 27.3813 23.0324 26.9364 23.5035C26.4783 24.0008 25.7979 24.1971 25.1566 24.1971C24.5023 24.2101 23.8349 24.1971 23.1806 24.1971L23.2068 18.3868ZM24.2929 19.2243C24.2929 19.6823 24.2929 20.1534 24.2929 20.6114C24.6986 20.6245 25.1435 20.6769 25.523 20.4937C25.9549 20.2974 26.0203 19.5907 25.6016 19.3552C25.209 19.1458 24.7379 19.2243 24.2929 19.2243ZM24.2929 21.4359C24.2929 22.0771 24.2929 22.7183 24.2929 23.3464C24.751 23.3726 25.2221 23.4119 25.6539 23.2548C26.3737 23.0324 26.3998 21.763 25.6801 21.5405C25.2482 21.3835 24.764 21.4228 24.2929 21.4359ZM27.5252 18.3999H29.1479C29.1479 18.7008 29.1479 19.0149 29.1479 19.3159C28.5983 19.3159 28.0618 19.3159 27.5121 19.3159C27.5121 19.0149 27.5252 18.7008 27.5252 18.3999ZM33.872 18.3868C35.3115 18.3868 36.7641 18.3868 38.2167 18.3868C38.2167 18.6878 38.2167 19.0018 38.2167 19.3159H36.9211C36.9211 20.9386 36.9211 22.5874 36.9211 24.2101C36.5547 24.2101 36.1883 24.2101 35.8219 24.2101C35.8219 22.5744 35.8219 20.9386 35.8219 19.3159H33.872V18.3868ZM38.5569 19.3159C38.5569 19.0149 38.5569 18.7008 38.5569 18.3999C39.0934 18.3999 39.6431 18.3999 40.1796 18.3999V19.3159C39.6431 19.3159 39.0934 19.3159 38.5569 19.3159ZM69.0609 18.3999C69.5974 18.3999 70.147 18.3999 70.6966 18.3999C70.6966 18.7008 70.6966 19.0149 70.6966 19.3159C70.1601 19.3159 69.6105 19.3159 69.074 19.3159C69.0609 19.0149 69.0609 18.7008 69.0609 18.3999Z" fill="white"/>
<path d="M6.0246 18.5569C6.41718 18.0727 7.32013 18.1512 7.58186 18.7532C7.68654 19.0803 7.5426 19.5384 7.17618 19.63C6.75742 19.7477 6.32558 19.6823 5.89373 19.6954C5.91991 19.329 5.80213 18.8971 6.0246 18.5569ZM5.89373 20.9517C6.43027 20.9778 6.99297 20.8732 7.50334 21.0825C8.24925 21.3835 8.19691 22.6791 7.45099 22.9408C6.94063 23.0062 6.37792 23.0455 5.89373 22.7968C5.89373 22.1949 5.89373 21.5667 5.89373 20.9517ZM8.85122 25.8067C11.5862 26.0815 14.3082 26.8274 17.0694 26.5002C17.7237 26.4348 18.3649 26.2778 18.993 26.0291C18.5088 26.6703 17.9985 27.2854 17.3573 27.7696C16.8469 27.8612 16.3365 27.8088 15.8393 27.7565C14.3605 27.5602 12.9472 27.1022 11.5339 26.6311C10.644 26.3563 9.76725 26.016 8.85122 25.8067ZM7.05841 26.3955C8.23617 26.4217 9.36158 26.8274 10.487 27.1938C12.3452 27.7958 14.1773 28.5286 16.1402 28.6856C15.3027 29.1567 14.4259 29.5362 13.4837 29.7456C13.3529 29.7849 13.2482 29.6802 13.1304 29.6409C11.9657 28.9866 10.8534 28.2407 9.68873 27.5471C8.85122 27.0629 7.98753 26.618 7.05841 26.3955ZM5.59275 27.9659C6.41718 28.0182 7.2547 28.136 8.00061 28.5024C8.85122 28.8819 9.59713 29.4315 10.3561 29.955C8.62875 29.7325 6.97989 29.052 5.59275 27.9659Z" fill="white"/>
</g>
<defs>
<clipPath id="clip0_10_7199">
<rect width="80" height="40" fill="white"/>
</clipPath>
</defs>
</svg>
