<svg width="80" height="40" viewBox="0 0 80 40" fill="none" xmlns="http://www.w3.org/2000/svg">
<path d="M0.98738 23.3569C1.16461 23.2078 1.3545 23.1299 1.51907 23.0196C1.68364 22.9093 1.87353 22.799 2.05076 22.6953C2.22799 22.5915 2.41154 22.4747 2.5951 22.3645C2.77866 22.2542 2.94323 22.1439 3.12047 22.0401C3.2977 21.9363 3.48125 21.8325 3.65215 21.7157C3.82305 21.599 4.0256 21.5471 4.17751 21.372C3.93698 21.2941 3.72178 21.2227 3.5129 21.1514C3.29137 21.0735 3.06982 20.9827 2.84829 20.8984C2.70904 20.8465 2.56346 20.8011 2.42421 20.7557C2.28496 20.7103 2.12038 20.6519 1.96847 20.6C1.75959 20.5287 1.55071 20.4508 1.34184 20.3794C1.13296 20.2951 0.911425 20.2173 0.70255 20.1395C0.65191 20.12 0.594945 20.1135 0.544305 20.0875C0.51899 20.0746 0.50633 20.0486 0.5 20.0227C0.5 20.0097 0.53165 19.9903 0.550635 19.9773C0.563295 19.9708 0.582285 19.9708 0.594945 19.9708C0.784835 19.9708 0.955735 19.8995 1.13929 19.8605C1.25955 19.8345 1.38614 19.8087 1.51274 19.7892C1.90517 19.7178 2.29761 19.6465 2.69005 19.5686C2.83563 19.5426 2.98121 19.4972 3.1268 19.4583C3.13945 19.4518 3.15844 19.4519 3.1711 19.4519C3.33567 19.4259 3.50024 19.4065 3.66481 19.3805C3.81039 19.3546 3.95597 19.3092 4.09522 19.2702C4.11421 19.2638 4.13321 19.2638 4.15852 19.2638C4.31676 19.2378 4.475 19.2183 4.63324 19.1924C4.69021 19.1729 4.74717 19.147 4.79781 19.121L1.7596 16.1241C1.84188 16.0852 1.93682 16.0787 2.01911 16.1111C2.06974 16.1241 2.12672 16.137 2.17735 16.15L2.67106 16.2668C2.75968 16.2863 2.84829 16.3122 2.9369 16.3252C3.08248 16.3511 3.22174 16.3771 3.36732 16.403C3.46227 16.4225 3.55088 16.4484 3.64582 16.4679C3.91166 16.5327 4.17751 16.5977 4.44336 16.656C4.56994 16.682 4.70287 16.7079 4.82946 16.7339L5.1333 16.7923C5.1396 16.7598 5.1396 16.7274 5.1333 16.695C5.03835 16.4679 4.93074 16.2474 4.83579 16.0203C4.69021 15.6765 4.54463 15.3262 4.39904 14.9759C4.22814 14.5738 4.05725 14.1781 3.88635 13.7759C3.79773 13.5618 3.70912 13.3413 3.62051 13.1207C3.60152 13.0818 3.56986 13.0429 3.5572 13.0039C3.55088 12.965 3.55088 12.9261 3.5572 12.8872C4.16485 13.3413 4.75351 13.7888 5.34215 14.23C5.9308 14.6711 6.5068 15.1251 7.1271 15.5662C7.13975 15.5273 7.15245 15.4884 7.15245 15.4495C7.13975 15.2289 7.1651 15.0084 7.1018 14.7878C7.07015 14.684 7.08915 14.5608 7.08915 14.4505C7.08915 14.3078 7.0765 14.1586 7.04485 14.0224C7.0132 13.9056 7.03215 13.7759 7.02585 13.6526C7.03215 13.5229 7.0132 13.3931 6.98155 13.2699C6.9499 13.1856 6.96885 13.0883 6.96255 12.991C6.9499 12.8158 6.9309 12.6407 6.9119 12.4655C6.9056 12.4266 6.9056 12.3812 6.9056 12.3423C6.8929 12.1152 6.9056 11.8882 6.85495 11.6612C6.8486 11.5768 6.8486 11.499 6.85495 11.4147C6.8929 11.4471 6.9309 11.4795 6.96255 11.5184C7.28535 12.005 7.60185 12.4915 7.9183 12.9845L8.67785 14.1521C8.8108 14.3532 8.9374 14.5543 9.0703 14.7554C9.08295 14.7748 9.1146 14.7748 9.14625 14.7878L9.602 13.951C9.8552 13.4905 10.1083 13.0234 10.3552 12.5628C10.6147 12.0828 10.8743 11.6028 11.1337 11.1227C11.1781 11.0449 11.2224 10.9606 11.273 10.8827C11.2857 10.8633 11.3237 10.8373 11.3427 10.8438C11.368 10.8568 11.3806 10.8827 11.3869 10.9152C11.3933 11.1227 11.3933 11.3303 11.3996 11.5379C11.4059 11.7195 11.4312 11.9012 11.4502 12.0763C11.4502 12.1088 11.4502 12.1412 11.4502 12.1671C11.4755 12.6666 11.4756 13.1726 11.5262 13.6721C11.5515 13.9186 11.5642 14.1651 11.5831 14.4116C11.5895 14.431 11.5958 14.4505 11.6085 14.47C11.6401 14.4505 11.6718 14.431 11.7035 14.4051C11.8427 14.2754 11.9819 14.1391 12.1212 14.0029C12.311 13.8278 12.5009 13.6526 12.6909 13.4775C13.0263 13.1596 13.3681 12.8418 13.7036 12.5304C13.7795 12.459 13.8619 12.3942 13.9631 12.3163C13.9694 12.3553 13.9757 12.3942 13.9757 12.4331C13.9251 12.6407 13.8618 12.8483 13.8112 13.0558C13.7859 13.1531 13.7669 13.2569 13.7416 13.3542C13.6783 13.6072 13.6213 13.8602 13.558 14.1132C13.5327 14.2364 13.5073 14.3662 13.482 14.4894C13.463 14.5802 13.4377 14.6646 13.4124 14.7554C13.3554 14.9759 13.2921 15.203 13.2352 15.4235C13.1846 15.6117 13.1466 15.8063 13.1023 15.9944C13.096 16.0398 13.096 16.0787 13.1023 16.1241C13.1909 16.176 13.2542 16.0917 13.3238 16.0657C13.5644 15.9684 13.8048 15.8517 14.0391 15.7414L14.6024 15.4819C14.8619 15.3652 15.1215 15.2419 15.3809 15.1251C15.6531 15.0019 15.9253 14.8786 16.1975 14.7554C16.533 14.5997 16.8684 14.444 17.2102 14.2883C17.2418 14.2818 17.2671 14.2818 17.2988 14.2883C16.3873 15.4884 15.5012 16.669 14.6151 17.869C14.6974 17.9209 14.7986 17.9469 14.8999 17.9469C15.0392 17.9534 15.1847 17.9469 15.3239 17.9534C15.4632 17.9598 15.6152 17.9728 15.7607 17.9793C16.0392 17.9988 16.3177 18.0183 16.5899 18.0377C17.0393 18.0637 17.4887 18.0831 17.9381 18.1091C18.2292 18.1221 18.5205 18.148 18.8179 18.1609C18.8433 18.1609 18.8685 18.1675 18.8939 18.174C18.9002 18.2453 18.8559 18.2648 18.8116 18.2907C18.5837 18.4334 18.3559 18.5761 18.1343 18.7253C17.8938 18.881 17.6596 19.0367 17.4254 19.1924C16.995 19.4778 16.5646 19.7568 16.1341 20.0422C15.7734 20.2757 15.4126 20.5092 15.0582 20.7492C15.0265 20.7752 15.0012 20.8076 14.9759 20.84L18.5331 22.3904V22.4163C18.4888 22.4228 18.4508 22.4293 18.4065 22.4358C17.4254 22.5007 16.4443 22.4877 15.4632 22.5007C15.267 22.5007 15.0708 22.5136 14.8682 22.5201C14.8239 22.5266 14.7859 22.5331 14.7416 22.5396L16.3747 26.7366L16.3493 26.7625C16.0582 26.5744 15.7607 26.3863 15.4696 26.1917C15.1784 25.9971 14.8809 25.8025 14.5834 25.6014C14.2859 25.4003 13.9948 25.2057 13.7036 25.0111C13.4124 24.8165 13.1276 24.6089 12.8111 24.4337C12.7795 24.5245 12.7732 24.6218 12.7985 24.7192C12.8111 24.8683 12.8301 25.0175 12.8427 25.1667C12.8554 25.2965 12.8301 25.4262 12.8934 25.5495C12.8997 25.5624 12.8997 25.5819 12.8997 25.5949C12.925 25.9906 12.944 26.3798 12.9693 26.7755C12.9757 26.8793 13.0073 26.9766 13.0136 27.0804C13.039 27.4566 13.0643 27.8329 13.0896 28.2091C13.1149 28.527 13.1466 28.8448 13.1783 29.1691C13.1086 29.2275 13.077 29.1497 13.0517 29.1173C12.9377 28.9746 12.8301 28.8253 12.7225 28.6761C12.4946 28.3842 12.2668 28.0989 12.0452 27.8069C11.9249 27.6513 11.8111 27.4956 11.6908 27.3463C11.4629 27.0544 11.2287 26.7625 11.0008 26.4641C10.8932 26.3214 10.7857 26.1787 10.6781 26.036C10.6527 26.0035 10.621 25.9776 10.5894 25.9517L9.53235 29.0524C9.48805 28.994 9.4501 28.9616 9.43745 28.9291C9.3488 28.6372 9.26655 28.3389 9.1779 28.0469C9.0893 27.755 8.97535 27.4566 8.8741 27.1647C8.8298 27.0285 8.79815 26.8858 8.75385 26.7495C8.6842 26.5225 8.61455 26.3019 8.54495 26.0749C8.52595 26.0035 8.48165 25.9906 8.4247 26.0425C8.39305 26.0749 8.3614 26.1073 8.32975 26.1463C8.1335 26.3863 7.9373 26.6263 7.7411 26.8728C7.58285 27.0739 7.43095 27.2815 7.2727 27.4761C6.98785 27.8329 6.69035 28.1896 6.40555 28.5464C6.3169 28.6567 6.2283 28.7735 6.146 28.8838C6.1207 28.9162 6.08905 28.9486 6.04475 29.0005C6.0131 28.8902 6.0131 28.7735 6.04475 28.6632C6.0511 28.6308 6.07005 28.6048 6.0764 28.5723C6.1017 28.3777 6.1207 28.1831 6.15235 27.9886C6.184 27.7939 6.222 27.5928 6.25995 27.3983C6.25995 27.3853 6.2663 27.3788 6.2663 27.3658C6.27895 27.1647 6.30425 26.9701 6.34225 26.769C6.3929 26.5614 6.3802 26.3538 6.4435 26.1463C6.49415 25.9776 6.49415 25.796 6.51945 25.6273C6.55745 25.3873 6.60175 25.1473 6.63975 24.9138C6.63975 24.9008 6.6524 24.8813 6.6524 24.8683C6.6714 24.7386 6.68405 24.6024 6.70305 24.4532C6.6587 24.4532 6.62075 24.4662 6.58275 24.4791C6.2473 24.6413 5.91185 24.8035 5.57635 24.9657C5.17125 25.1603 4.75984 25.3549 4.35474 25.556C3.94965 25.757 3.53822 25.9711 3.1268 26.1787C2.98121 26.25 2.8293 26.3084 2.67106 26.3798C2.65207 26.3019 2.69638 26.263 2.72802 26.2241C2.9369 25.9452 3.14578 25.6663 3.35466 25.3938C3.52556 25.1733 3.69646 24.9592 3.86103 24.7386C4.04459 24.4921 4.22182 24.2456 4.40538 23.9991C4.65223 23.6683 4.90542 23.3439 5.1586 23.0131C5.19025 22.9742 5.21555 22.9223 5.25355 22.8639C5.12695 22.8704 5.01935 22.8769 4.91808 22.8899C4.65223 22.9223 4.38006 22.9613 4.11421 23.0001C4.07623 23.0066 4.03193 23.0066 3.99395 23.0131C3.86736 23.0196 3.74077 23.0002 3.62684 23.0715C3.61418 23.078 3.60785 23.078 3.59519 23.078C3.32934 23.1039 3.0635 23.1234 2.79765 23.1493C2.55713 23.1753 2.31027 23.2207 2.06975 23.2596C1.96214 23.2726 1.85454 23.2726 1.75327 23.2856C1.53173 23.318 1.30386 23.3504 1.08232 23.3829C1.04434 23.3764 1.0127 23.3699 0.98738 23.3569ZM14.7226 20.8335L14.9378 20.6973L15.7164 20.1914C15.8177 20.1265 15.919 20.0551 16.0203 19.9902C16.1848 19.88 16.3431 19.7632 16.5076 19.6595C16.7672 19.4908 17.0266 19.3286 17.2861 19.16C17.6723 18.9069 18.0583 18.6539 18.4445 18.401C18.4761 18.375 18.5015 18.3491 18.5205 18.3167C18.5015 18.3037 18.4951 18.2907 18.4888 18.2907C18.2229 18.2713 17.9571 18.2453 17.6912 18.2258C17.5077 18.2128 17.3242 18.2194 17.1469 18.2064C16.9886 18.1934 16.8241 18.1739 16.6658 18.1609C16.5709 18.1545 16.476 18.1609 16.3747 18.1545C16.0772 18.135 15.7797 18.1156 15.4822 18.0961C15.286 18.0831 15.0898 18.0767 14.8935 18.0637C14.7606 18.0572 14.634 18.0442 14.5011 18.0377C14.4632 18.0377 14.4251 18.0247 14.3745 18.0182C14.3935 17.9793 14.4062 17.9598 14.4188 17.9404C14.5138 17.8171 14.6151 17.6874 14.71 17.5641C14.9442 17.2463 15.1784 16.9284 15.4126 16.6106C15.6974 16.2279 15.9822 15.8451 16.2671 15.4689C16.4 15.2873 16.5456 15.1122 16.6785 14.937C16.7544 14.8332 16.8431 14.7359 16.8937 14.5867C16.8557 14.5932 16.8178 14.6062 16.7798 14.6192C16.4127 14.7878 16.0455 14.9565 15.6784 15.1251C15.4253 15.2419 15.1721 15.3521 14.9252 15.4689C14.5644 15.6311 14.2036 15.7933 13.8491 15.9619C13.615 16.0722 13.3871 16.176 13.1529 16.2862C13.0833 16.3187 13.02 16.3576 12.9377 16.3122C12.9314 16.2993 12.9314 16.2798 12.9314 16.2603C12.963 16.1435 12.9884 16.0333 13.02 15.9165C13.0453 15.8192 13.0833 15.7219 13.1023 15.6181C13.1339 15.4819 13.1466 15.3457 13.1783 15.2095C13.2289 15.0019 13.2858 14.8008 13.3364 14.5932C13.4124 14.2689 13.4947 13.9445 13.5707 13.6202C13.596 13.5229 13.615 13.4191 13.6403 13.3218C13.6909 13.1207 13.7479 12.9261 13.7985 12.7315C13.8048 12.712 13.7922 12.6861 13.7795 12.6472C13.6529 12.7574 13.5327 12.8547 13.4251 12.9585C13.2605 13.1142 13.1023 13.2699 12.9377 13.4256C12.7732 13.5813 12.6086 13.711 12.4503 13.8602C12.2351 14.0548 12.0326 14.2624 11.8174 14.4635C11.7478 14.5283 11.6718 14.5932 11.6021 14.6516C11.5642 14.6775 11.5262 14.697 11.4882 14.71C11.4819 14.6581 11.4755 14.6192 11.4692 14.5867C11.4502 14.3013 11.5009 14.0159 11.4122 13.737C11.4059 13.711 11.4059 13.6851 11.4122 13.6591C11.4122 13.4645 11.4122 13.2764 11.4059 13.0818C11.4122 13.0429 11.4122 12.9975 11.3996 12.9585C11.3237 12.8158 11.3553 12.6666 11.349 12.5174C11.3363 12.3228 11.33 12.1217 11.3173 11.9271C11.311 11.8428 11.292 11.7649 11.292 11.6806C11.2857 11.5639 11.292 11.4406 11.2857 11.3238C11.2794 11.2914 11.273 11.259 11.2604 11.233L11.2287 11.2265C11.0388 11.5314 10.8869 11.8493 10.7097 12.1606C10.5324 12.472 10.3615 12.7834 10.197 13.0948C10.0324 13.4061 9.8552 13.7305 9.6843 14.0418C9.5134 14.3532 9.3425 14.6711 9.1526 15.0019C8.95635 14.8073 8.8551 14.5738 8.7095 14.3792C8.56395 14.1845 8.431 13.964 8.2981 13.7499C8.16515 13.5359 8.0259 13.3283 7.893 13.1142C7.7601 12.9001 7.6145 12.6991 7.48155 12.485C7.39295 12.3423 7.1018 11.9271 7.02585 11.8817C7.02585 11.9466 7.02585 11.992 7.02585 12.0439C7.02585 12.2579 7.04485 12.4785 7.0765 12.6926C7.11445 12.9391 7.09545 13.1856 7.13345 13.4321C7.1714 13.6786 7.15245 13.9575 7.20305 14.217C7.2347 14.4051 7.2284 14.5997 7.24105 14.7878C7.2537 14.9305 7.26635 15.0668 7.279 15.203C7.298 15.3846 7.31065 15.5727 7.32965 15.7609C7.32965 15.7738 7.317 15.7868 7.298 15.8322C7.1208 15.7154 6.96885 15.5792 6.8043 15.4625C6.63975 15.3457 6.46885 15.2224 6.3106 15.0992C6.15235 14.9759 5.98145 14.8462 5.8169 14.7165C5.6523 14.5867 5.48775 14.4635 5.31685 14.3402L4.80414 13.977C4.63958 13.8537 4.48133 13.724 4.31676 13.6137C4.15219 13.5034 4.00028 13.3477 3.7914 13.231C3.79773 13.2699 3.80406 13.3088 3.81672 13.3477C3.93699 13.6202 4.05724 13.8926 4.17118 14.1651C4.31043 14.4894 4.43702 14.8203 4.57627 15.1446C4.69021 15.4235 4.8168 15.7025 4.93707 15.9749C5.05735 16.2474 5.1776 16.5328 5.2915 16.8117C5.3042 16.8571 5.3105 16.9025 5.3105 16.9479C5.2409 16.935 5.1839 16.922 5.1333 16.909C4.99403 16.8831 4.85478 16.8636 4.72186 16.8312C4.58894 16.7987 4.46235 16.7533 4.32942 16.7209C4.08257 16.669 3.83571 16.6171 3.59519 16.5652C3.13313 16.4614 2.66473 16.3576 2.20267 16.2603C2.17102 16.2603 2.13937 16.2603 2.11405 16.2668L2.09507 16.3057C2.1457 16.3512 2.20267 16.3966 2.2533 16.442C2.46851 16.6495 2.69005 16.8571 2.90526 17.0711C3.20908 17.3696 3.50657 17.668 3.81039 17.9664C4.15219 18.3037 4.48766 18.6475 4.82946 18.9848C4.8801 19.0367 4.9434 19.0756 4.9877 19.1275C5.032 19.1794 5.013 19.2248 4.94973 19.2378C4.72819 19.2832 4.50665 19.3221 4.28511 19.3675C4.06357 19.413 3.84204 19.4584 3.61418 19.5037C3.49391 19.5297 3.37998 19.5556 3.25972 19.5816C3.10781 19.6075 2.94957 19.6205 2.79765 19.6595C2.60144 19.7049 2.41155 19.7697 2.209 19.7827C2.19001 19.7827 2.17102 19.7892 2.15203 19.7957L1.68364 19.8995C1.58237 19.9189 1.48109 19.9448 1.37349 19.9643C1.22157 19.9902 1.06967 20.0162 0.917755 20.0487C0.911425 20.0487 0.911425 20.0681 0.911425 20.0875C1.17727 20.1848 1.44944 20.2886 1.72161 20.3794C2.0381 20.4897 2.36091 20.5935 2.67739 20.7038C2.88627 20.7752 3.08881 20.866 3.29136 20.9373C3.62683 21.0541 3.9623 21.1644 4.29777 21.2812C4.34841 21.3071 4.39904 21.333 4.44969 21.372C4.38639 21.4109 4.35474 21.4368 4.31043 21.4627C3.93066 21.6898 3.55088 21.9169 3.1711 22.1504C2.6584 22.4618 2.13937 22.7796 1.62668 23.0909C1.5887 23.1169 1.55705 23.1494 1.53173 23.1818C1.56337 23.1948 1.57604 23.2012 1.58237 23.2012C1.72795 23.1299 1.88619 23.1494 2.04443 23.1428C2.0824 23.1428 2.11405 23.1364 2.1457 23.1299C2.21532 23.1169 2.27862 23.0974 2.34825 23.0909C2.44319 23.0845 2.5508 23.104 2.63308 23.0715C2.75335 23.0196 2.86728 23.0326 2.98754 23.0196C3.04451 23.0131 3.10148 23.0132 3.15211 23.0066C3.37998 22.9742 3.60785 22.9353 3.83571 22.9028C3.98129 22.8834 4.1332 22.8899 4.28511 22.8509C4.48766 22.799 4.70287 22.799 4.91808 22.7731C5.032 22.7601 5.14595 22.7471 5.2599 22.7277C5.34215 22.7017 5.43075 22.7082 5.51305 22.7342L2.98754 26.0684L3.00653 26.0944C4.27246 25.4781 5.53205 24.8425 6.8233 24.2261C6.8233 24.3235 6.8423 24.4013 6.81695 24.4662C6.74735 24.6543 6.76 24.8619 6.7157 25.0565C6.6714 25.2511 6.66505 25.4457 6.63975 25.6403C6.6081 25.8673 6.5638 26.0879 6.5258 26.3149C6.4878 26.529 6.4625 26.743 6.42455 26.9571C6.38655 27.1842 6.34855 27.4112 6.3169 27.6383C6.2916 27.8134 6.2726 27.9886 6.2473 28.1572C6.2473 28.1702 6.24095 28.1766 6.24095 28.1896C6.165 28.3129 6.21565 28.4491 6.19035 28.5854C6.59545 28.1248 6.96885 27.6448 7.355 27.1712L8.52595 25.7181C8.5576 25.796 8.58295 25.8479 8.6019 25.9062C8.63355 26.01 8.6589 26.1138 8.69055 26.2176C8.7918 26.5355 8.8994 26.8533 9.0007 27.1712C9.026 27.262 9.05765 27.3463 9.08295 27.4307C9.1779 27.7161 9.26655 27.9951 9.36145 28.2805C9.4058 28.4167 9.42475 28.5659 9.53235 28.6956C9.6653 28.3129 9.7919 27.9431 9.9248 27.5734C10.045 27.2296 10.1653 26.8858 10.2793 26.542C10.3616 26.2955 10.4439 26.0425 10.5261 25.7895C10.5324 25.77 10.5514 25.7506 10.5767 25.7441C10.6021 25.7441 10.6274 25.757 10.64 25.77C10.7477 25.9127 10.8552 26.0554 10.9628 26.1982C11.1528 26.4511 11.3489 26.7041 11.5388 26.9571C11.7667 27.2556 12.0009 27.5539 12.2351 27.8524C12.4819 28.1702 12.7352 28.4881 12.9883 28.8059C12.9946 28.8124 13.0136 28.8188 13.0453 28.8319C13.0579 28.7086 13.0517 28.5788 13.0326 28.4556C13.0136 28.3843 13.001 28.3129 13.001 28.2416C12.9947 28.0858 12.9946 27.9301 12.982 27.7745C12.9694 27.6188 12.944 27.4566 12.9314 27.2945C12.9187 27.1647 12.9503 27.035 12.8807 26.9118C12.8681 26.8793 12.8681 26.8404 12.8744 26.8079C12.8744 26.6652 12.8744 26.529 12.8681 26.3863C12.8618 26.3344 12.8554 26.2825 12.8491 26.2306C12.8365 26.1657 12.8237 26.1009 12.8174 26.036C12.7921 25.6338 12.7731 25.2316 12.7478 24.8294C12.7478 24.8035 12.7415 24.7775 12.7352 24.7516C12.6719 24.5829 12.7098 24.4013 12.6782 24.2326C12.6782 24.2262 12.6909 24.2197 12.7099 24.2067C12.7415 24.2132 12.7668 24.2261 12.7985 24.2456C13.077 24.4272 13.3555 24.6154 13.634 24.797L14.9885 25.6987C15.3239 25.9257 15.6594 26.1528 16.0012 26.3733C16.0455 26.3993 16.0899 26.4447 16.1532 26.4252C16.1595 26.4057 16.1595 26.3798 16.1532 26.3603C16.0519 26.0879 15.9443 25.8154 15.8366 25.543C15.6657 25.1019 15.4886 24.6673 15.3176 24.2261C15.1341 23.7656 14.9506 23.2985 14.7669 22.838C14.729 22.7471 14.6974 22.6563 14.6594 22.5655C14.6214 22.5006 14.6341 22.4164 14.6847 22.3645C15.2353 22.3645 15.7987 22.3645 16.362 22.3645C16.9253 22.3645 17.4887 22.3644 18.0583 22.3385C17.9128 22.1828 17.7039 22.1568 17.533 22.066C17.3621 21.9752 17.1595 21.9039 16.976 21.826C16.7924 21.7482 16.6152 21.6704 16.4317 21.5925L15.881 21.3525C15.6974 21.2747 15.5076 21.2033 15.3239 21.1125C15.1404 21.0216 14.9125 20.9762 14.7226 20.8335Z" fill="#BE8204"/>
<path d="M14.7226 20.8335C14.9125 20.9762 15.1087 21.0217 15.2922 21.106C15.4758 21.1903 15.6594 21.2682 15.8493 21.346L16.3999 21.586C16.5835 21.6638 16.7607 21.7417 16.9443 21.8195C17.1278 21.8974 17.3241 21.9622 17.5013 22.0595C17.6785 22.1568 17.8811 22.1763 18.0266 22.332C17.457 22.3645 16.8936 22.3579 16.3303 22.3579C15.767 22.3579 15.21 22.3579 14.653 22.3579C14.6023 22.4163 14.596 22.4941 14.6276 22.559C14.6593 22.6498 14.6973 22.7406 14.7352 22.8315C14.9188 23.292 15.1024 23.7591 15.2859 24.2197C15.4568 24.6608 15.634 25.0954 15.8049 25.5365C15.9125 25.809 16.0202 26.0814 16.1214 26.3538C16.1278 26.3733 16.1278 26.3992 16.1214 26.4187C16.0518 26.4382 16.0075 26.3927 15.9695 26.3668C15.634 26.1462 15.2986 25.9192 14.9568 25.6922L13.6022 24.797C13.3237 24.6154 13.0452 24.4272 12.7667 24.2456C12.7414 24.2326 12.7098 24.2196 12.6781 24.2067C12.6655 24.2196 12.6465 24.2327 12.6465 24.2327C12.6718 24.4013 12.6338 24.5829 12.7034 24.7516C12.7098 24.7775 12.7161 24.8035 12.7161 24.8295C12.7414 25.2316 12.7604 25.6338 12.7857 26.036C12.792 26.1008 12.8047 26.1658 12.8174 26.2306C12.83 26.2825 12.8364 26.3344 12.8364 26.3927C12.8427 26.5355 12.8427 26.6717 12.8427 26.8144C12.8364 26.8533 12.8427 26.8857 12.849 26.9182C12.9186 27.0414 12.887 27.1712 12.8996 27.2945C12.9123 27.4566 12.9376 27.6123 12.9503 27.7745C12.9629 27.9367 12.9566 28.0859 12.9693 28.2415C12.9756 28.3129 12.9819 28.3843 13.0009 28.4556C13.0262 28.5789 13.0262 28.7086 13.0136 28.8319C12.9819 28.8188 12.9629 28.8124 12.9566 28.8059C12.7034 28.488 12.4566 28.1702 12.2034 27.8523C11.9692 27.5539 11.735 27.2555 11.5071 26.9571C11.3109 26.7042 11.121 26.4512 10.9311 26.1982C10.8235 26.0555 10.7159 25.9128 10.6083 25.7701C10.5957 25.7506 10.5703 25.7376 10.545 25.7441C10.526 25.7506 10.5071 25.77 10.5007 25.796C10.4184 26.0425 10.3425 26.2955 10.2539 26.5485C10.1399 26.8923 10.0197 27.236 9.89944 27.5798C9.77284 27.9496 9.63989 28.3194 9.50699 28.7021C9.39939 28.5789 9.38674 28.4296 9.33609 28.2869C9.24114 28.008 9.14619 27.7225 9.05759 27.4371C9.03224 27.3463 9.00064 27.262 8.97529 27.1777C8.87404 26.8598 8.76644 26.542 8.66514 26.2241C8.63349 26.1203 8.60819 26.0166 8.57654 25.9128C8.55754 25.8544 8.53224 25.8024 8.50059 25.7246L7.34859 27.1712C6.96879 27.6448 6.58904 28.1182 6.18394 28.5854C6.20924 28.4491 6.15864 28.3129 6.23459 28.1896C6.24089 28.1831 6.24089 28.1702 6.24089 28.1572C6.26624 27.982 6.28519 27.8069 6.31054 27.6383C6.34219 27.4112 6.38649 27.1841 6.41814 26.9571C6.44979 26.743 6.48144 26.529 6.51939 26.315C6.55739 26.0879 6.59534 25.8674 6.63334 25.6403C6.66499 25.4457 6.66499 25.2446 6.70929 25.0564C6.75359 24.8684 6.74094 24.6543 6.81059 24.4662C6.83589 24.4078 6.81689 24.33 6.81689 24.2262C5.52564 24.8424 4.27239 25.4781 3.00013 26.0944L2.98114 26.0685L5.50034 22.7342C5.41804 22.7082 5.32944 22.7017 5.24714 22.7277C5.13324 22.7471 5.01929 22.7601 4.90535 22.7731C4.69647 22.799 4.47493 22.7926 4.27239 22.8509C4.12048 22.8898 3.97489 22.8834 3.82298 22.9028C3.59512 22.9352 3.36725 22.9742 3.13938 23.0066C3.08242 23.0131 3.02545 23.0131 2.97481 23.0196C2.85455 23.0261 2.74062 23.0196 2.62036 23.0715C2.53807 23.104 2.43047 23.078 2.33552 23.0909C2.2659 23.0974 2.2026 23.1169 2.13297 23.1299C2.10133 23.1363 2.06335 23.1428 2.0317 23.1428C1.87979 23.1494 1.72155 23.1299 1.56964 23.2012C1.56331 23.2012 1.55065 23.1947 1.519 23.1817C1.55065 23.1493 1.5823 23.1169 1.61395 23.0909C2.13297 22.7796 2.64567 22.4618 3.1647 22.1503C3.54448 21.9169 3.92426 21.6898 4.30403 21.4627C4.34201 21.4368 4.37999 21.4108 4.44329 21.3719C4.39898 21.3395 4.34834 21.307 4.29138 21.2811C3.95591 21.1644 3.62044 21.0541 3.28497 20.9373C3.07609 20.8659 2.87354 20.7751 2.67099 20.7038C2.35451 20.5935 2.0317 20.4897 1.71522 20.3794C1.44305 20.2886 1.1772 20.1848 0.905029 20.0875C0.911359 20.0681 0.911359 20.0486 0.911359 20.0486C1.06327 20.0226 1.21518 19.9967 1.36709 19.9643C1.46836 19.9448 1.57597 19.9254 1.67724 19.8994L2.15196 19.7956C2.17095 19.7891 2.18994 19.7826 2.20893 19.7826C2.41148 19.7761 2.60137 19.7048 2.79758 19.6594C2.9495 19.627 3.10774 19.614 3.25965 19.5815C3.37991 19.5621 3.49384 19.5296 3.61411 19.5037C3.83564 19.4583 4.05718 19.4129 4.28505 19.3675C4.51291 19.3221 4.72812 19.2831 4.94966 19.2377C5.01294 19.2248 5.03194 19.1729 4.98763 19.1275C4.94333 19.0821 4.88003 19.0366 4.82939 18.9848C4.48759 18.6474 4.15212 18.3036 3.81665 17.9663C3.51916 17.6679 3.21534 17.3695 2.91152 17.0711C2.69631 16.8636 2.4811 16.656 2.25957 16.4484C2.20893 16.3965 2.15196 16.3576 2.10133 16.3122L2.12032 16.2732C2.15196 16.2668 2.18361 16.2668 2.20893 16.2668C2.67099 16.3705 3.13938 16.4743 3.60145 16.5716C3.8483 16.6235 4.09516 16.6689 4.33568 16.7273C4.4686 16.7598 4.5952 16.8052 4.72812 16.8376C4.86104 16.87 5.00664 16.8895 5.13954 16.9154C5.19019 16.9284 5.24714 16.9349 5.31679 16.9544C5.31679 16.909 5.31044 16.8636 5.29779 16.8181C5.18384 16.5392 5.06359 16.2603 4.94333 15.9813C4.82306 15.7024 4.7028 15.43 4.58254 15.1445C4.44329 14.8202 4.31669 14.4894 4.18377 14.1585C4.06984 13.8861 3.94325 13.6136 3.82931 13.3412C3.81665 13.3023 3.81032 13.2633 3.79766 13.2244C4.00654 13.3412 4.15212 13.4904 4.31669 13.6071C4.48126 13.7239 4.64583 13.8472 4.8104 13.9704L5.31044 14.3467C5.47504 14.4699 5.64594 14.5932 5.81049 14.7229C5.97504 14.8526 6.13964 14.9824 6.30419 15.1056C6.46879 15.2289 6.63334 15.3456 6.79789 15.4689C6.96249 15.5921 7.12074 15.7219 7.29164 15.8386C7.31059 15.7932 7.32329 15.7802 7.32329 15.7673C7.31059 15.5792 7.29164 15.3975 7.27264 15.2094C7.25999 15.0732 7.24729 14.9305 7.23464 14.7942C7.22199 14.6061 7.23464 14.405 7.19669 14.2234C7.15239 13.9639 7.17134 13.6915 7.12704 13.4385C7.08274 13.1855 7.10804 12.939 7.07009 12.699C7.03844 12.4849 7.01944 12.2644 7.01944 12.0503C7.01944 11.9984 7.01944 11.953 7.01944 11.8881C7.09539 11.9335 7.38654 12.3552 7.47519 12.4914C7.60809 12.7055 7.74734 12.9066 7.88659 13.1206C8.02584 13.3347 8.15879 13.5423 8.29169 13.7563C8.42464 13.9704 8.55754 14.1845 8.70314 14.3856C8.84869 14.5867 8.94999 14.8202 9.14619 15.0083C9.32974 14.671 9.50064 14.3596 9.67789 14.0483C9.85514 13.7369 10.0197 13.419 10.1906 13.1012C10.3615 12.7833 10.5324 12.4784 10.7033 12.1736C10.8742 11.8687 11.0324 11.5378 11.2223 11.2394L11.2539 11.2459C11.2666 11.2784 11.2729 11.3043 11.2793 11.3367C11.2856 11.4535 11.2793 11.5768 11.2856 11.6935C11.2919 11.7779 11.3046 11.8557 11.3109 11.94C11.3236 12.1346 11.3299 12.3292 11.3426 12.5303C11.3489 12.6795 11.3172 12.8287 11.3932 12.9714C11.4059 13.0104 11.4059 13.0558 11.3995 13.0947C11.3995 13.2893 11.4059 13.4774 11.4059 13.672C11.3995 13.698 11.3995 13.7239 11.4059 13.7499C11.4945 14.0288 11.4438 14.3142 11.4628 14.5996C11.4628 14.6321 11.4692 14.671 11.4818 14.7229C11.5198 14.7099 11.5578 14.684 11.5957 14.6645C11.6717 14.6061 11.7413 14.5413 11.811 14.4764C12.0198 14.2753 12.2287 14.0742 12.4439 13.8731C12.6022 13.7239 12.7731 13.5812 12.9313 13.4385C13.0895 13.2958 13.2541 13.1271 13.4187 12.9714C13.5326 12.8676 13.6465 12.7703 13.7731 12.6601C13.7795 12.699 13.7985 12.7249 13.7921 12.7444C13.7415 12.9455 13.6845 13.1401 13.6339 13.3412C13.6086 13.4385 13.5832 13.5423 13.5643 13.6396C13.4883 13.9639 13.4123 14.2883 13.3301 14.6126C13.2794 14.8202 13.2225 15.0213 13.1718 15.2289C13.1402 15.3651 13.1275 15.5013 13.0959 15.6375C13.0769 15.7348 13.0389 15.8321 13.0136 15.9359C12.9819 16.0527 12.9503 16.163 12.925 16.2797C12.925 16.2992 12.925 16.3122 12.9313 16.3316C13.0073 16.377 13.0769 16.3381 13.1465 16.3057C13.3807 16.1954 13.6086 16.0851 13.8428 15.9813C14.2036 15.8192 14.5643 15.657 14.9188 15.4883C15.172 15.3716 15.4252 15.2613 15.672 15.1445C16.0391 14.9759 16.4063 14.8072 16.7734 14.6386C16.8114 14.6256 16.8493 14.6126 16.8873 14.6061C16.8367 14.7553 16.7481 14.8526 16.6721 14.9564C16.5392 15.138 16.3936 15.3132 16.2607 15.4883C15.9758 15.8711 15.691 16.2473 15.4062 16.63C15.172 16.9479 14.9378 17.2657 14.7036 17.5836C14.6086 17.7133 14.5137 17.8366 14.4124 17.9598C14.3998 17.9793 14.3871 17.9988 14.3681 18.0377C14.4188 18.0442 14.4567 18.0571 14.4947 18.0571C14.6276 18.0701 14.7542 18.0766 14.8871 18.0831C15.0834 18.0961 15.2796 18.1025 15.4758 18.1155C15.7733 18.135 16.0708 18.1544 16.3683 18.1739C16.4632 18.1804 16.5582 18.1739 16.6594 18.1804C16.8177 18.1934 16.9823 18.2193 17.1405 18.2258C17.3241 18.2388 17.5076 18.2323 17.6848 18.2453C17.9507 18.2647 18.2165 18.2842 18.4824 18.3101C18.4887 18.3101 18.495 18.3231 18.514 18.3361C18.495 18.3685 18.4697 18.3944 18.4381 18.4204C18.052 18.6734 17.6659 18.9264 17.2797 19.1794C17.0202 19.348 16.7607 19.5102 16.5012 19.6788C16.3366 19.7891 16.1721 19.8995 16.0138 20.0097C15.9125 20.0745 15.8113 20.1459 15.71 20.2108L14.9315 20.7167L14.7226 20.8335ZM12.906 16.5457C12.8996 16.5197 12.8996 16.4873 12.887 16.4743C12.7731 16.3641 12.6528 16.2473 12.5325 16.1435C12.4439 16.0722 12.349 16.0138 12.254 15.9619C12.0135 15.8386 11.773 15.7089 11.5198 15.5986C11.3236 15.5208 11.121 15.4559 10.9185 15.404C10.7412 15.3521 10.5577 15.3781 10.3931 15.3002C9.96274 15.3197 9.53229 15.2483 9.09554 15.3456C8.89934 15.391 8.70944 15.4235 8.51324 15.4754C8.15879 15.5727 7.81699 15.7219 7.50049 15.91C7.26629 16.0397 7.04474 16.1889 6.84219 16.3641C6.65234 16.5327 6.47509 16.7208 6.29789 16.9025C6.02569 17.1879 5.79784 17.5122 5.62694 17.869C5.46869 18.1869 5.33579 18.5242 5.24084 18.868C5.14589 19.1858 5.12689 19.5102 5.07624 19.828C5.04459 20.0745 5.04459 20.3275 5.08259 20.574C5.09524 20.7557 5.12054 20.9308 5.15219 21.1124C5.19649 21.3135 5.25979 21.5081 5.31679 21.7027C5.41174 22.0141 5.53829 22.3125 5.69654 22.5914C5.86114 22.8834 6.05734 23.1623 6.27889 23.4153C6.44979 23.6164 6.63969 23.8045 6.84854 23.9667C7.03844 24.1029 7.21564 24.2586 7.41819 24.3754C7.69039 24.5376 7.97524 24.6737 8.27269 24.784C8.48159 24.8554 8.69679 24.9203 8.91199 24.9722C9.00694 25.0046 9.10824 25.0306 9.20314 25.037C9.70954 25.0306 10.2159 25.1083 10.7159 24.9786C10.9185 24.9267 11.1337 24.8943 11.3299 24.8165C11.6717 24.6932 12.0072 24.531 12.3173 24.3429C12.7098 24.0899 13.0642 23.7786 13.3744 23.4283C13.6212 23.1559 13.8301 22.8509 14.001 22.5201C14.1086 22.3255 14.1972 22.118 14.2858 21.9103C14.3048 21.8584 14.3238 21.8065 14.3365 21.7482C14.3871 21.599 14.4377 21.4498 14.4757 21.2941C14.5137 21.1124 14.5264 20.9309 14.5453 20.7427C14.5453 20.7232 14.5517 20.7038 14.558 20.6843C14.577 20.587 14.5897 20.4832 14.6023 20.3794C14.6086 20.2108 14.6023 20.0356 14.6023 19.867C14.6023 19.828 14.596 19.7826 14.5897 19.7437C14.5517 19.5296 14.52 19.3221 14.4821 19.108C14.4567 18.9783 14.4251 18.8485 14.3871 18.7188C14.3428 18.5696 14.2922 18.4269 14.2352 18.2842C14.1529 18.0896 14.077 17.895 13.944 17.7263C13.8048 17.5447 13.6719 17.3566 13.5579 17.1555C13.5073 17.0582 13.444 16.9738 13.368 16.896C13.2604 16.7922 13.1592 16.6884 13.0452 16.5976C13.0073 16.5652 12.9566 16.5522 12.906 16.5457Z" fill="#FECA08"/>
<path d="M12.906 16.5458C12.9566 16.5588 13.0073 16.5782 13.0516 16.6042C13.1655 16.7015 13.2668 16.8053 13.3744 16.9026C13.4503 16.9804 13.5136 17.0647 13.5643 17.162C13.6782 17.3631 13.8048 17.5512 13.9504 17.7329C14.0833 17.9015 14.1592 18.0961 14.2415 18.2907C14.2985 18.4335 14.3491 18.5762 14.3934 18.7254C14.4314 18.8551 14.4631 18.9848 14.4884 19.1146C14.5264 19.3222 14.5643 19.5362 14.596 19.7503C14.6023 19.7892 14.6087 19.8346 14.6087 19.8735C14.6087 20.0422 14.615 20.2173 14.6087 20.386C14.6023 20.4898 14.5833 20.5871 14.5643 20.6909C14.5643 20.7103 14.558 20.7298 14.5517 20.7493C14.5264 20.9309 14.5137 21.119 14.4821 21.3006C14.4441 21.4563 14.3998 21.6055 14.3428 21.7547C14.3301 21.8066 14.3112 21.865 14.2922 21.9169C14.1972 22.1245 14.1149 22.3321 14.0073 22.5267C13.8364 22.8575 13.6212 23.1624 13.3807 23.4348C13.0706 23.7851 12.7098 24.0964 12.3237 24.3495C12.0072 24.5441 11.678 24.6998 11.3362 24.823C11.14 24.9009 10.9248 24.9268 10.7223 24.9852C10.2222 25.1149 9.71587 25.0306 9.20947 25.0436C9.10822 25.0371 9.01327 25.0111 8.91832 24.9787C8.70312 24.9268 8.48792 24.8684 8.27902 24.7906C7.98152 24.6803 7.69672 24.5441 7.42452 24.3819C7.22832 24.2587 7.04477 24.1095 6.85487 23.9732C6.64597 23.8111 6.45612 23.6229 6.28522 23.4218C6.06367 23.1689 5.86742 22.8899 5.69652 22.5915C5.53832 22.3126 5.41172 22.0142 5.31677 21.7028C5.25982 21.5082 5.19017 21.3136 5.15217 21.1125C5.12057 20.9374 5.09522 20.7558 5.08257 20.5741C5.05092 20.3276 5.04457 20.0746 5.07622 19.8281C5.12687 19.5103 5.15217 19.1859 5.24082 18.8681C5.33577 18.5243 5.46867 18.187 5.62692 17.8691C5.80412 17.5123 6.03202 17.188 6.30417 16.9026C6.48142 16.7209 6.65862 16.5328 6.84852 16.3641C7.05107 16.189 7.27262 16.0398 7.50682 15.9101C7.82327 15.722 8.16507 15.5792 8.51957 15.4754C8.70942 15.4236 8.90567 15.3846 9.10187 15.3457C9.53227 15.2484 9.96902 15.3198 10.3995 15.3003C10.564 15.3781 10.7539 15.3522 10.9248 15.4041C11.1274 15.456 11.3299 15.5209 11.5261 15.5987C11.773 15.709 12.0198 15.8387 12.2604 15.962C12.3616 16.0074 12.4503 16.0658 12.5389 16.1371C12.6655 16.2409 12.7794 16.3512 12.8933 16.4679C12.906 16.4874 12.8997 16.5198 12.906 16.5458C12.8617 16.5263 12.8237 16.5004 12.7794 16.4679C12.4566 16.1955 12.1021 15.9749 11.7223 15.7998C11.4755 15.683 11.216 15.5922 10.9565 15.5273C10.7033 15.469 10.4501 15.4041 10.1842 15.4106C10.1463 15.4106 10.1146 15.4041 10.0766 15.4041L9.13987 15.4236C9.12087 15.4236 9.10187 15.43 9.08287 15.43C8.86137 15.4884 8.63347 15.5403 8.41197 15.6117C8.25372 15.6636 8.10812 15.7349 7.94987 15.7998L7.89292 15.8128L7.88657 15.8193L7.82327 15.8711L7.77267 15.8841C7.73467 15.8776 7.70302 15.8841 7.70302 15.9295C7.48782 16.0074 7.31692 16.1371 7.13337 16.2668L7.08907 16.3058C7.08272 16.3123 7.07642 16.3123 7.07007 16.3187L7.01942 16.3447L6.94347 16.4031L6.91817 16.4355C6.72192 16.5782 6.54472 16.7469 6.38647 16.9285C6.05732 17.3047 5.78517 17.7264 5.57627 18.1805C5.51932 18.3232 5.46867 18.4659 5.43072 18.6086L5.38637 18.68C5.36107 18.8032 5.32942 18.9265 5.30412 19.0562C5.26612 19.2378 5.20917 19.4195 5.19652 19.6011C5.17752 19.9708 5.19017 20.3471 5.19017 20.7168C5.19017 20.7817 5.19652 20.8401 5.21547 20.9049C5.24712 21.0477 5.27877 21.1969 5.31042 21.3396C5.32942 21.4563 5.36107 21.5731 5.39272 21.6834C5.48767 21.9558 5.60162 22.2218 5.74087 22.4813C6.20922 23.344 6.92447 24.0446 7.78532 24.4792C7.91192 24.5441 8.03852 24.583 8.17142 24.6349C8.19042 24.6803 8.24107 24.7062 8.29167 24.6933C8.41827 24.7452 8.55122 24.7841 8.68412 24.8165C8.95632 24.8749 9.22847 24.9203 9.50697 24.9398C10.1146 24.9852 10.7286 24.9073 11.3046 24.7062C11.5008 24.6349 11.6907 24.557 11.8806 24.4662C12.1781 24.317 12.4566 24.1354 12.7161 23.9278C13.0136 23.6878 13.2858 23.4154 13.52 23.104C13.6719 22.8899 13.8111 22.6629 13.9377 22.4294C14.077 22.1958 14.1782 21.9493 14.2542 21.6899C14.2985 21.5342 14.3301 21.372 14.3808 21.2163C14.4441 21.0087 14.4757 20.7947 14.4884 20.5806C14.501 20.3082 14.4947 20.0292 14.4884 19.7568C14.4884 19.6984 14.4821 19.6465 14.4694 19.5881C14.4378 19.4195 14.4061 19.2443 14.3681 19.0757C14.3365 18.894 14.2858 18.7189 14.2289 18.5437C14.1086 18.2194 13.9567 17.908 13.7795 17.6161C13.6212 17.3566 13.4377 17.1166 13.2225 16.8961C13.1085 16.7858 13.0136 16.6625 12.906 16.5458Z" fill="#BE8204"/>
<path d="M8.03225 15.9878C8.1778 15.923 8.3234 15.8516 8.4753 15.8062C8.6842 15.7413 8.8994 15.6895 9.1146 15.6376C9.1336 15.6311 9.1526 15.6311 9.17155 15.6311L10.0704 15.6116C10.1021 15.6116 10.14 15.6181 10.1717 15.6181C10.4249 15.6181 10.6654 15.683 10.9122 15.7349C11.1654 15.7932 11.4123 15.8841 11.6465 15.9943C12.0136 16.1565 12.3491 16.3706 12.6592 16.6365C12.6972 16.6625 12.7352 16.6884 12.7795 16.7144C12.8808 16.8247 12.9757 16.9414 13.0833 17.0517C13.2859 17.2593 13.463 17.4928 13.6087 17.7393C13.7859 18.0182 13.9251 18.3166 14.0454 18.628C14.1023 18.7967 14.1467 18.9653 14.1783 19.1405C14.2163 19.3026 14.2416 19.4713 14.2732 19.6335C14.2859 19.6854 14.2922 19.7437 14.2922 19.7956C14.2922 20.0616 14.3049 20.3211 14.2922 20.587C14.2859 20.7946 14.248 21.0022 14.191 21.1968C14.1467 21.346 14.115 21.5017 14.0707 21.6509C14.001 21.8974 13.8998 22.1374 13.7669 22.3579C13.6466 22.585 13.5074 22.799 13.3618 23.0066C13.1403 23.2986 12.8808 23.5645 12.5959 23.7915C12.3491 23.9926 12.0832 24.1613 11.7984 24.304C11.6148 24.3883 11.4313 24.4662 11.2477 24.531C10.697 24.7256 10.1084 24.8035 9.52605 24.7581C9.2602 24.7322 9.00065 24.6932 8.73485 24.6348C8.60825 24.6024 8.48165 24.5635 8.35505 24.5116C8.33605 24.4467 8.28545 24.4467 8.2411 24.4597C8.12085 24.4078 7.99425 24.3689 7.874 24.3105C7.0448 23.8953 6.3549 23.2272 5.9118 22.3969C5.7852 22.1504 5.6713 21.8974 5.5827 21.6314C5.55105 21.5211 5.5194 21.4109 5.5004 21.3006C5.46875 21.1644 5.4371 21.0216 5.40545 20.8854C5.3928 20.827 5.38645 20.7687 5.38645 20.7103C5.38645 20.3535 5.3738 19.9967 5.3928 19.6399C5.3991 19.4648 5.4561 19.2961 5.49405 19.121C5.5194 18.9977 5.55105 18.881 5.57635 18.7642L5.6143 18.6929C5.6523 18.5502 5.70295 18.4139 5.7599 18.2842C5.96245 17.8496 6.22195 17.4409 6.53845 17.0841C6.69035 16.909 6.86125 16.7533 7.05115 16.6106L7.07645 16.5846L7.1461 16.5263L7.19675 16.5003C7.20305 16.4938 7.20305 16.4873 7.2157 16.4873L7.26005 16.4549C7.43095 16.3316 7.60185 16.2084 7.80435 16.137L7.874 16.0916L7.92465 16.0787C7.9626 16.0851 7.98795 16.0722 7.98795 16.0268H7.99425L8.03225 15.9878Z" fill="url(#paint0_radial_10_7163)"/>
<path d="M6.6017 17.8755C6.55105 17.9144 6.4941 17.9469 6.4498 17.9923C6.3169 18.109 6.2536 18.2777 6.1523 18.4204L6.146 18.5501L6.26625 18.4074C6.5131 18.0312 6.84855 17.895 7.22835 18.0247C7.4309 18.0831 7.59545 18.2453 7.65245 18.4593C7.6714 18.5242 7.69675 18.5955 7.72205 18.6604C7.74735 18.7253 7.7727 18.7772 7.81065 18.8615C7.836 18.6864 7.81065 18.5047 7.7284 18.3426C7.70305 18.2842 7.68405 18.2258 7.65875 18.1739C7.51315 17.8885 7.1524 17.7523 6.8992 17.7652C6.8296 17.7782 6.75995 17.7977 6.69665 17.8171" fill="#272425"/>
<path d="M5.42443 18.6215L5.38013 18.6929L5.42443 18.6215Z" fill="#272425"/>
<path d="M7.07018 16.3252L7.01953 16.3511L7.07018 16.3252Z" fill="#272425"/>
<path d="M7.13341 16.2733L7.08911 16.3123L7.13341 16.2733Z" fill="#272425"/>
<path d="M7.95641 15.8062L7.89941 15.8192L7.95641 15.8062Z" fill="#272425"/>
<path d="M6.95021 16.416L6.92456 16.4484L6.95021 16.416Z" fill="#272425"/>
<path d="M6.70935 18.7059C6.75365 18.6604 6.81695 18.6345 6.8739 18.6085C7.01315 18.5761 7.1524 18.641 7.2094 18.7772C7.2347 18.8291 7.2537 18.881 7.26635 18.9394C7.317 19.2832 7.28535 19.614 7.09545 19.9189C7.0448 19.9967 6.96885 20.0551 6.88025 20.0876C6.8296 20.1005 6.77265 20.094 6.722 20.0746C6.60175 20.0292 6.51315 19.9189 6.4878 19.7892C6.4878 19.7892 6.4372 19.5751 6.45615 19.3935C6.4625 19.3091 6.51945 19.0626 6.51945 19.0626C6.51945 19.0626 6.5701 18.9134 6.5954 18.868C6.62075 18.8161 6.67135 18.7383 6.70935 18.7059ZM6.8929 18.8226C6.79165 18.8291 6.74735 18.855 6.7157 18.9134C6.6397 19.0561 6.6397 19.2118 6.64605 19.374C6.7853 19.387 6.8296 19.361 6.83595 19.2702C6.83595 19.1599 6.85495 19.0432 6.8929 18.9394C6.8929 18.9005 6.89925 18.8615 6.8929 18.8226Z" fill="#272425"/>
<path d="M9.94382 20.2238C9.93747 20.2627 9.92483 20.3017 9.91218 20.3406C9.88053 20.4119 9.82987 20.4508 9.74757 20.4184L9.78558 20.2822C9.80457 20.2433 9.81087 20.2108 9.77292 20.1914C9.72227 20.1784 9.67798 20.1719 9.62733 20.1654C9.46908 20.1589 9.31088 20.1654 9.15893 20.1589C8.98173 20.1589 8.80447 20.1006 8.65257 20.0033C8.61457 19.9838 8.41837 19.7957 8.40572 19.6854C8.40572 19.6854 8.32978 19.4454 8.32978 19.3611C8.31708 19.1665 8.36142 18.9718 8.45002 18.7967C8.63357 18.4334 8.93743 18.2064 9.29188 18.0313C9.44377 17.9534 9.60832 17.895 9.77292 17.8691C9.81722 17.8626 9.85518 17.8561 9.87418 17.921C9.76658 18.0118 9.62732 18.0377 9.50072 18.0896C9.18427 18.2194 8.90578 18.3945 8.70953 18.6799C8.58293 18.8616 8.48797 19.0627 8.49432 19.2897C8.50067 19.5686 8.60828 19.8087 8.86778 19.9384C8.91208 19.9578 8.95638 19.9643 9.00068 19.9708C9.25388 19.9903 9.50707 20.0097 9.75392 20.0162C9.92482 20.0292 9.93117 20.0292 9.94382 20.2238Z" fill="#272425"/>
<path d="M7.65244 18.4594C7.58914 18.2518 7.43094 18.0897 7.22839 18.0248C6.84859 17.8951 6.51314 18.0313 6.26629 18.4075L6.15234 18.4205C6.24729 18.2778 6.31689 18.1091 6.44984 17.9924C6.50044 17.947 6.55109 17.9145 6.60174 17.8755L6.69669 17.8237C6.75999 17.7978 6.82959 17.7782 6.89924 17.7718C7.15239 17.7588 7.51319 17.8951 7.65879 18.1805C7.68409 18.2324 7.70309 18.2908 7.72839 18.3491C7.70944 18.3881 7.76004 18.4789 7.65244 18.4594Z" fill="#272425"/>
<path d="M6.69676 17.8237L6.60181 17.8756L6.69676 17.8237Z" fill="#272425"/>
<path d="M13.1403 21.7222C12.9631 21.6768 12.8618 21.5341 12.7352 21.3979C12.7099 21.4433 12.6783 21.4823 12.653 21.5212C12.3744 22.0401 12.001 22.4942 11.5453 22.8575C11.2351 23.104 10.8743 23.2856 10.4882 23.3829C10.1338 23.4802 9.76033 23.5062 9.38688 23.4608C9.09573 23.4218 8.80453 23.331 8.53868 23.2012C8.17158 23.0196 7.88043 22.7537 7.58293 22.4748C7.45633 22.3515 7.36773 22.2023 7.25378 22.0725C7.06388 21.839 6.89298 21.5925 6.74108 21.333C6.72843 21.3136 6.71578 21.3006 6.69678 21.2876C6.55118 21.3719 6.41828 21.4563 6.28538 21.5341C6.26003 21.5471 6.22208 21.5277 6.17773 21.5277C6.19673 21.4563 6.24738 21.4303 6.29168 21.4044C6.46258 21.2941 6.60818 21.1514 6.73478 20.9958C6.80438 20.8984 6.87403 20.7946 6.93098 20.6908C6.96898 20.6324 6.96898 20.639 7.06388 20.6714L6.84868 21.1449C8.78558 21.5601 10.6971 21.599 12.6213 21.2033C12.6086 21.0217 12.4947 20.8725 12.52 20.7038C12.596 20.6714 12.6213 20.7103 12.6403 20.7557C12.6656 20.8076 12.6909 20.866 12.7099 20.9244C12.7669 21.1904 12.9315 21.3914 13.1087 21.5795C13.153 21.612 13.1657 21.6703 13.1403 21.7222ZM6.95628 21.3395L7.02593 21.4498C7.33608 21.9753 7.74118 22.4229 8.22223 22.7861C8.54503 23.0196 8.91213 23.1818 9.29828 23.2596C9.46283 23.2856 9.62738 23.2986 9.79828 23.2856C10.0008 23.2856 10.2034 23.2791 10.3933 23.2078C10.5452 23.1494 10.7161 23.1234 10.8617 23.052C11.1908 22.8899 11.4946 22.6758 11.7541 22.4228C12.058 22.1244 12.3175 21.7806 12.52 21.3979C12.4504 21.4044 12.3998 21.4109 12.3555 21.4174C12.2035 21.4498 12.0516 21.4888 11.8997 21.5147C11.7478 21.5406 11.5896 21.5601 11.4377 21.573C11.1275 21.599 10.811 21.6379 10.5009 21.6379C9.90588 21.6444 9.31093 21.6834 8.71593 21.5925C8.45008 21.5536 8.17158 21.5406 7.90573 21.5147C7.88673 21.5147 7.86143 21.5082 7.84243 21.5082C7.58928 21.4498 7.33608 21.3914 7.07658 21.3395C7.03223 21.3395 6.99428 21.3395 6.95628 21.3395Z" fill="#272425"/>
<path d="M12.4061 19.4583C12.4187 19.7048 12.3491 19.9578 12.2099 20.1589C12.1592 20.2303 12.1023 20.2951 12.0326 20.3405C11.8807 20.4443 11.6845 20.3405 11.6275 20.1654C11.5199 19.8151 11.5896 19.4843 11.6972 19.1534C11.7351 19.0561 11.7921 18.9718 11.8681 18.9004C12.0136 18.7513 12.2289 18.8096 12.3301 18.9978C12.4124 19.1469 12.3998 19.3026 12.4061 19.4583ZM11.7605 19.5621C11.9377 19.601 11.963 19.5881 11.9883 19.4518C12.0136 19.3351 12.0453 19.2183 12.0706 19.0951C12.0769 19.0691 12.0769 19.0367 12.0643 19.0237C12.0516 19.0107 11.9947 18.9978 11.982 19.0107C11.925 19.0496 11.8807 19.1015 11.8491 19.1664C11.8048 19.2961 11.7794 19.4259 11.7605 19.5621Z" fill="#272425"/>
<path d="M11.4438 18.3231C11.4755 18.2842 11.6084 18.1934 11.6084 18.1934C11.8426 18.0572 12.1211 18.0377 12.368 18.135C12.6591 18.2518 12.8807 18.4983 12.963 18.8096C12.9883 18.894 13.0579 18.9848 12.9883 19.0951C12.9313 18.9783 12.887 18.868 12.83 18.7642C12.6781 18.4399 12.368 18.2388 12.0198 18.2258C11.8679 18.2193 11.7477 18.2907 11.6211 18.3685C11.4945 18.4464 11.4312 18.5372 11.3426 18.6929C11.3299 18.7123 11.3173 18.7383 11.3046 18.7577L11.2666 18.7383L11.2983 18.6021C11.2983 18.6021 11.3995 18.3815 11.4438 18.3231Z" fill="#272425"/>
<path d="M9.7666 20.1783C9.8115 20.2043 9.8051 20.2367 9.77945 20.2691L9.7666 20.1783Z" fill="#272425"/>
<path d="M21.8689 14.6389C22.4006 13.7567 23.1728 13.3221 24.2045 13.3221C26.3946 13.4064 27.4833 14.8919 27.4833 17.772C27.4833 20.6003 26.211 22.0339 23.6602 22.0728C21.0903 22.0923 19.8054 20.8274 19.8054 18.278V11.0322H20.8435C21.5271 11.0322 21.8815 11.3825 21.8815 12.096L21.8689 14.6389ZM23.6349 15.2422C22.5272 15.2422 21.9322 16.0595 21.8752 17.6877C21.8562 19.4002 22.4322 20.2565 23.6095 20.2565C24.7868 20.2565 25.3692 19.3938 25.3692 17.6877C25.3249 16.053 24.7425 15.2422 23.6349 15.2422Z" fill="url(#paint1_linear_10_7163)"/>
<path d="M29.1163 11.0319C29.3758 11.0319 29.6163 11.1292 29.8125 11.3303C30.0214 11.5314 30.1164 11.7779 30.1164 12.0633V21.9428H28.0529V11.0319H29.1163Z" fill="url(#paint2_linear_10_7163)"/>
<path d="M37.8448 18.5697C37.8448 20.0357 37.484 20.9893 36.7561 21.4628C36.0282 21.8974 35.2244 22.1245 34.3319 22.1245C33.4837 22.1245 32.7052 21.878 31.9963 21.4044C31.2937 20.9504 30.9392 20.0033 30.9392 18.5762V13.458H33.0027V19.0173C33.0027 19.9643 33.471 20.4314 34.4015 20.4314C35.332 20.4314 35.8004 19.9643 35.8004 19.0173V14.5284C35.7814 13.8148 36.1105 13.4645 36.8068 13.4645H37.8638V18.5632H37.8448V18.5697Z" fill="url(#paint3_linear_10_7163)"/>
<path d="M45.6428 19.3416C45.4023 20.3081 44.9973 21.0087 44.4276 21.4433C43.763 21.8974 42.9655 22.1309 42.0666 22.1309C39.5791 22.0466 38.3322 20.5611 38.3322 17.681C38.3322 14.8008 39.5854 13.3348 42.0983 13.3153C44.7124 13.3153 45.934 14.9824 45.7695 18.3102H40.4589C40.5412 19.6076 41.0919 20.2562 42.0983 20.2562C42.5857 20.2562 43.0287 20.0551 43.4338 19.6594C43.6174 19.4454 43.8516 19.3416 44.1301 19.3416H45.6428ZM43.5794 16.7728C43.4528 15.6441 42.9465 15.0732 42.0666 15.0732C41.1742 15.0732 40.6488 15.6376 40.4906 16.7728H43.5794Z" fill="url(#paint4_linear_10_7163)"/>
<path d="M48.5228 24.2132C48.5228 24.9268 48.181 25.2771 47.4848 25.2771H46.453V17.1426C46.5543 14.6127 47.8392 13.3477 50.308 13.3477C52.8584 13.3477 54.131 14.7813 54.131 17.6485C54.131 20.5417 53.042 22.0272 50.852 22.0985C49.8141 22.0985 49.0355 21.6639 48.5165 20.7817V24.2132H48.5228ZM52.0169 17.7523C52.0169 16.0398 51.428 15.1835 50.257 15.1835C49.0862 15.1835 48.5038 16.0463 48.5228 17.7523C48.5861 19.387 49.1684 20.1979 50.2825 20.1979C51.3965 20.1914 51.979 19.374 52.0169 17.7523Z" fill="white"/>
<path d="M54.745 17.5577C54.808 14.8138 56.2195 13.445 58.9665 13.445H59.2705V15.6765H58.568C57.416 15.6765 56.8335 16.2928 56.8335 17.5253V21.9558H54.7385V17.5577H54.745Z" fill="white"/>
<path d="M61.2266 11.0319C61.9101 11.0319 62.2521 11.3692 62.2331 12.0633V12.6925H60.1696V11.0254H61.2266V11.0319ZM61.2266 13.445C61.8911 13.445 62.2331 13.7823 62.2331 14.4764V21.9428H60.1696V13.4385H61.2266V13.445Z" fill="white"/>
<path d="M68.993 21.9558C68.309 21.9104 67.955 21.5601 67.955 20.8919V16.5263C67.9105 15.6441 67.436 15.2095 66.5245 15.2095C65.613 15.2095 65.1445 15.6441 65.1255 16.5263V21.9558H63.0305V16.9609C63.0305 14.5413 64.2015 13.3153 66.556 13.3153C68.898 13.3153 70.069 14.5283 70.05 16.9609V21.9558H68.993Z" fill="white"/>
<path d="M71.759 21.839C70.9805 21.7676 70.6005 21.2551 70.6195 20.321V11.0319H71.6765C71.936 11.0319 72.1765 11.1357 72.373 11.3497C72.569 11.5638 72.6765 11.8038 72.6765 12.1022V13.4515H73.9235V13.9185C73.9235 14.2364 73.8225 14.4894 73.62 14.684C73.4175 14.8786 73.1765 14.9824 72.892 14.9824H72.683V19.6918C72.683 20.0421 72.892 20.2237 73.297 20.2237H73.93V21.8584C73.259 21.9233 72.5375 21.9169 71.759 21.839Z" fill="white"/>
<path d="M56.2261 28.1961L55.9031 29.1303H54.8781L56.4666 24.2975H57.7201L59.3401 29.1303H58.3021L57.9986 28.1961H56.2261ZM56.8526 26.5355L56.5931 27.3204H57.6311L57.3716 26.5679L57.1121 25.9322H57.0996L56.8526 26.5355Z" fill="white"/>
<path d="M60.1695 25.9323H60.1185L60.163 26.7107V29.1303H59.22V24.317H60.454L61.625 27.1648L62.796 24.317H64.0305V29.1303H63.0875V26.7107L63.0685 25.9323H63.024L62.815 26.6653L62.0175 29.0849H61.2515L60.454 26.6653L60.1695 25.9323Z" fill="white"/>
<path d="M65.4165 24.33V29.1302H64.4545V24.33H65.4165Z" fill="white"/>
<path d="M68.5055 27.1842L68.879 28.1508L68.942 28.1378L68.765 26.8923V24.317H69.721V29.1303H68.499L67.1195 26.2631L66.7585 25.2511L66.695 25.2641L66.86 26.5615V29.1433H65.8975V24.33H67.1195L68.5055 27.1842Z" fill="white"/>
<path d="M55.3334 26.6134H52.4094V27.4307H54.1814C53.9534 27.9626 53.4664 28.3259 52.8964 28.3259C52.1119 28.3259 51.4659 27.6124 51.4659 26.7301C51.4659 25.8479 52.1119 25.1344 52.8964 25.1344C53.3334 25.1344 53.7129 25.3484 53.9724 25.6858H55.1309C54.7574 24.7581 53.8964 24.1224 52.9029 24.1224C51.5549 24.1224 50.4659 25.2901 50.4659 26.7237C50.4659 28.1573 51.5549 29.3249 52.9029 29.3249C54.2509 29.3249 55.3399 28.1573 55.3399 26.7237C55.3459 26.6847 55.3459 26.6523 55.3334 26.6134Z" fill="white"/>
<path d="M74.702 26.5874H71.778V27.4048H73.55C73.3225 27.9367 72.835 28.2999 72.2655 28.2999C71.4805 28.2999 70.835 27.5863 70.835 26.7041C70.835 25.8219 71.4805 25.1084 72.2655 25.1084C72.702 25.1084 73.082 25.3224 73.3415 25.6597H74.4935C74.12 24.7321 73.259 24.0965 72.2655 24.0965C70.917 24.0965 69.8285 25.2641 69.8285 26.6977C69.8285 28.1313 70.917 29.2989 72.2655 29.2989C73.6135 29.2989 74.702 28.1313 74.702 26.6977C74.715 26.6782 74.702 26.6328 74.702 26.5874Z" fill="white"/>
<path d="M76.873 24.3691H76.487V25.6794H76.1265V24.3756H75.734V24.0967H76.873V24.3691Z" fill="white"/>
<path d="M77.3796 24.4207H77.3605L77.4301 24.8683V25.6662H77.076V24.0835H77.5316L77.9681 25.0175L78.4051 24.0835H78.8605V25.6662H78.5066V24.8683L78.576 24.4207H78.5571L78.3986 24.8553L78.0951 25.4262H77.8166L77.5251 24.8553L77.3796 24.4207Z" fill="white"/>
<defs>
<radialGradient id="paint0_radial_10_7163" cx="0" cy="0" r="1" gradientUnits="userSpaceOnUse" gradientTransform="translate(8.28905 18.3628) scale(5.9208 6.06785)">
<stop stop-color="white"/>
<stop offset="1" stop-color="#FDF29D"/>
</radialGradient>
<linearGradient id="paint1_linear_10_7163" x1="23.6372" y1="11.0354" x2="23.6372" y2="22.0753" gradientUnits="userSpaceOnUse">
<stop stop-color="#4793CF"/>
<stop offset="1" stop-color="#56C8E7"/>
</linearGradient>
<linearGradient id="paint2_linear_10_7163" x1="29.0802" y1="11.035" x2="29.0802" y2="21.9472" gradientUnits="userSpaceOnUse">
<stop stop-color="#4793CF"/>
<stop offset="1" stop-color="#56C8E7"/>
</linearGradient>
<linearGradient id="paint3_linear_10_7163" x1="34.404" y1="13.4486" x2="34.404" y2="22.1082" gradientUnits="userSpaceOnUse">
<stop stop-color="#4793CF"/>
<stop offset="1" stop-color="#56C8E7"/>
</linearGradient>
<linearGradient id="paint4_linear_10_7163" x1="42.0576" y1="13.3195" x2="42.0576" y2="22.1385" gradientUnits="userSpaceOnUse">
<stop stop-color="#4793CF"/>
<stop offset="1" stop-color="#56C8E7"/>
</linearGradient>
</defs>
</svg>
