<svg width="80" height="40" viewBox="0 0 80 40" fill="none" xmlns="http://www.w3.org/2000/svg">
<path d="M19.4084 26.0066H23.4541V30.2686C22.8928 30.6394 22.2623 30.9192 21.5915 31.0951C20.9201 31.2678 20.2245 31.3544 19.5255 31.3523C18.6528 31.362 17.7855 31.2289 16.9669 30.9597C16.2348 30.7184 15.564 30.3501 14.9938 29.876C14.447 29.4158 14.0162 28.8577 13.7299 28.2387C13.429 27.5861 13.2788 26.8865 13.288 26.1813C13.2795 25.4708 13.4227 24.7653 13.7101 24.1023C13.9781 23.4878 14.3892 22.9305 14.9165 22.4669C15.4596 21.9986 16.1057 21.635 16.8144 21.3989C17.61 21.1361 18.4537 21.007 19.3024 21.0181C19.747 21.016 20.1908 21.0508 20.6281 21.1221C21.0207 21.1851 21.406 21.2798 21.7793 21.4048C22.1166 21.5198 22.4401 21.6645 22.7449 21.8367C23.0242 21.9944 23.286 22.1752 23.5271 22.3766L22.767 23.4171C22.7163 23.4921 22.6491 23.5572 22.5693 23.6085C22.4896 23.6598 22.399 23.6962 22.3029 23.7155C22.1966 23.7321 22.0876 23.7298 21.9822 23.709C21.8768 23.6881 21.7771 23.6489 21.6887 23.5938C21.4869 23.4812 21.2902 23.3844 21.0987 23.3032C20.9167 23.2239 20.7275 23.1582 20.5331 23.1069C20.3337 23.0569 20.1295 23.0228 19.9233 23.0048C19.6849 22.98 19.4452 22.9682 19.2052 22.9695C18.75 22.9641 18.2984 23.043 17.8795 23.2012C17.4928 23.3512 17.148 23.575 16.8697 23.8569C16.5804 24.1542 16.361 24.5 16.2245 24.8738C16.0692 25.301 15.9946 25.7481 16.0036 26.197C15.9948 26.6825 16.0793 27.1658 16.2532 27.6262C16.4051 28.0175 16.6457 28.377 16.9603 28.6824C17.2697 28.9706 17.6469 29.1945 18.0651 29.3381C18.5146 29.492 18.993 29.5686 19.4748 29.5638C19.7655 29.5659 20.0554 29.5376 20.3387 29.4794C20.5963 29.4242 20.8483 29.35 21.0921 29.2576V27.7165H19.9387C19.7961 27.7236 19.656 27.6814 19.5476 27.5987C19.5019 27.5606 19.4659 27.5142 19.4419 27.4628C19.4179 27.4114 19.4065 27.356 19.4084 27.3003V26.0066Z" fill="white"/>
<path d="M35.2663 31.2502H33.2203C33.0223 31.2587 32.8266 31.209 32.6635 31.1089C32.5234 31.0139 32.4137 30.888 32.3453 30.7437L31.6825 28.9769H27.3517L26.6889 30.7437C26.6227 30.8832 26.5159 31.0045 26.3795 31.0952C26.2152 31.2065 26.0113 31.2616 25.805 31.2502H23.7435L28.1472 21.1379H30.8517L35.2663 31.2502ZM31.0682 27.3847L30.0142 24.6147C29.9369 24.44 29.8529 24.222 29.7646 23.9943C29.6762 23.7666 29.5878 23.4976 29.4994 23.2208C29.4199 23.5035 29.3381 23.7646 29.2475 24.0061C29.1569 24.2476 29.0774 24.4557 28.9978 24.6304L27.9527 27.3788L31.0682 27.3847Z" fill="white"/>
<path d="M48.959 21.1339V31.2503H46.6323V25.4294C46.6323 25.2959 46.6323 25.1506 46.6434 24.9936C46.6544 24.8365 46.6655 24.6755 46.6853 24.5146L43.6627 29.7131C43.5794 29.8654 43.4482 29.9929 43.2848 30.0802C43.1201 30.1656 42.932 30.2091 42.7413 30.2058H42.3767C42.186 30.2091 41.9979 30.1656 41.8332 30.0802C41.6697 29.9925 41.5378 29.8652 41.4531 29.7131L38.4371 24.5008C38.4533 24.667 38.4666 24.83 38.4769 24.9896C38.4879 25.1487 38.4923 25.2959 38.4923 25.4294V31.2503H36.1635V21.1339H38.1786C38.2935 21.1339 38.3995 21.1339 38.4813 21.1339C38.5569 21.1374 38.6314 21.1514 38.7022 21.1752C38.771 21.1996 38.8335 21.2364 38.8856 21.2831C38.95 21.3407 39.0037 21.407 39.0447 21.4795L41.9746 26.6093C42.0784 26.784 42.1801 26.9666 42.2751 27.157C42.3701 27.3474 42.4651 27.5496 42.5535 27.746C42.6419 27.5496 42.7347 27.3533 42.8297 27.157C42.9247 26.9607 43.0285 26.7781 43.139 26.6014L46.06 21.4971C46.1025 21.4249 46.1568 21.3587 46.2213 21.3008C46.2727 21.2532 46.3354 21.2163 46.4047 21.1928C46.4755 21.1688 46.55 21.1549 46.6257 21.1516C46.7119 21.1516 46.8113 21.1516 46.9262 21.1516L48.959 21.1339Z" fill="white"/>
<path d="M53.8175 22.9381V25.2939H57.4015V27.0294H53.822V29.4382H58.4955V31.2503H51.162V21.1339H58.491V22.9381H53.8175Z" fill="white"/>
<path d="M66.4035 23.1894C66.3395 23.2853 66.2565 23.3698 66.158 23.4388C66.0595 23.4971 65.9425 23.526 65.8245 23.5212C65.688 23.5169 65.5555 23.4825 65.438 23.4211L64.9695 23.2012C64.7775 23.1117 64.578 23.0362 64.373 22.9755C64.125 22.9056 63.866 22.8718 63.606 22.8753C63.212 22.8485 62.82 22.9481 62.5015 23.1561C62.381 23.2506 62.286 23.368 62.223 23.4994C62.1605 23.6309 62.1315 23.7732 62.139 23.9158C62.1355 24.0091 62.1535 24.102 62.1915 24.189C62.2295 24.276 62.2865 24.3553 62.36 24.4223C62.522 24.5694 62.714 24.688 62.9255 24.7718C63.189 24.8781 63.4605 24.9673 63.7385 25.0388C64.0435 25.1212 64.355 25.2096 64.6735 25.3097C64.992 25.41 65.303 25.5273 65.6055 25.6611C65.906 25.7921 66.1805 25.9651 66.419 26.1735C66.6635 26.3917 66.8585 26.6496 66.9935 26.9332C67.149 27.276 67.2245 27.6435 67.2145 28.013C67.2175 28.4616 67.1245 28.9067 66.9405 29.3244C66.763 29.7253 66.493 30.0886 66.147 30.3904C65.78 30.7049 65.3435 30.9482 64.8655 31.105C64.312 31.2865 63.7255 31.375 63.1355 31.3661C62.772 31.3649 62.409 31.332 62.0525 31.268C61.3345 31.1431 60.646 30.9086 60.0175 30.575C59.732 30.4222 59.4675 30.2403 59.229 30.0331L60.011 28.9357C60.076 28.8552 60.1595 28.7882 60.2565 28.7394C60.3575 28.6862 60.4725 28.6584 60.59 28.6589C60.758 28.6622 60.921 28.7078 61.0605 28.7904C61.2195 28.8788 61.401 28.975 61.6 29.0829C61.8205 29.1971 62.052 29.2943 62.2915 29.3735C62.587 29.4667 62.899 29.5112 63.2125 29.505C63.6105 29.5273 64.005 29.4283 64.331 29.2243C64.4705 29.1135 64.5795 28.9752 64.6485 28.8204C64.7175 28.6657 64.745 28.4988 64.7285 28.333C64.738 28.1229 64.659 27.9172 64.5075 27.7558C64.347 27.599 64.1515 27.474 63.933 27.3887C63.6735 27.2833 63.4055 27.196 63.131 27.1276C62.8285 27.053 62.519 26.9725 62.201 26.8822C61.882 26.7912 61.571 26.6797 61.2705 26.5485C60.9695 26.4174 60.696 26.2414 60.462 26.0282C60.213 25.7959 60.0175 25.5225 59.8875 25.2233C59.7295 24.8421 59.6545 24.4377 59.6665 24.0317C59.667 23.6502 59.755 23.2728 59.925 22.9225C60.1 22.5575 60.358 22.2286 60.683 21.9566C61.0385 21.6632 61.455 21.4338 61.909 21.2812C62.441 21.1049 63.0055 21.019 63.573 21.028C63.914 21.0271 64.255 21.0514 64.5915 21.1006C64.9125 21.1461 65.2285 21.2178 65.535 21.3146C65.8225 21.4065 66.1005 21.5208 66.366 21.6562C66.6145 21.7817 66.8465 21.9319 67.0575 22.1038L66.4035 23.1894Z" fill="white"/>
<path d="M5.69815 8.5892C6.3743 8.57865 7.0492 8.6446 7.70665 8.7855C8.19245 8.8884 8.651 9.07445 9.05665 9.33325C9.38845 9.55485 9.64775 9.85095 9.8079 10.1911C9.9716 10.5501 10.0528 10.9346 10.0466 11.3219C10.0469 11.5448 10.0097 11.7665 9.93605 11.9796C9.86135 12.1921 9.74545 12.3914 9.5936 12.5686C9.42335 12.7631 9.2198 12.9327 8.9904 13.0711C8.71665 13.2362 8.41945 13.3683 8.10655 13.4638C8.85485 13.6261 9.40945 13.8878 9.77035 14.249C10.1423 14.6401 10.3348 15.1412 10.3095 15.6527C10.3128 16.0657 10.2172 16.4746 10.0289 16.8522C9.83845 17.2252 9.5569 17.5558 9.2047 17.8201C8.81015 18.1121 8.35425 18.3317 7.8635 18.466C7.2751 18.629 6.6613 18.7078 6.04505 18.6996H1.5V8.5892H5.69815ZM4.15146 10.3443V12.8434H5.5258C5.7861 12.8478 6.04635 12.832 6.30355 12.7963C6.51605 12.7675 6.71975 12.7007 6.90235 12.6C7.0684 12.5054 7.19855 12.3686 7.27575 12.2073C7.3693 12.0148 7.4138 11.8063 7.40615 11.5968C7.4121 11.3928 7.3777 11.1895 7.3045 10.996C7.24415 10.8413 7.13525 10.7051 6.99075 10.6034C6.83295 10.4984 6.64995 10.4271 6.456 10.3953C6.20605 10.3553 5.95205 10.3381 5.69815 10.3443H4.15146ZM6.0097 16.9308C6.3012 16.939 6.5919 16.8991 6.867 16.813C7.064 16.7481 7.2416 16.644 7.38625 16.5087C7.5079 16.3871 7.59565 16.2419 7.64255 16.0846C7.68915 15.9283 7.7129 15.7673 7.71325 15.6056C7.7161 15.4359 7.6885 15.2669 7.6315 15.105C7.5782 14.9596 7.48115 14.8299 7.3509 14.73C7.19 14.6166 7.0029 14.5361 6.8029 14.4944C6.53215 14.434 6.25345 14.4062 5.97435 14.412H4.15146V16.9308H6.0097Z" fill="#EC1C24"/>
<path d="M50.2049 8.5892V18.7016H47.8784V12.8847C47.8784 12.7512 47.8784 12.6039 47.8784 12.4469C47.8784 12.2898 47.9005 12.1308 47.9204 11.9679L44.9088 17.1664C44.8256 17.3193 44.6944 17.4475 44.5309 17.5355C44.3656 17.6194 44.1778 17.6621 43.9874 17.6591H43.6272C43.4375 17.6619 43.2505 17.6191 43.0859 17.5355C42.9223 17.447 42.7905 17.319 42.7058 17.1664L39.6832 11.9541C39.6986 12.121 39.7119 12.2839 39.7229 12.4449C39.734 12.6059 39.7384 12.7512 39.7384 12.8847V18.7016H37.4095V8.5892H39.4246C39.5395 8.5892 39.6456 8.5892 39.7273 8.5892C39.8029 8.59285 39.8774 8.60675 39.9483 8.6304C40.0171 8.65485 40.0795 8.6916 40.1317 8.7384C40.1951 8.79665 40.2487 8.8628 40.2908 8.9347L43.2207 14.0645C43.3245 14.2412 43.4261 14.4238 43.5211 14.6123C43.6162 14.8007 43.7112 15.0049 43.7996 15.2012C43.8879 15.0049 43.9807 14.8086 44.0757 14.6123C44.1708 14.416 44.2746 14.2334 44.3851 14.0567L47.3061 8.9524C47.3496 8.88075 47.4039 8.8147 47.4674 8.75605C47.5188 8.70845 47.5814 8.67155 47.6508 8.6481C47.7215 8.6241 47.7961 8.61015 47.8718 8.60685C47.9579 8.60685 48.0574 8.60685 48.1723 8.60685L50.2049 8.5892Z" fill="#EC1C24"/>
<path d="M55.064 18.7016H52.4125V8.5892H55.064V18.7016Z" fill="#EC1C24"/>
<path d="M67.203 8.5892V18.7016H65.829C65.6525 18.7064 65.4775 18.6762 65.3165 18.6132C65.1595 18.5399 65.0225 18.4375 64.914 18.3129L59.5405 12.28C59.5605 12.4606 59.576 12.6353 59.5825 12.8042C59.589 12.973 59.5955 13.132 59.5955 13.2793V18.7016H57.267V8.5892H58.6565C58.754 8.58785 58.8515 8.59245 58.9485 8.60295C59.095 8.61585 59.2325 8.6718 59.3395 8.76195C59.409 8.82335 59.474 8.88895 59.534 8.95825L64.9475 15.0324C64.923 14.8361 64.903 14.6398 64.894 14.467C64.8855 14.2942 64.879 14.1117 64.879 13.9487V8.5892H67.203Z" fill="#EC1C24"/>
<path d="M74.8749 13.4598H78.9204V17.7298C78.3584 18.0992 77.7279 18.3783 77.0579 18.5543C76.3864 18.728 75.6909 18.8146 74.9919 18.8115C74.1189 18.8221 73.2514 18.689 72.4329 18.4189C71.7009 18.1783 71.0304 17.8106 70.4599 17.3371C69.9139 16.8762 69.4834 16.3183 69.1959 15.6998C68.8954 15.0466 68.745 14.3463 68.7545 13.6405C68.7455 12.9306 68.8889 12.2257 69.1764 11.5634C69.4439 10.9487 69.8549 10.3913 70.3824 9.9281C70.9259 9.45965 71.5719 9.09545 72.2809 8.85815C73.0754 8.59685 73.917 8.4677 74.7645 8.4773C75.2125 8.47555 75.6599 8.5104 76.1009 8.58135C76.4939 8.646 76.8794 8.7426 77.2519 8.86995C77.5899 8.983 77.9134 9.1271 78.2179 9.2999C78.4969 9.4582 78.7589 9.6396 78.9999 9.8417L78.2334 10.8763C78.1819 10.951 78.115 11.0159 78.035 11.0671C77.9555 11.1184 77.8649 11.1549 77.7694 11.1747C77.5539 11.2068 77.3329 11.1616 77.1549 11.0491C76.9474 10.9391 76.7505 10.8429 76.5649 10.7605C76.383 10.681 76.1939 10.6154 75.9994 10.5641C75.7999 10.5118 75.596 10.4744 75.3895 10.4522C75.1515 10.4274 74.9114 10.4156 74.6714 10.4169C74.2124 10.411 73.757 10.4906 73.3345 10.6505C72.9475 10.8 72.6029 11.024 72.3249 11.3062C72.0359 11.6037 71.8164 11.9494 71.6799 12.3232C71.5254 12.7499 71.4509 13.1962 71.4589 13.6444C71.4494 14.1308 71.5345 14.6149 71.7105 15.0756C71.8605 15.4672 72.1015 15.8264 72.4175 16.1298C72.722 16.4179 73.0949 16.6419 73.5094 16.7855C73.9594 16.9404 74.4384 17.017 74.9209 17.0113C75.2109 17.0139 75.5004 16.9862 75.7829 16.9288C76.0404 16.8732 76.2924 16.7983 76.5364 16.705V15.1678H75.4114C75.2694 15.1755 75.13 15.1332 75.023 15.05C74.9765 15.0121 74.9404 14.9658 74.9159 14.9144C74.8914 14.8629 74.8794 14.8074 74.8814 14.7516L74.8749 13.4598Z" fill="#EC1C24"/>
<path d="M33.5385 14.1431C33.3821 14.8907 32.9361 15.566 32.2778 16.0519C31.6195 16.5378 30.7905 16.8036 29.9347 16.8032H29.853C29.4293 16.8019 29.0118 16.7132 28.6333 16.5441C27.9483 16.2849 27.8025 16.1298 27.3076 15.7863C27.0181 15.5899 26.6049 15.2071 26.2028 14.8871C25.8007 15.2798 24.8771 16.171 24.8108 16.2417C25.2983 16.6789 25.8148 17.09 26.3575 17.4726L26.3067 17.4314C27.0787 18.0053 28.0094 18.3855 29.0023 18.5327C29.2849 18.5753 29.5708 18.5977 29.8574 18.5995C30.1165 18.5997 30.3754 18.5873 30.633 18.5622C31.7453 18.4413 32.7928 18.0311 33.6438 17.3832C34.4948 16.7353 35.1116 15.8786 35.4166 14.9205L33.5385 14.1431Z" fill="#EC1C24"/>
<path d="M27.1794 11.4221C27.802 10.7813 28.6814 10.3817 29.6306 10.3084C30.5798 10.2351 31.5236 10.4938 32.2613 11.0294L31.3776 11.583L35.3989 13.2223L34.9835 9.3038L33.9428 9.95755C33.3823 9.4638 32.7121 9.07925 31.9751 8.8284C31.2381 8.5776 30.4502 8.46595 29.6619 8.5007C28.8736 8.5354 28.1021 8.7157 27.3965 9.0301C26.691 9.3445 26.067 9.78605 25.5642 10.3266C25.5222 10.3717 22.3714 13.7936 21.0788 14.9224C21.0081 14.9852 20.933 15.0402 20.8578 15.0952L20.8181 15.1246C20.7253 15.1973 20.6325 15.266 20.5419 15.3327L20.4844 15.3759C20.4005 15.4387 20.3165 15.4976 20.2325 15.5546L20.1685 15.5997L20.0005 15.7116L19.9365 15.7568L19.8702 15.798L19.6493 15.9374L19.5874 15.9747L19.3796 16.0964L19.3222 16.1278L19.1455 16.226L19.0791 16.2593L18.9156 16.3418C18.613 16.4962 18.294 16.6237 17.9633 16.7227C17.6784 16.8053 17.3789 16.8412 17.0795 16.8287C16.1466 16.7877 15.2666 16.4317 14.6193 15.8335C13.972 15.2353 13.6063 14.4399 13.597 13.6101C13.5877 12.7803 13.9355 11.9787 14.5692 11.3691C15.203 10.7595 16.0748 10.388 17.0066 10.3305C17.548 10.3074 18.0887 10.387 18.5928 10.564C19.0968 10.7411 19.5526 11.0115 19.9298 11.3573C20.0558 11.4672 21.0854 12.4468 21.2997 12.6863C21.693 12.3173 22.6255 11.3357 22.6586 11.3121C22.4752 11.1001 21.7041 10.3757 21.6489 10.3305C21.0938 9.75885 20.4062 9.30055 19.6332 8.9871C18.8601 8.67365 18.0198 8.51245 17.1701 8.5146C15.7048 8.5379 14.3061 9.06245 13.2652 9.9791C12.2244 10.8957 11.6215 12.1337 11.5822 13.4353C11.5429 14.737 12.0702 16.0019 13.0543 16.9668C14.0384 17.9317 15.4034 18.5221 16.8652 18.6152C17.1506 18.6316 17.437 18.6316 17.7225 18.6152C17.958 18.5905 18.1914 18.5512 18.4207 18.4974C18.6495 18.4443 18.8716 18.3706 19.0836 18.2775L19.1366 18.2559C19.2029 18.2324 19.2692 18.2049 19.3377 18.1774L19.4305 18.1381C19.5034 18.1087 19.5763 18.0753 19.6514 18.0419L19.731 18.0046C19.9365 17.9104 20.1486 17.8083 20.3696 17.6768L20.4624 17.6257L20.7076 17.4804L20.8203 17.4117L21.0722 17.2527L21.1805 17.184L21.4389 17.0093L21.503 16.9641L21.5473 16.9347C21.6732 16.8463 21.8013 16.7521 21.9317 16.6559L22.0245 16.5852C22.124 16.5106 22.2255 16.4321 22.3272 16.3516L22.4576 16.2476L22.5173 16.2005L22.7382 16.0041C22.7824 15.9668 23.9335 14.9676 24.7069 14.1352C25.4802 13.3028 26.3154 12.3153 27.1794 11.4221Z" fill="#EC1C24"/>
</svg>
