<svg width="80" height="40" viewBox="0 0 80 40" fill="none" xmlns="http://www.w3.org/2000/svg">
<path d="M6.57292 13.4967L15.0157 17.3903C14.8172 17.2588 10.8026 14.5824 9.56292 12.467C8.29167 10.2979 8.38247 8.69345 9.45912 7.1404C10.5358 5.5873 13.195 4.61184 17.2422 4.86854C21.2894 5.12525 25.742 6.34135 29.0806 9.31435C29.0806 9.31435 26.2317 4.30374 18.9804 2.9047C11.7292 1.50567 6.15132 4.32942 2.93431 7.2302C2.08146 7.9992 1.64353 8.73305 1.49921 9.43265C1.56446 11.566 6.57292 13.4967 6.57292 13.4967Z" fill="url(#paint0_linear_10_5016)"/>
<path d="M14.9989 17.4247L6.55723 13.5317C6.51123 13.5139 5.27158 13.0295 4.04015 12.2973C2.35554 11.2956 1.48746 10.3321 1.45999 9.4334L1.45984 9.4289L1.46075 9.4245C1.61519 8.6758 2.10205 7.92785 2.90776 7.20135C4.20687 6.0299 6.39328 4.42269 9.43188 3.41808C12.4676 2.41444 15.6826 2.22881 18.9876 2.86649C22.742 3.59087 25.2949 5.29935 26.7753 6.605C28.3802 8.02045 29.107 9.28245 29.1142 9.29505L29.2304 9.4994L29.0542 9.34255C25.3701 6.06185 20.5958 5.11945 17.2394 4.90656C13.4743 4.66772 10.65 5.48975 9.49088 7.16175C8.36948 8.7794 8.40198 10.4095 9.59623 12.4473C10.8328 14.5572 14.8659 17.2445 15.037 17.3578L14.9989 17.4247ZM1.5379 9.43555C1.60873 11.5175 6.53688 13.4412 6.58673 13.4604L6.58903 13.4614L14.6106 17.1607C13.541 16.4179 10.5651 14.254 9.52888 12.4859C8.89963 11.4122 8.59293 10.4592 8.59133 9.57235C8.58973 8.7341 8.86298 7.93135 9.42673 7.1182C10.6017 5.4232 13.4515 4.58896 17.2444 4.82969C20.5526 5.0395 25.2339 5.95605 28.906 9.11015C28.6261 8.6877 27.9203 7.71745 26.7209 6.6602C25.248 5.3618 22.7082 3.6628 18.9727 2.94207C10.6267 1.33182 4.99437 5.4241 2.96021 7.25825C2.16852 7.9721 1.69002 8.7046 1.5379 9.43555Z" fill="url(#paint1_linear_10_5016)"/>
<path d="M9.45917 32.8799C8.38252 31.3268 8.29167 29.7225 9.56292 27.5533C10.8342 25.3841 15.0241 22.6245 15.0241 22.6245L6.57292 26.5219C6.57292 26.5219 1.56244 28.4535 1.49915 30.5873C1.64339 31.2871 2.08136 32.021 2.93434 32.7901C6.15137 35.6909 11.7292 38.5147 18.9805 37.1157C26.2317 35.7166 29.0806 30.706 29.0806 30.706C25.742 33.679 21.2895 34.8951 17.2423 35.1518C13.1951 35.4085 10.5358 34.433 9.45917 32.8799Z" fill="url(#paint2_linear_10_5016)"/>
<path d="M15.1889 37.5042C13.2184 37.5043 11.2947 37.1967 9.43803 36.5829C6.40263 35.5794 4.21856 33.9739 2.92086 32.8037C2.11808 32.0798 1.6332 31.3352 1.4797 30.5905L1.47925 30.5883L1.47932 30.5861C1.51227 29.4751 2.89513 28.4237 4.04937 27.7372C5.29693 26.9954 6.55298 26.5081 6.56548 26.5033L15.0155 22.6064L15.0345 22.6399C14.9926 22.6674 10.8338 25.4219 9.57938 27.5623C8.38088 29.6073 8.34863 31.2438 9.47483 32.8684C10.6379 34.5461 13.4683 35.3711 17.2406 35.1319C20.6001 34.9188 25.3789 33.9754 29.0672 30.691L29.1553 30.6126L29.0972 30.7148C29.0901 30.7273 28.3649 31.9866 26.7624 33.3999C25.2837 34.7039 22.7339 36.4103 18.9838 37.1339C17.7036 37.3809 16.4368 37.5042 15.1889 37.5042ZM1.51831 30.585C1.67059 31.3208 2.1513 32.0577 2.94708 32.7752C4.98334 34.6114 10.6215 38.7081 18.9764 37.0961C22.717 36.3744 25.2603 34.6727 26.7351 33.3723C28.0612 32.2031 28.7846 31.1402 28.9966 30.8049C25.3134 34.028 20.5796 34.9587 17.2431 35.1703C13.457 35.4105 10.6137 34.5793 9.44278 32.8902C8.88133 32.0803 8.60918 31.2811 8.61078 30.4469C8.61238 29.5636 8.91823 28.6137 9.54573 27.543C10.6465 25.6647 13.9697 23.3194 14.8156 22.7411L6.58078 26.5387C6.52968 26.5585 1.58402 28.4891 1.51831 30.585Z" fill="#00A14B"/>
<path d="M6.57252 26.5213L15.0236 22.6239C15.0236 22.6239 17.4234 21.3532 17.4234 20.0954C17.4234 20.0666 17.4223 20.0381 17.4207 20.0097C17.4223 19.9812 17.4234 19.9527 17.4234 19.924C17.4234 18.6661 15.0236 17.3954 15.0236 17.3954C15.0236 17.3954 15.0203 17.3932 15.0153 17.3899L6.57252 13.4964C6.57252 13.4964 1.56407 11.5656 1.49882 9.43225C1.09876 11.3716 2.95573 13.048 4.49053 14.4818C6.54137 16.3976 7.45322 18.3008 7.43632 20.0097C7.45322 21.7184 6.54137 23.6217 4.49053 25.5375C2.95582 26.9712 1.09898 28.6475 1.49872 30.5867C1.56202 28.4529 6.57252 26.5213 6.57252 26.5213Z" fill="url(#paint3_linear_10_5016)"/>
<path d="M1.52779 30.9202L1.46064 30.5944C1.06609 28.6805 2.81249 27.0506 4.35334 25.6127L4.46385 25.5095C6.4007 23.7001 7.4151 21.7985 7.3974 20.01C7.4151 18.2208 6.4007 16.3191 4.46385 14.5097L4.35319 14.4064C2.81234 12.9684 1.0659 11.3385 1.46072 9.42449L1.5276 9.10019L1.53775 9.43104C1.60144 11.5146 6.5368 13.4412 6.5867 13.4604L15.0344 17.3562L15.0437 17.3623C15.1649 17.4266 17.4624 18.6641 17.4624 19.9239C17.4624 19.9527 17.4613 19.9812 17.4597 20.0096C17.4613 20.038 17.4624 20.0665 17.4624 20.0953C17.4624 21.3617 15.1409 22.6055 15.042 22.6578L6.5867 26.5571C6.5368 26.5764 1.59947 28.5038 1.53767 30.5878L1.52779 30.9202ZM1.49518 9.71319C1.31988 11.4695 2.95531 12.996 4.40662 14.3504L4.51728 14.4537C6.4703 16.2782 7.49315 18.1995 7.47525 20.01C7.49315 21.8197 6.4703 23.7411 4.51728 25.5655L4.40673 25.6687C2.95565 27.0229 1.32048 28.5488 1.49503 30.3048C1.6746 29.487 2.52849 28.6192 4.03932 27.7208C5.2714 26.9881 6.5119 26.5034 6.5572 26.4858L15.0072 22.589C15.0291 22.5773 17.3846 21.3157 17.3846 20.0953C17.3846 20.0673 17.3834 20.0395 17.3818 20.0118L17.3817 20.0096L17.3818 20.0074C17.3834 19.9797 17.3846 19.9519 17.3846 19.9239C17.3846 18.7035 15.029 17.4419 15.0053 17.4293L14.9962 17.4235L6.5561 13.5312C6.54585 13.5274 5.2888 13.0397 4.04011 12.2973C2.52907 11.3988 1.67498 10.531 1.49518 9.71319Z" fill="url(#paint4_linear_10_5016)"/>
<path d="M17.0018 20.0938C17.0018 21.1536 14.9114 22.4719 14.445 22.4719C13.3503 22.4719 15.0366 21.2764 15.0496 20.0096C15.0596 19.0302 12.4891 17.3342 13.6616 17.3342C14.128 17.3342 17.0018 19.0358 17.0018 20.0938Z" fill="url(#paint5_linear_10_5016)"/>
<path d="M22.1688 20.8537C22.1688 21.0531 22.2695 21.2026 22.471 21.3023C22.6724 21.4021 22.9275 21.4535 23.2363 21.4566C23.5449 21.4599 23.8471 21.447 24.143 21.418C24.4387 21.3891 24.7182 21.3553 24.9814 21.3167C25.2446 21.2782 25.3957 21.2589 25.4347 21.2589C25.4606 21.8184 25.3485 22.2139 25.0984 22.4454C24.8481 22.6769 24.346 22.7927 23.5921 22.7927C22.5522 22.7927 21.7885 22.5838 21.3011 22.1656C20.8136 21.7477 20.5699 21.0242 20.5699 19.9952C20.5699 19.4807 20.6365 19.045 20.7697 18.6881C20.9029 18.3311 21.0979 18.0595 21.3547 17.8729C21.6114 17.6865 21.8973 17.5546 22.2127 17.4774C22.5278 17.4002 22.8966 17.3617 23.3192 17.3617C24.125 17.3617 24.7182 17.5305 25.0984 17.8681C25.4786 18.2057 25.6687 18.7444 25.6687 19.4839C25.6687 19.767 25.6134 19.9937 25.503 20.164C25.3924 20.3345 25.2478 20.4486 25.0691 20.5064C24.8903 20.5643 24.6758 20.6062 24.4257 20.6318C24.1754 20.6576 23.9285 20.6656 23.6847 20.656C23.441 20.6463 23.1778 20.6576 22.8951 20.6897C22.6124 20.722 22.3701 20.7765 22.1688 20.8537ZM22.12 19.8408C22.2305 19.7636 22.4108 19.7122 22.6611 19.6865C22.9112 19.6608 23.1452 19.6464 23.3631 19.6431C23.5807 19.6399 23.774 19.5948 23.9431 19.508C24.1121 19.4212 24.1932 19.2846 24.1868 19.098C24.1868 18.9309 24.0536 18.7927 23.7871 18.6832C23.4167 18.5289 23.0559 18.5161 22.705 18.6446C22.2175 18.8183 22.0225 19.2171 22.12 19.8408Z" fill="white"/>
<path d="M31.947 19.1946V22.7059C31.7194 22.7187 31.5244 22.7171 31.3621 22.7011C31.1995 22.6851 31.0452 22.648 30.899 22.5902C30.7528 22.5323 30.6455 22.4375 30.5773 22.3056C30.509 22.1739 30.4781 22.0082 30.4846 21.8088V19.7251V19.7058V19.2235C30.3872 18.7541 29.9451 18.5675 29.1587 18.664C28.7493 18.7156 28.512 18.7541 28.4471 18.7798C28.4666 18.8892 28.4763 19.0178 28.4763 19.1656V21.8088C28.4827 22.0082 28.4502 22.1739 28.3788 22.3056C28.3072 22.4375 28.2 22.5323 28.0571 22.5902C27.9141 22.648 27.7613 22.6851 27.5989 22.7011C27.4364 22.7171 27.2414 22.7187 27.014 22.7059V18.008C27.014 17.5901 27.693 17.365 29.0515 17.3328C30.9753 17.2814 31.9405 17.9019 31.947 19.1946Z" fill="white"/>
<path d="M37.0456 15.2683C37.1431 15.3392 37.265 15.3841 37.4112 15.4034C37.5575 15.4227 37.6906 15.4323 37.8109 15.4323C37.9311 15.4323 38.0464 15.4501 38.157 15.4854C38.2675 15.5208 38.3535 15.606 38.4154 15.741C38.4771 15.8761 38.508 16.0723 38.508 16.3295V22.0209C38.5015 22.0274 38.4705 22.0644 38.4154 22.1319C38.3601 22.1994 38.3097 22.2541 38.2643 22.2959C38.2187 22.3378 38.1342 22.3923 38.0108 22.4599C37.8872 22.5274 37.7508 22.5804 37.6013 22.619C37.4517 22.6576 37.2503 22.6931 36.9969 22.7251C36.7434 22.7573 36.4573 22.7734 36.139 22.7734C35.138 22.7734 34.4197 22.5597 33.9844 22.1319C33.5489 21.7043 33.3312 20.9921 33.3312 19.9952C33.3312 19.6093 33.3831 19.2637 33.4872 18.9582C33.5911 18.6528 33.7292 18.4035 33.9015 18.2106C34.0736 18.0176 34.2768 17.8569 34.5108 17.7282C34.7448 17.5996 34.982 17.5097 35.2225 17.4581C35.4629 17.4067 35.7132 17.3809 35.9732 17.3809C36.4736 17.3809 36.8311 17.4581 37.0456 17.6124V15.2683ZM37.0456 20.0916V18.7218C36.9611 18.6962 36.8685 18.6736 36.7678 18.6543C36.6669 18.635 36.5419 18.6205 36.3924 18.6109C36.2428 18.6012 36.1015 18.6029 35.9683 18.6157C35.8351 18.6287 35.6969 18.6672 35.554 18.7315C35.411 18.7958 35.2874 18.881 35.1835 18.9871C35.0795 19.0932 34.995 19.2412 34.93 19.4308C34.865 19.6206 34.8326 19.8441 34.8326 20.1013C34.8326 20.3458 34.8716 20.558 34.9495 20.738C35.0276 20.9181 35.1234 21.0563 35.2372 21.1528C35.3508 21.2492 35.4906 21.3216 35.6564 21.3698C35.8221 21.418 35.9715 21.447 36.1048 21.4566C36.238 21.4663 36.3827 21.4631 36.5387 21.447C36.6947 21.431 36.8034 21.4165 36.8653 21.4036C36.927 21.3908 36.9838 21.3779 37.0359 21.365H37.0456C37.052 21.365 37.052 20.9405 37.0456 20.0916Z" fill="white"/>
<path d="M39.8924 20.0338C39.8858 19.9952 39.8809 19.9438 39.8777 19.8794C39.8744 19.8152 39.8842 19.6898 39.907 19.5032C39.9297 19.3168 39.967 19.1383 40.0191 18.9678C40.0711 18.7975 40.162 18.6094 40.2921 18.4035C40.422 18.1977 40.5829 18.0209 40.7747 17.8729C40.9663 17.7251 41.2247 17.6014 41.5497 17.5016C41.8747 17.4019 42.2451 17.3521 42.6611 17.3521C42.9536 17.3521 43.2233 17.3746 43.4703 17.4195C43.7173 17.4646 43.93 17.5256 44.1089 17.6028C44.2876 17.68 44.4468 17.7765 44.5866 17.8923C44.7263 18.008 44.8416 18.1222 44.9327 18.2347C45.0236 18.3473 45.1 18.4807 45.1618 18.635C45.2235 18.7893 45.2706 18.9229 45.3032 19.0354C45.3356 19.148 45.3583 19.2798 45.3714 19.4308C45.3843 19.582 45.3924 19.6962 45.3958 19.7733C45.399 19.8505 45.399 19.9486 45.3958 20.0676C45.3924 20.1866 45.3909 20.2525 45.3909 20.2653C45.3909 20.3683 45.3875 20.4615 45.3812 20.545C45.3746 20.6287 45.3551 20.7606 45.3227 20.9405C45.2901 21.1206 45.2447 21.2815 45.1862 21.4229C45.1277 21.5644 45.0351 21.7188 44.9083 21.8859C44.7816 22.0533 44.632 22.1931 44.4599 22.3055C44.2876 22.4181 44.0633 22.5129 43.7872 22.5901C43.5108 22.6673 43.2005 22.7059 42.8561 22.7059C42.4986 22.7059 42.1801 22.6834 41.9007 22.6383C41.6212 22.5934 41.384 22.5339 41.189 22.4599C40.994 22.386 40.8234 22.2847 40.6772 22.156C40.5309 22.0274 40.4123 21.8955 40.3214 21.7605C40.2303 21.6255 40.1556 21.4583 40.0971 21.2589C40.0386 21.0596 39.9948 20.8682 39.9655 20.6849C39.9362 20.5017 39.9119 20.2846 39.8924 20.0338ZM41.345 20.1206C41.3645 20.3458 41.3921 20.5243 41.4279 20.656C41.4635 20.7879 41.5286 20.9181 41.6229 21.0466C41.717 21.1754 41.8584 21.2686 42.0469 21.3264C42.2354 21.3843 42.4759 21.4132 42.7684 21.4132C42.9958 21.4132 43.1908 21.3779 43.3533 21.3071C43.5157 21.2364 43.636 21.1561 43.7141 21.066C43.792 20.976 43.8537 20.8667 43.8993 20.738C43.9447 20.6094 43.9707 20.513 43.9773 20.4486C43.9837 20.3844 43.987 20.3135 43.987 20.2363C43.987 20.23 43.987 20.1962 43.987 20.135C43.987 20.074 43.987 20.0226 43.987 19.9807C43.987 19.9389 43.9837 19.8763 43.9773 19.7926C43.9707 19.7091 43.9593 19.6367 43.9431 19.5756C43.9268 19.5145 43.9042 19.4421 43.8749 19.3585C43.8457 19.275 43.8099 19.2027 43.7677 19.1415C43.7253 19.0804 43.6702 19.0177 43.6019 18.9534C43.5337 18.8892 43.4572 18.8361 43.3728 18.7942C43.2883 18.7525 43.1859 18.7187 43.0657 18.6929C42.9454 18.6672 42.8138 18.6543 42.6709 18.6543C42.4109 18.6543 42.1898 18.6898 42.0079 18.7605C41.8259 18.8313 41.6926 18.9132 41.6082 19.0064C41.5237 19.0997 41.4586 19.2219 41.4132 19.373C41.3677 19.5241 41.3433 19.6416 41.3401 19.7251C41.3368 19.8087 41.3384 19.9148 41.345 20.0434C41.345 20.082 41.345 20.1078 41.345 20.1206Z" fill="white"/>
<path d="M50.353 17.3521C50.3465 17.365 50.3485 17.4325 50.358 17.5546C50.368 17.6768 50.366 17.7943 50.353 17.9067C50.34 18.0193 50.314 18.1399 50.275 18.2684C50.236 18.3971 50.1565 18.5 50.0365 18.5772C49.916 18.6543 49.7617 18.6929 49.5733 18.6929C49.3003 18.6929 49.089 18.7025 48.9396 18.7218C48.79 18.7411 48.6568 18.7894 48.5398 18.8666C48.4228 18.9437 48.3448 19.0531 48.3059 19.1945C48.2669 19.336 48.2474 19.529 48.2474 19.7733V22.8603C48.1304 22.7766 47.9759 22.7107 47.7843 22.6625C47.5925 22.6143 47.43 22.5773 47.2968 22.5515C47.1635 22.5259 47.0449 22.4503 46.941 22.3249C46.8369 22.1995 46.785 22.0178 46.785 21.7798V19.1945C46.785 19.1559 46.7865 19.1029 46.7899 19.0354C46.7931 18.9679 46.8045 18.8747 46.824 18.7556C46.8435 18.6367 46.8759 18.5178 46.9215 18.3987C46.9669 18.2798 47.0351 18.156 47.1262 18.0273C47.2171 17.8987 47.3276 17.7861 47.4577 17.6896C47.5876 17.5932 47.755 17.5128 47.9598 17.4485C48.1645 17.3843 48.3936 17.3521 48.6471 17.3521C49.0824 17.3521 49.4041 17.3521 49.6123 17.3521C49.8202 17.3521 49.934 17.3521 49.9534 17.3521C49.9729 17.3521 50.01 17.3521 50.0655 17.3521C50.1205 17.3521 50.2165 17.3521 50.353 17.3521Z" fill="white"/>
<path d="M53.005 24.8378C52.888 24.7542 52.7335 24.7043 52.5415 24.6883C52.35 24.6722 52.1875 24.6642 52.0545 24.6642C51.921 24.6642 51.8025 24.595 51.6985 24.4568C51.5945 24.3184 51.5425 24.0917 51.5425 23.7767V18.0852C51.549 18.0789 51.58 18.0418 51.635 17.9743C51.69 17.9067 51.7405 17.8537 51.786 17.8151C51.8315 17.7765 51.916 17.722 52.0395 17.6511C52.163 17.5804 52.2995 17.5257 52.449 17.4871C52.5985 17.4485 52.8 17.4132 53.0535 17.381C53.307 17.3489 53.593 17.3328 53.9115 17.3328C54.9125 17.3328 55.6305 17.5466 56.066 17.9743C56.5015 18.402 56.7195 19.1142 56.7195 20.111C56.7195 20.5933 56.6415 21.0114 56.4855 21.365C56.3295 21.7188 56.1195 21.9906 55.8565 22.1802C55.5935 22.37 55.3135 22.5082 55.018 22.595C54.722 22.6818 54.4085 22.7252 54.0775 22.7252C53.629 22.7252 53.2715 22.6803 53.005 22.5902V24.8378ZM53.005 20.0145V21.3843C53.109 21.4166 53.221 21.4422 53.341 21.4615C53.4615 21.4808 53.6125 21.4969 53.7945 21.5097C53.9765 21.5227 54.1455 21.5034 54.3015 21.4519C54.4575 21.4005 54.607 21.3265 54.75 21.23C54.893 21.1335 55.0065 20.9792 55.091 20.767C55.1755 20.5547 55.218 20.3007 55.218 20.0049C55.218 19.7606 55.177 19.5483 55.096 19.3682C55.0145 19.1882 54.9205 19.0499 54.8135 18.9534C54.706 18.8569 54.5645 18.7846 54.389 18.7363C54.2135 18.6881 54.0675 18.6592 53.9505 18.6495C53.8335 18.6399 53.6875 18.6447 53.512 18.664C53.3365 18.6833 53.229 18.6963 53.19 18.7026C53.151 18.7091 53.0925 18.7219 53.0145 18.7412H53.005C52.9985 18.7412 52.9985 19.1656 53.005 20.0145Z" fill="white"/>
<path d="M59.556 17.5353C59.8745 17.4067 60.4075 17.3423 61.155 17.3423C61.519 17.3423 61.831 17.4035 62.091 17.5256C62.351 17.6479 62.5395 17.7878 62.6565 17.9453C62.7735 18.1029 62.8625 18.2829 62.9245 18.4855C62.986 18.6881 63.0205 18.8392 63.027 18.9389C63.0335 19.0387 63.0335 19.1238 63.027 19.1945V22.7059C62.052 22.8345 61.5645 22.5356 61.5645 21.8088C61.5645 21.5387 61.5645 21.1851 61.5645 20.7476C61.571 19.7894 61.5255 19.2058 61.428 18.9967C61.3305 18.7878 61.025 18.6769 60.5115 18.6639C60.193 18.6639 59.8745 18.7219 59.556 18.8376V21.8088C59.569 22.1946 59.4475 22.4471 59.1905 22.566C58.934 22.6851 58.568 22.7315 58.094 22.7059V15.1815C58.211 15.2652 58.365 15.3151 58.557 15.3311C58.7485 15.3472 58.911 15.3552 59.0445 15.3552C59.1775 15.3552 59.296 15.4243 59.4 15.5626C59.504 15.7009 59.556 15.9276 59.556 16.2427V17.5353Z" fill="white"/>
<path d="M64.655 16.8022C64.5055 16.6478 64.4305 16.4645 64.4305 16.2523C64.4305 16.0401 64.507 15.8584 64.6595 15.7073C64.8125 15.5562 64.996 15.4806 65.2105 15.4806C65.425 15.4806 65.6085 15.5562 65.7615 15.7073C65.914 15.8584 65.9905 16.0401 65.9905 16.2523C65.9905 16.4645 65.914 16.6463 65.7615 16.7973C65.6085 16.9485 65.425 17.024 65.2105 17.024C64.996 17.024 64.811 16.9502 64.655 16.8022ZM65.932 18.3167C65.932 18.0017 65.88 17.7749 65.776 17.6366C65.672 17.4984 65.5535 17.4292 65.42 17.4292C65.287 17.4292 65.1245 17.4212 64.9325 17.4051C64.741 17.3891 64.5865 17.3392 64.4695 17.2555V22.7059C64.944 22.7315 65.3095 22.6851 65.5665 22.566C65.823 22.4471 65.945 22.1946 65.932 21.8087V18.3167Z" fill="white"/>
<path d="M72.308 19.1946V22.7059C72.08 22.7187 71.885 22.7171 71.723 22.7011C71.5605 22.6851 71.406 22.648 71.26 22.5902C71.1135 22.5323 71.0065 22.4375 70.938 22.3056C70.87 22.1739 70.839 22.0082 70.8455 21.8088V19.7251V19.7058V19.2235C70.748 18.7541 70.306 18.5675 69.5195 18.664C69.11 18.7156 68.873 18.7541 68.808 18.7798C68.8275 18.8892 68.837 19.0178 68.837 19.1656V21.8088C68.8435 22.0082 68.811 22.1739 68.7395 22.3056C68.668 22.4375 68.561 22.5323 68.418 22.5902C68.275 22.648 68.122 22.6851 67.9595 22.7011C67.797 22.7171 67.602 22.7187 67.375 22.7059V18.008C67.375 17.5901 68.054 17.365 69.4125 17.3328C71.336 17.2814 72.3015 17.9019 72.308 19.1946Z" fill="white"/>
<path d="M74.082 18.7026C74.082 18.6833 74.0785 18.6577 74.0725 18.6254C74.066 18.5933 74.064 18.5306 74.0675 18.4373C74.0705 18.3442 74.0805 18.2557 74.0965 18.172C74.113 18.0885 74.1455 17.9936 74.194 17.8874C74.243 17.7813 74.308 17.6913 74.389 17.6173C74.4705 17.5435 74.581 17.4808 74.7205 17.4292C74.8605 17.3778 75.0245 17.3521 75.213 17.3521C75.2715 17.3521 75.3625 17.3521 75.486 17.3521C75.655 17.3457 75.8285 17.3457 76.0075 17.3521C76.186 17.3585 76.365 17.3665 76.5435 17.3762C76.7225 17.3858 76.896 17.4132 77.0655 17.4582C77.234 17.5032 77.395 17.5579 77.548 17.6222C77.7005 17.6865 77.8405 17.7782 77.967 17.8971C78.094 18.0162 78.2045 18.1527 78.2985 18.3071C78.3925 18.4614 78.466 18.6512 78.518 18.8762C78.57 19.1014 78.596 19.3554 78.596 19.6383V19.7058V19.7734V19.8505V19.9181V19.9952V20.0724V20.1592V20.2557V20.3521V20.4679V20.6223V20.6994C78.596 20.9632 78.5665 21.2027 78.508 21.4181C78.4495 21.6336 78.3765 21.8088 78.289 21.9438C78.201 22.0789 78.092 22.198 77.962 22.3008C77.832 22.4037 77.71 22.4792 77.5965 22.5274C77.483 22.5757 77.351 22.6143 77.202 22.6432C77.052 22.6721 76.937 22.6899 76.8555 22.6963C76.7745 22.7028 76.6785 22.7059 76.568 22.7059H75.2225C75.203 22.7059 75.174 22.7044 75.135 22.7011C75.096 22.6979 75.023 22.6883 74.9155 22.6721C74.8085 22.6562 74.706 22.6321 74.6085 22.5998C74.511 22.5677 74.402 22.5146 74.282 22.4406C74.1615 22.3668 74.059 22.28 73.975 22.1802C73.8905 22.0806 73.819 21.9503 73.7605 21.7895C73.702 21.6288 73.6725 21.4487 73.6725 21.2493C73.6725 20.8957 73.718 20.5981 73.809 20.357C73.9 20.1158 74.038 19.9294 74.2235 19.7975C74.4085 19.6657 74.615 19.5741 74.8425 19.5225C75.07 19.4711 75.346 19.4454 75.671 19.4454C76.2365 19.4454 76.6215 19.4084 76.8265 19.3344C77.031 19.2606 77.1335 19.1463 77.1335 18.992C77.1335 18.7734 76.9205 18.6254 76.495 18.5482C76.069 18.4711 75.6175 18.4551 75.14 18.5C74.662 18.5451 74.3095 18.6126 74.082 18.7026ZM77.1725 20.1592C77.1465 20.1915 77.109 20.2301 77.0605 20.275C77.0115 20.3201 76.9025 20.3796 76.734 20.4534C76.5645 20.5275 76.389 20.5644 76.2075 20.5644C75.889 20.5644 75.6305 20.603 75.4325 20.6801C75.234 20.7573 75.135 20.8667 75.135 21.0081C75.135 21.1754 75.2065 21.3008 75.3495 21.3843C75.4925 21.468 75.7785 21.5097 76.2075 21.5097C76.383 21.5097 76.5175 21.5082 76.612 21.5049C76.706 21.5018 76.794 21.4776 76.875 21.4326C76.9565 21.3877 77.013 21.3457 77.046 21.3072C77.078 21.2686 77.106 21.1866 77.1285 21.0612C77.1515 20.9358 77.1645 20.8152 77.1675 20.6994C77.171 20.5837 77.1725 20.4037 77.1725 20.1592Z" fill="white"/>
<defs>
<linearGradient id="paint0_linear_10_5016" x1="15.2899" y1="15.3588" x2="15.2899" y2="2.68444" gradientUnits="userSpaceOnUse">
<stop stop-color="#2B3990"/>
<stop offset="0.0304341" stop-color="#184898"/>
<stop offset="0.0874169" stop-color="#005EA8"/>
<stop offset="0.150105" stop-color="#0071B6"/>
<stop offset="0.217178" stop-color="#0081C4"/>
<stop offset="0.289789" stop-color="#008ED1"/>
<stop offset="0.369823" stop-color="#0099DB"/>
<stop offset="0.460338" stop-color="#00A2E3"/>
<stop offset="0.567311" stop-color="#00A8E9"/>
<stop offset="0.70677" stop-color="#00ACED"/>
<stop offset="1" stop-color="#00AEEF"/>
</linearGradient>
<linearGradient id="paint1_linear_10_5016" x1="1.45984" y1="9.96025" x2="29.2304" y2="9.96025" gradientUnits="userSpaceOnUse">
<stop stop-color="#034EA2"/>
<stop offset="0.0629981" stop-color="#0055A7"/>
<stop offset="0.183324" stop-color="#0067B4"/>
<stop offset="0.34853" stop-color="#0083CA"/>
<stop offset="0.550547" stop-color="#00AAEC"/>
<stop offset="0.561576" stop-color="#00AEEF"/>
<stop offset="0.684926" stop-color="#00ACED"/>
<stop offset="0.746115" stop-color="#00A8E9"/>
<stop offset="0.793634" stop-color="#00A2E3"/>
<stop offset="0.834115" stop-color="#0099DB"/>
<stop offset="0.870107" stop-color="#008ED0"/>
<stop offset="0.902939" stop-color="#0080C3"/>
<stop offset="0.933369" stop-color="#0070B5"/>
<stop offset="0.961887" stop-color="#005DA7"/>
<stop offset="0.987915" stop-color="#1B4697"/>
<stop offset="1" stop-color="#2B3990"/>
</linearGradient>
<linearGradient id="paint2_linear_10_5016" x1="15.2899" y1="23.5604" x2="15.2899" y2="37.0577" gradientUnits="userSpaceOnUse">
<stop stop-color="#905501"/>
<stop offset="0.0556973" stop-color="#9E6007"/>
<stop offset="0.168545" stop-color="#B97411"/>
<stop offset="0.290101" stop-color="#D08516"/>
<stop offset="0.421382" stop-color="#E19218"/>
<stop offset="0.567117" stop-color="#ED9B19"/>
<stop offset="0.738648" stop-color="#F6A11A"/>
<stop offset="1" stop-color="#FAA41A"/>
</linearGradient>
<linearGradient id="paint3_linear_10_5016" x1="1.44367" y1="20.0095" x2="17.4234" y2="20.0095" gradientUnits="userSpaceOnUse">
<stop stop-color="#560003"/>
<stop offset="0.0333951" stop-color="#64010A"/>
<stop offset="0.110465" stop-color="#7F0C14"/>
<stop offset="0.19542" stop-color="#9A131A"/>
<stop offset="0.288717" stop-color="#B1171E"/>
<stop offset="0.39376" stop-color="#C41920"/>
<stop offset="0.517218" stop-color="#D11A21"/>
<stop offset="0.676564" stop-color="#DA1A22"/>
<stop offset="1" stop-color="#DD1A22"/>
</linearGradient>
<linearGradient id="paint4_linear_10_5016" x1="1.40412" y1="20.0102" x2="17.4624" y2="20.0102" gradientUnits="userSpaceOnUse">
<stop stop-color="#ED1C24"/>
<stop offset="0.313662" stop-color="#E91C24"/>
<stop offset="0.468225" stop-color="#DF1C24"/>
<stop offset="0.587988" stop-color="#D11B23"/>
<stop offset="0.689834" stop-color="#BF1921"/>
<stop offset="0.780353" stop-color="#A8161E"/>
<stop offset="0.862785" stop-color="#8D1118"/>
<stop offset="0.93754" stop-color="#710710"/>
<stop offset="1" stop-color="#560003"/>
</linearGradient>
<linearGradient id="paint5_linear_10_5016" x1="15.6491" y1="18.5699" x2="13.1333" y2="21.1125" gradientUnits="userSpaceOnUse">
<stop stop-color="white" stop-opacity="0.7"/>
<stop offset="0.0275987" stop-color="#FDEEE7" stop-opacity="0.7"/>
<stop offset="0.139818" stop-color="#F4BEA9" stop-opacity="0.7"/>
<stop offset="0.255687" stop-color="#EE967B" stop-opacity="0.7"/>
<stop offset="0.372685" stop-color="#E8785B" stop-opacity="0.7"/>
<stop offset="0.491088" stop-color="#E45D42" stop-opacity="0.7"/>
<stop offset="0.611393" stop-color="#E14531" stop-opacity="0.7"/>
<stop offset="0.73438" stop-color="#DF3027" stop-opacity="0.7"/>
<stop offset="0.86166" stop-color="#DD2023" stop-opacity="0.7"/>
<stop offset="1" stop-color="#DD1A22" stop-opacity="0.7"/>
</linearGradient>
</defs>
</svg>
