<svg width="80" height="40" viewBox="0 0 80 40" fill="none" xmlns="http://www.w3.org/2000/svg">
<g clip-path="url(#clip0_539_172834)">
<path d="M13.2576 14.0707H21.6736V15.8948H15.4464V18.5575H19.5936V20.3816H15.4464V23.3565H21.8656V25.1806H13.2576V14.0707Z" fill="white"/>
<path d="M21.6736 17.2843H23.9136L25.872 22.7873L27.6896 17.2843H29.8592L26.8512 25.1806H24.8416L21.6736 17.2843Z" fill="white"/>
<path d="M29.9296 21.2508C29.9296 18.8391 31.6768 17.1374 34.1792 17.1374C36.6624 17.1374 38.416 18.8452 38.416 21.2508C38.416 23.6258 36.6304 25.3336 34.128 25.3336C31.6448 25.3336 29.9296 23.6565 29.9296 21.2508ZM36.2144 21.2998V21.2325C36.2144 19.7267 35.4464 18.8208 34.1856 18.8208C32.9056 18.8208 32.1376 19.7267 32.1376 21.2325V21.2998C32.1376 22.775 32.8864 23.6442 34.1472 23.6442C35.4272 23.6442 36.2144 22.7689 36.2144 21.2998Z" fill="white"/>
<path d="M39.8176 13.9177H42.0064V25.1806H39.8176V13.9177Z" fill="white"/>
<path d="M43.664 22.016V17.2843H45.8336V21.8997C45.8336 22.9525 46.3584 23.5708 47.3376 23.5708C48.4768 23.5708 48.9504 22.6526 48.9504 21.2937V17.2843H51.12V25.1806H48.9504V24.0605C48.5152 24.8807 47.76 25.3336 46.6912 25.3336C44.8224 25.3336 43.664 24.0605 43.664 22.016Z" fill="white"/>
<path d="M53.5136 23.0872V18.9554H52.3424V17.2843H53.5136V15.7908L55.632 14.6523V17.2782H57.2576V18.9493H55.6128V22.8791C55.6128 23.2647 55.8048 23.43 56.208 23.4483H57.168V25.1745H55.4912C53.8976 25.0949 53.552 24.3971 53.5136 23.0872Z" fill="white"/>
<path d="M58.6592 14.1014H60.9184V16.1274H58.6592V14.1014ZM58.6912 17.2843H60.88V25.1806H58.6912V17.2843Z" fill="white"/>
<path d="M62.2816 21.2508C62.2816 18.8391 64.0288 17.1374 66.5312 17.1374C69.0144 17.1374 70.768 18.8452 70.768 21.2508C70.768 23.6258 68.9824 25.3336 66.48 25.3336C63.9968 25.3336 62.2816 23.6565 62.2816 21.2508ZM68.56 21.2998V21.2325C68.56 19.7267 67.792 18.8208 66.5312 18.8208C65.2512 18.8208 64.4832 19.7267 64.4832 21.2325V21.2998C64.4832 22.775 65.232 23.6442 66.4928 23.6442C67.7728 23.6442 68.56 22.7689 68.56 21.2998Z" fill="white"/>
<path d="M72.1504 17.2843H74.32V18.5698C74.7552 17.6516 75.5616 17.113 76.7328 17.113C78.5376 17.113 79.6 18.2698 79.6 20.4429V25.1806H77.4304V20.5653C77.4304 19.4635 76.9952 18.8942 75.9776 18.8942C74.9472 18.8942 74.3136 19.6961 74.3136 21.1713V25.1867H72.144L72.1504 17.2843Z" fill="white"/>
<path d="M8.15038 15.093C6.17278 12.6017 2.58238 11.8977 -0.400024 13.4219C0.764776 15.9255 1.63518 18.8697 7.37598 19.0411C8.04798 19.0595 8.79038 19.0411 9.60318 18.9799C9.48798 17.4068 8.95038 16.103 8.15038 15.093Z" fill="white"/>
<path d="M7.09438 20.2164C3.63838 20.3816 2.01918 21.5814 1.00798 23.0688C0.412776 23.9441 0.0287756 24.9113 -0.400024 25.8233C3.78558 27.9596 9.19358 25.707 9.60318 20.2592C8.67518 20.1919 7.83678 20.1796 7.09438 20.2164Z" fill="white"/>
</g>
<defs>
<clipPath id="clip0_539_172834">
<rect width="80" height="40" fill="white"/>
</clipPath>
</defs>
</svg>
