<svg width="80" height="40" viewBox="0 0 80 40" fill="none" xmlns="http://www.w3.org/2000/svg">
<path d="M0.5 20.4621C0.61197 19.9457 0.66796 19.4157 0.82192 18.9128C1.40977 17.0237 2.62746 15.7054 4.60097 15.1209C6.8404 14.455 9.2618 15.1753 10.5494 16.9013C11.1653 17.744 11.4452 18.7089 11.5432 19.7146C11.5992 20.3262 11.5572 20.9378 11.5712 21.563C11.5852 21.93 11.4033 22.0115 11.0674 22.0115C8.9259 21.9979 6.7704 22.0115 4.62896 22.0115C3.97113 22.0115 3.90114 22.1202 4.18108 22.7046C4.60097 23.5744 5.39875 23.9278 6.30855 24.0773C7.5822 24.2948 8.8139 24.0909 10.0316 23.7375C10.4095 23.6288 10.5355 23.7104 10.5774 24.0637C10.6474 24.6345 10.7454 25.2054 10.8574 25.7762C10.9274 26.1295 10.8154 26.347 10.4515 26.4149C9.51375 26.5916 8.58995 26.8498 7.6522 26.9178C6.7844 26.9858 5.87465 26.9042 5.00685 26.7683C2.78142 26.4421 0.961885 24.5802 0.681955 22.4056C0.639965 22.1202 0.58398 21.8212 0.527995 21.5358C0.5 21.1825 0.5 20.8291 0.5 20.4621ZM6.18255 19.769C6.7984 19.769 7.40025 19.769 8.0161 19.769C8.18405 19.769 8.32405 19.7554 8.31005 19.5244C8.29605 18.7633 7.7082 17.9478 6.96635 17.7304C5.6087 17.3091 4.37703 18.0022 4.05511 19.3477C3.98513 19.6603 4.0551 19.7826 4.39102 19.769C4.99287 19.7554 5.5947 19.769 6.18255 19.769Z" fill="#4795C8"/>
<path d="M54.6666 10.5C54.6666 15.8412 54.6666 21.1824 54.6666 26.5236C54.6666 26.9449 54.5966 26.9993 54.1766 26.9177C52.3571 26.5915 51.4331 25.5858 51.3071 23.7782C51.2651 23.221 51.2371 22.6502 51.2371 22.0794C51.2371 18.2196 51.2371 14.3598 51.2371 10.5C52.3851 10.5 53.5186 10.5 54.6666 10.5Z" fill="white"/>
<path d="M41.5516 26.4693C41.5516 26.8634 41.5516 27.2167 41.5516 27.5701C41.5516 28.0866 41.5516 28.603 41.5516 29.1195C41.5516 29.3505 41.4817 29.4864 41.2157 29.4864C40.292 29.4864 39.3542 29.5 38.4304 29.4728C38.3185 29.4728 38.1925 29.2961 38.1225 29.1738C38.0805 29.0923 38.1085 28.97 38.1085 28.8748C38.1085 24.6345 38.1085 20.4077 38.1085 16.1674C38.1085 15.583 38.1085 15.5286 38.6824 15.4471C40.11 15.2432 41.5376 14.9714 42.9653 14.917C44.7288 14.8627 46.3524 15.3519 47.6121 16.6567C48.5079 17.5672 48.9138 18.6953 49.0818 19.9321C49.2637 21.3319 49.1097 22.7046 48.5499 24.0229C47.8081 25.7625 46.1425 26.8634 44.211 26.8906C43.4132 26.9042 42.6574 26.8226 41.9016 26.5508C41.8176 26.5236 41.7196 26.51 41.5516 26.4693ZM41.5516 20.7611C41.5516 21.3863 41.5516 22.025 41.5516 22.6502C41.5516 23.819 41.6216 23.9006 42.8253 24.0637C44.169 24.2404 45.0788 23.7783 45.4287 22.6638C45.7926 21.5086 45.7926 20.3262 45.3027 19.1846C44.9248 18.3147 44.225 17.8527 43.2732 17.7847C42.8393 17.7575 42.4054 17.8119 41.9575 17.8119C41.6076 17.8119 41.5097 17.975 41.5237 18.3012C41.5516 19.1166 41.5516 19.9321 41.5516 20.7611Z" fill="white"/>
<path d="M63.652 19.0758C63.484 18.2196 62.9105 17.7439 61.9445 17.6895C60.811 17.6216 59.691 17.7167 58.5995 18.0293C58.5015 18.0565 58.4035 18.0701 58.2635 18.0973C58.1235 17.2682 57.9835 16.48 57.8715 15.6781C57.8575 15.5966 57.9695 15.4199 58.0535 15.3927C60.097 14.9034 62.1685 14.6044 64.24 15.216C65.9335 15.7189 66.7455 16.9285 66.8995 18.5594C66.9975 19.5787 66.9695 20.6116 66.9835 21.6445C66.9975 23.0443 66.9695 24.4442 66.9975 25.8576C66.9975 26.2654 66.8995 26.4692 66.4515 26.5236C65.094 26.6731 63.75 26.9313 62.3925 26.9993C61.1885 27.0536 59.985 26.9177 58.8655 26.4285C57.172 25.681 56.612 24.1724 56.738 22.5551C56.906 20.4757 58.5015 19.4564 60.461 19.1574C60.979 19.0758 61.5105 19.0214 62.0425 19.0079C62.5745 18.9943 63.1065 19.0486 63.652 19.0758ZM63.708 22.8133C63.708 22.4599 63.722 22.1202 63.694 21.7668C63.68 21.6581 63.54 21.4814 63.47 21.4814C62.7425 21.5086 62.0145 21.4814 61.3145 21.6309C60.615 21.7804 60.349 22.2425 60.391 22.9628C60.419 23.5744 60.755 23.9957 61.4405 24.0908C62.0705 24.186 62.7005 24.1724 63.344 24.1996C63.596 24.2131 63.722 24.0636 63.722 23.8054C63.708 23.4928 63.708 23.1531 63.708 22.8133Z" fill="white"/>
<path d="M36.149 21.0601C36.163 22.7861 35.6591 24.3355 34.3435 25.5451C33.3917 26.4285 32.216 26.8634 30.9003 26.9449C29.5987 27.0265 28.367 26.7954 27.2472 26.1295C25.9176 25.3276 25.1618 24.118 24.8119 22.691C24.406 21.0465 24.5039 19.4156 25.3017 17.8798C27.2053 14.2239 32.6359 13.8297 35.0713 17.1731C35.7991 18.1788 36.107 19.2661 36.149 21.0601ZM32.7059 20.9921C32.7059 20.7067 32.7199 20.4757 32.7059 20.2446C32.6219 19.4292 32.4259 18.6545 31.7261 18.138C30.7464 17.4177 28.8428 17.54 28.283 19.2389C27.8771 20.4621 27.8911 21.6988 28.409 22.8948C28.7589 23.7103 29.4167 24.1316 30.3265 24.1588C31.2362 24.1724 31.9361 23.7918 32.328 22.9628C32.6359 22.324 32.7619 21.6445 32.7059 20.9921Z" fill="#4795C8"/>
<path d="M70.9726 29.432C71.0426 29.2825 71.0846 29.1602 71.1401 29.0515C71.5741 28.1953 72.0081 27.3391 72.4561 26.4964C72.5961 26.2246 72.5541 26.0207 72.4281 25.7761C71.0146 23.0443 69.8246 20.231 68.8451 17.3362C68.6211 16.6974 68.425 16.0451 68.201 15.3383C68.397 15.3112 68.5511 15.284 68.6911 15.284C69.5306 15.284 70.3566 15.284 71.1961 15.284C71.7841 15.284 71.7701 15.284 71.9521 15.8412C72.6521 17.9478 73.3516 20.0408 74.0656 22.1474C74.0936 22.2153 74.1216 22.2833 74.2056 22.4464C74.4015 21.9299 74.5976 21.495 74.7376 21.0465C75.2971 19.3069 75.8431 17.5536 76.3751 15.8004C76.4871 15.4199 76.6411 15.2432 77.0746 15.2568C77.9146 15.2976 78.7406 15.2704 79.5801 15.2704C80.0281 15.2704 80.0561 15.3247 79.9301 15.7189C78.9086 18.9671 77.7746 22.1745 76.3611 25.2868C75.7591 26.5916 75.101 27.8555 74.4295 29.133C74.3455 29.2825 74.1356 29.4728 73.9676 29.4728C73.0441 29.5 72.1201 29.4864 71.1821 29.4864C71.1541 29.4864 71.0981 29.4728 70.9726 29.432Z" fill="white"/>
<path d="M18.3316 22.5958C18.8775 20.9378 19.4374 19.2661 19.9692 17.608C20.1792 16.942 20.3751 16.2761 20.5711 15.6101C20.6551 15.3383 20.795 15.2024 21.1029 15.2024C21.9707 15.216 22.8525 15.216 23.7203 15.2024C24.0562 15.2024 24.1262 15.3111 24.0282 15.6237C23.0345 18.7768 21.8727 21.8619 20.4731 24.8655C20.2352 25.3684 19.9972 25.8712 19.7033 26.3469C19.6193 26.4828 19.3814 26.6051 19.1994 26.6187C18.5276 26.6459 17.8418 26.6187 17.1699 26.6323C16.876 26.6323 16.708 26.5236 16.5961 26.2654C15.9522 24.8519 15.2524 23.4657 14.6786 22.025C13.8948 20.0136 13.1949 17.9478 12.4531 15.9091C12.4391 15.8548 12.4251 15.814 12.4111 15.7596C12.2572 15.216 12.2712 15.216 12.831 15.216C13.6568 15.216 14.4686 15.2296 15.2944 15.2024C15.6863 15.1888 15.8403 15.3383 15.9522 15.7053C16.6241 17.8526 17.3239 20 18.0097 22.1473C18.0657 22.2968 18.1357 22.4463 18.2057 22.5958C18.2477 22.5958 18.2896 22.5958 18.3316 22.5958Z" fill="#4795C8"/>
</svg>
