<svg width="80" height="40" viewBox="0 0 80 40" fill="none" xmlns="http://www.w3.org/2000/svg">
<g clip-path="url(#clip0_10_4972)">
<path d="M76.0585 11.9524C77.922 11.9285 79.403 10.4285 79.4505 8.57141C79.4505 6.69046 77.922 5.19046 76.0585 5.19046C74.1715 5.19046 72.6665 6.71426 72.6665 8.57141C72.6905 10.4524 74.1955 11.9524 76.0585 11.9524Z" fill="#F72442"/>
<path d="M67.3401 28.4284H72.3561V13.6665H67.3401V28.4284ZM57.2356 23.4761C55.5156 23.4761 54.6081 22.0951 54.6081 20.4522C54.6081 18.857 55.5156 17.5475 57.2356 17.5475C58.2626 17.5475 59.2421 17.9761 59.9346 18.7141V22.2856C59.2181 23.0237 58.2626 23.4522 57.2356 23.4761ZM57.2116 34.9761C62.4906 34.9761 64.9511 32.4046 64.9511 28.0237V13.6665H59.9346V14.4999C59.0271 13.6665 57.7131 13.1665 56.2321 13.1665C52.1716 13.1665 49.4961 16.1903 49.4961 20.4284C49.4961 24.7141 52.1716 27.8094 56.2321 27.8094C57.5701 27.7856 58.8836 27.3332 59.9346 26.4761V27.9761C59.9346 29.5951 59.0031 30.4284 56.8771 30.4284C55.1576 30.4284 52.8401 29.7618 50.8576 28.3808V33.1903C52.1236 33.9999 54.6556 34.9284 57.1876 34.9284L57.2116 34.9761ZM38.2452 28.9761C39.7262 29.0237 41.1833 28.4522 42.2582 27.4046V28.4284H47.2746V13.6665H42.2582V23.1427C41.685 23.9522 40.8728 24.4761 39.9651 24.4761C38.7707 24.4761 37.9585 23.6665 37.9585 22.3808V13.6665H32.9422V23.5951C32.9422 27.0475 35.522 28.9761 38.293 28.9761H38.2452ZM16.9378 28.4284H30.7924V24.3808H23.674L30.5535 17.6427V13.6665H17.1766V17.7141H23.9845L16.9378 24.4284V28.4284ZM0.455566 28.4284H15.2657V23.6665H5.71076V20.3332H14.3102V15.5713H5.71076V11.9999H15.2657V7.47604H0.455566V28.4284Z" fill="white"/>
<mask id="mask0_10_4972" style="mask-type:alpha" maskUnits="userSpaceOnUse" x="0" y="7" width="73" height="28">
<path d="M67.3401 28.4284H72.3561V13.6665H67.3401V28.4284ZM57.2356 23.4761C55.5156 23.4761 54.6081 22.0951 54.6081 20.4522C54.6081 18.857 55.5156 17.5475 57.2356 17.5475C58.2626 17.5475 59.2421 17.9761 59.9346 18.7141V22.2856C59.2181 23.0237 58.2626 23.4522 57.2356 23.4761ZM57.2116 34.9761C62.4906 34.9761 64.9511 32.4046 64.9511 28.0237V13.6665H59.9346V14.4999C59.0271 13.6665 57.7131 13.1665 56.2321 13.1665C52.1716 13.1665 49.4961 16.1903 49.4961 20.4284C49.4961 24.7141 52.1716 27.8094 56.2321 27.8094C57.5701 27.7856 58.8836 27.3332 59.9346 26.4761V27.9761C59.9346 29.5951 59.0031 30.4284 56.8771 30.4284C55.1576 30.4284 52.8401 29.7618 50.8576 28.3808V33.1903C52.1236 33.9999 54.6556 34.9284 57.1876 34.9284L57.2116 34.9761ZM38.2452 28.9761C39.7262 29.0237 41.1833 28.4522 42.2582 27.4046V28.4284H47.2746V13.6665H42.2582V23.1427C41.685 23.9522 40.8728 24.4761 39.9651 24.4761C38.7707 24.4761 37.9585 23.6665 37.9585 22.3808V13.6665H32.9422V23.5951C32.9422 27.0475 35.522 28.9761 38.293 28.9761H38.2452ZM16.9378 28.4284H30.7924V24.3808H23.674L30.5535 17.6427V13.6665H17.1766V17.7141H23.9845L16.9378 24.4284V28.4284ZM0.455566 28.4284H15.2657V23.6665H5.71076V20.3332H14.3102V15.5713H5.71076V11.9999H15.2657V7.47604H0.455566V28.4284Z" fill="black"/>
</mask>
<g mask="url(#mask0_10_4972)">
<path d="M-3.12756 -8.45245C-3.12756 -8.45245 -1.04937 26.0714 54.7035 25.2142C110.457 24.3571 113.347 -25.7144 113.347 -25.7144L-3.12756 -8.45245Z" fill="url(#paint0_linear_10_4972)"/>
</g>
</g>
<defs>
<linearGradient id="paint0_linear_10_4972" x1="47.5785" y1="26.0217" x2="58.3695" y2="-35.3767" gradientUnits="userSpaceOnUse">
<stop stop-color="#F72442"/>
<stop offset="0.05" stop-color="#CE1E37"/>
<stop offset="0.13" stop-color="#BA1D34"/>
<stop offset="0.21" stop-color="#A5192E"/>
<stop offset="0.29" stop-color="#991D2E"/>
<stop offset="0.37" stop-color="white"/>
<stop offset="0.45" stop-color="white"/>
<stop offset="0.52" stop-color="white"/>
<stop offset="0.59" stop-color="white"/>
</linearGradient>
<clipPath id="clip0_10_4972">
<rect width="80" height="40" fill="white"/>
</clipPath>
</defs>
</svg>
