<svg width="80" height="40" viewBox="0 0 80 40" fill="none" xmlns="http://www.w3.org/2000/svg">
<path d="M77.771 16.0729C77.7525 16.036 77.734 16.0175 77.697 15.9991L77.6225 15.9438C77.2885 15.5197 76.825 15.3538 76.2685 15.3354C74.321 15.3169 72.373 15.3169 70.4255 15.2801C69.943 15.2801 69.405 15.3169 68.923 15.2801C68.7375 15.2985 68.552 15.3354 68.385 15.3722L68.311 15.3907L68.181 15.446C68.1065 15.4829 68.0325 15.5197 67.977 15.5566L67.717 15.7041C66.975 16.1282 66.8455 17.05 66.697 17.935C66.4745 19.3916 66.2145 20.8297 65.992 22.2678C65.7695 23.6506 66.029 24.2037 67.346 24.7015C67.402 24.72 67.439 24.7384 67.4945 24.7384C69.572 24.7384 71.687 24.7015 73.783 24.72C74.098 24.72 74.4135 24.7384 74.729 24.7568C74.766 24.7568 74.803 24.7568 74.8585 24.7384C76.3985 24.3697 77.0845 23.5768 77.3445 21.8253C77.363 21.77 77.3815 21.7147 77.4 21.6594L77.771 19.4469C77.845 19.0228 77.9195 18.5988 78.012 18.1932C78.179 17.4372 78.2345 16.7182 77.771 16.0729ZM76.25 18.1378C76.0275 19.5022 75.786 20.8666 75.5265 22.2125C75.3595 23.0606 75.0815 23.3003 74.2095 23.3003C72.5215 23.3187 70.8335 23.3187 69.1455 23.3187C68.385 23.3372 67.773 22.7656 67.7355 22.0097C67.7355 21.8991 67.7355 21.8069 67.7545 21.6962C67.977 20.3688 68.1995 19.0413 68.422 17.7322C68.515 17.1422 68.83 16.8288 69.405 16.8288C71.5385 16.8104 73.6715 16.8288 75.8045 16.8288C75.8605 16.8288 75.916 16.8472 75.9715 16.8657C76.1385 16.921 76.3425 17.05 76.3425 17.2344C76.3425 17.5478 76.3055 17.8428 76.25 18.1378Z" fill="white"/>
<path d="M63.4325 15.3354C61.188 15.3354 58.9435 15.3538 56.6805 15.3723C56.5875 15.3723 56.495 15.3723 56.402 15.3538H56.365C56.235 15.3723 56.105 15.3907 55.994 15.3907L55.7155 15.4091C55.586 15.446 55.456 15.4829 55.3445 15.5566L55.122 15.6673C53.6755 16.3863 53.119 18.691 54.0835 19.9631L54.3615 20.1291C54.807 20.4241 55.623 20.4425 56.2535 20.461C57.8305 20.5163 59.407 20.461 60.9835 20.461C61.9485 20.461 62.134 20.6822 61.9855 21.6041C61.967 21.6963 61.967 21.7884 61.9485 21.8806C61.763 23.0975 61.5215 23.3187 60.2605 23.3003C58.1085 23.2819 55.9385 23.2819 53.7865 23.2634C53.5825 23.2634 53.3785 23.2819 53.156 23.3003C52.9145 23.7797 52.748 24.2222 52.952 24.72L61.0765 24.7384C61.225 24.6831 61.466 24.7384 61.6145 24.72C62.82 24.4803 63.451 23.5953 63.655 22.4153C63.729 21.9913 63.7475 21.5488 63.822 21.1247L63.766 20.2766C63.4135 19.281 62.5975 19.0413 61.67 19.0413C59.908 19.0413 58.164 19.0413 56.402 19.0413C55.697 19.0413 55.382 18.82 55.326 18.3038C55.2705 17.4741 55.66 16.8657 56.3465 16.8104C56.5505 16.7919 56.773 16.8104 56.9955 16.8104C59.0915 16.8104 61.188 16.8288 63.284 16.8288C63.599 16.8288 63.9885 16.9579 64.1185 16.4785L64.2485 15.3538C63.896 15.3538 63.655 15.3354 63.4325 15.3354Z" fill="white"/>
<path d="M43.0094 21.2353C42.1561 22.3416 41.1359 23.6322 40.3011 24.7384C39.6519 24.7384 39.114 24.7753 38.4647 24.7384C38.576 24.4987 38.7244 24.2775 38.8543 24.0562C39.0769 23.7428 39.318 23.4478 39.5592 23.1344L39.856 22.7841L41.0246 21.2906L41.2843 20.9772L43.6215 17.9903L43.9554 17.6032L45.866 15.2432L46.9233 15.2616L47.0717 15.446L47.3314 15.9622C48.5 18.5988 49.6686 21.2538 50.837 23.8903C50.9855 24.1484 51.097 24.4434 51.1895 24.72C50.6145 24.7015 49.9098 24.7384 49.3162 24.72C48.4258 22.6366 47.4983 20.4794 46.608 18.396C46.4596 18.0641 46.3112 17.7507 46.0886 17.2713C45.0127 18.4882 44.1409 19.6866 43.2691 20.885L43.0094 21.2353Z" fill="white"/>
<path d="M35.3855 24.72C36.5541 24.425 37.0735 23.5584 37.2961 22.2862C37.4259 21.5672 37.5372 20.9034 37.6485 20.1844C37.6856 19.9816 37.7227 19.7788 37.7413 19.5944C37.7413 19.5575 37.6671 19.5575 37.6114 19.5575H36.1089C36.0718 19.5575 36.0533 19.576 36.0347 19.6128C35.8863 20.4609 35.775 21.2537 35.6266 22.0466C35.4226 23.1712 35.2556 23.3187 34.1241 23.3187C32.77 23.3372 31.4159 23.3187 30.0432 23.3187C29.5981 23.3187 29.1714 23.2634 28.8375 22.8947C28.8004 22.8578 28.8004 22.8209 28.8004 22.7656C29.0601 21.18 29.3384 19.6128 29.5981 18.0272C29.765 16.9947 29.9134 16.8288 30.9522 16.8288C33.2708 16.8288 35.6081 16.8288 37.9268 16.8288C37.9639 16.8288 37.9824 16.8104 38.001 16.7735L38.2606 15.4829C38.2792 15.446 38.2606 15.4091 38.2235 15.3907C38.2235 15.3907 38.2235 15.3907 38.205 15.3907H29.6908C28.2439 15.7226 28.0399 16.9394 27.8544 18.396C27.6875 19.6497 27.4463 20.8113 27.2423 22.0281C27.1124 22.7472 27.0197 23.245 27.2423 23.8718C27.2608 23.8903 27.2608 23.9087 27.2794 23.9272C27.2979 23.9456 27.2979 23.964 27.3165 23.9825C27.335 24.0009 27.3536 24.0378 27.3536 24.0562C27.4092 24.1484 27.4834 24.2222 27.5576 24.2959C27.8544 24.6278 28.3367 24.7015 28.819 24.6831L34.7548 24.72" fill="white"/>
<path d="M16.3167 15.2432C16.261 15.7594 16.1683 16.2757 16.057 16.7919C15.7602 18.5803 15.4263 20.3503 15.1109 22.1203C14.944 23.0606 15.1666 23.3187 16.1683 23.3187C17.9676 23.3187 19.7854 23.3187 21.5847 23.3187C22.0299 23.3187 22.4194 23.0053 22.5307 22.5812C22.6791 21.9728 22.7348 21.3459 22.8275 20.7375L23.1985 18.525C23.3469 17.7322 23.4767 16.9394 23.6437 16.1466C23.6808 15.8332 23.755 15.5382 23.8477 15.2432L25.4059 15.2616C25.3317 15.9254 25.276 16.5891 25.1833 17.2529C24.905 19.0044 24.5897 20.7559 24.3115 22.5075C24.1445 23.5215 23.6437 24.2775 22.642 24.6462C21.1024 24.6831 19.5628 24.72 18.0232 24.72C16.9659 24.72 15.89 24.6831 14.8327 24.6462C14.74 24.6462 14.6658 24.6278 14.5916 24.5909C13.4786 24.0931 13.2374 23.6875 13.4229 22.4522C13.6455 20.8481 13.9423 19.2441 14.2206 17.6585C14.369 16.8472 14.5545 16.0544 14.74 15.2432C15.2037 15.2432 15.8529 15.2432 16.3167 15.2432Z" fill="white"/>
<path d="M12.4213 15.3353C12.3656 15.7594 12.31 16.3125 12.2358 16.8103H4.9273L4.44501 19.4653H11.2527L11.0115 20.9403H4.20387L3.61029 24.6462H1.86664C2.03358 23.7059 2.20053 22.8209 2.34892 21.9175C2.62717 20.1659 2.90541 18.4144 3.2022 16.6628L3.38769 15.7778L3.51754 15.3722L3.53609 15.3353C6.13302 15.3353 8.74847 15.3353 11.3454 15.3538C11.6978 15.3353 12.0503 15.3169 12.4213 15.3353Z" fill="white"/>
</svg>
