<svg width="80" height="40" viewBox="0 0 80 40" fill="none" xmlns="http://www.w3.org/2000/svg">
<g clip-path="url(#clip0_10_4472)">
<path d="M10.5338 19.6563C13.7894 19.6563 17.0216 19.6563 20.2772 19.6563C20.4778 20.9656 20.0767 22.8176 19.534 24.2095C18.2955 26.958 16.361 28.9515 13.353 29.7182C11.5718 30.1665 9.76705 30.1546 7.98585 29.7654C6.1103 29.2346 4.04602 27.9606 3.44442 27.3708C2.90181 26.8282 2.35919 26.2974 1.91095 25.684C0.353887 23.5371 -0.259501 21.1072 0.0943769 18.5003C0.63699 14.5015 2.83103 11.6822 6.59395 10.2196C10.2153 8.8158 15.5942 9.27585 18.8853 13.1449C18.0478 14.0296 17.1985 14.9025 16.4081 15.74C15.6178 15.1738 14.8864 14.5369 14.0608 14.0768C10.6399 12.1659 6.26365 13.3691 4.52964 16.7073C2.42997 20.7651 4.90711 25.4834 9.3188 26.3328C10.8286 26.6159 12.3149 26.5333 13.7069 25.8256C14.8157 25.2593 15.5352 24.3393 16.1014 23.1833C14.2141 23.1833 12.3857 23.1833 10.522 23.1833C10.5338 21.9801 10.5338 20.8241 10.5338 19.6563Z" fill="white"/>
<path d="M20.1356 22.1807C19.994 22.8884 19.7817 23.5962 19.534 24.2214C18.2954 26.9698 16.3609 28.9634 13.3529 29.7301C11.5718 30.1783 9.76695 30.1665 7.98575 29.7773C6.1102 29.2465 4.04593 27.9725 3.44434 27.3827C11.0291 28.4443 13.8956 27.8781 20.1356 22.1807Z" fill="url(#paint0_linear_10_4472)"/>
<path d="M7.98585 29.7653C6.1103 29.2345 4.04602 27.9606 3.44442 27.3708C2.90181 26.8282 2.35919 26.2973 1.91095 25.6839C0.353887 23.5371 -0.259501 21.1071 0.0943769 18.5002C0.412867 16.1882 1.27397 14.2655 2.67769 12.7792C2.0643 17.0257 1.71042 23.5135 7.98585 29.7653Z" fill="url(#paint1_linear_10_4472)"/>
<path d="M33.1819 29.6828C32.2382 29.6828 31.3064 29.6828 30.3391 29.6828C30.0088 28.8335 29.5134 27.5831 29.1949 26.6985H23.4267C23.1436 27.477 22.5892 28.9515 22.2707 29.7064H19.4279C19.4279 29.7064 23.3087 19.5737 24.8894 15.4569H27.7204C29.478 20.0102 33.1819 29.6828 33.1819 29.6828ZM26.3403 19.2434C25.7033 20.9067 25.1017 22.4519 24.5001 24.0208C25.7623 24.0208 26.9537 24.0208 28.1804 24.0208C27.5788 22.4401 26.9773 20.9067 26.3403 19.2434Z" fill="white"/>
<path d="M67.626 15.4569H70.681L73.6775 19.9984L76.638 15.4687H79.7285L75.211 22.3576C76.6265 24.4926 80 29.7064 80 29.7064H76.933C75.9895 28.2791 73.6655 24.7403 73.6655 24.7403L70.4215 29.6946H67.3075L72.132 22.3458L67.626 15.4569Z" fill="white"/>
<path d="M56.9625 18.1109C55.3935 18.1109 53.884 18.1109 52.3505 18.1109C52.3505 17.2144 52.3505 16.3651 52.3505 15.4922C55.193 15.4922 58.036 15.4922 60.938 15.4922C59.263 19.3376 57.5875 23.1595 55.889 27.0404C57.4815 27.0404 59.015 27.0404 60.572 27.0404C60.572 27.9369 60.572 28.7862 60.572 29.6827C57.7055 29.6827 54.8395 29.6827 51.902 29.6827C53.589 25.8254 55.264 22.0035 56.9625 18.1109Z" fill="white"/>
<path d="M48.5874 15.4569H45.9334L42.6305 25.3301L39.3276 15.4569H36.6735C35.8478 20.2107 35.0339 24.9409 34.22 29.6828C35.1165 29.6828 35.9894 29.6828 36.8859 29.6828C37.3931 26.7692 38.4311 20.7651 38.4311 20.7651C39.4102 23.6787 40.4365 26.7692 41.4037 29.6828C42.2176 29.6828 42.9962 29.6828 43.8219 29.6828C44.8127 26.7456 46.818 20.7651 46.818 20.7651C47.3135 23.6787 47.8443 26.7574 48.3397 29.671C49.2244 29.671 50.0735 29.671 50.97 29.671C50.18 24.9291 49.3778 20.1989 48.5874 15.4569Z" fill="white"/>
<path d="M62.908 15.4688C63.8045 15.4688 64.677 15.4688 65.5735 15.4688C65.5735 20.1989 65.5735 24.9173 65.5735 29.671C64.689 29.671 63.816 29.671 62.908 29.671C62.908 24.9527 62.908 20.2343 62.908 15.4688Z" fill="white"/>
<path d="M61.858 14.82C61.858 14.82 64.0165 12.9681 66.6115 14.82C66.6115 14.82 66.317 12.7911 64.2405 12.7911C62.1645 12.7911 61.858 14.82 61.858 14.82Z" fill="#F0A50D"/>
</g>
<defs>
<linearGradient id="paint0_linear_10_4472" x1="5.5573" y1="29.6086" x2="18.6901" y2="24.8116" gradientUnits="userSpaceOnUse">
<stop stop-color="white"/>
<stop offset="1" stop-color="#F2AC0B"/>
</linearGradient>
<linearGradient id="paint1_linear_10_4472" x1="3.99285" y1="14.426" x2="3.99285" y2="30.1692" gradientUnits="userSpaceOnUse">
<stop stop-color="white"/>
<stop offset="1" stop-color="#F2AC0B"/>
</linearGradient>
<clipPath id="clip0_10_4472">
<rect width="80" height="40" fill="white"/>
</clipPath>
</defs>
</svg>
