<svg width="80" height="40" viewBox="0 0 80 40" fill="none" xmlns="http://www.w3.org/2000/svg">
<path d="M78 19.7128H77.579L77.609 18.5923H77.583C77.4545 18.9471 77.327 19.3337 77.2065 19.7094H76.8305L76.4125 18.5679H76.3905C76.3905 18.922 76.4125 19.312 76.4235 19.6918H75.999V18.1779H76.6835L76.992 19.1173H77.011L77.3045 18.1705H78V19.7128Z" fill="white"/>
<path d="M48.1647 19.5751C48.1871 21.2409 48.221 22.9073 48.2434 24.5846H46.4299V18.0647H49.553L49.5978 18.1746C50.2225 19.7535 50.8495 21.3331 51.479 22.9148C51.488 22.9432 51.5005 22.9704 51.5165 22.9962C51.5165 22.9962 51.5505 23.0172 51.5885 23.0348C51.5885 22.1945 51.5655 21.3691 51.558 20.5531C51.5505 19.7379 51.5315 18.9084 51.5205 18.0715C51.611 18.0505 53.146 18.0396 53.3525 18.0715V24.5948H50.196C50.196 24.5595 50.162 24.5208 50.1475 24.4781C49.5278 22.8802 48.9043 21.2836 48.2774 19.6884C48.2699 19.6599 48.2584 19.6321 48.2434 19.607C48.2434 19.5853 48.202 19.5785 48.1796 19.5609L48.1647 19.5751Z" fill="white"/>
<path d="M32.7802 18.0606H36.5764C36.9602 18.0572 37.3419 18.1149 37.7053 18.2309C37.9335 18.2939 38.1379 18.4174 38.2928 18.5876C38.4476 18.7572 38.5468 18.9661 38.5781 19.1885C38.6711 19.6708 38.6433 20.1679 38.4952 20.6386C38.4653 20.741 38.4116 20.836 38.3369 20.9167C38.2629 20.9974 38.1705 21.0605 38.0666 21.1025C37.9301 21.1547 37.7902 21.1995 37.6489 21.2375C37.6122 21.2443 37.5782 21.2599 37.5511 21.2836L37.6075 21.3046C37.7542 21.3406 37.9049 21.3616 38.0476 21.4077C38.1787 21.4464 38.2982 21.5135 38.396 21.6044C38.4945 21.6946 38.5685 21.8058 38.612 21.9286C38.6888 22.13 38.7309 22.3423 38.7363 22.5566C38.7614 22.9134 38.7268 23.2729 38.6344 23.6201C38.6079 23.7083 38.574 23.7951 38.5332 23.8785C38.4313 24.1003 38.2446 24.2773 38.0102 24.375C37.746 24.4856 37.4635 24.552 37.1748 24.5703C36.9418 24.5703 36.7082 24.5948 36.4752 24.5948H32.8027C32.7653 24.5066 32.7538 18.2417 32.7802 18.0606ZM34.6427 21.8967V23.1481H34.7181C35.1582 23.1481 35.5983 23.1481 36.0385 23.1481C36.2069 23.1406 36.374 23.1209 36.539 23.0884C36.607 23.0789 36.6708 23.0504 36.7218 23.007C36.7727 22.9636 36.8087 22.9066 36.825 22.8435C36.8983 22.6204 36.8983 22.3823 36.825 22.1592C36.8114 22.109 36.7829 22.0636 36.7428 22.0276C36.7027 21.9917 36.6531 21.9673 36.5995 21.9571C36.4759 21.9266 36.3502 21.9076 36.2232 21.9001C35.7185 21.9001 35.2146 21.9001 34.7181 21.9001L34.6427 21.8967ZM34.6427 19.5107V20.6949C34.6956 20.6949 34.7405 20.6949 34.786 20.6949C35.1392 20.6949 35.489 20.6949 35.8394 20.6949C36.0575 20.701 36.2748 20.6786 36.4861 20.6277C36.5499 20.6155 36.6083 20.5864 36.6545 20.5423C36.7 20.4989 36.7306 20.4433 36.7421 20.3829C36.791 20.1971 36.791 20.0017 36.7421 19.8159C36.7279 19.7508 36.6932 19.6904 36.6416 19.6443C36.5907 19.5982 36.5261 19.5677 36.4562 19.5568C36.3529 19.5385 36.249 19.529 36.1437 19.5283H34.6393L34.6427 19.5107Z" fill="white"/>
<path d="M64.865 22.0635C64.865 22.1273 64.9255 22.113 64.9555 22.1205C65.098 22.1422 65.2385 22.172 65.3775 22.2087C65.5585 22.2636 65.721 22.3647 65.8455 22.5017C65.9695 22.638 66.051 22.8042 66.081 22.9819C66.111 23.1148 66.126 23.2498 66.126 23.3861C66.126 23.7618 66.126 24.1376 66.126 24.5099C66.126 24.5343 66.126 24.556 66.126 24.5839H64.245V23.6764C64.2455 23.5183 64.214 23.3623 64.1505 23.2158C64.1185 23.1345 64.0645 23.0619 63.9935 23.0063C63.923 22.95 63.839 22.9127 63.748 22.8964C63.671 22.8815 63.593 22.8733 63.515 22.872H62.168H62.0925V24.5662C61.999 24.5913 60.445 24.6022 60.23 24.5662V18.0646H63.8125C64.245 18.0592 64.6765 18.1162 65.0915 18.2342H65.114C65.353 18.2946 65.5695 18.4167 65.7385 18.5876C65.907 18.7578 66.022 18.9701 66.0695 19.1987C66.1195 19.3994 66.155 19.6036 66.1745 19.8084C66.212 20.2601 66.1865 20.7138 66.0995 21.1594C66.069 21.3209 65.9925 21.4714 65.88 21.5962C65.7665 21.7203 65.6205 21.8146 65.456 21.8682C65.3095 21.9218 65.155 21.9645 65.0045 22.0099L64.865 22.0635ZM62.081 21.3541H63.722C63.799 21.3493 63.874 21.3351 63.9475 21.312C64.0055 21.2985 64.0585 21.2713 64.101 21.232C64.143 21.1927 64.1735 21.1432 64.188 21.0882C64.224 20.9614 64.25 20.8325 64.2675 20.7023C64.2935 20.4371 64.2745 20.1706 64.211 19.9115C64.1975 19.8362 64.1595 19.767 64.101 19.7134C64.0425 19.6605 63.968 19.6266 63.887 19.6171C63.7635 19.5914 63.638 19.5758 63.511 19.571H62.4465H62.07L62.081 21.3541Z" fill="white"/>
<path d="M66.8935 21.5887C66.8935 21.1275 66.8935 20.7694 66.9275 20.4154C66.9375 20.0803 66.992 19.748 67.089 19.4258C67.1745 19.1613 67.324 18.9185 67.5255 18.7171C67.6785 18.5699 67.8635 18.4566 68.067 18.3841C68.6575 18.1657 69.285 18.0517 69.9185 18.047C70.3155 18.0368 70.7125 18.0538 71.107 18.0965C71.4965 18.1358 71.877 18.2301 72.236 18.3766C72.6055 18.5353 72.8975 18.8209 73.0525 19.1742C73.1905 19.491 73.2755 19.826 73.3045 20.1672C73.384 20.9871 73.36 21.8132 73.233 22.6278C73.182 22.9737 73.092 23.3142 72.962 23.6418C72.8615 23.8947 72.6715 24.1077 72.424 24.244C72.1625 24.3865 71.878 24.4855 71.5815 24.5384C71.173 24.6184 70.7565 24.6564 70.3395 24.6517C69.9825 24.6517 69.621 24.6517 69.264 24.6239C68.804 24.5947 68.353 24.4889 67.932 24.3119C67.635 24.1837 67.392 23.9666 67.2395 23.6947C67.0705 23.4152 66.9695 23.1039 66.942 22.7838C66.916 22.3436 66.9085 21.9116 66.8935 21.5887ZM71.446 21.2557C71.446 21.0814 71.446 20.901 71.446 20.7274C71.445 20.5219 71.421 20.3177 71.374 20.1176C71.3485 19.9745 71.2745 19.843 71.162 19.7433C71.05 19.6436 70.907 19.5805 70.7535 19.5642H70.7085C70.43 19.5323 70.148 19.5323 69.8695 19.5642C69.694 19.5737 69.5185 19.5961 69.3465 19.632C69.2455 19.6476 69.1525 19.6937 69.081 19.7636C69.01 19.8328 68.965 19.9223 68.9515 20.0179C68.9065 20.2051 68.876 20.3944 68.861 20.5856C68.8345 20.9966 68.827 21.4151 68.8235 21.8295C68.8175 22.113 68.853 22.3958 68.929 22.6699C68.9515 22.7668 69.003 22.8564 69.0765 22.9269C69.1505 22.9981 69.244 23.0476 69.3465 23.0707C69.486 23.1066 69.628 23.1304 69.772 23.1419C70.117 23.1697 70.4655 23.1453 70.802 23.0707C70.94 23.0456 71.066 22.9832 71.165 22.8903C71.264 22.7974 71.332 22.6787 71.359 22.5498C71.4215 22.3178 71.4515 22.0798 71.4495 21.8404C71.446 21.6457 71.446 21.4504 71.446 21.2557Z" fill="white"/>
<path d="M22.5132 20.5212V18.068H24.3715V24.5947H22.5166V22.0493C22.4262 22.0249 20.2595 22.0208 20.1087 22.0493V24.5771C20.0184 24.6022 18.4087 24.6089 18.2538 24.5771V18.0789C18.3333 18.0538 19.9437 18.0504 20.1013 18.0789V20.5287L22.5132 20.5212Z" fill="white"/>
<path d="M43.6803 23.4675H41.2005L40.8697 24.5947H38.9543C38.9543 24.5133 40.9261 18.2736 41.0164 18.0715H43.8304C44.5382 20.2364 45.2405 22.4108 45.9374 24.5947H44.0566L43.6803 23.4675ZM43.304 22.1978C43.014 21.2551 42.7281 20.33 42.4462 19.4042C42.3334 19.7128 42.239 20.0214 42.1453 20.33C42.0509 20.6379 41.9572 20.9499 41.8668 21.2619C41.7765 21.5739 41.6712 21.8757 41.5958 22.1978H43.304Z" fill="white"/>
<path d="M43.6803 23.4675H41.2005L40.8697 24.5947H38.9543C38.9543 24.5133 40.9261 18.2736 41.0164 18.0715H43.8304C44.5382 20.2364 45.2405 22.4108 45.9374 24.5947H44.0566L43.6803 23.4675ZM43.304 22.1978C43.014 21.2551 42.7281 20.33 42.4462 19.4042C42.3334 19.7128 42.239 20.0214 42.1453 20.33C42.0509 20.6379 41.9572 20.9499 41.8668 21.2619C41.7765 21.5739 41.6712 21.8757 41.5958 22.1978H43.304Z" fill="white"/>
<path d="M29.6769 23.4675H27.197L26.8662 24.5947H24.9508C24.9508 24.5133 26.9226 18.2736 27.013 18.0715H29.827C30.534 20.2364 31.2363 22.4108 31.9339 24.5947H30.0525L29.6769 23.4675ZM29.3006 22.1978C29.0105 21.2551 28.7246 20.33 28.4427 19.4042C28.3293 19.7128 28.2356 20.0214 28.1418 20.33C28.0474 20.6379 27.9537 20.9499 27.8633 21.2619C27.773 21.5739 27.6677 21.8757 27.5923 22.1978H29.3006Z" fill="white"/>
<path d="M56.1255 21.8933V23.1481C56.483 23.1481 56.837 23.1481 57.191 23.1481H59.335V24.5663C59.2565 24.5914 54.527 24.6022 54.2785 24.5663C54.256 24.4883 54.2485 18.2064 54.2785 18.0504H59.2635C59.286 18.1244 59.2935 19.3086 59.2635 19.468H56.1405C56.112 19.86 56.112 20.2533 56.1405 20.6454C56.382 20.6454 56.6265 20.6454 56.871 20.6454H59.0755V21.854C58.9365 21.854 58.797 21.854 58.658 21.854H56.133L56.1255 21.8933Z" fill="white"/>
<path d="M75.743 18.178V18.5327C75.5995 18.5571 75.457 18.5327 75.306 18.5327V19.7026C75.1555 19.7026 75.0205 19.7026 74.862 19.7026C74.862 19.3093 74.862 18.9227 74.862 18.5218H74.4635V18.1671L75.743 18.178Z" fill="white"/>
<path d="M7.2226 27.4311H7.1852C7.1703 27.4189 7.154 27.4081 7.13635 27.3992L2.06866 24.6232C2.04625 24.6144 2.02723 24.5988 2.015 24.5791C2.00278 24.5595 1.99803 24.5364 2.00074 24.5133V18.8942C2.00074 18.7307 2.00074 18.5679 2.00074 18.4085C2.00618 18.355 2.02248 18.3034 2.04965 18.2559C2.08632 18.1962 2.14338 18.1488 2.2113 18.1223C2.27922 18.0952 2.35462 18.0898 2.42593 18.1067C2.49793 18.1223 2.56246 18.1603 2.60932 18.2146C2.65619 18.2681 2.68336 18.3353 2.68539 18.4051C2.68539 18.5747 2.68539 18.7592 2.68539 18.9152C2.68064 18.9606 2.6854 19.0067 2.70034 19.0502C2.71528 19.0936 2.73974 19.1336 2.77234 19.1675C2.80494 19.2014 2.84433 19.2285 2.88916 19.2475C2.93331 19.2658 2.98086 19.2753 3.02976 19.2753C3.07799 19.2753 3.12621 19.2658 3.17036 19.2475C3.21451 19.2285 3.25458 19.2014 3.28651 19.1675C3.31911 19.1336 3.34356 19.0936 3.3585 19.0502C3.37345 19.0067 3.37888 18.9606 3.37412 18.9152V17.8164C3.37412 17.6706 3.37412 17.5289 3.37412 17.3837C3.37684 17.2976 3.41556 17.2162 3.48144 17.1565C3.54801 17.0968 3.6363 17.0636 3.72732 17.065C3.81834 17.065 3.90528 17.0989 3.9698 17.1592C4.03365 17.2196 4.06965 17.3017 4.06965 17.3871C4.06965 17.4475 4.06965 17.5044 4.06965 17.5648C4.06965 17.7066 4.06965 17.8483 4.06965 17.9901C4.07508 18.0348 4.0907 18.0782 4.11583 18.1169C4.14028 18.1556 4.17356 18.1888 4.21364 18.2146C4.25303 18.2403 4.29786 18.2573 4.34541 18.2654C4.39227 18.2729 4.44118 18.2709 4.48736 18.2593C4.57023 18.2417 4.64359 18.1956 4.69317 18.1305C4.74208 18.0647 4.76448 17.9846 4.75498 17.9046V15.859C4.75362 15.8109 4.76449 15.7627 4.78555 15.7187C4.8066 15.6746 4.83852 15.6359 4.87724 15.6047C4.91663 15.5728 4.96283 15.5504 5.0124 15.5382C5.062 15.526 5.1143 15.524 5.16455 15.5328C5.25015 15.5484 5.3269 15.5932 5.37985 15.659C5.43285 15.7241 5.45795 15.8055 5.4505 15.8875V17.2209C5.44915 17.2671 5.45865 17.3132 5.47905 17.3559C5.4994 17.398 5.5293 17.4359 5.5673 17.4651C5.6169 17.5092 5.6794 17.5377 5.74665 17.5472C5.8139 17.5567 5.8825 17.5465 5.9436 17.5187C6.0061 17.4943 6.0584 17.4529 6.0951 17.4C6.1311 17.3464 6.1494 17.284 6.1467 17.2209V16.249C6.14265 16.2036 6.14875 16.1581 6.16435 16.1147C6.18 16.072 6.2051 16.032 6.2384 15.9988C6.271 15.9655 6.31105 15.9391 6.3559 15.9208C6.40005 15.9031 6.44825 15.8943 6.4965 15.895C6.5447 15.895 6.5916 15.9045 6.63575 15.9228C6.6792 15.9411 6.7186 15.9682 6.7512 16.0015C6.7838 16.0347 6.80895 16.0734 6.82455 16.1161C6.8402 16.1588 6.8463 16.2043 6.8429 16.249C6.8429 16.3949 6.8429 16.5434 6.8429 16.6892C6.83745 16.7346 6.8429 16.7801 6.85785 16.8235C6.8728 16.8669 6.89725 16.9069 6.92985 16.9408C6.96245 16.9754 7.00185 17.0026 7.046 17.0209C7.0908 17.0392 7.13835 17.0494 7.18725 17.0494C7.2355 17.0494 7.2837 17.0392 7.32785 17.0209C7.372 17.0026 7.4114 16.9754 7.444 16.9408C7.4766 16.9069 7.50105 16.8669 7.516 16.8235C7.53095 16.7801 7.5364 16.7346 7.53095 16.6892V15.4372C7.52755 15.3917 7.53365 15.3463 7.54995 15.3036C7.5656 15.2608 7.5914 15.2215 7.624 15.1883C7.6566 15.155 7.6967 15.1279 7.74085 15.1103C7.785 15.092 7.8332 15.0825 7.88145 15.0831C7.92965 15.0825 7.9772 15.0913 8.02205 15.1089C8.0662 15.1272 8.10555 15.1537 8.13885 15.1869C8.17145 15.2201 8.1959 15.2602 8.2115 15.3036C8.22645 15.3463 8.2319 15.3924 8.22715 15.4372V16.5576C8.22715 16.6784 8.22715 16.8025 8.22715 16.9123C8.22985 16.972 8.2509 17.0297 8.28895 17.0772C8.3263 17.1253 8.37795 17.1619 8.4377 17.1816C8.49205 17.202 8.55045 17.2087 8.6082 17.202C8.6659 17.1958 8.72095 17.1755 8.7685 17.1436C8.81605 17.1124 8.85405 17.0697 8.8799 17.0209C8.9057 16.972 8.9179 16.9171 8.9159 16.8628C8.9159 16.696 8.9159 16.5081 8.9159 16.3555C8.91725 16.3026 8.9315 16.2504 8.9573 16.2029C8.99265 16.1378 9.05035 16.0863 9.121 16.0557C9.1923 16.0259 9.2718 16.0191 9.3472 16.0374C9.4219 16.0557 9.48845 16.0971 9.53535 16.1554C9.5822 16.2144 9.60665 16.2857 9.6046 16.3589C9.6046 16.8126 9.6046 17.263 9.6046 17.7167C9.59915 17.7622 9.6046 17.8083 9.61955 17.8517C9.6345 17.8951 9.65895 17.9351 9.69155 17.969C9.72415 18.003 9.76355 18.0301 9.8077 18.0491C9.85185 18.0674 9.90005 18.0769 9.9483 18.0769C9.9972 18.0769 10.0448 18.0674 10.0896 18.0491C10.1337 18.0301 10.1731 18.003 10.2057 17.969C10.2383 17.9351 10.2628 17.8951 10.2777 17.8517C10.2927 17.8083 10.2981 17.7622 10.2927 17.7167C10.2893 17.6923 10.2893 17.6672 10.2927 17.6428C10.3035 17.5506 10.3525 17.4658 10.4285 17.4081C10.5052 17.3498 10.603 17.3227 10.7008 17.3322C10.7987 17.3423 10.8883 17.3885 10.9501 17.4604C11.0119 17.5323 11.0405 17.6252 11.0303 17.7167V18.5076C11.0269 18.553 11.033 18.5984 11.0486 18.6412C11.0649 18.6846 11.09 18.7239 11.1227 18.7572C11.156 18.7904 11.1954 18.8168 11.2402 18.8352C11.2843 18.8528 11.3319 18.8623 11.3801 18.8623C11.4277 18.8616 11.4752 18.8521 11.5187 18.8338C11.5621 18.8155 11.6015 18.789 11.6334 18.7558C11.666 18.7226 11.6905 18.6832 11.7055 18.6405C11.7211 18.5978 11.7265 18.5523 11.7224 18.5076C11.7224 18.4648 11.7224 18.4262 11.7224 18.3834C11.7197 18.338 11.7278 18.2919 11.7448 18.2492C11.7625 18.2057 11.789 18.1671 11.8236 18.1345C11.8576 18.102 11.899 18.0762 11.9445 18.0599C11.9901 18.043 12.0382 18.0355 12.0871 18.0375C12.136 18.0396 12.1836 18.0511 12.227 18.0715C12.2705 18.0918 12.3092 18.1203 12.3405 18.1556C12.3717 18.1908 12.3948 18.2315 12.4084 18.2763C12.422 18.3204 12.4254 18.3665 12.4186 18.4119C12.4186 19.3289 12.4186 20.2472 12.4186 21.1669C12.4186 22.2867 12.4186 23.4051 12.4186 24.5208C12.4207 24.5412 12.4159 24.5615 12.4051 24.5791C12.3942 24.5968 12.3778 24.611 12.3581 24.6198L7.2681 27.3782L7.2226 27.4311ZM9.64605 19.961H8.02065V21.1913H6.38375V19.9434H4.75837V23.6024H6.38375V22.4393H8.02065V23.6024H9.64605V19.961Z" fill="url(#paint0_linear_10_2963)"/>
<path d="M8.24621 13.7246V14.1892C8.25166 14.2353 8.24621 14.2814 8.23126 14.3255C8.21566 14.3696 8.19121 14.4096 8.15791 14.4442C8.12531 14.4781 8.08526 14.5059 8.04041 14.5242C7.99561 14.5432 7.94736 14.5527 7.89846 14.5527C7.84956 14.5527 7.80066 14.5432 7.75581 14.5242C7.71101 14.5059 7.67091 14.4781 7.63831 14.4442C7.60571 14.4096 7.58056 14.3696 7.56566 14.3255C7.55071 14.2814 7.54526 14.2353 7.55001 14.1892V13.2498C7.54526 13.2037 7.55071 13.1576 7.56566 13.1135C7.58056 13.0694 7.60571 13.0287 7.63831 12.9948C7.67091 12.9602 7.71101 12.9331 7.75581 12.9141C7.80066 12.8958 7.84956 12.8856 7.89846 12.8856C7.94736 12.8856 7.99561 12.8958 8.04041 12.9141C8.08526 12.9331 8.12531 12.9602 8.15791 12.9948C8.19121 13.0287 8.21566 13.0694 8.23126 13.1135C8.24621 13.1576 8.25166 13.2037 8.24621 13.2498V13.7246Z" fill="#F3733E"/>
<path d="M6.86192 14.5934V15.0573C6.86667 15.1035 6.86127 15.1502 6.84632 15.1937C6.83137 15.2377 6.80622 15.2784 6.77362 15.3123C6.74102 15.3469 6.70097 15.3741 6.65612 15.3931C6.61132 15.412 6.56242 15.4215 6.51352 15.4215C6.46462 15.4215 6.41637 15.412 6.37152 15.3931C6.32672 15.3741 6.28662 15.3469 6.25402 15.3123C6.22077 15.2784 6.19632 15.2377 6.18067 15.1937C6.16572 15.1502 6.16032 15.1035 6.16577 15.0573V14.1254C6.16437 14.0813 6.17187 14.0379 6.18882 13.9966C6.20582 13.9559 6.23162 13.9186 6.26422 13.8874C6.29752 13.8562 6.33622 13.8318 6.37972 13.8155C6.42247 13.7992 6.46867 13.7911 6.51552 13.7917C6.56172 13.7917 6.60722 13.8006 6.65002 13.8175C6.69212 13.8345 6.73087 13.8589 6.76277 13.8901C6.79537 13.9213 6.82052 13.9579 6.83747 13.9979C6.85447 14.0386 6.86262 14.082 6.86192 14.1254V14.5934Z" fill="#F26345"/>
<path d="M6.86119 12.8952C6.86254 12.9609 6.84219 13.0254 6.80414 13.0796C6.76609 13.1346 6.71109 13.1773 6.64724 13.2031C6.58339 13.2282 6.51274 13.235 6.44414 13.2227C6.37624 13.2099 6.31304 13.1787 6.26414 13.1319C6.21524 13.0857 6.18199 13.0267 6.16839 12.9623C6.15479 12.8979 6.16229 12.8314 6.18874 12.771C6.21594 12.7107 6.26144 12.6591 6.31984 12.6232C6.37759 12.5872 6.44549 12.5683 6.51549 12.5689C6.60714 12.5689 6.69544 12.6035 6.75999 12.6646C6.82519 12.7263 6.86119 12.809 6.86119 12.8952Z" fill="#F26744"/>
<path d="M9.2922 14.9943C9.3404 14.9895 9.3893 14.9943 9.4355 15.0085C9.481 15.0227 9.5238 15.0458 9.5598 15.0763C9.5958 15.1068 9.62435 15.1441 9.6447 15.1862C9.6644 15.2282 9.6746 15.273 9.6746 15.3191C9.6746 15.3646 9.6644 15.41 9.6447 15.4514C9.62435 15.4934 9.5958 15.5307 9.5598 15.5613C9.5238 15.5918 9.481 15.6148 9.4355 15.6291C9.3893 15.6433 9.3404 15.6481 9.2922 15.6433C9.2012 15.6413 9.11425 15.6067 9.0497 15.5457C8.9852 15.4846 8.94785 15.4032 8.9458 15.3171C8.94785 15.2316 8.9852 15.1502 9.0497 15.0899C9.11425 15.0295 9.2012 14.9956 9.2922 14.9943Z" fill="#F47F39"/>
<defs>
<linearGradient id="paint0_linear_10_2963" x1="2.00074" y1="21.2517" x2="12.4037" y2="21.2517" gradientUnits="userSpaceOnUse">
<stop stop-color="#EE324D"/>
<stop offset="1" stop-color="#F89827"/>
</linearGradient>
</defs>
</svg>
