<svg width="80" height="40" viewBox="0 0 80 40" fill="none" xmlns="http://www.w3.org/2000/svg">
<g clip-path="url(#clip0_10_2939)">
<path d="M5.29627 18.1715H7.58247V20.0348L11.2023 20.1281V9.66301C11.2023 9.54111 11.1394 9.46106 11.0423 9.46106H7.73872C7.64342 9.46106 7.57867 9.54111 7.57867 9.66301V14.6165H5.29247V9.66301C5.29247 9.54111 5.22767 9.46106 5.13242 9.46106H1.87459C1.77743 9.46106 1.71265 9.54111 1.71265 9.66301V19.8843L5.29627 19.9757V18.1715Z" fill="white"/>
<path d="M19.5853 9.62301C19.5548 9.50106 19.4957 9.46106 19.4195 9.46106H15.8416C15.7673 9.46106 15.7064 9.50106 15.6759 9.62301L12.6486 20.1662L22.6164 20.4311L19.5853 9.62301ZM16.6723 18.4935L17.6153 12.536L18.5298 18.4935H16.6723Z" fill="white"/>
<path d="M36.6213 20.2805L38.1987 17.9715L39.3933 20.8578L43.116 20.953L40.3649 14.8413L43.8819 9.69732C43.9733 9.55632 43.9124 9.45532 43.7923 9.45532H40.0639C40.0255 9.45627 39.9881 9.46802 39.9561 9.48927C39.9241 9.51047 39.8987 9.54032 39.8829 9.57537L36.6213 14.8146V9.66302C36.6213 9.54107 36.5603 9.46107 36.4708 9.46107H33.4225C33.331 9.46107 33.272 9.54107 33.272 9.66302V20.6997L36.6251 20.7854L36.6213 20.2805Z" fill="white"/>
<path d="M54.2135 18.9945C54.2135 13.5152 48.0331 15.4623 48.0331 13.2942C48.0331 12.6731 48.5589 12.3912 49.281 12.3912C50.123 12.3912 50.95 12.7722 51.777 13.6372C51.7895 13.6565 51.8075 13.672 51.8285 13.6821C51.85 13.6921 51.873 13.6963 51.8965 13.6941C51.9195 13.692 51.942 13.6836 51.9605 13.6699C51.9795 13.6562 51.9945 13.6376 52.0035 13.6162L53.6855 11.2862C53.7165 11.2449 53.732 11.1942 53.7295 11.1428C53.727 11.0914 53.707 11.0425 53.6725 11.0042C52.4835 9.623 51.1005 9 49.4162 9C47.13 9 44.68 10.1241 44.68 13.7172C44.68 19.4765 50.9345 17.1884 50.9345 19.5565C50.9345 20.2805 50.35 20.6406 49.5077 20.6406C48.4541 20.6406 47.412 20.0995 46.3641 18.6744C46.3051 18.5944 46.2136 18.5735 46.1546 18.6744L44.5237 20.9892L53.796 21.2293C54.0825 20.5195 54.2245 19.7597 54.2135 18.9945Z" fill="white"/>
<path d="M61.8325 9.62301C61.802 9.50106 61.741 9.46106 61.6665 9.46106H58.0885C58.0125 9.46106 57.9535 9.50106 57.923 9.62301L54.583 21.2446L65.172 21.5189L61.8325 9.62301ZM58.9175 18.4935L59.87 12.536L60.775 18.4935H58.9175Z" fill="white"/>
<path d="M71.7905 15.7595L72.7315 21.7189L76.5955 21.8199L79.9905 9.68204C80.021 9.54109 79.975 9.46104 79.8705 9.46104H76.679C76.5895 9.46104 76.5285 9.52204 76.5135 9.65159L74.8275 16.7007L73.448 9.65159C73.433 9.55059 73.372 9.46104 73.2825 9.46104H70.3005C70.211 9.46104 70.15 9.54109 70.135 9.65159L68.7555 16.7007L67.062 9.64204C67.0465 9.52204 66.9855 9.45154 66.896 9.45154H63.7105C63.606 9.45154 63.56 9.53154 63.5905 9.67254L66.915 21.5741L70.857 21.677L71.7905 15.7595Z" fill="white"/>
<path d="M31.7155 19.5394C31.7163 19.5279 31.7133 19.5165 31.7068 19.5069C31.7003 19.4973 31.6908 19.4902 31.6799 19.4867C31.6689 19.4832 31.657 19.4834 31.6462 19.4875C31.6354 19.4915 31.6262 19.4991 31.6202 19.509C31.3991 19.8393 31.0988 20.1091 30.7468 20.2938C30.3947 20.4785 30.0021 20.5722 29.6045 20.5663C27.8461 20.5663 27.0173 18.8212 27.0173 16.4931C27.0173 14.386 27.707 12.5189 29.6388 12.5189C30.029 12.5041 30.4165 12.5894 30.7644 12.7669C31.1122 12.9443 31.4088 13.2079 31.6259 13.5324C31.6323 13.5417 31.6414 13.5486 31.652 13.5524C31.6626 13.5561 31.6741 13.5564 31.6848 13.5532C31.6956 13.5501 31.7051 13.5436 31.7119 13.5347C31.7188 13.5259 31.7227 13.5151 31.7231 13.5039V9.59639C31.7239 9.55214 31.7107 9.50879 31.6854 9.47249C31.6601 9.43624 31.6239 9.40889 31.5821 9.39444C30.9078 9.16234 30.1995 9.04454 29.4864 9.04579C25.6056 9.04579 23.1041 12.4579 23.1041 16.7541C23.0875 18.0257 23.3374 19.2866 23.8376 20.4558L31.7174 20.6597L31.7155 19.5394Z" fill="white"/>
<path d="M5.86611 23.9917C5.86611 24.1118 5.92896 24.1823 6.02616 24.1823H9.32016C9.41546 24.1823 9.48021 24.1022 9.48021 23.9917V20.6901L5.86041 20.5948L5.86611 23.9917Z" fill="white"/>
<path d="M0.160035 24.192H3.42931C3.52647 24.192 3.59125 24.1119 3.59125 24.0014V20.5359L0 20.4445V23.9919C0 24.1119 0.064776 24.192 0.160035 24.192Z" fill="white"/>
<path d="M10.1279 24.1919H13.422C13.4651 24.1882 13.5059 24.1706 13.5382 24.1418C13.5705 24.1129 13.5925 24.0744 13.601 24.0319L14.0221 22.2048H17.7181L18.1392 24.0319C18.1477 24.0744 18.1697 24.1129 18.202 24.1418C18.2343 24.1706 18.2751 24.1882 18.3183 24.1919H21.6123C21.7171 24.1919 21.7628 24.0929 21.7323 23.9519L20.8998 20.9855L10.9338 20.7264L10.0079 23.9519C9.96408 24.0929 10.0231 24.1919 10.1279 24.1919Z" fill="white"/>
<path d="M38.7702 24.0509C38.7813 24.0905 38.8049 24.1255 38.8375 24.1505C38.8701 24.1756 38.91 24.1894 38.9511 24.19H42.3938C42.5138 24.19 42.5595 24.0909 42.4986 23.9499L41.4031 21.5132L37.6804 21.416L38.7702 24.0509Z" fill="white"/>
<path d="M31.704 24.1918H34.7523C34.8438 24.1918 34.9028 24.1118 34.9028 24.0013V21.3474L31.5497 21.2598V23.9918C31.5535 24.1118 31.6145 24.1918 31.704 24.1918Z" fill="white"/>
<path d="M42.5463 22.2048C43.1281 22.9664 43.8777 23.5836 44.7368 24.0085C45.5959 24.4334 46.5413 24.6546 47.4997 24.6548C49.4602 24.6548 51.293 23.7022 52.0895 21.7971L42.8092 21.5513L42.5463 21.9323C42.5159 21.9712 42.4993 22.0192 42.4993 22.0685C42.4993 22.1179 42.5159 22.1659 42.5463 22.2048Z" fill="white"/>
<path d="M52.375 24.1918H55.667C55.7105 24.1882 55.7515 24.1707 55.7845 24.1418C55.817 24.113 55.8395 24.0744 55.848 24.0318L56.269 22.2047H59.967L60.394 24.0318C60.403 24.0742 60.4255 24.1127 60.458 24.1415C60.4905 24.1703 60.5315 24.1879 60.575 24.1918H63.8615C63.968 24.1918 64.012 24.0927 63.9835 23.9517L63.4595 22.0847L52.8705 21.8103L52.255 23.9517C52.2015 24.0927 52.2705 24.1918 52.375 24.1918Z" fill="white"/>
<path d="M71.2915 24.0109C71.307 24.1119 71.366 24.1919 71.4555 24.1919H74.2615C74.3515 24.1919 74.4105 24.1329 74.4255 24.0109L74.883 22.3801L71.017 22.281L71.2915 24.0109Z" fill="white"/>
<path d="M65.894 24.1919H68.6985C68.788 24.1919 68.849 24.1118 68.864 24.0109L69.1445 22.2314L65.2025 22.1305L65.7285 24.0109C65.7435 24.1328 65.8025 24.1919 65.894 24.1919Z" fill="white"/>
<path d="M27.8401 24.7406C28.5246 24.7434 29.2053 24.6392 29.8577 24.4319C29.9 24.4173 29.9368 24.3897 29.9627 24.3532C29.9887 24.3166 30.0026 24.2729 30.0025 24.2281V21.2198L22.1208 21.016C23.1286 23.2888 25.1272 24.7406 27.8401 24.7406Z" fill="white"/>
<path d="M4.95333 28.768H3.70735V28.1965C3.70735 28.0955 3.64829 28.0441 3.52826 28.0441H3.27106C3.15104 28.0441 3.09198 28.0955 3.09198 28.1965V30.7361C3.09198 30.837 3.15104 30.8885 3.27106 30.8885H3.52826C3.64829 30.8885 3.70735 30.837 3.70735 30.7361V29.995H3.34918V29.2329H4.95333V30.8275C4.95333 31.3991 4.60278 31.6829 3.89977 31.6829H2.89194C2.18893 31.6829 1.83838 31.3991 1.83838 30.8275V28.105C1.83838 27.536 2.18956 27.2509 2.89194 27.2496H3.90739C4.60976 27.2496 4.96095 27.5347 4.96095 28.105L4.95333 28.768Z" fill="#808184"/>
<path d="M18.2611 31.6714L18.1183 31.0103H17.0152L16.8647 31.6714H15.632L16.8151 27.2419H18.3393L19.5224 31.6714H18.2611ZM17.2095 30.1473H17.9258L17.5734 28.5546L17.2095 30.1473Z" fill="#808184"/>
<path d="M31.3818 31.6715H30.2654V27.2496H31.6257L32.3878 29.6158L33.1327 27.2496H34.4834V31.6715H33.3727V28.8633L32.8012 30.7208H31.942L31.3704 28.8785L31.3818 31.6715Z" fill="#808184"/>
<path d="M45.5203 27.2496H46.774V31.6715H45.5203V27.2496Z" fill="#808184"/>
<path d="M59.9025 27.2496H61.0455V31.6715H59.975L58.95 29.3472V31.6715H57.8065V27.2496H58.87L59.895 29.6158L59.9025 27.2496Z" fill="#808184"/>
<path d="M75.1645 28.768H73.9205V28.1965C73.9205 28.0955 73.8615 28.0441 73.7415 28.0441H73.4845C73.3645 28.0441 73.3055 28.0955 73.3055 28.1965V30.7361C73.3055 30.837 73.3645 30.8885 73.4845 30.8885H73.73C73.85 30.8885 73.909 30.837 73.909 30.7361V29.995H73.551V29.2329H75.163V30.8275C75.163 31.3991 74.8125 31.6829 74.111 31.6829H73.094C72.391 31.6829 72.04 31.3991 72.04 30.8275V28.105C72.04 27.536 72.3915 27.2509 73.094 27.2496H74.111C74.8125 27.2496 75.163 27.5347 75.163 28.105L75.1645 28.768Z" fill="#808184"/>
</g>
<defs>
<clipPath id="clip0_10_2939">
<rect width="80" height="40" fill="white"/>
</clipPath>
</defs>
</svg>
