<svg width="80" height="40" viewBox="0 0 80 40" fill="none" xmlns="http://www.w3.org/2000/svg">
<g clip-path="url(#clip0_10_2800)">
<path d="M1.94882 22.807C2.79105 22.7936 3.63365 22.8007 4.47589 22.8028C4.6416 22.8042 4.81741 22.7873 4.96976 22.8645C5.21634 22.9753 5.39539 23.2486 5.33329 23.517C5.02354 24.8936 4.70658 26.2691 4.39214 27.645C4.28564 28.1127 3.80297 28.4445 3.32138 28.4368C2.43113 28.4347 1.54051 28.4378 0.650257 28.435C0.326793 28.4357 -0.0226663 28.1941 7.741e-05 27.8513V27.7769C0.0156009 27.5434 0.0791391 27.3177 0.130403 27.0902C0.393941 25.9478 0.656397 24.8054 0.917407 23.6627C0.992137 23.1844 1.4582 22.8095 1.94882 22.807ZM73.0896 11.5976C73.4406 11.5401 73.7976 11.5609 74.1516 11.5585C75.9566 11.5581 77.7616 11.5599 79.5671 11.5571C79.7411 11.5549 79.9136 11.6618 79.9806 11.8202C80.0071 11.9217 79.9931 12.0286 79.9776 12.1309C79.2046 15.5034 78.4156 18.873 77.6321 22.2431C77.5601 22.5298 77.2791 22.7735 76.9681 22.7552C76.6191 22.7555 76.2696 22.758 75.9201 22.7541C75.6886 22.7545 75.5091 22.5111 75.5516 22.2956C75.8016 21.2269 76.0371 20.1547 76.2996 19.0885C76.3376 18.9129 76.3681 18.7055 76.2511 18.5514C76.1616 18.4251 75.9971 18.3828 75.8481 18.3846C75.0896 18.381 74.3311 18.3944 73.5726 18.3803C73.2781 18.3757 73.1031 18.0276 73.2141 17.7786C73.4891 17.1371 73.9981 16.5904 74.6346 16.2761C75.2296 15.9728 75.9136 15.9298 76.5721 15.9238C76.8346 15.9298 77.0801 15.7323 77.1346 15.4829C77.2826 14.8139 77.4641 14.1511 77.5806 13.4754C77.6371 13.2285 77.3906 13.0017 77.1461 13.0109C76.1721 13.0063 75.1971 13.0105 74.2231 13.0091C73.9686 12.9999 73.7191 13.1389 73.5936 13.3537C73.5301 13.456 73.5131 13.5766 73.4866 13.6912C72.8476 16.4913 72.1856 19.2868 71.5396 22.0854C71.5091 22.3097 71.4011 22.5312 71.2006 22.6554C71.0616 22.7534 70.8866 22.764 70.7221 22.7562C70.1326 22.7541 69.5436 22.7559 68.9541 22.7548C68.7391 22.7665 68.5501 22.5683 68.5536 22.363C68.5591 22.2812 68.5826 22.2022 68.6011 22.1228C69.1396 19.7647 69.7006 17.4115 70.2436 15.0544C70.4116 14.3892 70.4951 13.6849 70.8606 13.0856C71.3061 12.2808 72.1631 11.7182 73.0896 11.5976ZM63.2676 13.0391C63.0246 13.0934 62.8146 13.281 62.7486 13.5173C62.2581 15.6854 61.7491 17.8495 61.2486 20.0154C61.1706 20.3353 61.0691 20.6552 61.0696 20.9868C61.0851 21.185 61.2901 21.3229 61.4826 21.3292C62.4201 21.3342 63.3576 21.3278 64.2951 21.3324C64.4146 21.3317 64.5386 21.344 64.6546 21.3049C64.8816 21.2354 65.0696 21.0439 65.1151 20.8136C65.2551 20.1784 65.4136 19.5474 65.5461 18.9108C65.5876 18.6939 65.4486 18.4149 65.2001 18.4068C64.3931 18.3884 63.5851 18.4064 62.7786 18.4011C62.5401 18.4068 62.3006 18.1983 62.3301 17.9567C62.3881 17.5818 62.6226 17.2637 62.8671 16.9808C63.4231 16.3223 64.3006 15.9827 65.1606 15.9569C65.4656 15.9502 65.7931 15.9887 66.0736 15.8441C66.2066 15.776 66.3061 15.6501 66.3346 15.5051C66.4751 14.9242 66.6126 14.3419 66.7461 13.7593C66.7786 13.5815 66.8491 13.3741 66.7311 13.2119C66.6101 13.0352 66.3716 13.0095 66.1721 13.0158C65.2046 13.0356 64.2341 12.989 63.2676 13.0391ZM62.3091 11.6237C62.7886 11.5574 63.2741 11.5807 63.7566 11.5641C65.4401 11.5623 67.1231 11.5655 68.8061 11.5623C69.0161 11.5687 69.2151 11.7493 69.2136 11.9591C69.2056 12.0547 69.1736 12.1461 69.1526 12.2392C68.9526 13.0479 68.7831 13.863 68.5916 14.6735C68.4916 15.0893 68.3701 15.5037 68.1756 15.8875C67.9121 16.4472 67.3896 16.8542 66.8216 17.0969C67.2786 17.4129 67.5396 17.9465 67.5841 18.4844C67.6216 18.8297 67.5431 19.1721 67.4786 19.5097C67.3421 20.1756 67.1616 20.8436 66.8166 21.4379C66.3406 22.2536 65.3906 22.7495 64.4411 22.7778C62.3591 22.7781 60.2771 22.7778 58.1951 22.7781C57.9976 22.777 57.8151 22.6222 57.7861 22.4321C57.7736 22.2988 57.8266 22.1718 57.8541 22.0438C58.3971 19.6571 58.9681 17.2767 59.5111 14.89C59.6241 14.4587 59.6846 14.0136 59.8386 13.5928C60.0481 13.0539 60.3981 12.5608 60.8681 12.2078C61.2826 11.8896 61.7886 11.6953 62.3091 11.6237ZM51.5326 11.5958C51.8856 11.5433 52.2436 11.5581 52.5996 11.5549C54.3916 11.5514 56.1841 11.5542 57.9761 11.5549C58.1551 11.5532 58.3441 11.6484 58.4191 11.8131C58.4626 11.9038 58.4431 12.0067 58.4301 12.102C57.6836 15.3729 56.9221 18.641 56.1631 21.9094C56.1096 22.1736 56.0616 22.4822 55.8111 22.6413C55.6401 22.782 55.4051 22.7615 55.1971 22.7598C54.8971 22.7488 54.5961 22.7774 54.2971 22.746C54.0981 22.7026 53.9761 22.4804 54.0136 22.2914C54.6511 19.4814 55.3251 16.6793 55.9631 13.8693C56.0016 13.694 56.0541 13.5166 56.0396 13.3357C56.0296 13.2362 55.9851 13.1301 55.8926 13.0796C55.5931 12.9061 55.1386 13.0736 55.0606 13.4133C54.7056 14.9006 54.3736 16.3929 54.0206 17.8806C53.9376 18.2068 53.5761 18.3955 53.2491 18.3828C52.9356 18.3634 52.6216 18.392 52.3086 18.363C52.0801 18.3408 51.9021 18.0971 51.9656 17.8784C52.2936 16.4186 52.6271 14.9599 52.9746 13.5043C53.0151 13.3509 52.9686 13.1625 52.8241 13.0761C52.5541 12.9375 52.1701 13.0257 52.0176 13.2913C51.9236 13.4464 51.8916 13.6263 51.8516 13.7995C51.2101 16.6123 50.5476 19.4204 49.9015 22.2321C49.8387 22.5266 49.5513 22.7647 49.2409 22.7612C48.6026 22.7538 47.964 22.7615 47.3257 22.7584C47.0986 22.7492 46.908 22.5118 46.9651 22.2942C47.5994 19.4984 48.2687 16.71 48.9055 13.9148C49.0846 13.2119 49.5044 12.5601 50.1091 12.1344C50.5246 11.836 51.0241 11.6646 51.5326 11.5958ZM40.7286 11.5779C41.1708 11.5405 41.616 11.5676 42.0593 11.5599C43.7304 11.5606 45.4015 11.5602 47.0723 11.5592C47.2405 11.5648 47.404 11.672 47.4654 11.8262C47.5069 12.0265 47.4362 12.2265 47.3925 12.4201C46.6528 15.661 45.8911 18.897 45.142 22.1358C45.1055 22.4321 44.8669 22.7174 44.5535 22.7478C44.1791 22.7661 43.804 22.752 43.4297 22.7545C43.1748 22.7721 42.9748 22.4963 43.042 22.2642C43.2596 21.3331 43.4705 20.4009 43.6878 19.4698C43.7481 19.2286 43.834 18.9859 43.8113 18.7341C43.7921 18.5369 43.5957 18.3849 43.3975 18.3856C42.6138 18.3772 41.8297 18.3962 41.0459 18.3782C40.7741 18.3652 40.5947 18.052 40.6911 17.8118C41.0152 16.996 41.7376 16.3386 42.5983 16.091C43.0766 15.9421 43.5838 15.9368 44.0813 15.9241C44.334 15.9185 44.5654 15.7259 44.6185 15.4857C44.7679 14.8142 44.9488 14.149 45.0669 13.4715C45.1174 13.2355 44.8918 13.0144 44.6575 13.0112C43.6708 13.0035 42.6846 13.0091 41.6983 13.0084C41.3885 12.9982 41.0853 13.2151 41.0116 13.5103C40.3463 16.4162 39.6618 19.3178 38.9918 22.2226C38.9275 22.5125 38.6506 22.7629 38.3387 22.7555C37.7123 22.7545 37.0864 22.7566 36.4604 22.7548C36.1997 22.782 35.973 22.5051 36.0517 22.2628C36.651 19.6497 37.2719 17.0411 37.8737 14.4287C37.9557 14.0513 38.0445 13.6718 38.2188 13.3234C38.4499 12.8426 38.7972 12.4092 39.2456 12.1051C39.6806 11.8039 40.2015 11.6375 40.7286 11.5779ZM31.8145 11.5814C31.9297 11.556 32.0495 11.5641 32.1669 11.5578C32.7315 11.5528 33.2965 11.5606 33.8611 11.5556C34.1073 11.5454 34.3474 11.7912 34.2759 12.0342C33.7134 14.5384 33.1181 17.0355 32.5456 19.5375C32.4979 19.71 32.4567 19.8976 32.529 20.0701C32.5737 20.2024 32.7044 20.305 32.8506 20.2983C33.6326 20.3075 34.4152 20.2948 35.1972 20.3043C35.4755 20.2976 35.7304 20.5843 35.6387 20.8524C35.4275 21.3917 35.0463 21.8657 34.5658 22.2014C34.0391 22.57 33.3871 22.7397 32.7448 22.7577C31.6257 22.7661 30.5066 22.7668 29.3874 22.764C29.1376 22.7792 28.9087 22.528 28.9683 22.2872C29.7553 18.8805 30.5654 15.4783 31.3376 12.0681C31.3983 11.8406 31.59 11.6576 31.8145 11.5814ZM22.6181 11.5962C22.9102 11.5472 23.2076 11.5613 23.5026 11.5595C25.3679 11.5609 27.2333 11.5599 29.0983 11.5595C29.2845 11.5645 29.4817 11.6978 29.5033 11.8875C29.5225 12.0364 29.4766 12.1824 29.443 12.3256C28.7095 15.5302 27.9604 18.7309 27.217 21.933C27.1697 22.1464 27.1383 22.3827 26.9773 22.5478C26.8456 22.6861 26.6546 22.7633 26.4614 22.7584C26.1127 22.7541 25.7632 22.7651 25.4149 22.7531C25.1719 22.7358 25.008 22.4776 25.0719 22.2536C25.3297 21.1635 25.5705 20.069 25.8358 18.9806C25.9058 18.7366 25.7629 18.405 25.4759 18.3916C24.6734 18.3694 23.8705 18.4008 23.0679 18.3779C22.8004 18.3606 22.6261 18.0523 22.7185 17.8146C22.9235 17.294 23.2928 16.8387 23.7546 16.5121C24.1578 16.2243 24.6391 16.049 25.1326 15.982C25.4539 15.9379 25.7788 15.9337 26.1026 15.9245C26.3596 15.922 26.5961 15.7263 26.6484 15.4819C26.7896 14.8738 26.9351 14.2668 27.0665 13.6567C27.0918 13.5128 27.1297 13.3502 27.0488 13.2161C26.9531 13.0557 26.7506 12.9975 26.5708 13.007C25.5961 13.0109 24.6217 13.0021 23.6474 13.0119C23.3535 13.0345 23.0871 13.2609 23.0318 13.5452C22.3712 16.4377 21.6885 19.3256 21.0221 22.217C20.9596 22.5118 20.6773 22.7658 20.3611 22.7555C19.7224 22.7541 19.0835 22.7577 18.4445 22.7541C18.2152 22.7545 18.0239 22.515 18.0737 22.2977C18.6734 19.6613 19.3069 17.0327 19.9076 14.3966C19.991 14.0319 20.082 13.6651 20.2441 13.3248C20.4354 12.9368 20.6914 12.5739 21.0297 12.2938C21.4748 11.9164 22.0344 11.6731 22.6181 11.5962ZM14.9582 11.5877C15.0484 11.5652 15.1416 11.5571 15.2344 11.5581C16.1488 11.5648 17.0629 11.5539 17.977 11.5638C18.317 11.5602 18.6199 11.8727 18.5972 12.2042C18.5856 12.3069 18.5564 12.4067 18.5347 12.5076C18.2741 13.6634 18.0051 14.8177 17.7409 15.9728C17.5871 16.6503 17.1871 17.264 16.6513 17.7158C15.8697 18.3542 14.9336 18.7884 13.964 19.0783C13.1791 19.3171 12.3726 19.4779 11.5672 19.6331C11.4907 19.6511 11.408 19.6723 11.3531 19.7312C11.3163 19.8003 11.3744 19.8807 11.4481 19.892C11.6705 19.9484 11.9015 19.9579 12.1275 19.9925C12.8474 20.1047 13.5567 20.3156 14.1957 20.6626C14.5542 20.8612 14.9022 21.0905 15.1737 21.3969C15.6874 21.9655 15.9723 22.7488 15.8589 23.5071C15.6394 24.8939 15.2614 26.2504 14.9701 27.6235C14.8975 27.9638 14.6293 28.2495 14.3001 28.3729C14.0932 28.4579 13.8654 28.4336 13.647 28.4361C12.8167 28.435 11.986 28.4385 11.1553 28.434C10.7878 28.4456 10.4604 28.0774 10.5423 27.7229C10.7369 26.8264 10.956 25.9347 11.1531 25.0389C11.2578 24.5412 11.3437 24.0302 11.2896 23.5212C11.2069 23.0691 11.0715 22.588 10.7109 22.2692C10.2734 21.9112 9.76869 21.6191 9.21379 21.4749C8.70369 21.3313 8.16179 21.2929 7.67479 21.0753C7.47229 20.9804 7.26759 20.8672 7.13259 20.6863C6.83944 20.2997 6.82104 19.74 7.07194 19.3284C7.19934 19.1104 7.42354 18.9697 7.64989 18.8649C8.06939 18.6762 8.53329 18.6233 8.98454 18.5496C9.87334 18.4145 10.7885 18.3003 11.6026 17.9014C12.1499 17.6506 12.6849 17.3159 13.021 16.8126C13.1333 16.6426 13.2196 16.4553 13.2687 16.2585C13.5773 14.9549 13.8672 13.6475 14.1723 12.3432C14.2586 11.9715 14.5849 11.6787 14.9582 11.5877ZM4.38239 11.5902C4.5434 11.5507 4.71055 11.5602 4.87481 11.5592C5.72789 11.5652 6.58094 11.5532 7.43439 11.5648C7.79464 11.563 8.10044 11.9299 8.02209 12.2744C7.71054 13.6521 7.39069 15.0279 7.07844 16.4052C6.96544 16.8602 6.49789 17.1847 6.02609 17.1857C5.14879 17.1882 4.27192 17.1847 3.39466 17.1875C3.15207 17.1889 2.89033 17.0919 2.76109 16.881C2.65856 16.7283 2.66217 16.5343 2.70152 16.3622C2.99719 15.0773 3.29069 13.7921 3.58456 12.5069C3.61308 12.3841 3.63438 12.2582 3.69214 12.1443C3.82679 11.8741 4.08853 11.6724 4.38239 11.5902Z" fill="#97237F"/>
<path d="M60.9012 24.5114C61.8242 24.503 62.7477 24.5104 63.6712 24.5068C63.6332 24.7185 63.5837 24.928 63.5422 25.1389C62.8682 25.135 62.1942 25.1392 61.5202 25.1364C61.4517 25.4679 61.3837 25.7998 61.3157 26.1314C61.9582 26.131 62.6002 26.1314 63.2422 26.1314C63.1972 26.3472 63.1547 26.5638 63.1132 26.7803C62.4672 26.7793 61.8202 26.7768 61.1742 26.7821C61.1062 27.1295 61.0322 27.4758 60.9632 27.8229C61.6527 27.8232 62.3432 27.8222 63.0332 27.8236C62.9887 28.0335 62.9462 28.2437 62.9047 28.4539C61.9697 28.4613 61.0347 28.457 60.1002 28.456C60.3647 27.1404 60.6427 25.828 60.9012 24.5114ZM45.2056 28.4563C45.4727 27.1394 45.7428 25.8228 46.0121 24.5061C46.2713 24.5104 46.5305 24.5058 46.7897 24.5079C47.0417 25.5074 47.2969 26.5066 47.546 27.5069C48.1933 26.5056 48.8511 25.511 49.4966 24.5086C49.7485 24.5079 50.0007 24.5068 50.2527 24.5082C49.9778 25.8235 49.7128 27.1408 49.4431 28.457C49.2118 28.4574 48.9807 28.4574 48.75 28.457C48.9374 27.54 49.1265 26.623 49.3117 25.7053C48.7565 26.6227 48.2103 27.545 47.6496 28.4588C47.4381 28.4574 47.2269 28.4574 47.0157 28.4567C46.8301 27.5404 46.6432 26.6244 46.4594 25.7078C46.2706 26.6234 46.0843 27.54 45.8969 28.456C45.6666 28.4588 45.4359 28.4563 45.2056 28.4563ZM30.5865 28.4595C31.4237 27.1408 32.2674 25.8259 33.106 24.5079C33.3757 24.5079 33.6453 24.5086 33.9153 24.5061C34.2291 25.8235 34.5442 27.1401 34.8579 28.4574C34.5987 28.457 34.3399 28.4574 34.081 28.457C34.002 28.0987 33.9204 27.7407 33.8425 27.3824C33.3952 27.3781 32.9475 27.3827 32.5002 27.3799C32.6251 27.1697 32.7569 26.9634 32.8767 26.7503C33.1511 26.7412 33.4259 26.7503 33.7006 26.744C33.5876 26.258 33.489 25.7684 33.3652 25.2849C33.1583 25.5748 32.984 25.8869 32.7912 26.1864C32.3226 26.9422 31.8532 27.6977 31.3872 28.4549C31.1204 28.4616 30.8533 28.4542 30.5865 28.4595ZM74.5422 24.7199C75.3347 24.3725 76.2502 24.4247 77.0667 24.6617C77.0257 24.8842 76.9802 25.1061 76.9352 25.3279C76.3322 25.1191 75.6617 25.032 75.0367 25.1971C74.7787 25.2807 74.5487 25.5053 74.5472 25.7836C74.5212 25.9233 74.6057 26.0869 74.7582 26.1098C75.1877 26.1695 75.6287 26.0845 76.0552 26.1797C76.2642 26.2255 76.4802 26.3165 76.5977 26.5017C76.7192 26.6731 76.7342 26.8911 76.7072 27.0921C76.6717 27.4303 76.5347 27.7675 76.2827 28.007C76.0047 28.2754 75.6192 28.4087 75.2377 28.4549C74.6307 28.5428 74.0092 28.4641 73.4227 28.3004C73.4627 28.0779 73.5052 27.8561 73.5542 27.6353C73.9982 27.7904 74.4727 27.861 74.9442 27.843C75.1607 27.8324 75.3907 27.825 75.5822 27.7114C75.7997 27.5954 75.9527 27.3658 75.9522 27.121C75.9477 26.9912 75.8582 26.8586 75.7227 26.8336C75.2777 26.7366 74.8142 26.86 74.3707 26.751C74.1182 26.6992 73.8777 26.5285 73.8097 26.2767C73.6697 25.6788 73.9707 24.9925 74.5422 24.7199ZM19.3685 24.5259C19.9652 24.4275 20.5905 24.4624 21.1612 24.6663C21.1121 24.8853 21.0681 25.1057 21.0247 25.3265C20.5117 25.1219 19.9345 25.0422 19.3911 25.1706C19.1005 25.2397 18.8121 25.366 18.6124 25.591C18.2796 25.9592 18.1605 26.4678 18.1666 26.9489C18.1724 27.2328 18.2908 27.5397 18.5555 27.6846C18.9212 27.8927 19.3677 27.8606 19.7691 27.7947C19.8511 27.406 19.9287 27.0166 20.01 26.628C20.2591 26.6273 20.5082 26.628 20.7572 26.6287C20.6425 27.181 20.5363 27.7347 20.4135 28.2849C19.7103 28.5156 18.9291 28.5798 18.2175 28.3456C17.6767 28.1876 17.3388 27.6264 17.3727 27.0893C17.3695 26.4456 17.5446 25.7822 17.9579 25.2711C18.302 24.8504 18.8323 24.6105 19.3685 24.5259ZM3.70489 18.4062C4.22222 18.3145 4.76951 18.5001 5.14535 18.8527C5.4493 19.13 5.62405 19.5268 5.65075 19.9295C5.6782 20.4261 5.45615 20.9259 5.07745 21.2564C4.83341 21.4726 4.51717 21.602 4.19298 21.6489C3.54966 21.7318 2.87096 21.4087 2.54749 20.8582C2.32511 20.5118 2.28179 20.0812 2.35038 19.6844C2.47709 19.04 3.04496 18.5149 3.70489 18.4062Z" fill="#FE7A1C"/>
</g>
<defs>
<clipPath id="clip0_10_2800">
<rect width="80" height="40" fill="white"/>
</clipPath>
</defs>
</svg>
