<svg width="80" height="40" viewBox="0 0 80 40" fill="none" xmlns="http://www.w3.org/2000/svg">
<path d="M77.5 27.3168C76.5495 27.3168 75.493 27.3168 74.4365 27.3168C74.4365 26.2604 74.4365 25.2041 74.4365 24.0421C75.493 24.0421 76.4435 24.0421 77.5 24.0421C77.5 25.0985 77.5 26.1548 77.5 27.3168Z" fill="#3CB64D"/>
<path d="M50.2465 16.0139C51.831 16.1196 53.4155 16.0139 55 16.2252C56.5845 16.4365 57.324 17.3872 57.4295 18.9717C57.4295 20.8731 57.4295 22.7745 57.4295 24.6759C57.4295 25.9435 56.796 26.683 55.528 27.1055C55.1055 27.2111 54.683 27.4224 54.2605 27.4224C51.303 27.4224 48.3451 27.4224 45.2817 27.3168C43.8028 27.2111 42.9578 26.2604 42.8521 24.7816C42.7465 22.8801 42.6409 20.9787 42.7465 19.183C42.8521 17.2815 44.2254 16.3308 46.2324 16.2252C47.6057 16.1196 48.8733 16.1196 50.2465 16.0139C50.2465 16.1196 50.141 16.1196 50.2465 16.0139ZM49.824 24.4646C50.7745 24.4646 51.831 24.5703 52.7815 24.4646C53.7325 24.4646 54.0495 24.0421 54.0495 23.0914C54.0495 22.352 54.0495 21.6125 54.0495 20.8731C54.0495 19.183 53.521 18.7604 51.9365 18.8661C50.669 18.8661 49.2958 18.9717 48.0282 18.8661C46.7606 18.8661 46.1268 19.3942 46.1268 20.6618C46.1268 21.6125 46.1268 22.5632 46.1268 23.4083C46.1268 24.1477 46.4437 24.4646 47.0775 24.4646C48.0282 24.4646 48.8733 24.4646 49.824 24.4646Z" fill="white"/>
<path d="M73.2745 27.4224C71.5845 27.4224 69.8945 27.4224 68.204 27.4224C67.993 27.4224 67.676 27.1055 67.5705 26.8943C65.8805 24.5703 64.0845 22.2464 62.3945 19.9224C62.2885 19.7112 62.183 19.6055 61.866 19.2886C61.866 22.1407 61.866 24.7816 61.866 27.4224C60.81 27.4224 59.965 27.4224 59.014 27.4224C59.014 23.6196 59.014 19.9224 59.014 16.1196C60.704 16.1196 62.2885 16.1196 63.873 16.1196C64.0845 16.1196 64.296 16.3309 64.4015 16.5421C66.0915 18.8661 67.676 21.19 69.366 23.514C69.5775 23.7252 69.683 23.9365 70 24.359C70 21.5069 70 18.8661 70 16.1196C71.162 16.1196 72.2185 16.1196 73.2745 16.1196C73.2745 19.8168 73.2745 23.6196 73.2745 27.4224Z" fill="white"/>
<path d="M28.486 16.1196C31.9719 16.1196 35.4578 16.1196 38.9437 16.1196C40.8451 16.1196 41.5846 16.9647 41.5846 18.8661C41.5846 19.2886 41.5846 19.7112 41.5846 20.1337C41.5846 21.6126 41.162 22.0351 39.7888 22.352C39.5775 22.352 39.3662 22.4576 39.155 22.5633C39.3662 22.5633 39.5775 22.5633 39.7888 22.6689C40.9507 22.8802 41.5845 23.6196 41.6902 24.8872C41.6902 25.7323 41.6902 26.5774 41.6902 27.4224C40.5282 27.4224 39.4719 27.4224 38.3099 27.4224C38.3099 26.8943 38.3099 26.3661 38.3099 25.9436C38.3099 24.7816 37.993 24.359 36.7254 24.359C35.0353 24.2534 33.3451 24.359 31.655 24.359C31.655 25.4154 31.655 26.4717 31.655 27.5281C30.493 27.5281 29.5423 27.5281 28.486 27.5281C28.486 23.6196 28.486 19.9224 28.486 16.1196ZM31.4437 18.6548C31.4437 19.7112 31.4437 20.7675 31.4437 21.7182C33.4507 21.7182 35.3522 21.7182 37.2536 21.7182C38.0986 21.7182 38.3099 21.2957 38.4155 20.5562C38.4155 20.345 38.4155 20.0281 38.4155 19.8168C38.4155 18.9717 38.0986 18.6548 37.2536 18.6548C35.4578 18.6548 33.4507 18.6548 31.4437 18.6548Z" fill="white"/>
<path d="M13.5916 12C13.4859 12.3169 13.3803 12.5282 13.2747 12.7395C10.9507 17.493 8.52115 22.1409 6.1972 26.8944C5.9859 27.3169 5.669 27.5282 5.2465 27.5282C4.40141 27.5282 3.45071 27.5282 2.5 27.5282C2.60564 27.2113 2.71127 27 2.8169 26.8944C5.14085 22.1409 7.5704 17.493 9.89435 12.7395C10.1057 12.3169 10.4226 12.1056 10.8451 12.1056C11.6902 12 12.5352 12 13.5916 12Z" fill="#3CB64D"/>
<path d="M17.8169 12.1056C16.6549 14.324 15.5986 16.4366 14.5422 18.5493C13.169 21.2958 11.6901 24.1479 10.3169 26.8944C10.1056 27.3169 9.89434 27.4226 9.47184 27.4226C8.62674 27.4226 7.67604 27.4226 6.72534 27.4226C6.83099 27.2113 6.93659 27 6.93659 26.7887C9.26054 22.0352 11.6901 17.3873 14.0141 12.6338C14.2253 12.2112 14.5422 12 14.9648 12C16.0211 12.1057 16.8662 12.1056 17.8169 12.1056Z" fill="white"/>
<path d="M13.3802 22.6689C13.8028 21.8238 14.2253 20.9787 14.6479 20.2393C14.7535 20.1337 14.8591 20.028 15.0704 19.9224C17.5 18.6548 19.9295 17.3872 22.3591 16.1196C22.4648 16.1196 22.4648 16.1196 22.5704 16.0139C22.5704 17.0703 22.5704 18.2322 22.5704 19.2886C21.0915 19.9224 19.6126 20.4506 18.1338 21.0844C17.9225 21.19 17.7112 21.4013 17.5 21.6125C17.7112 21.8238 17.9225 22.0351 18.2394 22.1407C19.507 22.6689 20.7746 23.0914 22.1479 23.6196C22.3591 23.7252 22.676 24.0421 22.676 24.2534C22.7817 25.2041 22.676 26.1548 22.676 27.3168C19.507 25.8379 16.4436 24.2534 13.3802 22.6689Z" fill="white"/>
<path d="M27.1127 27.4225C25.8451 27.4225 24.7888 27.4225 23.5211 27.4225C23.5211 25.0985 23.5211 22.6689 23.5211 20.345C24.6831 20.345 25.8451 20.345 27.1127 20.345C27.1127 22.6689 27.1127 24.9929 27.1127 27.4225Z" fill="white"/>
<path d="M23.5211 16.0139C24.6831 16.0139 25.8451 16.0139 27.1127 16.0139C27.1127 17.0703 27.1127 18.1266 27.1127 19.183C25.9507 19.183 24.7888 19.183 23.5211 19.183C23.5211 18.2323 23.5211 17.1759 23.5211 16.0139Z" fill="white"/>
</svg>
