<svg width="80" height="40" viewBox="0 0 80 40" fill="none" xmlns="http://www.w3.org/2000/svg">
<g clip-path="url(#clip0_99_17665)">
<path d="M23.7946 19.1079H24.7768L26.3393 22.7532H26.3616L27.9018 19.1079H28.8839V23.9171H28.2143V19.9644H28.1919L26.5402 23.9171H26.0938L24.4419 19.9644H24.4196V23.9171H23.75V19.1079H23.7946Z" fill="white"/>
<path d="M31.3616 19.1079H31.9643L34.0625 23.9171H33.2812L32.7902 22.7312H30.4687L29.9777 23.9171H29.1964L31.3616 19.1079ZM32.5446 22.1603L31.6294 19.9424H31.6071L30.6696 22.1603H32.5446Z" fill="white"/>
<path d="M34.5536 22.907C34.6653 23.0827 34.8215 23.2145 35.0224 23.3023C35.201 23.3902 35.4019 23.4341 35.6028 23.4341C35.7144 23.4341 35.826 23.4121 35.9376 23.3902C36.0492 23.3462 36.1608 23.3023 36.2501 23.2364C36.3394 23.1706 36.4286 23.0827 36.4733 22.9949C36.5403 22.8851 36.5626 22.7753 36.5626 22.6435C36.5626 22.4679 36.4956 22.3141 36.384 22.2263C36.2724 22.1385 36.1161 22.0506 35.9376 21.9848C35.759 21.9189 35.5581 21.853 35.3572 21.7871C35.1563 21.7212 34.9554 21.6334 34.7769 21.5236C34.5983 21.4138 34.442 21.2601 34.3304 21.0844C34.2188 20.9087 34.1519 20.6452 34.1519 20.3378C34.1519 20.206 34.1742 20.0523 34.2411 19.8986C34.3081 19.7449 34.3974 19.5912 34.5313 19.4594C34.6653 19.3277 34.8438 19.2179 35.0447 19.13C35.2456 19.0422 35.5135 18.9983 35.8036 18.9983C36.0715 18.9983 36.317 19.0422 36.5626 19.1081C36.8081 19.1739 37.0313 19.3277 37.2099 19.5473L36.6742 20.0304C36.5849 19.8986 36.4733 19.8108 36.317 19.7229C36.1608 19.6351 35.9822 19.6131 35.8036 19.6131C35.6251 19.6131 35.4688 19.6351 35.3349 19.679C35.2233 19.7229 35.1117 19.7888 35.0447 19.8547C34.9778 19.9206 34.9108 20.0084 34.8885 20.0962C34.8661 20.1841 34.8438 20.2719 34.8438 20.3378C34.8438 20.5354 34.9108 20.6891 35.0224 20.7989C35.134 20.9087 35.2903 20.9966 35.4688 21.0625C35.6474 21.1283 35.8483 21.1942 36.0492 21.2381C36.2501 21.282 36.451 21.3699 36.6295 21.4577C36.8081 21.5456 36.9644 21.6773 37.076 21.853C37.1876 22.0287 37.2545 22.2483 37.2545 22.5337C37.2545 22.7753 37.2099 22.9729 37.1206 23.1706C37.0313 23.3462 36.9197 23.5219 36.7635 23.6317C36.6072 23.7635 36.4286 23.8513 36.2278 23.9172C36.0269 23.9831 35.8036 24.027 35.5581 24.027C35.2456 24.027 34.9554 23.9831 34.6653 23.8733C34.3751 23.7635 34.1519 23.5878 33.9956 23.3682L34.5536 22.907Z" fill="white"/>
<path d="M41.3616 20.1402C41.2277 19.9645 41.0491 19.8328 40.8259 19.723C40.6027 19.6351 40.4018 19.5692 40.1785 19.5692C39.9107 19.5692 39.6428 19.6132 39.4196 19.723C39.1964 19.8328 38.9955 19.9645 38.8393 20.1402C38.683 20.3159 38.5491 20.5355 38.4598 20.7551C38.3705 20.9966 38.3259 21.2382 38.3259 21.5236C38.3259 21.7872 38.3705 22.0287 38.4598 22.2483C38.5491 22.4679 38.6607 22.6655 38.8169 22.8412C38.9732 23.0169 39.1741 23.1486 39.3973 23.2584C39.6205 23.3682 39.8884 23.4122 40.1562 23.4122C40.4464 23.4122 40.6919 23.3463 40.8928 23.2365C41.116 23.1267 41.2946 22.973 41.4285 22.7534L41.9866 23.1706C41.9419 23.2145 41.875 23.3024 41.7857 23.3902C41.6964 23.478 41.5625 23.5659 41.4285 23.6757C41.2946 23.7855 41.0937 23.8513 40.8705 23.9172C40.6473 23.9831 40.4018 24.027 40.1339 24.027C39.7544 24.027 39.3973 23.9611 39.0848 23.8074C38.7723 23.6537 38.5044 23.478 38.2812 23.2365C38.058 22.9949 37.9018 22.7314 37.7902 22.4459C37.6786 22.1385 37.6116 21.853 37.6116 21.5456C37.6116 21.1723 37.6786 20.8209 37.7902 20.5135C37.9241 20.2061 38.0803 19.9206 38.3036 19.701C38.5268 19.4814 38.7946 19.2838 39.1071 19.174C39.4196 19.0422 39.7768 18.9763 40.1562 18.9763C40.4687 18.9763 40.8035 19.0422 41.116 19.152C41.4285 19.2838 41.6741 19.4595 41.875 19.723L41.3616 20.1402Z" fill="white"/>
<path d="M44.7991 24.0489C44.4197 24.0489 44.0848 23.983 43.7723 23.8513C43.4598 23.7195 43.192 23.5438 42.9688 23.3243C42.7456 23.1047 42.567 22.8192 42.4331 22.5118C42.2991 22.2043 42.2322 21.8749 42.2322 21.5016C42.2322 21.1283 42.2991 20.7989 42.4331 20.4915C42.567 20.1841 42.7456 19.9205 42.9688 19.679C43.192 19.4594 43.4598 19.2837 43.7723 19.152C44.0848 19.0202 44.4197 18.9543 44.7991 18.9543C45.1786 18.9543 45.5134 19.0202 45.8259 19.152C46.1384 19.2837 46.4063 19.4594 46.6295 19.679C46.8527 19.8986 47.0313 20.1841 47.1652 20.4915C47.2991 20.7989 47.3661 21.1283 47.3661 21.5016C47.3661 21.8749 47.2991 22.2043 47.1652 22.5118C47.0313 22.8192 46.8527 23.0827 46.6295 23.3243C46.4063 23.5438 46.1384 23.7195 45.8259 23.8513C45.5134 23.983 45.1563 24.0489 44.7991 24.0489ZM44.7991 23.4341C45.0893 23.4341 45.3348 23.3901 45.5581 23.2803C45.7813 23.1705 45.9822 23.0388 46.1384 22.8631C46.2947 22.6874 46.4286 22.4898 46.5179 22.2482C46.6072 22.0067 46.6518 21.7651 46.6518 21.5016C46.6518 21.2381 46.6072 20.9966 46.5179 20.755C46.4286 20.5134 46.2947 20.3158 46.1384 20.1401C45.9822 19.9645 45.7813 19.8327 45.5581 19.7229C45.3348 19.6131 45.0893 19.5692 44.7991 19.5692C44.509 19.5692 44.2634 19.6131 44.0402 19.7229C43.817 19.8327 43.6161 19.9645 43.4598 20.1401C43.3036 20.3158 43.1697 20.5134 43.0804 20.755C42.9911 20.9966 42.9464 21.2381 42.9464 21.5016C42.9464 21.7651 42.9911 22.0067 43.0804 22.2482C43.1697 22.4898 43.3036 22.6874 43.4598 22.8631C43.6161 23.0388 43.817 23.1705 44.0402 23.2803C44.2634 23.3682 44.509 23.4341 44.7991 23.4341Z" fill="white"/>
<path d="M49.0402 19.701H47.4553V19.0862H51.2725V19.701H49.6875V23.9172H49.0178V19.701H49.0402Z" fill="white"/>
<path d="M57.5 21.2161V23.5878C57.3885 23.6536 57.2545 23.7195 57.098 23.7854C56.942 23.8293 56.7855 23.8952 56.6295 23.9172C56.473 23.9391 56.2945 23.983 56.1385 24.005C55.96 24.027 55.8035 24.027 55.6695 24.027C55.2455 24.027 54.8885 23.9611 54.5535 23.8293C54.219 23.6976 53.951 23.4999 53.7275 23.2803C53.5045 23.0388 53.326 22.7753 53.2145 22.4678C53.1025 22.1604 53.0355 21.831 53.0355 21.5016C53.0355 21.1503 53.1025 20.7989 53.2365 20.4915C53.3705 20.1841 53.549 19.9205 53.7725 19.679C53.9955 19.4594 54.2635 19.2837 54.576 19.152C54.8885 19.0202 55.223 18.9543 55.6025 18.9543C56.049 18.9543 56.4285 19.0202 56.719 19.13C57.009 19.2398 57.2545 19.3935 57.433 19.5911L56.9645 20.0962C56.7635 19.8986 56.54 19.7668 56.317 19.7009C56.094 19.6351 55.848 19.5911 55.6025 19.5911C55.3125 19.5911 55.067 19.6351 54.844 19.7449C54.6205 19.8547 54.4195 19.9864 54.2635 20.1621C54.107 20.3378 53.973 20.5354 53.884 20.777C53.7945 21.0185 53.75 21.2601 53.75 21.5236C53.75 21.7871 53.7945 22.0506 53.9065 22.2922C53.9955 22.5337 54.1295 22.7313 54.308 22.907C54.4865 23.0827 54.6875 23.2145 54.9105 23.3023C55.134 23.3901 55.402 23.456 55.6695 23.456C55.915 23.456 56.1385 23.4341 56.3395 23.3901C56.54 23.3462 56.719 23.2803 56.875 23.1925V21.853H55.7815V21.2381H57.5V21.2161Z" fill="white"/>
<path d="M59.9555 19.1079H60.558L62.6565 23.9171H61.875L61.384 22.7312H59.0625L58.5715 23.9171H57.79L59.9555 19.1079ZM61.1385 22.1603L60.223 19.9424H60.201L59.2635 22.1603H61.1385Z" fill="white"/>
<path d="M62.9465 19.1079H63.9285L65.491 22.7532H65.5135L67.0535 19.1079H68.0355V23.9171H67.366V19.9644H67.344L65.692 23.9171H65.2455L63.594 19.9644H63.616V23.9171H62.9465V19.1079Z" fill="white"/>
<path d="M68.973 19.1079H69.643V23.9171H68.973V19.1079Z" fill="white"/>
<path d="M70.6025 19.1079H71.473L74.174 23.0606H74.1965V19.1079H74.866V23.9171H74.018L71.2945 19.9644H71.2725V23.9171H70.6025V19.1079Z" fill="white"/>
<path d="M80 21.2161V23.5878C79.8885 23.6536 79.7545 23.7195 79.598 23.7854C79.442 23.8293 79.2855 23.8952 79.1295 23.9172C78.973 23.9391 78.7945 23.983 78.6385 24.005C78.46 24.027 78.3035 24.027 78.1695 24.027C77.7455 24.027 77.3885 23.9611 77.0535 23.8293C76.719 23.6976 76.451 23.4999 76.2275 23.2803C76.0045 23.0388 75.826 22.7753 75.7145 22.4678C75.6025 22.1604 75.5355 21.831 75.5355 21.5016C75.5355 21.1503 75.6025 20.7989 75.7365 20.4915C75.8705 20.1841 76.049 19.9205 76.2725 19.679C76.4955 19.4594 76.7635 19.2837 77.076 19.152C77.3885 19.0202 77.723 18.9543 78.1025 18.9543C78.549 18.9543 78.9285 19.0202 79.219 19.13C79.509 19.2398 79.7545 19.3935 79.933 19.5911L79.4645 20.0962C79.2635 19.8986 79.04 19.7668 78.817 19.7009C78.594 19.6351 78.348 19.5911 78.1025 19.5911C77.8125 19.5911 77.567 19.6351 77.344 19.7449C77.1205 19.8547 76.9195 19.9864 76.7635 20.1621C76.607 20.3378 76.473 20.5354 76.384 20.777C76.2945 21.0185 76.25 21.2601 76.25 21.5236C76.25 21.7871 76.2945 22.0506 76.4065 22.2922C76.4955 22.5337 76.6295 22.7313 76.808 22.907C76.9865 23.0827 77.1875 23.2145 77.4105 23.3023C77.634 23.3901 77.902 23.456 78.1695 23.456C78.415 23.456 78.6385 23.4341 78.8395 23.3901C79.04 23.3462 79.219 23.2803 79.375 23.1925V21.853H78.2815V21.2381H80V21.2161Z" fill="white"/>
<path d="M19.6206 10.5219C16.0268 10.5219 12.4553 10.5219 8.8616 10.5219C5.98215 10.5219 3.10268 10.5219 0.200893 10.5219C0.133929 10.5219 0.0446429 10.4561 0 10.5658C0 13.3547 0 16.1216 0 18.9104C0 19.6351 0 19.3935 0 19.6351C0.3125 19.174 0.892855 18.7348 1.31696 18.4054C1.45089 18.2956 1.49554 18.2077 1.49554 18.0321C1.49554 16.0996 1.49554 14.1892 1.49554 12.2567C1.49554 12.0811 1.51786 12.0152 1.71875 12.0152C7.1875 12.0152 12.6562 12.0152 18.125 12.0152C18.3259 12.0152 18.3482 12.0591 18.3482 12.2348C18.3482 14.2111 18.3482 16.2094 18.3482 18.1858C18.3482 18.6689 18.2589 19.174 18.0357 19.6131C17.1428 21.4797 14.7544 22.0506 13.0581 20.799C12.9241 20.6892 12.8572 20.7111 12.7678 20.8429C12.5669 21.1723 12.4107 21.5236 12.3438 21.8969C12.3215 22.0287 12.3438 22.1165 12.4777 22.1824C15.2232 23.9172 18.9286 22.4679 19.6875 19.3057C19.7321 19.152 19.7545 19.0861 19.7991 18.8885C19.8215 18.8226 19.8214 18.7348 19.8214 18.6689V18.5811C19.8214 15.902 19.8214 13.2229 19.8214 10.5219C19.7768 10.4561 19.6875 10.5219 19.6206 10.5219Z" fill="white"/>
<path d="M9.5312 18.2076C9.5312 20.689 7.6785 22.6873 5.20085 22.9069C4.10709 23.0167 3.12495 22.7752 2.20977 22.2042C2.05352 22.1384 2.00888 22.0286 2.05352 21.8748C2.12048 21.5015 2.25441 21.1721 2.47763 20.8427C2.56691 20.711 2.63388 20.689 2.7678 20.7988C4.30798 21.9407 6.45085 21.5894 7.52224 19.9863C8.61599 18.3613 7.9687 16.1215 6.16065 15.287C6.0044 15.2211 5.91515 15.1992 5.8035 15.3748C5.558 15.7262 5.20085 15.8799 4.75441 15.836C4.28566 15.7921 3.95084 15.5505 3.77227 15.1113C3.72763 15.0015 3.68298 14.9357 3.54905 14.8698C3.01334 14.6282 2.7678 14.0353 2.94638 13.5083C3.12495 12.9593 3.68298 12.6299 4.26334 12.7177C4.35263 12.7397 4.44191 12.7177 4.50888 12.6738C4.91066 12.4103 5.33475 12.3884 5.7812 12.608C6.2053 12.8275 6.3839 13.2009 6.36155 13.662C6.36155 13.7938 6.4285 13.8157 6.5178 13.8596C8.10264 14.5184 9.08474 15.6823 9.4419 17.3512C9.5312 17.6367 9.5535 17.9441 9.5312 18.2076Z" fill="white"/>
<path d="M15.0669 17.6587C15.9598 17.6587 16.808 17.9002 17.5893 18.3614C17.7678 18.4712 17.8348 18.559 17.7902 18.7566C17.7009 19.086 17.5893 19.3935 17.4107 19.7009C17.3214 19.8766 17.2544 19.9205 17.0535 19.7668C15.8928 18.9104 14.3527 18.8884 13.1919 19.7229C12.1652 20.4695 11.6964 21.5016 11.8527 22.7533C12.0089 23.9171 12.6562 24.7735 13.75 25.2786C13.8839 25.3445 13.9732 25.3445 14.0625 25.1908C14.3303 24.8175 14.7098 24.6637 15.1785 24.7296C15.625 24.7955 15.9375 25.037 16.0937 25.4543C16.1384 25.5641 16.183 25.6299 16.2946 25.6739C16.8303 25.9374 17.0759 26.5083 16.8973 27.0573C16.7187 27.6063 16.183 27.9357 15.5803 27.8259C15.4687 27.8039 15.4241 27.8259 15.3348 27.8918C14.9553 28.1553 14.5312 28.1772 14.1071 27.9577C13.7053 27.76 13.4821 27.4087 13.4821 26.9475C13.4821 26.7718 13.4152 26.7279 13.2589 26.662C11.4732 25.9154 10.2678 24.1587 10.3125 22.1823C10.3571 20.3816 11.5178 18.6908 13.2812 17.9661C13.8393 17.7685 14.4419 17.6587 15.0669 17.6587Z" fill="white"/>
<path d="M10.5357 19.6572C10.2232 18.6251 10.2232 17.6369 10.5804 16.6707C11.0715 15.3531 11.9866 14.4308 13.2813 13.9038C13.3929 13.8599 13.4822 13.816 13.4598 13.6623C13.4375 13.2011 13.6607 12.8717 14.0625 12.6521C14.4643 12.4325 14.8884 12.4545 15.2902 12.696C15.3795 12.7619 15.4688 12.7839 15.5804 12.7619C16.1384 12.6521 16.6965 13.0035 16.875 13.5305C17.0536 14.0575 16.8081 14.6285 16.2947 14.892C16.1607 14.9579 16.0938 15.0237 16.0491 15.1555C15.8706 15.5947 15.5357 15.8143 15.067 15.8582C14.6429 15.9021 14.2857 15.7484 14.0402 15.3971C13.9286 15.2433 13.8393 15.2433 13.6831 15.3092C12.5447 15.8802 11.8973 16.8025 11.7857 18.0541C11.7857 18.1859 11.7411 18.2737 11.6295 18.3616C11.2054 18.7349 10.8482 19.1521 10.5357 19.6572Z" fill="white"/>
<path d="M9.30804 20.9307C9.53124 21.5895 9.59819 22.2702 9.50894 22.929C9.24104 24.7297 8.23659 25.9814 6.54019 26.706C6.42854 26.7499 6.38394 26.8158 6.38394 26.9476C6.38394 27.4087 6.18304 27.7601 5.75894 27.9797C5.33479 28.1993 4.93302 28.1773 4.55356 27.9138C4.46427 27.8479 4.37499 27.8479 4.2857 27.8479C3.70534 27.9358 3.16963 27.6064 2.99106 27.0793C2.81249 26.5304 3.05802 25.9594 3.59374 25.6959C3.70534 25.652 3.77231 25.5861 3.81695 25.4543C3.99552 25.0151 4.33034 24.7736 4.79909 24.7297C5.22319 24.6858 5.60269 24.8614 5.84819 25.2128C5.93749 25.3665 6.02679 25.3665 6.16069 25.3006C7.29909 24.7297 7.94644 23.8293 8.05804 22.5776C8.08034 22.4239 8.10269 22.3361 8.23659 22.2263C8.63839 21.853 8.99554 21.4358 9.30804 20.9307Z" fill="white"/>
<path d="M19.8438 20.9527C19.5312 21.4358 18.9509 21.853 18.5044 22.2043C18.3928 22.3141 18.3482 22.402 18.3482 22.5557C18.3482 24.4881 18.3482 26.4205 18.3482 28.3529C18.3482 28.3969 18.3482 28.4408 18.3482 28.4627H1.49554C1.49554 28.4408 1.49554 28.3969 1.49554 28.3529C1.49554 26.3327 1.49554 24.3125 1.49554 22.2702C1.49554 21.3918 1.83035 20.6233 2.47768 20.0084C3.63839 18.8885 5.49105 18.8226 6.80805 19.7668C6.91965 19.8547 6.9866 19.8547 7.0759 19.7229C7.2768 19.3935 7.43305 19.0422 7.5 18.6689C7.5223 18.5152 7.5 18.4273 7.36605 18.3614C4.59822 16.6706 0.91518 18.1199 0.133928 21.2381C0.0892855 21.3918 0.0669645 21.5016 0.0446429 21.6554C0.0223215 21.7432 0 21.831 0 21.9189V29.9779H19.8438V21.831C19.8438 20.9527 19.8438 21.831 19.8438 20.9527Z" fill="white"/>
<path d="M1.49554 28.4849H18.3482H19.8438V30.0001H0V28.4849H1.49554Z" fill="white"/>
</g>
<defs>
<clipPath id="clip0_99_17665">
<rect width="80" height="40" fill="white"/>
</clipPath>
</defs>
</svg>
