<svg width="80" height="40" viewBox="0 0 80 40" fill="none" xmlns="http://www.w3.org/2000/svg">
<path d="M10.2428 10.0732C4.86189 10.0732 0.5 14.435 0.5 19.8338C0.5 20.7991 0.643015 21.7466 0.92904 22.6583C1.10781 22.408 1.28657 22.1577 1.44746 21.8896C2.12677 20.8885 2.7882 19.8874 3.44964 18.8684L3.9323 18.0997C4.09319 17.8495 4.25408 17.5813 4.3971 17.3311C4.71887 16.8126 5.02275 16.2942 5.3088 15.7758C5.4518 15.5076 5.5948 15.2574 5.7557 14.9892C5.9166 14.7211 6.04175 14.4708 6.18475 14.2027C6.32775 13.9345 6.4708 13.6664 6.5959 13.4161L6.9892 12.6116L7.02495 12.558C7.23945 12.129 7.7579 11.9502 8.2048 12.1468C8.5266 12.3256 8.7232 12.6653 8.70535 13.0407C8.70535 13.5055 8.61595 13.9881 8.5802 14.4529C8.54445 14.9177 8.5266 15.4004 8.49085 15.883C8.4551 16.8305 8.4372 17.7958 8.4372 18.7433C8.4372 19.6908 8.49085 20.6382 8.5802 21.5499C8.63385 21.9968 8.70535 22.4438 8.79475 22.8907C8.86625 23.2839 8.99135 23.6772 9.17015 24.0348C9.22375 24.142 9.29525 24.2493 9.38465 24.3387C9.4383 24.3744 9.40255 24.3565 9.4383 24.3565C9.47405 24.3565 9.45615 24.3565 9.47405 24.3565L9.5098 24.3387H9.52765L9.5813 24.3208C9.5992 24.3029 9.63495 24.285 9.6528 24.2672C9.7958 24.1599 9.92095 24.0348 10.0461 23.8918C10.3321 23.5521 10.6003 23.2124 10.8327 22.837C11.083 22.4616 11.3153 22.0505 11.5477 21.6393C12.0125 20.817 12.4416 19.9768 12.8527 19.1187C13.0493 18.6897 13.2639 18.2606 13.4605 17.8137C13.6571 17.3847 13.8538 16.9378 14.0325 16.5087C14.2113 16.0618 14.7297 15.8473 15.1767 16.0261C15.4627 16.1333 15.6593 16.3836 15.7129 16.6875C15.7129 16.7948 15.7309 16.9378 15.7487 17.0808L15.8024 17.4919C15.8381 17.7601 15.8738 18.0282 15.9275 18.2964C16.0168 18.8327 16.1242 19.369 16.2672 19.8874C16.4102 20.4058 16.5889 20.9242 16.8034 21.4248C17.018 21.9253 17.2861 22.3901 17.6257 22.8192C17.6973 22.9264 17.6794 23.0694 17.59 23.1409C17.5006 23.2124 17.3755 23.2124 17.304 23.1409C16.857 22.7477 16.4638 22.3007 16.1241 21.8181C15.7844 21.3354 15.4985 20.817 15.2303 20.2986C15.0515 19.941 14.9085 19.5835 14.7477 19.226C14.6404 19.4405 14.551 19.655 14.4438 19.8516C14.0147 20.7276 13.5857 21.6036 13.0851 22.4795C12.8349 22.9443 12.5845 23.3733 12.2985 23.8024C12.0125 24.2493 11.6908 24.6783 11.3511 25.0716C11.1545 25.304 10.922 25.5006 10.6896 25.6973C10.6181 25.7509 10.5466 25.8045 10.4572 25.8403L10.2963 25.9297L10.207 25.9654H10.1891L10.1355 25.9833H10.0997L10.0282 26.0012C9.9746 26.0191 9.93885 26.0369 9.8852 26.0369C9.77795 26.0548 9.6707 26.0727 9.5634 26.0906C9.33105 26.1084 9.08075 26.0727 8.86625 26.0012C8.6517 25.9297 8.4551 25.8045 8.2763 25.6615C8.00815 25.4291 7.77575 25.1431 7.6149 24.8213C7.3646 24.3208 7.18585 23.7845 7.0786 23.2303C6.9713 22.7298 6.8998 22.2114 6.8462 21.7108C6.7389 20.7097 6.70315 19.7265 6.6853 18.7254C6.6853 18.2606 6.6853 17.778 6.6853 17.3132C6.50655 17.6528 6.32775 17.9925 6.149 18.3143C6.006 18.5824 5.86295 18.8506 5.7021 19.1187L5.25515 19.9232C4.64736 20.9957 4.02169 22.0505 3.36025 23.1052C2.94909 23.7845 2.52006 24.4638 2.09102 25.1252C5.04065 29.6301 11.0829 30.8815 15.5878 27.9319C20.0928 24.9822 21.3441 18.9399 18.3944 14.435C16.5889 11.7357 13.532 10.0732 10.2428 10.0732Z" fill="url(#paint0_linear_10_2409)"/>
<path d="M28.4232 23.3377V16.8664H28.2624L26.1887 23.3556H25.6703L23.5966 16.8664H23.4357V23.3377H22.5776V16.1871H24.0971L25.9384 21.8718L27.7439 16.1871H29.2813V23.3556H28.4232V23.3377Z" fill="url(#paint1_linear_10_2409)"/>
<path d="M30.5326 17.1166V16.1871H31.4622V17.1166H30.5326ZM30.5505 23.3377V17.8138H31.4622V23.3377H30.5505Z" fill="url(#paint2_linear_10_2409)"/>
<path d="M36.9861 21.5321C36.9861 22.6047 36.5749 23.427 34.7873 23.427C32.5348 23.427 32.4097 22.1399 32.4097 20.5667C32.4097 18.9936 32.5348 17.7065 34.7873 17.7065C36.5749 17.7065 36.9861 18.5288 36.9861 19.6014H36.128C36.128 18.7255 35.8241 18.2964 34.7873 18.2964C33.3929 18.2964 33.3214 19.0472 33.3214 20.5489C33.3214 22.0505 33.3929 22.8013 34.7873 22.8013C35.8241 22.8013 36.128 22.3723 36.128 21.4963L36.9861 21.5321Z" fill="url(#paint3_linear_10_2409)"/>
<path d="M38.7557 18.4036C39.1848 18.1355 39.739 17.778 40.2574 17.7601C40.3646 17.7422 40.4719 17.7422 40.5792 17.7422C40.7222 17.7422 40.8473 17.7422 41.0082 17.7601L40.9367 18.4215C40.7937 18.4036 40.6685 18.4036 40.5434 18.4036C40.4361 18.4036 40.3289 18.4036 40.2037 18.4215C39.7211 18.4394 39.2027 18.7969 38.8273 19.0114V23.3555H37.9155V17.8137H38.6306L38.7557 18.4036Z" fill="url(#paint4_linear_10_2409)"/>
<path d="M46.121 20.5846C46.121 22.1578 45.9959 23.4449 43.7077 23.4449C41.4195 23.4449 41.2943 22.1578 41.2943 20.5846C41.2943 19.0115 41.4195 17.7244 43.7077 17.7244C45.9959 17.7244 46.121 19.0115 46.121 20.5846ZM42.206 20.5846C42.206 22.0863 42.2775 22.8371 43.7077 22.8371C45.1378 22.8371 45.2093 22.1042 45.2093 20.5846C45.2093 19.0651 45.1378 18.3322 43.7077 18.3322C42.2775 18.3322 42.206 19.0651 42.206 20.5846Z" fill="url(#paint5_linear_10_2409)"/>
<path d="M47.7834 24.6248C48.1231 24.6605 48.57 24.6784 49.0706 24.6784C50.465 24.6784 50.6435 24.303 50.6615 22.8371C50.2505 23.0695 49.6784 23.3376 49.0884 23.3555C47.0684 23.3913 46.9432 22.3008 46.9432 20.5846C46.9432 18.8685 47.0505 17.7244 48.999 17.7244C49.6605 17.7244 50.2685 18.0283 50.751 18.3322L50.8405 17.8317H51.5555V22.7298C51.5555 24.7141 51.1085 25.3219 49.2851 25.3219C48.7488 25.3219 48.2125 25.2683 47.6941 25.1968L47.7834 24.6248ZM50.6615 18.8327C50.2685 18.5825 49.7677 18.3322 49.2851 18.3322C47.9443 18.3322 47.8549 19.083 47.8549 20.5846C47.8549 22.0505 47.9443 22.7477 49.2851 22.7477C49.7677 22.7477 50.286 22.4796 50.6615 22.2829V18.8327Z" fill="url(#paint6_linear_10_2409)"/>
<path d="M56.507 23.3376L56.418 22.8371C55.971 23.1231 55.381 23.4449 54.7375 23.4449C52.7175 23.4807 52.592 22.3366 52.592 20.5846C52.592 18.8327 52.6995 17.7244 54.7015 17.7244C55.363 17.7244 55.953 18.0283 56.4 18.2964L56.4895 17.8138H57.2045V23.3376H56.507ZM56.3285 18.797C55.953 18.5825 55.4345 18.3322 54.952 18.3322C53.611 18.3322 53.522 19.083 53.522 20.5846C53.522 22.0863 53.611 22.8371 54.952 22.8371C55.4345 22.8371 55.935 22.5689 56.3285 22.3366V18.797Z" fill="url(#paint7_linear_10_2409)"/>
<path d="M59.1351 18.2964C59.5466 18.0462 60.1006 17.7423 60.6906 17.7244C61.6201 17.6886 62.1031 17.9389 62.3351 18.3322C62.7641 18.064 63.3361 17.7423 63.9621 17.7244C65.8571 17.6708 65.9821 18.6361 65.9821 19.9768V23.3376H65.0706V20.0305C65.0706 18.8864 64.9991 18.3322 63.7656 18.3322C63.3186 18.3322 62.8536 18.6003 62.4781 18.8327C62.5676 19.226 62.6036 19.6372 62.5856 20.0483V23.3555H61.7991V20.0305C61.7991 18.8864 61.7276 18.3322 60.4941 18.3322C60.0651 18.3322 59.6001 18.6003 59.2426 18.797V23.3376H58.3311V17.8138H59.0461L59.1351 18.2964Z" fill="url(#paint8_linear_10_2409)"/>
<path d="M67.108 17.1166V16.1871H68.0375V17.1166H67.108ZM67.126 23.3377V17.8138H68.0375V23.3377H67.126Z" fill="url(#paint9_linear_10_2409)"/>
<path d="M69.9686 18.2964C70.4156 18.0462 71.0051 17.7423 71.6491 17.7244C73.6691 17.6708 73.7941 18.6361 73.7941 19.9768V23.3376H72.8826V20.0305C72.8826 18.8864 72.7931 18.3322 71.4521 18.3322C70.9696 18.3322 70.4511 18.6004 70.0756 18.8149V23.3555H69.1641V17.8138H69.8791L69.9686 18.2964Z" fill="url(#paint10_linear_10_2409)"/>
<path d="M75.5635 24.6248C75.9035 24.6605 76.35 24.6784 76.851 24.6784C78.245 24.6784 78.424 24.303 78.442 22.8371C78.0305 23.0695 77.4585 23.3376 76.8685 23.3555C74.8485 23.3913 74.7235 22.3008 74.7235 20.5846C74.7235 18.8685 74.8305 17.7244 76.7795 17.7244C77.4405 17.7244 78.0485 18.0283 78.531 18.3322L78.6205 17.8317H79.3355V22.7298C79.3355 24.7141 78.8885 25.3219 77.0655 25.3219C76.529 25.3219 75.9925 25.2683 75.4745 25.1968L75.5635 24.6248ZM78.424 18.8327C78.0305 18.5825 77.53 18.3322 77.0475 18.3322C75.7065 18.3322 75.6175 19.083 75.6175 20.5846C75.6175 22.0505 75.7065 22.7477 77.0475 22.7477C77.53 22.7477 78.0485 22.4796 78.424 22.2829V18.8327Z" fill="url(#paint11_linear_10_2409)"/>
<defs>
<linearGradient id="paint0_linear_10_2409" x1="-1.01395" y1="22.5323" x2="77.643" y2="3.5831" gradientUnits="userSpaceOnUse">
<stop stop-color="#21E418"/>
<stop offset="0.3" stop-color="#31B6E9"/>
<stop offset="0.9757" stop-color="#21E418"/>
</linearGradient>
<linearGradient id="paint1_linear_10_2409" x1="-0.166617" y1="26.0494" x2="78.4901" y2="7.10018" gradientUnits="userSpaceOnUse">
<stop stop-color="#21E418"/>
<stop offset="0.3" stop-color="#31B6E9"/>
<stop offset="0.9757" stop-color="#21E418"/>
</linearGradient>
<linearGradient id="paint2_linear_10_2409" x1="0.111033" y1="27.2021" x2="78.768" y2="8.25298" gradientUnits="userSpaceOnUse">
<stop stop-color="#21E418"/>
<stop offset="0.3" stop-color="#31B6E9"/>
<stop offset="0.9757" stop-color="#21E418"/>
</linearGradient>
<linearGradient id="paint3_linear_10_2409" x1="0.504192" y1="28.834" x2="79.161" y2="9.88488" gradientUnits="userSpaceOnUse">
<stop stop-color="#21E418"/>
<stop offset="0.3" stop-color="#31B6E9"/>
<stop offset="0.9757" stop-color="#21E418"/>
</linearGradient>
<linearGradient id="paint4_linear_10_2409" x1="0.70308" y1="29.6602" x2="79.36" y2="10.711" gradientUnits="userSpaceOnUse">
<stop stop-color="#21E418"/>
<stop offset="0.3" stop-color="#31B6E9"/>
<stop offset="0.9757" stop-color="#21E418"/>
</linearGradient>
<linearGradient id="paint5_linear_10_2409" x1="0.995144" y1="30.872" x2="79.652" y2="11.9228" gradientUnits="userSpaceOnUse">
<stop stop-color="#21E418"/>
<stop offset="0.3" stop-color="#31B6E9"/>
<stop offset="0.9757" stop-color="#21E418"/>
</linearGradient>
<linearGradient id="paint6_linear_10_2409" x1="1.51135" y1="33.0152" x2="80.1685" y2="14.066" gradientUnits="userSpaceOnUse">
<stop stop-color="#21E418"/>
<stop offset="0.3" stop-color="#31B6E9"/>
<stop offset="0.9757" stop-color="#21E418"/>
</linearGradient>
<linearGradient id="paint7_linear_10_2409" x1="1.64481" y1="33.5693" x2="80.3021" y2="14.6201" gradientUnits="userSpaceOnUse">
<stop stop-color="#21E418"/>
<stop offset="0.3" stop-color="#31B6E9"/>
<stop offset="0.9757" stop-color="#21E418"/>
</linearGradient>
<linearGradient id="paint8_linear_10_2409" x1="2.00678" y1="35.0706" x2="80.6636" y2="16.1214" gradientUnits="userSpaceOnUse">
<stop stop-color="#21E418"/>
<stop offset="0.3" stop-color="#31B6E9"/>
<stop offset="0.9757" stop-color="#21E418"/>
</linearGradient>
<linearGradient id="paint9_linear_10_2409" x1="2.11826" y1="35.5318" x2="80.7745" y2="16.5829" gradientUnits="userSpaceOnUse">
<stop stop-color="#21E418"/>
<stop offset="0.3" stop-color="#31B6E9"/>
<stop offset="0.9757" stop-color="#21E418"/>
</linearGradient>
<linearGradient id="paint10_linear_10_2409" x1="2.51769" y1="37.1913" x2="81.1746" y2="18.2421" gradientUnits="userSpaceOnUse">
<stop stop-color="#21E418"/>
<stop offset="0.3" stop-color="#31B6E9"/>
<stop offset="0.9757" stop-color="#21E418"/>
</linearGradient>
<linearGradient id="paint11_linear_10_2409" x1="3.03475" y1="39.3382" x2="81.6915" y2="20.389" gradientUnits="userSpaceOnUse">
<stop stop-color="#21E418"/>
<stop offset="0.3" stop-color="#31B6E9"/>
<stop offset="0.9757" stop-color="#21E418"/>
</linearGradient>
</defs>
</svg>
