<svg width="80" height="40" viewBox="0 0 80 40" fill="none" xmlns="http://www.w3.org/2000/svg">
<path d="M42.0475 6.24463H41.2666V33.3573H42.0475V28.125H52.0179V24.9738H44.3599V21.3469H50.9069V18.1659H44.3599V14.6281H52.0179V11.4472H42.0475V6.24463Z" fill="white"/>
<path d="M11.3263 21.7059L8.53135 17.1462L4.97148 11.4467L4.94206 11.3867H2V28.2153H5.2657V17.8962L7.7076 21.9158L11.65 28.2153H14.6215V11.3867H11.3263V21.7059Z" fill="white"/>
<path d="M16.4912 28.2153H27.7103V25.0356H19.8845V21.3759H26.5792V18.1662H19.8845V14.5965H27.7103V11.3867H16.4912V28.2153Z" fill="white"/>
<path d="M28.6453 14.6265H32.578V28.2153H35.9925V14.6265H39.8643V11.3867H28.6453V14.6265Z" fill="white"/>
<path d="M63.0925 21.7059L60.2245 17.1462L56.5325 11.4467L56.4715 11.3867H53.4205V28.2153H56.8075V17.8662L59.3395 21.9158L63.428 28.2153H66.5095V11.3867H63.0925V21.7059Z" fill="white"/>
<path d="M67.912 11.3867V14.6265H71.6515V28.2153H74.924V14.6265H78.6635V11.3867H67.912Z" fill="white"/>
</svg>
