<svg width="80" height="40" viewBox="0 0 80 40" fill="none" xmlns="http://www.w3.org/2000/svg">
<g clip-path="url(#clip0_535_117656)">
<path d="M19.088 27.3427C18.9313 27.3357 18.7754 27.3674 18.6343 27.4348C18.4932 27.5023 18.3714 27.6034 18.28 27.7289C18.0892 27.9864 17.9938 28.3452 17.9939 28.8053C17.9939 29.7627 18.3586 30.2415 19.088 30.2416C19.4687 30.2272 19.8445 30.1509 20.2 30.0158V30.7794C19.8192 30.9306 19.4116 31.0055 19.0011 30.9997C18.367 30.9997 17.8821 30.8101 17.5463 30.431C17.2104 30.0519 17.0425 29.508 17.0424 28.7995C17.0334 28.3949 17.118 27.9937 17.2898 27.6261C17.4423 27.3039 17.6901 27.0346 18.0009 26.8537C18.3317 26.6689 18.7073 26.5761 19.0875 26.585C19.5306 26.5896 19.9668 26.693 20.3635 26.8875L20.0654 27.6276C19.9052 27.5524 19.7409 27.4857 19.5734 27.4278C19.4176 27.3727 19.2535 27.3439 19.088 27.3427Z" fill="white"/>
<path d="M31.8118 30.9405V26.6467H32.736V30.9405H31.8118Z" fill="white"/>
<path d="M46.1991 30.9405H45.275V27.4043H44.0915V26.6467H47.3827V27.4043H46.1991V30.9405Z" fill="white"/>
<path d="M60.0947 28.4148L61.004 26.6467H61.9997L60.5539 29.2693V30.9405H59.6357V29.2987L58.1898 26.6467H59.1914L60.0947 28.4148Z" fill="white"/>
<path d="M62.2123 15.2398C61.8731 15.2398 61.5338 15.2398 61.1945 15.2398C61.008 15.2398 60.9869 15.2398 60.9663 15.0503C60.9279 14.6524 60.8229 14.2635 60.6555 13.8993C60.2512 13.0404 59.5603 12.5705 58.6187 12.4636C58.0931 12.3964 57.559 12.4441 57.0542 12.6033C56.7072 12.7125 56.3883 12.8942 56.1193 13.1361C55.8503 13.3781 55.6375 13.6744 55.4957 14.0049C55.353 14.3288 55.2591 14.6714 55.2171 15.022C55.2119 15.0588 55.2095 15.0959 55.2069 15.1329C55.2077 15.1468 55.2056 15.1606 55.2006 15.1736C55.1956 15.1866 55.1878 15.1984 55.1779 15.2082C55.1679 15.218 55.1559 15.2257 55.1428 15.2306C55.1296 15.2356 55.1155 15.2377 55.1015 15.2369C55.0543 15.2385 55.0072 15.239 54.9601 15.239C54.3004 15.239 53.6407 15.239 52.9809 15.239C52.9339 15.239 52.8867 15.239 52.8396 15.237C52.8112 15.2379 52.7836 15.2278 52.7628 15.2087C52.742 15.1896 52.7297 15.1632 52.7286 15.1352C52.7073 15.0071 52.6896 14.8781 52.66 14.7518C52.5661 14.3147 52.3886 13.8993 52.1369 13.5277C51.9211 13.2039 51.6288 12.9365 51.2851 12.7483C50.9414 12.5601 50.5566 12.4567 50.1635 12.447C49.8057 12.4223 49.4461 12.4494 49.0963 12.5276C48.1962 12.7432 47.5831 13.2862 47.2308 14.1223C47.1058 14.4133 47.0252 14.721 46.9915 15.0353C46.9709 15.2367 46.9673 15.2382 46.7454 15.2387C46.1238 15.2398 45.5018 15.2398 44.8795 15.2387C44.804 15.2387 44.7285 15.2402 44.6532 15.2375C44.5318 15.2332 44.508 15.2103 44.52 15.0824C44.5325 14.9439 44.5523 14.8058 44.5765 14.6688C44.7202 13.7771 45.052 12.9251 45.5506 12.1676C45.9051 11.6277 46.3698 11.1663 46.9151 10.8128C47.4604 10.4594 48.0744 10.2216 48.7181 10.1145C49.1349 10.0371 49.5585 10.0002 49.9827 10.0044C51.0005 10.0046 51.9868 10.3519 52.7743 10.9872C53.1466 11.2874 53.4825 11.6289 53.7752 12.005C53.8276 12.0706 53.8785 12.1375 53.9319 12.2018C53.9375 12.2121 53.9458 12.2206 53.9558 12.2267C53.9659 12.2328 53.9774 12.2362 53.9892 12.2365C54.0009 12.2369 54.0126 12.2342 54.023 12.2287C54.0334 12.2232 54.0422 12.2151 54.0484 12.2052C54.1097 12.1349 54.1693 12.0631 54.2286 11.9909C54.5351 11.6136 54.8852 11.2728 55.272 10.9755C56.0731 10.3587 57.0576 10.0179 58.0743 10.0057C58.7254 9.9862 59.3751 10.0774 59.9948 10.2753C61.0078 10.6041 61.8702 11.2749 62.4299 12.1694C62.8916 12.895 63.2042 13.7029 63.3499 14.5473C63.3808 14.7113 63.4011 14.8773 63.4204 15.0431C63.4426 15.2364 63.4401 15.2378 63.2302 15.2394C63.0322 15.241 62.8343 15.2394 62.6364 15.2394L62.2123 15.2398Z" fill="#FFFC00"/>
<path d="M13.796 15.9003C14.1541 15.9003 14.5124 15.8986 14.8706 15.9011C15.0005 15.9021 15.0212 15.923 15.0237 16.0446C15.0276 16.2396 15.017 16.435 15.0247 16.6295C15.0313 17.0562 15.1147 17.4784 15.2709 17.8764C15.5435 18.5873 16.0605 19.1815 16.7319 19.5556C17.1539 19.786 17.62 19.9272 18.1005 19.9702C18.6732 20.0344 19.2527 20.0022 19.8143 19.8748C21.1399 19.5545 21.9801 18.7324 22.387 17.4629C22.4644 17.2047 22.5033 16.9368 22.5026 16.6676C22.4941 16.4544 22.5005 16.2406 22.5042 16.027C22.5059 15.9311 22.5296 15.9032 22.6152 15.9029C23.3599 15.9011 24.1045 15.9011 24.8491 15.9029C24.9358 15.9029 24.9578 15.9293 24.9601 16.0282C24.9798 16.7446 24.9631 17.4568 24.7669 18.1555C24.5615 18.9397 24.2023 19.6766 23.7095 20.3249C23.0545 21.1627 22.1529 21.7807 21.1278 22.0944C20.4531 22.3051 19.751 22.4183 19.0433 22.4303C18.3079 22.4586 17.572 22.3867 16.8565 22.2169C15.0581 21.7698 13.811 20.6906 13.0771 19.0234C12.8062 18.4193 12.6353 17.7762 12.5709 17.1187C12.5369 16.7503 12.5598 16.3767 12.5582 16.0054C12.5568 15.9915 12.5587 15.9774 12.5636 15.9643C12.5685 15.9511 12.5763 15.9392 12.5864 15.9294C12.5966 15.9196 12.6088 15.9121 12.6222 15.9076C12.6356 15.903 12.6499 15.9014 12.6641 15.9029C12.8337 15.9004 13.0033 15.9003 13.173 15.9C13.3804 15.9 13.5878 15.9 13.7947 15.9L13.796 15.9003Z" fill="#FFFC00"/>
<path d="M22.5328 15.2281C22.4937 15.1609 22.4695 15.0864 22.4618 15.0093C22.2286 13.8924 21.572 13.1289 20.4919 12.7188C20.0591 12.5579 19.6026 12.4674 19.1403 12.4509C18.5281 12.4084 17.9129 12.4657 17.3197 12.6205C16.5391 12.8437 15.904 13.262 15.4693 13.9505C15.2516 14.2994 15.1052 14.6869 15.0384 15.0911C15.0142 15.2301 15.0067 15.2383 14.8838 15.2387C14.1582 15.2404 13.4325 15.2404 12.7068 15.2387C12.5761 15.2387 12.5507 15.2101 12.5698 15.0912C12.5978 14.9172 12.6274 14.7431 12.6661 14.5712C12.8458 13.7328 13.2026 12.941 13.7133 12.2472C14.4205 11.294 15.4336 10.6037 16.5885 10.2882C17.1597 10.1268 17.7486 10.0342 18.3424 10.0123C19.1436 9.96832 19.9469 10.0426 20.7257 10.2326C21.75 10.4748 22.68 11.0071 23.401 11.7637C24.0008 12.4106 24.4461 13.1815 24.7045 14.0198C24.7933 14.2939 24.8627 14.5738 24.9123 14.8573C24.9269 14.9396 24.9369 15.0226 24.9422 15.1059C24.9488 15.2102 24.9241 15.2371 24.8143 15.2385C24.5128 15.2413 24.2112 15.2402 23.9096 15.2403C23.5139 15.2403 23.1179 15.2403 22.7218 15.2403C22.6573 15.239 22.592 15.2317 22.5328 15.2281Z" fill="#FFFC00"/>
<path d="M2.64619 10.0622C3.32457 10.0622 4.00317 10.0721 4.68133 10.0587C5.13373 10.0526 5.58466 10.1109 6.02011 10.2319C6.81633 10.4335 7.56328 10.7907 8.21655 11.2824C9.1304 11.9759 9.74544 12.9831 9.93909 14.1034C9.98749 14.358 10.0066 14.6182 10.0369 14.8761C10.0436 14.9408 10.0465 15.0058 10.0456 15.0708C10.0456 15.219 10.0307 15.2341 9.89014 15.2397C9.86194 15.2407 9.83364 15.2397 9.80533 15.2397C9.14578 15.2397 8.48623 15.2397 7.82669 15.2397C7.77951 15.2397 7.73244 15.2397 7.68537 15.2377C7.67122 15.2392 7.65691 15.2375 7.64348 15.2329C7.63004 15.2283 7.61782 15.2208 7.60767 15.211C7.59752 15.2011 7.58971 15.1892 7.5848 15.1761C7.57988 15.1629 7.57799 15.1488 7.57925 15.1349C7.57701 14.9492 7.55731 14.7641 7.52041 14.5819C7.44899 14.1685 7.28077 13.7772 7.02908 13.439C6.63056 12.9122 6.07928 12.6358 5.4392 12.5094C5.21741 12.4653 4.99173 12.443 4.76548 12.4428C4.07722 12.4432 3.38936 12.443 2.70192 12.4422C2.65496 12.4422 2.60778 12.4439 2.56093 12.4479C2.54923 12.4482 2.53771 12.4508 2.52707 12.4556C2.51643 12.4604 2.50688 12.4673 2.49901 12.4758C2.49114 12.4844 2.4851 12.4944 2.48126 12.5053C2.47742 12.5162 2.47586 12.5277 2.47668 12.5392C2.47357 12.6134 2.47268 12.6876 2.47268 12.7619C2.47268 13.5045 2.47268 14.2471 2.47268 14.9896C2.47268 15.2412 2.47135 15.2398 2.22713 15.2394C1.56751 15.2388 0.907923 15.2386 0.248376 15.2389C0.191995 15.2392 0.135636 15.2366 0.0795301 15.2311C0.0605107 15.2302 0.0425405 15.2223 0.029221 15.2089C0.0159015 15.1955 0.00821669 15.1776 0.00770675 15.1588C0.00315534 15.0942 0.000491107 15.0292 0.000491107 14.9645C0.000269087 13.4239 0.000158077 11.8832 0.000158077 10.3422C0.000158077 10.0398 -0.0086117 10.0624 0.299885 10.0622C1.08206 10.062 1.86416 10.062 2.64619 10.0622Z" fill="#FFFC00"/>
<path d="M31.558 22.4323C30.4081 22.4323 29.2582 22.4323 28.1082 22.4323C28.0234 22.4323 27.9386 22.4312 27.8539 22.4286C27.8422 22.4295 27.8304 22.428 27.8193 22.4242C27.8082 22.4204 27.798 22.4144 27.7894 22.4066C27.7807 22.3988 27.7737 22.3893 27.7689 22.3788C27.7641 22.3682 27.7616 22.3568 27.7614 22.3453C27.7566 22.2806 27.7558 22.2156 27.7558 22.1506C27.7558 20.1727 27.7562 18.1948 27.757 16.2169C27.757 15.8724 27.726 15.9008 28.0746 15.8998C28.6872 15.8988 29.2998 15.8988 29.9125 15.8998C29.9785 15.8998 30.0445 15.9004 30.1104 15.9036C30.1221 15.9027 30.1339 15.9042 30.1449 15.908C30.156 15.9118 30.1662 15.9178 30.1748 15.9257C30.1835 15.9335 30.1903 15.943 30.195 15.9536C30.1998 15.9642 30.2022 15.9757 30.2022 15.9873C30.2064 16.08 30.2088 16.1732 30.2089 16.2656C30.2094 17.3985 30.2096 18.5314 30.2097 19.6642C30.2097 20.0189 30.1748 19.9962 30.5428 19.9962C32.0603 19.9962 33.5779 19.9962 35.0954 19.9962C35.4446 19.9962 35.416 19.9713 35.4163 20.311C35.4168 20.9146 35.4168 21.5182 35.4163 22.1217C35.4163 22.196 35.4155 22.2703 35.411 22.3443C35.411 22.3558 35.4085 22.3673 35.4038 22.3779C35.3991 22.3885 35.3922 22.398 35.3836 22.4059C35.375 22.4138 35.3648 22.4198 35.3537 22.4236C35.3427 22.4274 35.3309 22.4289 35.3192 22.428C35.2345 22.4307 35.1497 22.4317 35.0648 22.4317C33.8958 22.4323 32.7268 22.4325 31.558 22.4323Z" fill="#FFFC00"/>
<path d="M75.885 10.0045C77.1389 10.0045 78.3929 10.0045 79.6469 10.0045C79.7317 10.0045 79.8165 10.0059 79.9012 10.0089C79.9129 10.0084 79.9246 10.0101 79.9357 10.0141C79.9467 10.0181 79.9568 10.0242 79.9654 10.032C79.974 10.0399 79.981 10.0493 79.9859 10.0599C79.9908 10.0704 79.9935 10.0817 79.9939 10.0933C79.9992 10.1485 79.9995 10.2045 79.9995 10.2601C79.9995 10.9011 79.9995 11.542 79.9995 12.1828C80.0009 12.2385 79.9993 12.2943 79.995 12.3498C79.9948 12.3615 79.9923 12.373 79.9876 12.3837C79.9829 12.3944 79.9761 12.4041 79.9677 12.4122C79.9592 12.4204 79.9491 12.4267 79.9381 12.4311C79.9271 12.4354 79.9154 12.4375 79.9035 12.4373C79.8281 12.4405 79.7528 12.4422 79.6775 12.4422C78.9232 12.4422 78.1689 12.4424 77.4146 12.4429C77.1665 12.4429 77.1643 12.4454 77.164 12.6871C77.1629 13.4209 77.1629 14.1547 77.164 14.8885C77.164 14.9629 77.1655 15.0372 77.1621 15.1114C77.1575 15.2175 77.1389 15.2376 77.0228 15.2381C76.5515 15.2404 76.08 15.2398 75.6086 15.2397C75.3446 15.2397 75.0807 15.2382 74.8167 15.2378C74.8026 15.2397 74.7883 15.2386 74.7747 15.2345C74.7611 15.2304 74.7486 15.2234 74.738 15.214C74.7274 15.2046 74.719 15.1931 74.7135 15.1802C74.7079 15.1673 74.7052 15.1534 74.7057 15.1394C74.7007 15.056 74.6992 14.9725 74.6992 14.8889C74.6986 14.2016 74.6986 13.5143 74.6992 12.8269C74.6992 12.7618 74.7005 12.6967 74.6985 12.6318C74.693 12.4554 74.6854 12.444 74.5017 12.4434C73.7285 12.4415 72.9554 12.4445 72.1822 12.4416C71.714 12.4397 71.7771 12.4996 71.7747 12.0457C71.7716 11.4698 71.7738 10.8938 71.7747 10.3177C71.7747 10.2436 71.7747 10.1691 71.7796 10.0951C71.7794 10.0835 71.7816 10.0719 71.7861 10.0612C71.7906 10.0505 71.7973 10.0408 71.8057 10.0327C71.8141 10.0246 71.8241 10.0183 71.8351 10.0142C71.8461 10.01 71.8579 10.0082 71.8696 10.0087C71.9543 10.0057 72.0391 10.0044 72.1239 10.0043C73.3772 10.0043 74.6309 10.0044 75.885 10.0045Z" fill="#FFFC00"/>
<path d="M66.4673 19.1724C66.4673 18.1605 66.4673 17.1487 66.4673 16.1368C66.4673 15.8939 66.4477 15.8914 66.7133 15.8916C67.3729 15.8922 68.0325 15.8922 68.6921 15.8916C68.7391 15.8916 68.7864 15.8916 68.8333 15.8954C68.8474 15.8953 68.8614 15.8982 68.8743 15.9038C68.8872 15.9094 68.8987 15.9176 68.9082 15.928C68.9176 15.9383 68.9247 15.9505 68.929 15.9637C68.9333 15.977 68.9348 15.991 68.9332 16.0048C68.934 16.0604 68.9361 16.1161 68.9361 16.1718C68.9365 18.1768 68.9368 20.1818 68.937 22.1868C68.937 22.1961 68.937 22.2054 68.937 22.2147C68.933 22.4274 68.933 22.43 68.7149 22.4305C68.0364 22.4318 67.358 22.4318 66.6796 22.4305C66.6514 22.4305 66.6231 22.4305 66.5949 22.429C66.4896 22.4225 66.4722 22.4045 66.4679 22.2898C66.4651 22.2157 66.4668 22.1413 66.4668 22.067L66.4673 19.1724Z" fill="#FFFC00"/>
<path d="M60.9779 19.1522C60.9779 18.1497 60.9779 17.1472 60.9779 16.1446C60.9779 15.8848 60.9557 15.8914 61.2443 15.8915C61.8851 15.8915 62.5257 15.8915 63.1663 15.8915C63.2322 15.8915 63.2981 15.8939 63.3636 15.8992C63.3826 15.8999 63.4007 15.9076 63.4143 15.9207C63.4279 15.9339 63.4361 15.9516 63.4371 15.9703C63.4433 16.0534 63.4454 16.137 63.4455 16.2203C63.446 17.8076 63.4463 19.3948 63.4463 20.982C63.4463 21.3811 63.4463 21.7802 63.4463 22.1794C63.4463 22.2258 63.4475 22.2724 63.4442 22.3186C63.4379 22.4041 63.4135 22.425 63.317 22.4305C63.2794 22.4326 63.2416 22.4317 63.204 22.4317C62.5444 22.4317 61.8849 22.4317 61.2254 22.4317C61.169 22.4317 61.1125 22.4293 61.0564 22.4247C61.0373 22.4245 61.0191 22.417 61.0056 22.4037C60.9921 22.3904 60.9845 22.3725 60.9843 22.3537C60.9798 22.2705 60.9773 22.1869 60.9773 22.1036C60.9768 21.1193 60.9774 20.1357 60.9779 19.1522Z" fill="#FFFC00"/>
<path d="M55.2054 19.1722C55.2054 20.1654 55.2054 21.1586 55.2054 22.1518C55.2054 22.4428 55.2204 22.4324 54.9364 22.4323C54.2862 22.4323 53.6361 22.4323 52.9859 22.4323C52.9297 22.4323 52.8731 22.4312 52.817 22.4259C52.7981 22.4248 52.7802 22.417 52.7667 22.4039C52.7532 22.3908 52.745 22.3733 52.7437 22.3547C52.7381 22.2993 52.7354 22.2437 52.7357 22.1881C52.7357 20.1831 52.736 18.1781 52.7365 16.1731C52.7365 15.8951 52.7161 15.8909 53.0078 15.8915C53.6579 15.8927 54.3081 15.8915 54.9581 15.8921C55.0145 15.8921 55.0712 15.8938 55.1273 15.8987C55.1463 15.8992 55.1644 15.9069 55.1778 15.9202C55.1912 15.9335 55.199 15.9513 55.1995 15.97C55.2042 16.0533 55.2045 16.137 55.2046 16.2205C55.2046 17.2044 55.2054 18.1882 55.2054 19.1722Z" fill="#FFFC00"/>
<path d="M38.6344 16.2479C38.6344 16.2015 38.6344 16.155 38.6352 16.1087C38.6394 15.8966 38.6395 15.893 38.8572 15.8924C39.5355 15.8906 40.214 15.8917 40.8925 15.8919C40.9302 15.8919 40.9679 15.893 41.0054 15.8964C41.0196 15.8964 41.0335 15.8994 41.0464 15.9052C41.0592 15.9109 41.0707 15.9193 41.08 15.9298C41.0893 15.9403 41.0962 15.9526 41.1003 15.9659C41.1044 15.9792 41.1055 15.9933 41.1037 16.0071C41.1037 16.0534 41.106 16.0998 41.106 16.1463C41.1064 18.1608 41.1068 20.1753 41.107 22.19C41.107 22.2177 41.1078 22.2456 41.107 22.2734C41.1011 22.4145 41.0884 22.4309 40.9396 22.4312C40.2235 22.433 39.5076 22.432 38.7911 22.4319C38.7817 22.4319 38.7722 22.4319 38.7629 22.431C38.6587 22.4242 38.6401 22.4055 38.6358 22.2916C38.633 22.2174 38.6346 22.143 38.6346 22.0688L38.6344 16.2479Z" fill="#FFFC00"/>
<path d="M2.45226 22.3057C2.39405 22.3381 2.32657 22.3504 2.26043 22.3409C1.58164 22.3415 0.902816 22.3415 0.223954 22.3409C0.186211 22.3409 0.148467 22.3409 0.110835 22.3379C0.0476703 22.3333 0.00448746 22.3051 0.00315534 22.2366C0.00193424 22.1712 0.000158077 22.1062 0.000158077 22.0412C0.000158077 20.1185 0.000158077 18.1958 0.000158077 16.273C0.000158077 16.1895 -0.000952021 16.1057 0.0027113 16.0223C0.00737372 15.9185 0.0285766 15.8999 0.141918 15.8934C0.188986 15.8908 0.236165 15.8918 0.283344 15.8918C0.914991 15.8918 1.54667 15.8918 2.17839 15.8918C2.24433 15.8918 2.31024 15.8938 2.3761 15.8978C2.38787 15.8972 2.39963 15.899 2.41067 15.903C2.4217 15.9071 2.43177 15.9133 2.44024 15.9214C2.44871 15.9295 2.4554 15.9392 2.45989 15.9499C2.46438 15.9606 2.46658 15.9722 2.46635 15.9838C2.46968 16.058 2.47102 16.1323 2.47102 16.2065C2.47146 18.1572 2.47146 20.1077 2.47102 22.0583C2.48178 22.1412 2.47539 22.2253 2.45226 22.3057Z" fill="#FFFC00"/>
<path d="M10.0476 19.2115C10.0476 20.167 10.0476 21.1226 10.0476 22.0782C10.0476 22.1432 10.0491 22.2081 10.0469 22.273C10.042 22.4151 10.0295 22.4309 9.88037 22.4312C9.16465 22.433 8.44897 22.433 7.73333 22.4312C7.70517 22.4306 7.67709 22.4281 7.64929 22.4236C7.63047 22.4216 7.61308 22.4127 7.60053 22.3987C7.58799 22.3847 7.58119 22.3666 7.58147 22.348C7.57691 22.2834 7.57536 22.2184 7.57536 22.1535C7.57536 20.1961 7.57536 18.2385 7.57536 16.2807C7.57536 16.2621 7.57536 16.2435 7.57536 16.225C7.57869 15.9829 7.57869 15.981 7.82602 15.9807C8.4852 15.9796 9.14437 15.9796 9.80355 15.9807C9.84118 15.9807 9.87893 15.9797 9.91656 15.9819C10.0191 15.9879 10.0402 16.0095 10.0449 16.1218C10.0483 16.2051 10.0469 16.2888 10.0469 16.3722C10.0474 17.3189 10.0476 18.2653 10.0476 19.2115Z" fill="#FFFC00"/>
<path d="M44.5091 19.1712C44.5091 18.1961 44.5091 17.2209 44.5091 16.2457C44.5091 16.1621 44.5109 16.0786 44.5145 15.9951C44.5137 15.9836 44.5154 15.9721 44.5194 15.9612C44.5234 15.9504 44.5296 15.9404 44.5376 15.932C44.5456 15.9236 44.5553 15.9168 44.566 15.9122C44.5767 15.9076 44.5883 15.9052 44.6 15.9051C44.6469 15.9014 44.6941 15.9001 44.7411 15.9001C45.401 15.9001 46.0609 15.9001 46.7208 15.9001C46.7585 15.9001 46.7964 15.8996 46.8339 15.9019C46.9286 15.9079 46.953 15.9286 46.9587 16.0146C46.963 16.0795 46.9628 16.1446 46.9628 16.2096C46.9632 18.1971 46.9635 20.1846 46.9637 22.1721C46.9637 22.2278 46.9637 22.2837 46.9592 22.3391C46.9594 22.3507 46.9572 22.3622 46.9528 22.373C46.9484 22.3837 46.9419 22.3935 46.9336 22.4018C46.9254 22.41 46.9155 22.4166 46.9047 22.4211C46.8938 22.4255 46.8822 22.4278 46.8704 22.4278C46.8328 22.4302 46.7952 22.4322 46.7575 22.4322C46.0787 22.4322 45.3999 22.4322 44.7211 22.4322C44.7024 22.4322 44.6835 22.4322 44.6646 22.4322C44.529 22.4266 44.5146 22.4148 44.5092 22.2921C44.5062 22.218 44.5079 22.1436 44.5079 22.0692V19.1711L44.5091 19.1712Z" fill="#FFFC00"/>
<path d="M77.1641 19.1989C77.1641 20.1831 77.1641 21.1676 77.1641 22.1523C77.1641 22.4466 77.1777 22.4323 76.895 22.4323C76.2541 22.4323 75.613 22.4323 74.9719 22.4323C74.9154 22.4323 74.8588 22.4307 74.8024 22.4277C74.7906 22.4279 74.7789 22.4258 74.768 22.4214C74.7571 22.417 74.7472 22.4105 74.7389 22.4023C74.7306 22.3941 74.7241 22.3843 74.7197 22.3735C74.7154 22.3627 74.7133 22.3512 74.7136 22.3396C74.7089 22.2748 74.709 22.2096 74.709 22.1447C74.709 20.1757 74.7095 18.2067 74.7105 16.2377C74.7105 15.8597 74.6735 15.9017 75.0646 15.9005C75.6585 15.8987 76.2524 15.8999 76.8464 15.9005C76.9218 15.9005 76.9972 15.9017 77.0724 15.9058C77.0842 15.9057 77.0958 15.9079 77.1066 15.9125C77.1174 15.917 77.1271 15.9237 77.1352 15.9321C77.1432 15.9405 77.1494 15.9504 77.1534 15.9613C77.1574 15.9722 77.159 15.9837 77.1582 15.9952C77.1616 16.0787 77.1635 16.1622 77.1635 16.2458C77.1635 17.2301 77.1641 18.2141 77.1641 19.1989Z" fill="#FFFC00"/>
<path d="M68.9373 12.6303V14.8871C68.9373 14.952 68.939 15.0171 68.9365 15.0821C68.9313 15.2201 68.9153 15.2384 68.7676 15.2388C68.0512 15.2405 67.3348 15.2405 66.6183 15.2388C66.4904 15.2388 66.473 15.2169 66.4675 15.0938C66.4651 15.0381 66.4665 14.9823 66.4665 14.9265C66.4665 13.3943 66.4665 11.8619 66.4665 10.3295C66.4665 10.2639 66.4652 10.1994 66.4683 10.1345C66.4734 10.0276 66.4916 10.0119 66.6066 10.0056C66.6161 10.005 66.6255 10.0049 66.6349 10.0049C67.3514 10.0049 68.0677 10.0042 68.7842 10.0059C68.9146 10.0059 68.9306 10.0251 68.9361 10.1509C68.939 10.2158 68.9372 10.2809 68.9372 10.3459C68.9373 11.1073 68.9373 11.8687 68.9373 12.6303Z" fill="#FFFC00"/>
<path d="M38.6343 12.6221C38.6343 11.8326 38.6343 11.043 38.6343 10.2534C38.6343 10.0013 38.635 10.0042 38.8804 10.0044C39.5403 10.0048 40.2003 10.0048 40.8605 10.0044C40.9169 10.0042 40.9733 10.0072 41.0294 10.0131C41.0484 10.0144 41.0662 10.0227 41.0793 10.0363C41.0924 10.05 41.0998 10.068 41.1 10.0867C41.1045 10.1515 41.107 10.2164 41.107 10.2813C41.107 11.8419 41.107 13.4025 41.107 14.9631C41.107 15.2474 41.1181 15.2405 40.8318 15.2401C40.1906 15.2394 39.5495 15.2393 38.9083 15.2395C38.8425 15.2395 38.7766 15.2365 38.711 15.2314C38.6919 15.2305 38.674 15.2222 38.661 15.2085C38.6479 15.1947 38.6408 15.1765 38.6411 15.1577C38.6363 15.0837 38.6346 15.0094 38.6345 14.9353C38.634 14.1642 38.634 13.3931 38.6343 12.6221Z" fill="#FFFC00"/>
<path d="M30.2089 12.6217C30.2089 13.4109 30.2089 14.2 30.2089 14.9891C30.2089 15.2368 30.2066 15.2389 29.9661 15.2393C29.3064 15.2406 28.6467 15.2406 27.9871 15.2393C27.94 15.2393 27.8929 15.2374 27.846 15.2342C27.8342 15.234 27.8226 15.2314 27.8118 15.2266C27.801 15.2219 27.7914 15.215 27.7834 15.2065C27.7754 15.1979 27.7692 15.1879 27.7653 15.1769C27.7613 15.166 27.7597 15.1544 27.7604 15.1428C27.7562 15.0686 27.7567 14.9942 27.7567 14.92C27.7567 13.3882 27.7567 11.8563 27.7567 10.3244C27.7567 9.97552 27.7274 10.0049 28.0711 10.0045C28.6928 10.0036 29.3147 10.0036 29.937 10.0045C29.9935 10.0045 30.05 10.0056 30.1065 10.0075C30.1763 10.0097 30.2051 10.0512 30.2064 10.115C30.2084 10.1892 30.2087 10.2635 30.2088 10.3377C30.2091 11.0991 30.2091 11.8604 30.2089 12.6217Z" fill="#FFFC00"/>
</g>
<defs>
<clipPath id="clip0_535_117656">
<rect width="80" height="40" fill="white"/>
</clipPath>
</defs>
</svg>
