<svg width="80" height="40" viewBox="0 0 80 40" fill="none" xmlns="http://www.w3.org/2000/svg">
<path d="M42.0691 34.0599C42.0772 33.8967 42.0853 33.7579 42.0934 33.5947C42.2555 33.5784 42.4094 33.5703 42.5958 33.5539C42.612 33.3907 42.6363 33.2357 42.6525 33.0725C42.7902 33.0643 42.928 33.048 43.09 33.0399C43.1143 32.8767 43.1305 32.7298 43.1548 32.5503C43.3007 32.5421 43.4465 32.534 43.6167 32.5258C43.6167 33.9211 43.6167 35.3002 43.6167 36.6955C43.2926 36.6955 42.9766 36.6955 42.6201 36.6955C42.6201 36.1896 42.6201 35.6918 42.6201 35.1778C42.4418 35.1778 42.296 35.1778 42.1177 35.1778C42.1015 35.3247 42.0853 35.4797 42.061 35.6592C41.9071 35.6592 41.7531 35.6592 41.5911 35.6592C41.5749 35.496 41.5587 35.3491 41.5425 35.1859C41.3885 35.1859 41.2508 35.1859 41.0644 35.1859C41.0644 35.6837 41.0644 36.1814 41.0644 36.6955C40.6917 36.6955 40.3676 36.6955 40.0273 36.6955C40.0273 35.3083 40.0273 33.9375 40.0273 32.5503C40.1894 32.5503 40.3352 32.5503 40.5135 32.5503C40.5297 32.6972 40.5378 32.8522 40.554 33.0399C40.7079 33.048 40.8619 33.0643 41.032 33.0807C41.0482 33.2439 41.0563 33.3907 41.0725 33.5539C41.2346 33.5703 41.3723 33.5866 41.5506 33.6111C41.5668 33.7579 41.5749 33.9048 41.5911 34.0762C41.7531 34.0599 41.9152 34.0599 42.0691 34.0599Z" fill="white"/>
<path d="M39.0145 33.0317C39.1847 33.0399 39.3143 33.0562 39.4764 33.0644C39.4764 34.2802 39.4764 35.4797 39.4764 36.6955C39.1523 36.6955 38.8282 36.6955 38.4717 36.6955C38.4717 36.3691 38.4717 36.0509 38.4717 35.7C38.1233 35.7 37.8073 35.7 37.4508 35.7C37.4508 36.0183 37.4508 36.3365 37.4508 36.6792C37.0862 36.6792 36.754 36.6792 36.4137 36.6792C36.4137 35.4797 36.4137 34.2883 36.4137 33.0807C36.5757 33.0644 36.7216 33.048 36.8836 33.0317C36.8998 32.8767 36.9079 32.7216 36.9241 32.5421C37.6047 32.5421 38.2691 32.5421 38.9659 32.5421C38.9821 32.6972 38.9983 32.8522 39.0145 33.0317ZM38.4393 33.5948C38.0828 33.5948 37.783 33.5948 37.467 33.5948C37.467 33.9456 37.467 34.272 37.467 34.5984C37.8073 34.5984 38.1233 34.5984 38.4393 34.5984C38.4393 34.2475 38.4393 33.9293 38.4393 33.5948Z" fill="white"/>
<path d="M24.5194 32.5339C25.5403 32.5339 26.545 32.5339 27.5659 32.5339C27.5659 32.8685 27.5659 33.1867 27.5659 33.5539C26.9015 33.5539 26.2371 33.5539 25.5403 33.5539C25.5241 33.7416 25.516 33.8885 25.5079 34.068C26.0264 34.068 26.5207 34.068 27.0392 34.068C27.0392 34.4352 27.0392 34.7697 27.0392 35.1369C26.5369 35.1369 26.0427 35.1369 25.5322 35.1369C25.5322 35.3246 25.5322 35.4633 25.5322 35.651C26.2128 35.651 26.8772 35.651 27.5659 35.651C27.5659 36.01 27.5659 36.3283 27.5659 36.671C26.5612 36.671 25.5565 36.671 24.5194 36.671C24.5194 35.3246 24.5194 33.9537 24.5194 32.5339Z" fill="white"/>
<path d="M45.2371 35.6674C45.9096 35.6674 46.5659 35.6674 47.2465 35.6674C47.2465 36.0183 47.2465 36.3365 47.2465 36.6874C46.2499 36.6874 45.2452 36.6874 44.2081 36.6874C44.2081 35.3328 44.2081 33.9538 44.2081 32.5503C45.1966 32.5503 46.2013 32.5503 47.2384 32.5503C47.2384 32.8767 47.2384 33.2031 47.2384 33.5703C46.574 33.5703 45.9177 33.5703 45.229 33.5703C45.2209 33.7498 45.2128 33.8885 45.1966 34.068C45.7071 34.068 46.2013 34.068 46.728 34.068C46.728 34.4352 46.728 34.7616 46.728 35.137C46.2418 35.137 45.7557 35.137 45.2371 35.137C45.2371 35.3247 45.2371 35.4797 45.2371 35.6674Z" fill="white"/>
<path d="M47.8218 36.6792C47.8218 36.3365 47.8218 36.0183 47.8218 35.6674C48.5024 35.6674 49.1587 35.6674 49.8393 35.6674C49.8393 35.496 49.8393 35.3491 49.8393 35.1615C49.345 35.1615 48.8427 35.1615 48.3241 35.1615C48.316 34.9656 48.3079 34.8188 48.2917 34.6474C48.1378 34.6311 48 34.6148 47.8299 34.5984C47.8299 34.1088 47.8299 33.6111 47.8299 33.0807C47.9595 33.0644 48.1054 33.048 48.2755 33.0317C48.2917 32.8767 48.3079 32.7216 48.3322 32.5503C49.1668 32.5503 50.0015 32.5503 50.86 32.5503C50.86 32.8767 50.86 33.2031 50.86 33.5784C50.196 33.5784 49.5476 33.5784 48.8508 33.5784C48.8427 33.758 48.8346 33.8967 48.8265 34.0762C49.3369 34.0762 49.8312 34.0762 50.3495 34.0762C50.374 34.2639 50.3905 34.4189 50.4145 34.6066C50.5525 34.6229 50.69 34.6392 50.86 34.6637C50.86 35.1533 50.86 35.6511 50.86 36.1733C50.7225 36.1896 50.5845 36.2059 50.4145 36.2304C50.3985 36.3773 50.382 36.5242 50.366 36.6955C49.5314 36.6792 48.6887 36.6792 47.8218 36.6792Z" fill="white"/>
<path d="M59.1649 36.1815C59.0029 36.1896 58.8734 36.1978 58.7034 36.2059C58.6869 36.3528 58.6629 36.5079 58.6384 36.6874C57.9659 36.6874 57.2854 36.6874 56.5804 36.6874C56.5804 36.5405 56.5804 36.3936 56.5804 36.2223C56.4104 36.2059 56.2564 36.1815 56.0859 36.1651C56.0859 35.137 56.0859 34.1252 56.0859 33.0807C56.2399 33.0644 56.3779 33.048 56.5479 33.0317C56.5644 32.8848 56.5724 32.7298 56.5884 32.5503C57.2689 32.5503 57.9414 32.5503 58.6464 32.5503C58.6544 32.7053 58.6629 32.8522 58.6709 33.0236C58.8329 33.0399 58.9869 33.0562 59.1569 33.0807C59.1649 34.1007 59.1649 35.1125 59.1649 36.1815ZM57.1394 35.6429C57.4799 35.6429 57.7959 35.6429 58.1034 35.6429C58.1034 34.9411 58.1034 34.2639 58.1034 33.6029C57.7634 33.6029 57.4634 33.6029 57.1394 33.6029C57.1394 34.2802 57.1394 34.9411 57.1394 35.6429Z" fill="white"/>
<path d="M52.4565 36.6874C52.4565 36.3447 52.4565 36.0346 52.4565 35.6755C53.129 35.6755 53.8015 35.6755 54.49 35.6755C54.49 35.4879 54.49 35.341 54.49 35.1615C53.996 35.1615 53.5015 35.1615 52.999 35.1615C52.975 34.9656 52.9585 34.8106 52.9425 34.6311C52.7885 34.6229 52.6425 34.6148 52.4805 34.5984C52.4805 34.0844 52.4805 33.5948 52.4805 33.0807C52.6265 33.0644 52.7725 33.048 52.9425 33.0317C52.9585 32.8767 52.975 32.7216 52.999 32.5503C53.85 32.5503 54.6925 32.5503 55.5515 32.5503C55.5515 32.8848 55.5515 33.2031 55.5515 33.5703C54.879 33.5703 54.2065 33.5703 53.526 33.5703C53.526 33.758 53.526 33.9048 53.526 34.0762C54.012 34.0762 54.5065 34.0762 55.025 34.0762C55.041 34.2639 55.049 34.4189 55.0655 34.6066C55.2195 34.6229 55.373 34.6392 55.5435 34.6556C55.5435 35.1615 55.5435 35.6511 55.5435 36.1733C55.3895 36.1896 55.2435 36.1978 55.0735 36.2141C55.057 36.361 55.049 36.516 55.033 36.6955C54.182 36.6874 53.3395 36.6874 52.4565 36.6874Z" fill="white"/>
<path d="M35.3523 32.5421C35.3523 32.8929 35.3523 33.203 35.3523 33.5539C34.858 33.5539 34.3638 33.5539 33.8452 33.5539C33.8452 34.2638 33.8452 34.9411 33.8452 35.6347C34.1612 35.6347 34.4772 35.6347 34.8256 35.6347C34.8337 35.4878 34.8418 35.3491 34.8499 35.1777C34.6717 35.1614 34.5177 35.1369 34.3476 35.1206C34.3476 34.7861 34.3476 34.4678 34.3476 34.1088C34.8418 34.1088 35.3361 34.1088 35.8546 34.1088C35.8546 34.7779 35.8546 35.4633 35.8546 36.1569C35.7007 36.1732 35.5549 36.1814 35.3847 36.1977C35.3685 36.3528 35.3523 36.516 35.3442 36.6792C34.6636 36.6792 33.9992 36.6792 33.3186 36.6792C33.3024 36.516 33.2943 36.3691 33.2781 36.2059C33.1241 36.1896 32.9783 36.1732 32.8 36.1569C32.8 35.1369 32.8 34.1088 32.8 33.0725C32.9459 33.0561 33.0917 33.0398 33.2619 33.0235C33.2781 32.8685 33.3024 32.7134 33.3186 32.5339C33.983 32.5421 34.6555 32.5421 35.3523 32.5421Z" fill="white"/>
<path d="M16.6763 36.1732C16.5386 36.1895 16.409 36.1977 16.2388 36.214C16.2226 36.3609 16.1983 36.5159 16.174 36.6873C15.5015 36.6873 14.829 36.6873 14.1322 36.6873C14.1241 36.5404 14.116 36.4017 14.0998 36.2303C13.9458 36.214 13.8 36.1895 13.6379 36.1732C13.6379 35.145 13.6379 34.1251 13.6379 33.0806C13.7838 33.0643 13.9296 33.048 14.0917 33.0316C14.0998 32.8766 14.116 32.7297 14.1322 32.5583C14.8047 32.5583 15.4853 32.5583 16.1821 32.5583C16.1902 32.7133 16.1983 32.8603 16.2145 33.0316C16.3603 33.048 16.4981 33.0642 16.6682 33.0887C16.6763 34.1087 16.6763 35.1287 16.6763 36.1732ZM14.6588 33.6028C14.6588 34.3046 14.6588 34.9737 14.6588 35.651C14.9991 35.651 15.3232 35.651 15.6473 35.651C15.6473 34.9574 15.6473 34.2883 15.6473 33.6028C15.3151 33.6028 15.0153 33.6028 14.6588 33.6028Z" fill="white"/>
<path d="M22.9314 32.5339C23.3041 32.5339 23.612 32.5339 23.9361 32.5339C23.9361 33.0398 23.9361 33.5376 23.9361 34.068C23.7984 34.0843 23.6444 34.1006 23.4662 34.1251C23.4662 34.4597 23.4662 34.7779 23.4662 35.1206C23.612 35.1369 23.7578 35.1451 23.928 35.1614C23.928 35.651 23.928 36.1488 23.928 36.6792C23.6201 36.6792 23.3041 36.6792 22.9557 36.6792C22.9557 36.2059 22.9557 35.7081 22.9557 35.1777C22.5911 35.1777 22.267 35.1777 21.8943 35.1777C21.8943 35.6755 21.8943 36.1732 21.8943 36.6873C21.5297 36.6873 21.2137 36.6873 20.8734 36.6873C20.8734 35.3164 20.8734 33.9374 20.8734 32.5421C21.1975 32.5421 21.5216 32.5421 21.8781 32.5421C21.8781 33.0398 21.8781 33.5376 21.8781 34.068C22.2427 34.068 22.5749 34.068 22.9314 34.068C22.9314 33.5621 22.9314 33.0643 22.9314 32.5339Z" fill="white"/>
<path d="M19.2934 35.6511C19.3015 35.4634 19.3096 35.3165 19.3177 35.1615C19.6499 35.1615 19.9578 35.1615 20.2981 35.1615C20.2981 35.496 20.2981 35.8224 20.2981 36.1733C20.1522 36.1896 20.0064 36.2059 19.8443 36.2223C19.8281 36.3855 19.82 36.5242 19.8038 36.6955C19.1394 36.6955 18.4669 36.6955 17.7782 36.6955C17.762 36.5487 17.7458 36.3936 17.7215 36.2304C17.5676 36.2141 17.4217 36.2059 17.2516 36.1896C17.2516 35.1615 17.2516 34.1496 17.2516 33.1052C17.3974 33.0888 17.5514 33.0644 17.7215 33.048C17.7377 32.8767 17.7539 32.7216 17.762 32.5503C18.4345 32.5503 19.0908 32.5503 19.7795 32.5503C19.7957 32.7135 19.82 32.8685 19.8362 33.0399C19.9902 33.0562 20.1279 33.0725 20.2981 33.097C20.2981 33.4234 20.2981 33.7416 20.2981 34.0925C19.9902 34.0925 19.6661 34.0925 19.3177 34.0925C19.3015 33.9538 19.2853 33.7988 19.2691 33.6274C18.945 33.6274 18.6209 33.6274 18.2806 33.6274C18.2806 34.3128 18.2806 34.982 18.2806 35.6674C18.6209 35.6511 18.945 35.6511 19.2934 35.6511Z" fill="white"/>
<path d="M11.0209 35.137C11.0209 35.6837 11.0209 36.1815 11.0209 36.6874C10.6644 36.6874 10.3484 36.6874 10.0081 36.6874C10.0081 35.3002 10.0081 33.9293 10.0081 32.5421C10.8588 32.5421 11.7015 32.5421 12.5522 32.5421C12.5684 32.7135 12.5846 32.8767 12.6008 33.0399C12.7629 33.0562 12.9087 33.0644 13.0627 33.0807C13.0627 33.5784 13.0627 34.068 13.0627 34.5821C12.9168 34.5984 12.7629 34.6229 12.5927 34.6392C12.5846 34.7943 12.5684 34.9411 12.5522 35.137C12.0661 35.137 11.5637 35.137 11.0209 35.137ZM11.029 33.5948C11.029 33.7661 11.029 33.913 11.029 34.0599C11.3774 34.0599 11.7015 34.0599 12.0255 34.0599C12.0255 33.8885 12.0255 33.7498 12.0255 33.5948C11.6934 33.5948 11.3855 33.5948 11.029 33.5948Z" fill="white"/>
<path d="M62.803 32.5503C62.803 32.893 62.803 33.2031 62.803 33.5703C62.1145 33.5703 61.434 33.5703 60.745 33.5703C60.745 33.758 60.745 33.8967 60.745 34.068C61.2395 34.068 61.7255 34.068 62.244 34.068C62.244 34.4434 62.244 34.7861 62.244 35.1533C61.75 35.1533 61.2715 35.1533 60.745 35.1533C60.745 35.6674 60.745 36.1651 60.745 36.6874C60.3805 36.6874 60.0485 36.6874 59.7 36.6874C59.7 35.3165 59.7 33.9456 59.7 32.5503C60.737 32.5503 61.758 32.5503 62.803 32.5503Z" fill="white"/>
<path d="M64.367 33.5784C64.002 33.5784 63.6945 33.5784 63.354 33.5784C63.354 33.2276 63.354 32.9012 63.354 32.5421C64.367 32.5421 65.3795 32.5421 66.425 32.5421C66.425 32.8685 66.425 33.1868 66.425 33.5621C66.1005 33.5621 65.7765 33.5621 65.412 33.5621C65.412 34.6229 65.412 35.6429 65.412 36.6792C65.0555 36.6792 64.7235 36.6792 64.367 36.6792C64.367 35.6674 64.367 34.6474 64.367 33.5784Z" fill="white"/>
<path d="M30.1829 36.6955C29.8021 36.6955 29.4942 36.6955 29.1458 36.6955C29.1458 35.6674 29.1458 34.6474 29.1458 33.5784C28.7893 33.5784 28.4733 33.5784 28.1411 33.5784C28.1411 33.2112 28.1411 32.893 28.1411 32.5421C29.1458 32.5421 30.1586 32.5421 31.1876 32.5421C31.1876 32.8767 31.1876 33.1949 31.1876 33.5621C30.8554 33.5621 30.5394 33.5621 30.1829 33.5621C30.1829 34.6311 30.1829 35.6511 30.1829 36.6955Z" fill="white"/>
<path d="M25.589 21.363C25.589 20.6041 25.589 19.8697 25.589 19.1108C26.3344 19.1108 27.0717 19.1108 27.8171 19.1108C27.8171 19.8615 27.8171 20.6041 27.8171 21.363C27.0717 21.363 26.3425 21.363 25.589 21.363Z" fill="white"/>
<path d="M33.3997 8.59265C34.1451 8.59265 34.8662 8.59265 35.6197 8.59265C35.6197 9.32705 35.6197 10.0696 35.6197 10.8285C34.8905 10.8285 34.1532 10.8285 33.3997 10.8285C33.3997 10.0778 33.3997 9.3434 33.3997 8.59265Z" fill="white"/>
<path d="M35.6278 13.456C34.8743 13.456 34.1451 13.456 33.3997 13.456C33.3997 12.7135 33.3997 11.9873 33.3997 11.2284C34.137 11.2284 34.8662 11.2284 35.6278 11.2284C35.6278 11.9628 35.6278 12.689 35.6278 13.456Z" fill="white"/>
<path d="M47.0763 5.59792C46.8332 5.59792 46.5902 5.58162 46.3471 5.59792C46.023 5.62242 45.9177 5.46737 45.9258 5.16547C45.9339 4.65138 45.942 4.12915 45.9258 3.61507C45.9177 3.37843 46.0068 3.29683 46.2337 3.30499C46.817 3.31315 47.3923 3.29683 47.9757 3.32131C48.081 3.32947 48.2673 3.49267 48.2673 3.59059C48.2998 4.14547 48.2836 4.7085 48.2836 5.26337C48.2836 5.49187 48.1863 5.61427 47.9352 5.59792C47.6435 5.58162 47.3599 5.59792 47.0763 5.59792Z" fill="#F9BA24"/>
<path d="M26.6989 24.0313C25.5646 24.0313 25.5646 24.0313 25.5646 22.8889C25.5646 22.6033 25.5727 22.3177 25.5646 22.0321C25.5565 21.8118 25.6294 21.7057 25.8644 21.7139C26.4153 21.722 26.9663 21.722 27.5173 21.7057C27.7684 21.6976 27.8819 21.7873 27.8738 22.0566C27.8576 22.5952 27.8576 23.1419 27.8738 23.6886C27.8819 23.9579 27.7765 24.0476 27.5173 24.0313C27.2418 24.015 26.9744 24.0313 26.6989 24.0313Z" fill="#E122D7"/>
<path d="M56.402 13.8477C57.1475 13.8477 57.877 13.8477 58.614 13.8477C58.614 14.6066 58.614 15.3491 58.614 16.0998C57.877 16.0998 57.1555 16.0998 56.402 16.0998C56.402 15.3654 56.402 14.631 56.402 13.8477Z" fill="white"/>
<path d="M43.3899 19.1027C44.1434 19.1027 44.8645 19.1027 45.6099 19.1027C45.6099 19.8615 45.6099 20.6041 45.6099 21.363C44.8726 21.363 44.1353 21.363 43.3899 21.363C43.3899 20.6041 43.3899 19.8779 43.3899 19.1027Z" fill="white"/>
<path d="M43.009 8.59265C43.009 9.35155 43.009 10.0778 43.009 10.8285C42.2798 10.8285 41.5587 10.8285 40.8052 10.8285C40.8052 10.0941 40.8052 9.3597 40.8052 8.59265C41.5182 8.59265 42.2393 8.59265 43.009 8.59265Z" fill="#E41C75"/>
<path d="M22.9962 23.9986C22.9962 23.2479 22.9962 22.5217 22.9962 21.7628C23.7254 21.7628 24.4546 21.7628 25.2082 21.7628C25.2082 22.4972 25.2082 23.2316 25.2082 23.9986C24.487 23.9986 23.7659 23.9986 22.9962 23.9986Z" fill="white"/>
<path d="M22.6154 21.7546C22.6154 22.5135 22.6154 23.2561 22.6154 24.0068C21.8781 24.0068 21.1569 24.0068 20.4115 24.0068C20.4115 23.2479 20.4115 22.5135 20.4115 21.7546C21.1407 21.7546 21.8619 21.7546 22.6154 21.7546Z" fill="white"/>
<path d="M43.0008 21.7465C43.0008 22.5135 43.0008 23.2479 43.0008 23.9986C42.2635 23.9986 41.5424 23.9986 40.797 23.9986C40.797 23.2479 40.797 22.5054 40.797 21.7465C41.5262 21.7465 42.2473 21.7465 43.0008 21.7465Z" fill="white"/>
<path d="M35.6359 13.8558C35.6359 14.6066 35.6359 15.3328 35.6359 16.0917C34.8986 16.0917 34.1694 16.0917 33.4077 16.0917C33.4077 15.3573 33.4077 14.6229 33.4077 13.8558C34.137 13.8558 34.8581 13.8558 35.6359 13.8558Z" fill="white"/>
<path d="M66.433 19.1027C66.433 19.8534 66.433 20.5878 66.433 21.3467C65.6955 21.3467 64.9665 21.3467 64.213 21.3467C64.213 20.6041 64.213 19.8697 64.213 19.1027C64.942 19.1027 65.663 19.1027 66.433 19.1027Z" fill="white"/>
<path d="M35.6197 18.7354C34.8743 18.7354 34.1532 18.7354 33.4077 18.7354C33.4077 17.9847 33.4077 17.2421 33.4077 16.4833C34.1451 16.4833 34.8662 16.4833 35.6197 16.4833C35.6197 17.2176 35.6197 17.952 35.6197 18.7354Z" fill="white"/>
<path d="M40.797 19.1027C41.5343 19.1027 42.2554 19.1027 43.0008 19.1027C43.0008 19.8615 43.0008 20.5959 43.0008 21.363C42.2554 21.363 41.5343 21.363 40.797 21.363C40.797 20.6041 40.797 19.8615 40.797 19.1027Z" fill="white"/>
<path d="M17.7944 21.7546C18.5399 21.7546 19.2691 21.7546 20.0064 21.7546C20.0064 22.5053 20.0064 23.2316 20.0064 23.9905C19.2772 23.9905 18.548 23.9905 17.7944 23.9905C17.7944 23.2561 17.7944 22.5135 17.7944 21.7546Z" fill="white"/>
<path d="M58.614 16.4915C58.614 17.2422 58.614 17.9848 58.614 18.7355C57.8685 18.7355 57.1475 18.7355 56.394 18.7355C56.394 17.9929 56.394 17.2504 56.394 16.4915C57.1395 16.4915 57.8685 16.4915 58.614 16.4915Z" fill="white"/>
<path d="M14.8129 21.7546C14.8129 22.5135 14.8129 23.2479 14.8129 23.9986C14.0755 23.9986 13.3544 23.9986 12.609 23.9986C12.609 23.2561 12.609 22.5217 12.609 21.7546C13.3301 21.7546 14.0593 21.7546 14.8129 21.7546Z" fill="white"/>
<path d="M22.6154 21.363C21.87 21.363 21.1488 21.363 20.4115 21.363C20.4115 20.6041 20.4115 19.8615 20.4115 19.1027C21.1488 19.1027 21.87 19.1027 22.6154 19.1027C22.6154 19.8452 22.6154 20.5878 22.6154 21.363Z" fill="white"/>
<path d="M27.8252 3.32959C27.8252 4.09663 27.8252 4.80654 27.8252 5.55723C27.0798 5.55723 26.3505 5.55723 25.597 5.55723C25.597 4.82286 25.597 4.08847 25.597 3.32959C26.3343 3.32959 27.0717 3.32959 27.8252 3.32959Z" fill="white"/>
<path d="M14.8128 10.8285C14.0593 10.8285 13.3382 10.8285 12.5928 10.8285C12.5928 10.0859 12.5928 9.35968 12.5928 8.60083C13.3301 8.60083 14.0593 8.60083 14.8128 8.60083C14.8128 9.34338 14.8128 10.0696 14.8128 10.8285Z" fill="white"/>
<path d="M25.2163 19.1108C25.2163 19.8615 25.2163 20.6041 25.2163 21.363C24.4789 21.363 23.7579 21.363 23.0125 21.363C23.0125 20.6123 23.0125 19.8779 23.0125 19.1108C23.7336 19.1108 24.4627 19.1108 25.2163 19.1108Z" fill="white"/>
<path d="M58.614 3.32959C58.614 4.06398 58.614 4.79838 58.614 5.54908C57.8685 5.54908 57.1395 5.54908 56.386 5.54908C56.386 4.80654 56.386 4.0803 56.386 3.32959C57.1315 3.32959 57.8685 3.32959 58.614 3.32959Z" fill="white"/>
<path d="M58.6225 24.3903C58.6225 25.1328 58.6225 25.8591 58.6225 26.618C57.877 26.618 57.1475 26.618 56.394 26.618C56.394 25.8754 56.394 25.141 56.394 24.3903C57.1315 24.3903 57.8685 24.3903 58.6225 24.3903Z" fill="white"/>
<path d="M58.614 27.0096C58.614 27.7848 58.614 28.511 58.614 29.2536C57.8685 29.2536 57.1475 29.2536 56.394 29.2536C56.394 28.5029 56.394 27.7685 56.394 27.0096C57.1395 27.0096 57.8605 27.0096 58.614 27.0096Z" fill="white"/>
<path d="M19.9983 21.363C19.261 21.363 18.5399 21.363 17.7944 21.363C17.7944 20.6123 17.7944 19.8697 17.7944 19.1027C18.5237 19.1027 19.2448 19.1027 19.9983 19.1027C19.9983 19.8371 19.9983 20.5796 19.9983 21.363Z" fill="white"/>
<path d="M58.614 5.95691C58.614 6.69131 58.614 7.42571 58.614 8.18461C57.877 8.18461 57.1395 8.18461 56.386 8.18461C56.386 7.44206 56.386 6.71581 56.386 5.95691C57.1315 5.95691 57.8605 5.95691 58.614 5.95691Z" fill="white"/>
<path d="M17.4217 19.1027C17.4217 19.8615 17.4217 20.5878 17.4217 21.3467C16.6844 21.3467 15.9552 21.3467 15.2017 21.3467C15.2017 20.6041 15.2017 19.8615 15.2017 19.1027C15.9309 19.1027 16.652 19.1027 17.4217 19.1027Z" fill="white"/>
<path d="M12.6008 19.0945C13.3463 19.0945 14.0593 19.0945 14.7966 19.0945C14.7966 19.8288 14.7966 20.5714 14.7966 21.3466C14.0836 21.3466 13.3544 21.3466 12.6008 21.3466C12.6008 20.6122 12.6008 19.8778 12.6008 19.0945Z" fill="white"/>
<path d="M15.1855 23.9905C15.1855 23.2397 15.1855 22.5053 15.1855 21.7546C15.931 21.7546 16.6683 21.7546 17.4137 21.7546C17.4137 22.4972 17.4137 23.2234 17.4137 23.9905C16.6926 23.9905 15.9634 23.9905 15.1855 23.9905Z" fill="white"/>
<path d="M25.5808 8.18471C25.5808 7.43401 25.5808 6.71591 25.5808 5.96521C26.3181 5.96521 27.0635 5.96521 27.8252 5.96521C27.8252 6.69961 27.8252 7.42586 27.8252 8.18471C27.0797 8.18471 26.3505 8.18471 25.5808 8.18471Z" fill="white"/>
<path d="M45.6099 21.7546C45.6099 22.5053 45.6099 23.2397 45.6099 23.9986C44.8726 23.9986 44.1515 23.9986 43.3979 23.9986C43.3979 23.2479 43.3979 22.5135 43.3979 21.7546C44.1272 21.7546 44.8645 21.7546 45.6099 21.7546Z" fill="white"/>
<path d="M48.2188 21.7546C48.2188 22.5135 48.2188 23.2397 48.2188 23.9905C47.4733 23.9905 46.736 23.9905 45.9906 23.9905C45.9906 23.2397 45.9906 22.5053 45.9906 21.7546C46.7279 21.7546 47.4571 21.7546 48.2188 21.7546Z" fill="white"/>
<path d="M10.0081 19.0945C10.7373 19.0945 11.4503 19.0945 12.1876 19.0945C12.1876 19.837 12.1876 20.5796 12.1876 21.3466C11.4746 21.3466 10.7535 21.3466 10.0081 21.3466C10.0081 20.6204 10.0081 19.8778 10.0081 19.0945Z" fill="white"/>
<path d="M63.7994 19.1027C63.7994 19.8371 63.7994 20.5796 63.7994 21.3467C63.0784 21.3467 62.3409 21.3467 61.5959 21.3467C61.5959 20.6041 61.5959 19.8615 61.5959 19.1027C62.3409 19.1027 63.0624 19.1027 63.7994 19.1027Z" fill="white"/>
<path d="M45.6099 13.4478C44.8483 13.4478 44.1272 13.4478 43.3899 13.4478C43.3899 12.697 43.3899 11.9708 43.3899 11.2201C44.1272 11.2201 44.8645 11.2201 45.6099 11.2201C45.6099 11.9708 45.6099 12.697 45.6099 13.4478Z" fill="white"/>
<path d="M40.797 11.212C41.5262 11.212 42.2392 11.212 42.9846 11.212C42.9846 11.9464 42.9846 12.689 42.9846 13.4478C42.2635 13.4478 41.5424 13.4478 40.797 13.4478C40.797 12.7134 40.797 11.9872 40.797 11.212Z" fill="white"/>
<path d="M14.8128 13.456C14.0674 13.456 13.3463 13.456 12.6008 13.456C12.6008 12.7135 12.6008 11.9873 12.6008 11.2284C13.33 11.2284 14.0593 11.2284 14.8128 11.2284C14.8128 11.9628 14.8128 12.689 14.8128 13.456Z" fill="white"/>
<path d="M45.6018 10.8204C44.8645 10.8204 44.1353 10.8204 43.3899 10.8204C43.3899 10.0696 43.3899 9.3434 43.3899 8.59265C44.1272 8.59265 44.8483 8.59265 45.6018 8.59265C45.6018 9.3352 45.6018 10.0696 45.6018 10.8204Z" fill="white"/>
<path d="M30.8149 8.59265C31.5523 8.59265 32.2734 8.59265 33.0107 8.59265C33.0107 9.3434 33.0107 10.0696 33.0107 10.8204C32.2815 10.8204 31.5604 10.8204 30.8149 10.8204C30.8149 10.086 30.8149 9.3434 30.8149 8.59265Z" fill="white"/>
<path d="M64.1885 14.9574C64.1885 14.6882 64.1965 14.4107 64.1885 14.1415C64.1725 13.8885 64.294 13.7987 64.521 13.7987C65.0715 13.7987 65.6225 13.7824 66.1735 13.8151C66.271 13.8232 66.4409 13.9946 66.4489 14.1007C66.4734 14.6963 66.4734 15.292 66.4489 15.8877C66.4489 15.9693 66.3034 16.1162 66.2139 16.1162C65.6224 16.1325 65.031 16.1406 64.4395 16.1162C64.3505 16.1162 64.213 15.953 64.205 15.855C64.1645 15.5531 64.1885 15.2512 64.1885 14.9574Z" fill="#1FE295"/>
<path d="M33.0026 21.363C32.2734 21.363 31.5523 21.363 30.8069 21.363C30.8069 20.6123 30.8069 19.8697 30.8069 19.1108C31.5361 19.1108 32.2572 19.1108 33.0026 19.1108C33.0026 19.8534 33.0026 20.5959 33.0026 21.363Z" fill="white"/>
<path d="M30.823 3.32959C31.5522 3.32959 32.2734 3.32959 33.0512 3.32959C33.0512 4.02318 33.0592 4.6923 33.043 5.36958C33.043 5.44303 32.9053 5.57358 32.8324 5.58173C32.1761 5.59803 31.5198 5.58988 30.8311 5.58988C30.823 4.8147 30.823 4.0803 30.823 3.32959Z" fill="#F64E0A"/>
<path d="M61.604 8.58447C62.333 8.58447 63.046 8.58447 63.7915 8.58447C63.7915 9.31887 63.7915 10.0614 63.7915 10.8203C63.0705 10.8203 62.3495 10.8203 61.604 10.8203C61.604 10.0777 61.604 9.34337 61.604 8.58447Z" fill="white"/>
<path d="M45.9906 8.59265C46.736 8.59265 47.4571 8.59265 48.2106 8.59265C48.2106 9.3352 48.2106 10.0696 48.2106 10.8204C47.4733 10.8204 46.7441 10.8204 45.9906 10.8204C45.9906 10.0696 45.9906 9.3434 45.9906 8.59265Z" fill="white"/>
<path d="M42.9928 16.108C42.2474 16.108 41.5344 16.108 40.8052 16.108C40.8052 15.3573 40.8052 14.6147 40.8052 13.8477C41.5263 13.8477 42.2474 13.8477 42.9928 13.8477C42.9928 14.5984 42.9928 15.3328 42.9928 16.108Z" fill="white"/>
<path d="M64.2209 21.7628C64.9664 21.7628 65.6874 21.7628 66.4329 21.7628C66.4329 22.5135 66.4329 23.2398 66.4329 23.9986C65.6954 23.9986 64.9744 23.9986 64.2209 23.9986C64.2209 23.2561 64.2209 22.5298 64.2209 21.7628Z" fill="#F64E0A"/>
<path d="M14.8048 26.6343C14.0674 26.6343 13.3544 26.6343 12.609 26.6343C12.609 25.8836 12.609 25.1492 12.609 24.3903C13.322 24.3903 14.0512 24.3903 14.8048 24.3903C14.8048 25.1165 14.8048 25.8509 14.8048 26.6343Z" fill="white"/>
<path d="M43.3736 24.374C44.1514 24.374 44.8563 24.374 45.6017 24.374C45.6017 25.1166 45.6017 25.851 45.6017 26.6425C44.9211 26.6425 44.2405 26.6506 43.5599 26.6343C43.4951 26.6343 43.3817 26.5119 43.3736 26.4385C43.3655 25.7694 43.3736 25.0921 43.3736 24.374Z" fill="#2187DF"/>
<path d="M45.9825 26.6179C45.9825 25.8672 45.9825 25.1491 45.9825 24.3984C46.7118 24.3984 47.4491 24.3984 48.2107 24.3984C48.2107 25.1165 48.2107 25.8509 48.2107 26.6179C47.4815 26.6179 46.7523 26.6179 45.9825 26.6179Z" fill="white"/>
<path d="M48.5753 26.6099C48.5753 25.8592 48.5753 25.1329 48.5753 24.3822C49.3207 24.3822 50.05 24.3822 50.8035 24.3822C50.8035 25.1248 50.8035 25.851 50.8035 26.6099C50.0745 26.6099 49.3451 26.6099 48.5753 26.6099Z" fill="white"/>
<path d="M51.2085 26.6262C51.2085 25.8673 51.2085 25.1329 51.2085 24.374C51.946 24.374 52.675 24.374 53.4125 24.374C53.4125 25.1247 53.4125 25.8673 53.4125 26.6262C52.667 26.6262 51.954 26.6262 51.2085 26.6262Z" fill="white"/>
<path d="M56.0049 26.6262C55.2514 26.6262 54.5469 26.6262 53.8094 26.6262C53.8094 25.8754 53.8094 25.1329 53.8094 24.374C54.5384 24.374 55.2599 24.374 56.0049 24.374C56.0049 25.1166 56.0049 25.8591 56.0049 26.6262Z" fill="white"/>
<path d="M48.2188 27.026C48.2188 27.7849 48.2188 28.5112 48.2188 29.2619C47.4734 29.2619 46.7523 29.2619 46.0068 29.2619C46.0068 28.5193 46.0068 27.7931 46.0068 27.026C46.7361 27.026 47.4815 27.026 48.2188 27.026Z" fill="white"/>
<path d="M50.7875 29.2618C50.05 29.2618 49.3289 29.2618 48.5835 29.2618C48.5835 28.5193 48.5835 27.7767 48.5835 27.0178C49.3127 27.0178 50.034 27.0178 50.7875 27.0178C50.7875 27.7441 50.7875 28.4785 50.7875 29.2618Z" fill="white"/>
<path d="M53.3959 29.2536C52.6669 29.2536 51.9459 29.2536 51.2004 29.2536C51.2004 28.5029 51.2004 27.7767 51.2004 27.0178C51.9294 27.0178 52.6424 27.0178 53.3959 27.0178C53.3959 27.7522 53.3959 28.5029 53.3959 29.2536Z" fill="white"/>
<path d="M53.793 29.2536C53.793 28.4866 53.793 27.7603 53.793 27.0096C54.5385 27.0096 55.2515 27.0096 55.997 27.0096C55.997 27.7522 55.997 28.4947 55.997 29.2536C55.276 29.2536 54.547 29.2536 53.793 29.2536Z" fill="white"/>
<path d="M14.8128 3.32959C14.8128 4.07215 14.8128 4.79838 14.8128 5.55723C14.0755 5.55723 13.3382 5.55723 12.5928 5.55723C12.5928 4.8147 12.5928 4.08847 12.5928 3.32959C13.3382 3.32959 14.0674 3.32959 14.8128 3.32959Z" fill="white"/>
<path d="M56.005 5.94885C56.005 6.72405 56.005 7.45025 56.005 8.201C55.26 8.201 54.5385 8.201 53.793 8.201C53.793 7.4421 53.793 6.7077 53.793 5.94885C54.547 5.94885 55.268 5.94885 56.005 5.94885Z" fill="white"/>
<path d="M53.4125 5.95691C53.4125 6.70766 53.4125 7.43386 53.4125 8.19276C52.683 8.19276 51.962 8.19276 51.2085 8.19276C51.2085 7.45836 51.2085 6.72396 51.2085 5.95691C51.938 5.95691 52.651 5.95691 53.4125 5.95691Z" fill="white"/>
<path d="M50.8036 5.95691C50.8036 6.71581 50.8036 7.44206 50.8036 8.19276C50.0581 8.19276 49.337 8.19276 48.5916 8.19276C48.5916 7.46651 48.5916 6.72396 48.5916 5.95691C49.3127 5.95691 50.0421 5.95691 50.8036 5.95691Z" fill="white"/>
<path d="M48.2188 5.96521C48.2188 6.70776 48.2188 7.43401 48.2188 8.19286C47.4815 8.19286 46.7523 8.19286 45.9988 8.19286C45.9988 7.45031 45.9988 6.72411 45.9988 5.96521C46.728 5.96521 47.4653 5.96521 48.2188 5.96521Z" fill="white"/>
<path d="M43.406 5.9408C44.1514 5.9408 44.8644 5.9408 45.6017 5.9408C45.6017 6.68335 45.6017 7.4259 45.6017 8.18475C44.8806 8.18475 44.1595 8.18475 43.406 8.18475C43.406 7.45855 43.406 6.716 43.406 5.9408Z" fill="white"/>
<path d="M23.0043 5.94885C23.7497 5.94885 24.4627 5.94885 25.2 5.94885C25.2 6.69955 25.2 7.43395 25.2 8.1928C24.4789 8.1928 23.7578 8.1928 23.0043 8.1928C23.0043 7.4584 23.0043 6.71585 23.0043 5.94885Z" fill="white"/>
<path d="M22.6235 5.95691C22.6235 6.70766 22.6235 7.43386 22.6235 8.19276C21.8862 8.19276 21.1732 8.19276 20.4197 8.19276C20.4197 7.45836 20.4197 6.72396 20.4197 5.95691C21.1408 5.95691 21.8619 5.95691 22.6235 5.95691Z" fill="white"/>
<path d="M17.8026 5.94885C18.5399 5.94885 19.261 5.94885 20.0064 5.94885C20.0064 6.6914 20.0064 7.4258 20.0064 8.1765C19.2772 8.1765 18.5561 8.1765 17.8026 8.1765C17.8026 7.4666 17.8026 6.7322 17.8026 5.94885Z" fill="white"/>
<path d="M15.2017 8.1928C15.2017 7.4258 15.2017 6.69955 15.2017 5.94885C15.9471 5.94885 16.6682 5.94885 17.4136 5.94885C17.4136 6.6914 17.4136 7.43395 17.4136 8.1928C16.6682 8.1928 15.9552 8.1928 15.2017 8.1928Z" fill="white"/>
<path d="M12.5928 8.18461C12.5928 7.43386 12.5928 6.70766 12.5928 5.95691C13.3301 5.95691 14.0512 5.95691 14.8047 5.95691C14.8047 6.68316 14.8047 7.42571 14.8047 8.18461C14.0836 8.18461 13.3625 8.18461 12.5928 8.18461Z" fill="white"/>
<path d="M53.8094 3.31323C54.5549 3.31323 55.2679 3.31323 56.0049 3.31323C56.0049 4.05579 56.0049 4.79018 56.0049 5.55723C55.2839 5.55723 54.5629 5.55723 53.8094 5.55723C53.8094 4.82282 53.8094 4.08843 53.8094 3.31323Z" fill="white"/>
<path d="M53.4125 3.32959C53.4125 4.08031 53.4125 4.80654 53.4125 5.55723C52.683 5.55723 51.962 5.55723 51.2085 5.55723C51.2085 4.82286 51.2085 4.08847 51.2085 3.32959C51.938 3.32959 52.659 3.32959 53.4125 3.32959Z" fill="white"/>
<path d="M48.5835 3.32129C49.3208 3.32129 50.05 3.32129 50.7955 3.32129C50.7955 4.06384 50.7955 4.79824 50.7955 5.55709C50.05 5.55709 49.3289 5.55709 48.5835 5.55709C48.5835 4.81456 48.5835 4.08016 48.5835 3.32129Z" fill="white"/>
<path d="M22.9882 5.56533C22.9882 4.80646 22.9882 4.08838 22.9882 3.34583C23.7255 3.34583 24.4547 3.34583 25.2082 3.34583C25.2082 4.07206 25.2082 4.81462 25.2082 5.56533C24.4709 5.56533 23.7498 5.56533 22.9882 5.56533Z" fill="white"/>
<path d="M22.6154 5.56529C21.8619 5.56529 21.1488 5.56529 20.4115 5.56529C20.4115 4.81456 20.4115 4.072 20.4115 3.32129C21.1488 3.32129 21.87 3.32129 22.6154 3.32129C22.6154 4.06384 22.6154 4.79824 22.6154 5.56529Z" fill="white"/>
<path d="M19.9983 5.57344C19.2529 5.57344 18.5399 5.57344 17.8026 5.57344C17.8026 4.83088 17.8026 4.08016 17.8026 3.32129C18.5318 3.32129 19.2529 3.32129 19.9983 3.32129C19.9983 4.06384 19.9983 4.79824 19.9983 5.57344Z" fill="white"/>
<path d="M15.1855 5.54897C15.1855 4.80644 15.1855 4.08836 15.1855 3.33765C15.9229 3.33765 16.6521 3.33765 17.4056 3.33765C17.4056 4.05572 17.4056 4.78196 17.4056 5.54897C16.6926 5.54897 15.9634 5.54897 15.1855 5.54897Z" fill="white"/>
<path d="M66.433 16.4833C66.433 17.234 66.433 17.9602 66.433 18.7191C65.6955 18.7191 64.9665 18.7191 64.213 18.7191C64.213 17.9847 64.213 17.2421 64.213 16.4833C64.942 16.4833 65.663 16.4833 66.433 16.4833Z" fill="white"/>
<path d="M55.997 18.7354C55.26 18.7354 54.5465 18.7354 53.8015 18.7354C53.8015 17.9847 53.8015 17.2503 53.8015 16.4833C54.5305 16.4833 55.2435 16.4833 55.997 16.4833C55.997 17.2258 55.997 17.9602 55.997 18.7354Z" fill="white"/>
<path d="M43.3979 18.7272C43.3979 17.9602 43.3979 17.234 43.3979 16.4833C44.1353 16.4833 44.8645 16.4833 45.6099 16.4833C45.6099 17.234 45.6099 17.9684 45.6099 18.7272C44.8726 18.7272 44.1515 18.7272 43.3979 18.7272Z" fill="white"/>
<path d="M43.0008 16.4833C43.0008 17.2503 43.0008 17.9765 43.0008 18.7272C42.2635 18.7272 41.5424 18.7272 40.797 18.7272C40.797 17.9928 40.797 17.2503 40.797 16.4833C41.5181 16.4833 42.2392 16.4833 43.0008 16.4833Z" fill="white"/>
<path d="M12.609 16.4833C13.3544 16.4833 14.0755 16.4833 14.8129 16.4833C14.8129 17.2421 14.8129 17.9765 14.8129 18.7354C14.0755 18.7354 13.3544 18.7354 12.609 18.7354C12.609 17.9928 12.609 17.2503 12.609 16.4833Z" fill="white"/>
<path d="M56.0135 13.8477C56.0135 14.6066 56.0135 15.3328 56.0135 16.0917C55.284 16.0917 54.555 16.0917 53.8015 16.0917C53.8015 15.341 53.8015 14.5984 53.8015 13.8477C54.5385 13.8477 55.2515 13.8477 56.0135 13.8477Z" fill="white"/>
<path d="M43.3979 13.8396C44.1515 13.8396 44.8645 13.8396 45.6018 13.8396C45.6018 14.5903 45.6018 15.3247 45.6018 16.0917C44.8807 16.0917 44.1515 16.0917 43.3979 16.0917C43.3979 15.3492 43.3979 14.6148 43.3979 13.8396Z" fill="white"/>
<path d="M12.609 13.8396C13.3463 13.8396 14.0593 13.8396 14.8048 13.8396C14.8048 14.5821 14.8048 15.3247 14.8048 16.0917C14.0918 16.0917 13.3625 16.0917 12.609 16.0917C12.609 15.3655 12.609 14.6229 12.609 13.8396Z" fill="white"/>
<path d="M28.2141 21.363C28.2141 20.6041 28.2141 19.8615 28.2141 19.1027C28.9352 19.1027 29.6483 19.1027 30.3937 19.1027C30.3937 19.8452 30.3937 20.5959 30.3937 21.363C29.6807 21.363 28.9515 21.363 28.2141 21.363Z" fill="white"/>
<path d="M12.6252 26.9934C13.2977 26.9934 13.9297 26.9852 14.5617 27.0015C14.6589 27.0015 14.829 27.1321 14.829 27.2055C14.8534 27.8746 14.8453 28.5519 14.8453 29.2455C14.0917 29.2455 13.3787 29.2455 12.6333 29.2455C12.6252 28.5111 12.6252 27.7767 12.6252 26.9934Z" fill="#2187DF"/>
<path d="M12.1958 29.2618C11.4666 29.2618 10.7616 29.2618 10.0162 29.2618C10.0162 28.5274 10.0162 27.7849 10.0162 27.0178C10.7373 27.0178 11.4584 27.0178 12.1958 27.0178C12.1958 27.7604 12.1958 28.5029 12.1958 29.2618Z" fill="white"/>
<path d="M63.8081 24.374C63.8081 25.1166 63.8081 25.8591 63.8081 26.618C63.0706 26.618 62.3496 26.618 61.6121 26.618C61.6121 25.8673 61.6121 25.1247 61.6121 24.374C62.3411 24.374 63.0626 24.374 63.8081 24.374Z" fill="white"/>
<path d="M10.0081 23.9904C10.0081 23.2316 10.0081 22.489 10.0081 21.7383C10.7373 21.7383 11.4503 21.7383 12.1876 21.7383C12.1876 22.4808 12.1876 23.2234 12.1876 23.9904C11.4746 23.9904 10.7616 23.9904 10.0081 23.9904Z" fill="white"/>
<path d="M10.0162 8.58447C10.7535 8.58447 11.4584 8.58447 12.1958 8.58447C12.1958 9.32702 12.1958 10.0533 12.1958 10.8121C11.4828 10.8121 10.7616 10.8121 10.0162 10.8121C10.0162 10.0941 10.0162 9.35967 10.0162 8.58447Z" fill="white"/>
<path d="M28.2141 10.8203C28.2141 10.0859 28.2141 9.35968 28.2141 8.60083C28.9352 8.60083 29.6483 8.60083 30.3937 8.60083C30.3937 9.33518 30.3937 10.0696 30.3937 10.8203C29.6807 10.8203 28.9596 10.8203 28.2141 10.8203Z" fill="white"/>
<path d="M61.5959 23.9986C61.5959 23.2479 61.5959 22.5135 61.5959 21.7628C62.3249 21.7628 63.0459 21.7628 63.7914 21.7628C63.7914 22.4972 63.7914 23.2398 63.7914 23.9986C63.0784 23.9986 62.3574 23.9986 61.5959 23.9986Z" fill="white"/>
<path d="M10.0162 13.8477C10.7373 13.8477 11.4503 13.8477 12.1877 13.8477C12.1877 14.6066 12.1877 15.3491 12.1877 16.1161C11.4584 16.1161 10.7535 16.1161 10.0162 16.1161C10.0162 15.3573 10.0162 14.6066 10.0162 13.8477Z" fill="white"/>
<path d="M10 26.6098C10 25.851 10 25.1247 10 24.374C10.7373 24.374 11.4584 24.374 12.1958 24.374C12.1958 25.1247 12.1958 25.851 12.1958 26.6098C11.4584 26.6098 10.7292 26.6098 10 26.6098Z" fill="white"/>
<path d="M12.1957 16.4833C12.1957 17.234 12.1957 17.9765 12.1957 18.7354C11.4665 18.7354 10.7454 18.7354 10.0081 18.7354C10.0081 17.9847 10.0081 17.2503 10.0081 16.4833C10.7373 16.4833 11.4503 16.4833 12.1957 16.4833Z" fill="white"/>
<path d="M12.1876 8.20091C11.4503 8.20091 10.7373 8.20091 10 8.20091C10 7.45021 10 6.70766 10 5.95691C10.7292 5.95691 11.4341 5.95691 12.1876 5.95691C12.1876 6.69131 12.1876 7.42571 12.1876 8.20091Z" fill="#6417E1"/>
<path d="M61.2395 29.2618C60.4615 29.2618 59.7565 29.2618 59.0275 29.2618C59.0275 28.5111 59.0275 27.7767 59.0275 26.9852C59.708 26.9852 60.3725 26.977 61.045 26.9934C61.1095 26.9934 61.231 27.1239 61.231 27.1892C61.2395 27.8746 61.2395 28.5519 61.2395 29.2618Z" fill="#F64E0A"/>
<path d="M33.0026 8.20091C32.2653 8.20091 31.5523 8.20091 30.8149 8.20091C30.8149 7.45836 30.8149 6.71581 30.8149 5.95691C31.5361 5.95691 32.2572 5.95691 33.0026 5.95691C33.0026 6.69131 33.0026 7.42571 33.0026 8.20091Z" fill="white"/>
<path d="M61.604 8.18471C61.604 7.44216 61.604 6.71591 61.604 5.96521C62.325 5.96521 63.046 5.96521 63.7915 5.96521C63.7915 6.68331 63.7915 7.41771 63.7915 8.18471C63.0865 8.18471 62.3655 8.18471 61.604 8.18471Z" fill="white"/>
<path d="M61.199 10.8204C60.4615 10.8204 59.7485 10.8204 59.011 10.8204C59.011 10.0778 59.011 9.3434 59.011 8.59265C59.7405 8.59265 60.4615 8.59265 61.199 8.59265C61.199 9.32705 61.199 10.0533 61.199 10.8204Z" fill="white"/>
<path d="M61.604 18.7191C61.604 17.9765 61.604 17.234 61.604 16.4833C62.3415 16.4833 63.0625 16.4833 63.808 16.4833C63.808 17.234 63.808 17.9602 63.808 18.7191C63.0865 18.7191 62.3575 18.7191 61.604 18.7191Z" fill="white"/>
<path d="M61.207 21.7465C61.207 22.4972 61.207 23.2398 61.207 23.9986C60.4695 23.9986 59.7565 23.9986 59.0195 23.9986C59.0195 23.2398 59.0195 22.5054 59.0195 21.7465C59.7485 21.7465 60.4695 21.7465 61.207 21.7465Z" fill="white"/>
<path d="M61.1905 18.7354C60.4775 18.7354 59.7645 18.7354 59.0275 18.7354C59.0275 17.9928 59.0275 17.2421 59.0275 16.4833C59.7405 16.4833 60.4535 16.4833 61.1905 16.4833C61.1905 17.2176 61.1905 17.952 61.1905 18.7354Z" fill="white"/>
<path d="M30.4018 5.57358C29.6564 5.57358 28.9596 5.57358 28.2303 5.57358C28.2303 4.83102 28.2303 4.08846 28.2303 3.32959C28.9352 3.32959 29.6564 3.32959 30.4018 3.32959C30.4018 4.06398 30.4018 4.79838 30.4018 5.57358Z" fill="white"/>
<path d="M33.0107 16.4833C33.0107 17.234 33.0107 17.9602 33.0107 18.7191C32.2815 18.7191 31.5523 18.7191 30.8069 18.7191C30.8069 17.9765 30.8069 17.234 30.8069 16.4833C31.5523 16.4833 32.2734 16.4833 33.0107 16.4833Z" fill="white"/>
<path d="M30.4018 18.7354C29.6726 18.7354 28.9677 18.7354 28.2303 18.7354C28.2303 17.9928 28.2303 17.2584 28.2303 16.4833C28.9433 16.4833 29.6564 16.4833 30.4018 16.4833C30.4018 17.2258 30.4018 17.9602 30.4018 18.7354Z" fill="white"/>
<path d="M61.6121 13.8477C62.3411 13.8477 63.0546 13.8477 63.7916 13.8477C63.7916 14.5902 63.7916 15.3328 63.7916 16.0998C63.0866 16.0998 62.3656 16.0998 61.6121 16.0998C61.6121 15.3654 61.6121 14.6229 61.6121 13.8477Z" fill="white"/>
<path d="M30.4098 5.96521C30.4098 6.70776 30.4098 7.44216 30.4098 8.19286C29.6806 8.19286 28.9595 8.19286 28.2222 8.19286C28.2222 7.45031 28.2222 6.72411 28.2222 5.96521C28.9352 5.96521 29.6482 5.96521 30.4098 5.96521Z" fill="white"/>
<path d="M61.199 16.108C60.4615 16.108 59.7565 16.108 59.0195 16.108C59.0195 15.3573 59.0195 14.6229 59.0195 13.8558C59.7325 13.8558 60.4535 13.8558 61.199 13.8558C61.199 14.5984 61.199 15.3328 61.199 16.108Z" fill="white"/>
<path d="M33.0026 16.108C32.2653 16.108 31.5523 16.108 30.8149 16.108C30.8149 15.3573 30.8149 14.6229 30.8149 13.8558C31.5361 13.8558 32.2572 13.8558 33.0026 13.8558C33.0026 14.5984 33.0026 15.3328 33.0026 16.108Z" fill="white"/>
<path d="M61.207 5.95691C61.207 6.70766 61.207 7.43386 61.207 8.19276C60.486 8.19276 59.7645 8.19276 59.0195 8.19276C59.0195 7.45836 59.0195 6.71581 59.0195 5.95691C59.7485 5.95691 60.4695 5.95691 61.207 5.95691Z" fill="white"/>
<path d="M59.011 26.6261C59.011 25.8754 59.011 25.141 59.011 24.3903C59.7325 24.3903 60.4535 24.3903 61.199 24.3903C61.199 25.1328 61.199 25.8672 61.199 26.6261C60.4775 26.6261 59.7645 26.6261 59.011 26.6261Z" fill="white"/>
<path d="M33.0026 13.456C32.2653 13.456 31.5523 13.456 30.8149 13.456C30.8149 12.7135 30.8149 11.9873 30.8149 11.2284C31.528 11.2284 32.2491 11.2284 33.0026 11.2284C33.0026 11.9465 33.0026 12.689 33.0026 13.456Z" fill="white"/>
<path d="M10 13.4396C10 12.697 10 11.9708 10 11.2201C10.7292 11.2201 11.4503 11.2201 12.1958 11.2201C12.1958 11.9545 12.1958 12.6807 12.1958 13.4396C11.4828 13.4396 10.7616 13.4396 10 13.4396Z" fill="white"/>
<path d="M68.669 33.2602C68.4665 33.6193 68.7585 34.0354 68.345 34.3373C68.345 33.6927 68.345 33.1378 68.345 32.4932C68.9205 32.6238 68.799 33.2929 69.1715 33.5377C69.4795 33.2439 69.431 32.6564 69.998 32.4442C69.998 33.0481 70.006 33.554 69.99 34.0517C69.99 34.1252 69.909 34.1905 69.8685 34.2639C69.8195 34.1905 69.7305 34.117 69.7225 34.0354C69.7065 33.7906 69.7145 33.5377 69.6415 33.2766C69.585 33.3908 69.544 33.5132 69.463 33.6193C69.374 33.7335 69.269 33.8804 69.147 33.913C69.0825 33.9293 68.953 33.7498 68.8715 33.6437C68.807 33.5377 68.7585 33.4153 68.669 33.2602Z" fill="white"/>
<path d="M67.3969 32.8685C67.1944 32.7869 67.0569 32.7298 66.9189 32.6727C66.9354 32.6319 66.9514 32.5829 66.9594 32.5421C67.3239 32.5421 67.6969 32.5421 68.0614 32.5421C68.0774 32.5748 68.0939 32.6156 68.1099 32.6482C67.9804 32.7135 67.8589 32.7788 67.6484 32.893C67.6484 33.2031 67.6564 33.5866 67.6399 33.9701C67.6399 34.068 67.5589 34.1659 67.5184 34.2639C67.4699 34.1741 67.3969 34.0762 67.3889 33.9864C67.3889 33.6111 67.3969 33.2357 67.3969 32.8685Z" fill="white"/>
</svg>
