<svg width="80" height="40" viewBox="0 0 80 40" fill="none" xmlns="http://www.w3.org/2000/svg">
<g clip-path="url(#clip0_10_1609)">
<path d="M29.3364 17.8665C29.2124 17.5844 29.0141 17.3391 28.7536 17.1674C28.6297 17.0815 28.4809 17.0079 28.3321 16.9711C28.1833 16.9221 28.0221 16.8976 27.8485 16.8976H23.4344C23.2609 16.8976 23.0872 16.9711 22.9633 17.0938C22.8393 17.2165 22.7649 17.3882 22.7649 17.5599V22.8584C22.7649 23.2264 23.0624 23.5207 23.4344 23.5207C23.8064 23.5207 24.104 23.2264 24.104 22.8584V21.313H27.8485C28.0717 21.313 28.2825 21.264 28.4685 21.1904C28.7537 21.0677 29.0016 20.8715 29.1752 20.6139C29.262 20.4912 29.3364 20.3441 29.3736 20.1969C29.4232 20.0497 29.448 19.8903 29.448 19.7186V18.492C29.4604 18.2713 29.4108 18.0628 29.3364 17.8665ZM28.1213 19.7186C28.1213 19.7553 28.1089 19.7921 28.0965 19.8167C28.0717 19.8657 28.0469 19.9025 27.9973 19.9393C27.9725 19.9516 27.9477 19.9638 27.9229 19.9761C27.8981 19.9884 27.8733 19.9884 27.8485 19.9884H24.104V18.2222H27.8485C27.8857 18.2222 27.9229 18.2345 27.9477 18.2467C27.9973 18.2713 28.0345 18.2958 28.0717 18.3449C28.0841 18.3694 28.0965 18.3939 28.1089 18.4184C28.1213 18.443 28.1213 18.4675 28.1213 18.492V19.7186Z" fill="white"/>
<path d="M61.3892 19.8179C61.265 19.7321 61.1165 19.6585 60.9676 19.6217C60.8187 19.5727 60.6575 19.5481 60.4839 19.5481H56.5536C56.5161 19.5481 56.4792 19.5358 56.454 19.5236C56.4047 19.499 56.3672 19.4745 56.3302 19.4254C56.3179 19.4009 56.3056 19.3764 56.2932 19.3519C56.2804 19.3273 56.2804 19.3028 56.2804 19.2783V18.4811C56.2804 18.4442 56.2932 18.4074 56.3056 18.3829C56.3302 18.3338 56.3549 18.2971 56.4047 18.2603C56.4294 18.248 56.454 18.2357 56.4792 18.2234C56.5038 18.2112 56.5285 18.2112 56.5536 18.2112H61.1905C61.5628 18.2112 61.8602 17.9168 61.8602 17.5489C61.8602 17.1809 61.5628 16.8866 61.1905 16.8866H56.5536C56.3302 16.8866 56.1197 16.9356 55.9333 17.0092C55.6482 17.1319 55.4002 17.3281 55.2266 17.5857C55.1398 17.7083 55.0654 17.8555 55.0284 18.0027C54.9786 18.1499 54.9539 18.3093 54.9539 18.4811V19.2783C54.9539 19.499 55.0037 19.7075 55.0782 19.8915C55.2019 20.1736 55.4002 20.4189 55.6606 20.5907C55.7848 20.6765 55.9333 20.7501 56.0822 20.7869C56.2311 20.836 56.3924 20.8605 56.5659 20.8605H60.4962C60.5337 20.8605 60.5707 20.8727 60.5958 20.885C60.6451 20.9095 60.6826 20.9341 60.7196 20.9831C60.7319 21.0077 60.7442 21.0322 60.7566 21.0567C60.7694 21.0812 60.7694 21.1058 60.7694 21.1303V21.9276C60.7694 21.9643 60.7566 22.0011 60.7442 22.0257C60.7196 22.0747 60.6949 22.1115 60.6451 22.1483C60.6205 22.1606 60.5958 22.1728 60.5707 22.1851C60.546 22.1974 60.5213 22.1974 60.4962 22.1974H55.8593C55.487 22.1974 55.1896 22.4918 55.1896 22.8597C55.1896 23.2277 55.487 23.522 55.8593 23.522H60.4962C60.7196 23.522 60.9302 23.473 61.1165 23.3994C61.4016 23.2767 61.6496 23.0805 61.8232 22.8229C61.91 22.7002 61.9845 22.5531 62.0214 22.4059C62.0712 22.2587 62.0959 22.0993 62.0959 21.9276V21.1303C62.0959 20.9095 62.0461 20.701 61.9716 20.517C61.8479 20.2349 61.6373 19.9896 61.3892 19.8179Z" fill="white"/>
<path d="M53.3414 17.0582C53.0682 16.8128 52.6343 16.8496 52.399 17.1195L49.7825 20.0876L47.154 17.1195C46.906 16.8496 46.4844 16.8128 46.2117 17.0582C45.9389 17.3035 45.9017 17.7205 46.1497 17.9903L49.1005 21.3387V22.8596C49.1005 23.2275 49.3983 23.5219 49.7702 23.5219C50.142 23.5219 50.4398 23.2275 50.4398 22.8596V21.3387L53.403 17.9903C53.6388 17.7205 53.6141 17.3035 53.3414 17.0582Z" fill="white"/>
<path d="M70.8741 17.8665C70.7503 17.5844 70.5516 17.3391 70.2913 17.1674C70.1675 17.0815 70.0186 17.0079 69.8701 16.9711C69.7212 16.9221 69.5599 16.8976 69.3864 16.8976H65.4684C65.245 16.8976 65.034 16.9466 64.8481 17.0202C64.5631 17.1429 64.315 17.3391 64.1414 17.5967C64.0546 17.7193 63.9802 17.8665 63.9432 18.0137C63.8934 18.1609 63.8687 18.3203 63.8687 18.492V21.9385C63.8687 22.1593 63.9185 22.3678 63.9925 22.5518C64.1168 22.8339 64.315 23.0792 64.5754 23.2509C64.6996 23.3368 64.8481 23.4104 64.997 23.4472C65.1459 23.4962 65.3072 23.5207 65.4808 23.5207H69.411C69.6344 23.5207 69.845 23.4717 70.0309 23.3981C70.3164 23.2755 70.5644 23.0792 70.738 22.8216C70.8248 22.699 70.8988 22.5518 70.9363 22.4046C70.9861 22.2574 71.0107 22.098 71.0107 21.9263V18.492C70.9984 18.2713 70.9486 18.0628 70.8741 17.8665ZM69.6591 21.9263C69.6591 21.9631 69.6467 21.9999 69.6344 22.0244C69.6097 22.0735 69.5846 22.1103 69.5353 22.147C69.5101 22.1593 69.4855 22.1716 69.4608 22.1839C69.4362 22.1961 69.411 22.1961 69.3864 22.1961H65.4684C65.431 22.1961 65.394 22.1839 65.3688 22.1716C65.3195 22.147 65.282 22.1225 65.2451 22.0735C65.2327 22.0489 65.2204 22.0244 65.2081 21.9999C65.1953 21.9753 65.1952 21.9508 65.1952 21.9263V18.492C65.1952 18.4553 65.2081 18.4184 65.2204 18.3939C65.245 18.3449 65.2697 18.308 65.3195 18.2713C65.3442 18.259 65.3688 18.2467 65.394 18.2345C65.4186 18.2222 65.4433 18.2222 65.4684 18.2222H69.3987C69.4362 18.2222 69.4731 18.2345 69.4978 18.2467C69.5476 18.2713 69.5846 18.2958 69.6221 18.3449C69.6344 18.3694 69.6467 18.3939 69.6591 18.4184C69.6714 18.443 69.6714 18.4675 69.6714 18.492V21.9263H69.6591Z" fill="white"/>
<path d="M79.3303 16.8976C78.9585 16.8976 78.6611 17.1919 78.6611 17.5599V21.3498L73.9863 17.0815C73.788 16.8976 73.503 16.8608 73.2673 16.9589C73.0192 17.0693 72.8703 17.3023 72.8703 17.5599V22.8584C72.8703 23.2264 73.1682 23.5207 73.54 23.5207C73.9123 23.5207 74.2097 23.2264 74.2097 22.8584V19.0685L78.884 23.3368C79.0823 23.5207 79.3678 23.5576 79.6035 23.4594C79.8511 23.349 80 23.116 80 22.8584V17.5599C80 17.1919 79.7026 16.8976 79.3303 16.8976Z" fill="white"/>
<path d="M36.5544 22.1961H32.5371V17.5599C32.5371 17.1919 32.2395 16.8976 31.8675 16.8976C31.4955 16.8976 31.1979 17.1919 31.1979 17.5599V22.8584C31.1979 23.0301 31.2723 23.2019 31.3963 23.3245C31.5203 23.4472 31.6939 23.5207 31.8675 23.5207H36.5544C36.9264 23.5207 37.2239 23.2264 37.2239 22.8584C37.2239 22.4905 36.9264 22.1961 36.5544 22.1961Z" fill="white"/>
<path d="M45.6657 23.522C45.4301 23.522 45.2069 23.3994 45.0829 23.1909L42.5411 18.8735L39.9992 23.1909C39.8133 23.5098 39.4041 23.6079 39.0817 23.4239C38.7593 23.2399 38.6601 22.8352 38.8461 22.5163L41.9707 17.2177C42.0947 17.0092 42.3055 16.8866 42.5535 16.8866C42.7891 16.8866 43.0123 17.0092 43.1362 17.2177L46.2484 22.5285C46.4344 22.8474 46.3228 23.2522 46.0129 23.4361C45.9013 23.4975 45.7772 23.522 45.6657 23.522Z" fill="white"/>
<path d="M2.16985 26.6495V15.5128L11.6676 20.2103L6.28637 22.8719V20.2103C6.28637 19.6216 5.80281 19.1433 5.20765 19.1433C4.61249 19.1433 4.12892 19.6216 4.12892 20.2103V24.6013C4.12892 24.9692 4.32731 25.3127 4.63729 25.5089C4.95966 25.7052 5.35643 25.7174 5.69122 25.5579L14.5814 21.167C14.9534 20.983 15.1766 20.6151 15.1766 20.2103C15.1766 19.8056 14.941 19.4376 14.5814 19.2536L1.57469 12.8144C1.22752 12.655 0.830742 12.6673 0.508368 12.8635C0.198387 13.0597 0 13.4032 0 13.7711V26.6373C0 27.226 0.483568 27.7044 1.07873 27.7044C1.68629 27.7166 2.16985 27.2383 2.16985 26.6495Z" fill="#FF002A"/>
</g>
<defs>
<clipPath id="clip0_10_1609">
<rect width="80" height="40" fill="white"/>
</clipPath>
</defs>
</svg>
