<svg width="86" height="40" viewBox="0 0 86 40" fill="none" xmlns="http://www.w3.org/2000/svg">
<path d="M22.6219 18.0079C22.61 17.9791 22.6031 17.9511 22.5911 17.9216C21.8738 16.163 19.1482 15.6301 16.0061 16.4337L15.4907 16.1125C17.0376 15.445 18.5781 15.0965 19.869 15.1919C21.7945 15.3377 22.7362 16.4337 22.6219 18.0079ZM19.8284 21.7018C17.8138 24.2668 14.1732 26.0422 11.6959 25.8585C9.22273 25.6713 8.84758 23.4422 10.8628 20.8772C10.9028 20.8246 10.9463 20.7727 10.9884 20.7201L10.9947 23.9358C10.9814 24.7534 11.7688 25.137 12.3347 24.8123L19.7415 20.2952C20.3207 19.92 20.2597 19.0807 19.7141 18.7575L16.7109 17.029C17.5229 16.785 18.3019 16.67 18.994 16.7212C21.4692 16.9084 21.8416 19.1368 19.8284 21.7018H19.8284ZM10.4078 27.2385C8.13454 27.0674 7.22788 25.5689 7.81968 23.5284C7.81608 23.8685 7.86948 24.1946 7.99568 24.4975C8.88413 26.6817 12.8725 26.9776 16.903 25.1643C16.9858 25.1271 17.0678 25.0865 17.1491 25.05C14.8864 26.5106 12.3656 27.3836 10.4078 27.2385ZM13.0268 15.8194L17.999 18.9531C18.3664 19.1733 18.4106 19.7469 18.0193 20.0014L12.9966 23.0642C12.6131 23.2851 12.0753 23.0222 12.0858 22.4633L12.0619 16.3818C12.0837 15.8741 12.5857 15.5677 13.0268 15.8194ZM24.5363 16.9477C23.4943 14.3869 19.1665 13.8231 14.4832 15.4801L12.4048 14.1779C11.7576 13.8084 11.0186 14.2586 10.9828 15.0074L10.9842 17.1223C6.94813 19.5407 4.6075 23.0222 5.60393 25.4729C6.75878 28.3036 11.9315 28.6921 17.1583 26.3374C22.3864 23.9842 25.6891 19.7798 24.5363 16.9477Z" fill="white"/>
<path d="M28.6907 20.6387L28.2392 22.3012C28.1718 22.5543 28.1199 22.785 28.0786 22.9835C28.0358 23.1924 28.0183 23.3418 28.0183 23.4343C28.0183 23.6125 28.0666 23.7485 28.1655 23.8508C28.2693 23.9525 28.4067 24.0023 28.5757 24.0023C28.8408 24.0023 29.1163 23.853 29.4017 23.5542C29.6857 23.2548 29.9578 22.8271 30.2235 22.2661C30.5412 21.5488 30.8006 20.8427 31.0005 20.1359C31.1933 19.4375 31.295 18.8878 31.295 18.4965C31.295 18.2125 31.2361 17.9832 31.1218 17.8128C31.0068 17.6403 30.8595 17.552 30.687 17.552C30.2936 17.552 29.9353 17.8065 29.6065 18.3072C29.2776 18.8134 28.9726 19.5883 28.6907 20.6387H28.6907ZM25.8536 16.7764C26.5555 16.7211 27.2203 16.6474 27.8584 16.5654C28.4937 16.4833 29.1058 16.388 29.6969 16.2723L29.1998 18.0547C29.6962 17.3655 30.1695 16.8592 30.6232 16.5479C31.0685 16.226 31.5313 16.0731 32.0179 16.0731C32.6798 16.0731 33.1938 16.2821 33.5507 16.6986C33.9132 17.1193 34.0906 17.7168 34.0906 18.4895C34.0906 19.1416 33.9693 19.8302 33.7218 20.5489C33.4729 21.269 33.123 21.938 32.6861 22.5592C32.1722 23.2815 31.6301 23.8228 31.0502 24.1811C30.4675 24.5422 29.854 24.7245 29.1998 24.7245C28.9312 24.7245 28.6809 24.6874 28.4432 24.6067C28.2104 24.5233 27.9993 24.4104 27.8079 24.2575L27.2988 26.19C27.2638 26.3057 27.2364 26.4299 27.2231 26.5512C27.2034 26.6697 27.1985 26.7896 27.1985 26.9095C27.1985 27.1416 27.2651 27.3099 27.4026 27.4038C27.5407 27.4971 27.8198 27.5546 28.2391 27.5812V28.0328H23.4934V27.5616C23.5095 27.5616 23.5327 27.5594 23.5628 27.5538C23.5944 27.5461 23.6189 27.5433 23.6308 27.5433C23.926 27.5433 24.1455 27.4676 24.2928 27.3126C24.4414 27.1583 24.5922 26.7565 24.7513 26.1016L26.6404 18.4074C26.6733 18.2847 26.6986 18.1591 26.7189 18.0399C26.7378 17.9249 26.7491 17.8303 26.7491 17.7672C26.7491 17.5554 26.6853 17.4138 26.5618 17.3359C26.4342 17.249 26.1979 17.2097 25.8536 17.2097V16.7764Z" fill="white"/>
<path d="M34.5614 12.5323C35.271 12.4748 35.9483 12.3977 36.6068 12.3037C37.2603 12.2105 37.8816 12.1025 38.4642 11.97L35.8579 22.2867C35.841 22.3435 35.8214 22.4115 35.799 22.5013C35.7646 22.6345 35.752 22.7201 35.752 22.7656C35.752 22.8869 35.7744 22.9837 35.8221 23.0503C35.8726 23.1198 35.9434 23.1534 36.0353 23.1534C36.1293 23.1534 36.2351 23.0889 36.3571 22.9564C36.4778 22.8267 36.712 22.4852 37.0605 21.9319L37.4763 22.2475C36.9532 23.1233 36.449 23.7599 35.975 24.154C35.501 24.5474 35.0087 24.743 34.4941 24.743C34.0404 24.743 33.6856 24.6175 33.4409 24.3616C33.1933 24.1056 33.072 23.7368 33.072 23.2607C33.072 23.0265 33.1989 22.4052 33.4493 21.3983L33.4745 21.2966L35.2044 14.5819C35.2199 14.5202 35.2415 14.4284 35.2696 14.3078C35.3797 13.866 35.4281 13.5813 35.4281 13.4586C35.4281 13.2896 35.3713 13.1669 35.2535 13.0849C35.1385 13.0057 34.959 12.9629 34.71 12.9629H34.5614V12.5323Z" fill="white"/>
<path d="M42.7211 17.8752C42.7211 17.6284 42.6692 17.4327 42.5612 17.2855C42.4532 17.1396 42.3137 17.0674 42.1391 17.0674C41.8909 17.0674 41.6524 17.188 41.4211 17.4334C41.1897 17.6816 40.9246 18.0911 40.621 18.6647C40.2662 19.3484 39.9878 20.0145 39.788 20.6716C39.5825 21.3342 39.4808 21.8945 39.4808 22.3594C39.4808 22.6419 39.5376 22.86 39.6498 23.0255C39.7627 23.1812 39.9177 23.2604 40.1063 23.2604C40.3861 23.2604 40.6715 23.0942 40.9674 22.7541C41.2626 22.4161 41.5417 21.9393 41.806 21.3258C42.0837 20.6421 42.3025 19.9753 42.4701 19.34C42.6362 18.6998 42.7211 18.2125 42.7211 17.8752ZM45.8652 16.3613L44.4748 21.4646V21.4829C44.263 22.269 44.1564 22.7261 44.1564 22.8573C44.1564 22.9786 44.1775 23.0753 44.2266 23.1511C44.2721 23.2275 44.3317 23.2604 44.4117 23.2604C44.6368 23.2604 44.9305 22.9898 45.2832 22.4463C45.3898 22.2914 45.4719 22.1687 45.528 22.0831L45.9319 22.4015C45.4782 23.198 45.0259 23.787 44.5645 24.1622C44.1031 24.5387 43.6046 24.7245 43.0738 24.7245C42.6313 24.7245 42.2933 24.6264 42.0655 24.4321C41.8306 24.2309 41.7163 23.9448 41.7163 23.5627C41.7163 23.4491 41.7246 23.3025 41.7492 23.1307C41.7695 22.9561 41.806 22.7303 41.8544 22.4548C41.4344 23.2226 40.9765 23.7941 40.4822 24.1629C39.9899 24.5387 39.4395 24.7245 38.8329 24.7245C38.2061 24.7245 37.7131 24.5296 37.3506 24.1383C36.9867 23.7429 36.8051 23.2064 36.8051 22.5235C36.8051 21.7374 36.9769 20.91 37.3296 20.0349C37.6774 19.171 38.1451 18.3976 38.7348 17.7336C39.1997 17.2 39.6807 16.7898 40.1813 16.5023C40.6855 16.2148 41.1672 16.0731 41.6307 16.0731C42.0739 16.0731 42.4175 16.1811 42.6734 16.395C42.9286 16.6124 43.0962 16.9426 43.1769 17.3823L43.4328 16.3613L45.8652 16.3613Z" fill="white"/>
<path d="M45.0549 17.0671V16.5959C45.7323 16.5202 46.418 16.4263 47.1171 16.3211C47.8106 16.2152 48.1886 16.164 48.2412 16.164C48.5202 16.164 48.8856 17.3918 49.328 19.8516C49.5075 20.8305 49.6548 21.6193 49.7705 22.2097C50.2979 21.1404 50.6584 20.36 50.8529 19.872C51.0474 19.3867 51.1429 19.0256 51.1429 18.7949C51.1429 18.6161 50.9799 18.3987 50.6559 18.1512C50.3329 17.9009 50.1674 17.6134 50.1674 17.2957C50.1674 16.9276 50.2794 16.631 50.5079 16.4059C50.7319 16.1843 51.0314 16.0729 51.4049 16.0729C51.7744 16.0729 52.0664 16.1843 52.2749 16.4059C52.4804 16.631 52.5874 16.9458 52.5874 17.3462C52.5874 17.8497 52.3454 18.661 51.8664 19.7766C51.3859 20.8901 50.7299 22.1438 49.8988 23.5462C48.9585 25.145 48.1002 26.3055 47.3303 27.0403C46.5597 27.7745 45.8178 28.1398 45.1047 28.1398C44.6307 28.1398 44.2597 28.0346 43.9884 27.8236C43.7184 27.6111 43.5824 27.3208 43.5824 26.9506C43.5824 26.614 43.6981 26.3412 43.9344 26.1196C44.1679 25.9002 44.4638 25.7915 44.8242 25.7915C45.1061 25.7915 45.409 25.9044 45.7323 26.1267C46.0541 26.3524 46.2736 26.459 46.3802 26.459C46.5744 26.459 46.7932 26.2963 47.0407 25.9717C47.2952 25.6428 47.4222 25.3343 47.4222 25.0349C47.4222 24.8168 47.4018 24.5384 47.3633 24.2047C47.3254 23.8674 47.2644 23.4558 47.1859 22.967C47.0218 21.9187 46.8556 20.9616 46.6901 20.1026C46.5204 19.2451 46.3697 18.5677 46.2343 18.0727C46.1151 17.6477 45.9952 17.3715 45.8739 17.241C45.7526 17.112 45.5563 17.0482 45.2758 17.0482H45.254C45.1727 17.0594 45.1103 17.0671 45.0549 17.0671Z" fill="white"/>
<path d="M55.8986 22.4172C55.3751 23.1556 54.8601 23.7222 54.3591 24.1134C53.8626 24.5089 53.4091 24.7053 52.9966 24.7053C52.6641 24.7053 52.4046 24.5952 52.2131 24.3827C52.0221 24.1653 51.9246 23.8743 51.9246 23.5097C51.9246 23.3814 51.9376 23.239 51.9631 23.0792C51.9861 22.9179 52.0231 22.7391 52.0731 22.5505L53.5681 16.7053H51.9936L52.1406 16.2025C52.8171 16.0546 53.4151 15.732 53.9376 15.2328C54.4571 14.7314 54.9291 14.0393 55.3436 13.153H55.8806L55.1781 16.0875H56.6161L56.4711 16.7053H54.9886L53.5531 22.3513C53.5201 22.4797 53.4951 22.5918 53.4776 22.6977C53.4656 22.8008 53.4546 22.8955 53.4546 22.9754C53.4546 23.1633 53.4951 23.305 53.5801 23.4059C53.6576 23.5062 53.7761 23.5546 53.9201 23.5546C54.1081 23.5546 54.3286 23.4452 54.5906 23.2159C54.8511 22.9915 55.1816 22.6227 55.5776 22.1143L55.8986 22.4172Z" fill="white"/>
<path d="M57.367 20.4928C58.524 20.4374 59.4995 20.1204 60.281 19.5489C61.0695 18.9684 61.458 18.3169 61.458 17.5779C61.458 17.3304 61.3955 17.1445 61.27 17.0197C61.1485 16.8998 60.96 16.8381 60.707 16.8381C60.0055 16.8381 59.354 17.1558 58.758 17.8037C58.1615 18.4558 57.6995 19.3505 57.367 20.4928ZM57.23 21.1119C57.1765 21.3216 57.142 21.5242 57.1175 21.7171C57.0885 21.9043 57.081 22.0803 57.081 22.2394C57.081 22.7289 57.1995 23.1026 57.4435 23.36C57.683 23.618 58.0375 23.8087 58.4985 23.8087C58.953 23.8087 59.4755 23.5928 60.0505 23.2807C60.6325 22.9708 61.2865 22.501 62.0075 21.8734L62.3885 22.4498C61.528 23.2253 60.718 23.7989 59.9565 24.1649C59.198 24.5387 58.4545 24.721 57.7245 24.721C57.01 24.721 56.449 24.5043 56.0555 24.0787C55.659 23.6475 55.462 23.0437 55.462 22.2563C55.462 21.5039 55.616 20.7382 55.9245 19.9627C56.233 19.1899 56.6555 18.4964 57.188 17.8962C57.705 17.3205 58.2735 16.8837 58.886 16.578C59.507 16.2757 60.14 16.1194 60.7925 16.1194C61.3935 16.1194 61.864 16.2603 62.2115 16.5394C62.5585 16.8164 62.734 17.1985 62.734 17.6852C62.734 18.561 62.2235 19.3218 61.2125 19.9613C60.199 20.5993 58.8715 20.9801 57.23 21.1119Z" fill="white"/>
<path d="M68.535 21.2321L68.5125 22.3386C67.9675 23.1358 67.377 23.7304 66.734 24.1273C66.091 24.5207 65.3895 24.7163 64.629 24.7163C63.797 24.7163 63.1165 24.438 62.5945 23.8742C62.074 23.3195 61.8145 22.5805 61.8145 21.6626C61.8145 20.9881 61.962 20.3002 62.2565 19.5983C62.5475 18.8936 62.957 18.2681 63.479 17.7121C63.9565 17.2093 64.4925 16.8166 65.0865 16.5474C65.6745 16.2732 66.2765 16.1322 66.896 16.1322C67.546 16.1322 68.0625 16.2837 68.447 16.5803C68.8315 16.8776 69.0245 17.2724 69.0245 17.7702C69.0245 18.0655 68.926 18.3214 68.724 18.5318C68.525 18.7442 68.2895 18.848 68.014 18.848C67.789 18.848 67.607 18.7772 67.4675 18.6278C67.329 18.4806 67.2595 18.2898 67.2595 18.0514C67.2595 17.8852 67.3135 17.6952 67.4275 17.4736C67.538 17.2556 67.591 17.1195 67.591 17.0648C67.591 16.9625 67.537 16.8804 67.4215 16.8166C67.3065 16.7528 67.155 16.7213 66.958 16.7213C66.5575 16.7213 66.152 16.8433 65.7345 17.0957C65.32 17.3523 64.9575 17.6973 64.646 18.1356C64.2665 18.6671 63.9735 19.233 63.768 19.8304C63.5655 20.4264 63.465 21.0056 63.465 21.5792C63.465 22.2271 63.628 22.7453 63.957 23.1232C64.289 23.5019 64.735 23.7585 65.2995 23.7585C65.745 23.7585 66.1825 23.5502 66.612 23.2726C67.045 22.99 67.761 22.4276 68.535 21.2321Z" fill="white"/>
<path d="M67.554 24.726L70.4985 14.0587C70.516 13.9935 70.5265 13.9276 70.534 13.856C70.5455 13.7908 70.5485 13.7228 70.5485 13.6681C70.5485 13.4781 70.5 13.3477 70.408 13.274C70.315 13.2088 70.0475 13.1731 69.6115 13.1731H68.941L69.045 12.6864C69.5855 12.6647 70.0905 12.6009 70.561 12.509C71.0265 12.4109 71.4725 12.2847 71.8855 12.1199H72.4175L70.38 19.4881C71.4235 18.4244 72.3845 17.6012 73.259 17.0079C74.1315 16.4252 74.8285 16.1293 75.348 16.1293C75.622 16.1293 75.8205 16.1946 75.9525 16.325C76.0805 16.4596 76.15 16.6636 76.15 16.9378C76.15 17.0234 76.136 17.125 76.111 17.2477C76.0875 17.3747 76.056 17.5135 76.0185 17.6629L74.531 22.682C74.505 22.7781 74.4805 22.8868 74.4615 23.0032C74.4415 23.1154 74.431 23.2318 74.431 23.344C74.431 23.4085 74.4615 23.4646 74.515 23.5165C74.568 23.5656 74.6335 23.6532 74.7035 23.6532C74.8485 23.6532 75.053 23.4933 75.3075 23.2956C75.564 23.0978 75.833 22.8272 76.118 22.485L76.421 22.7451C75.909 23.3804 75.4155 23.8699 74.942 24.2029C74.4665 24.5395 74.0275 24.7092 73.628 24.7092C73.3665 24.7092 73.16 24.6447 73.0095 24.5185C72.856 24.3894 72.783 24.2183 72.783 23.9947C72.783 23.9161 72.7895 23.8313 72.807 23.7408C72.8225 23.6511 72.8515 23.5536 72.8875 23.4463L74.4155 18.2553C74.4435 18.1418 74.4615 18.0548 74.4715 17.9959C74.4805 17.9391 74.4835 17.8823 74.4835 17.8346C74.4835 17.7021 74.4475 17.6011 74.3705 17.5296C74.2975 17.4637 74.191 17.4293 74.0505 17.4293C73.8335 17.4293 73.512 17.5647 73.0895 17.8395C72.663 18.1137 72.177 18.5057 71.6175 19.0126C71.1175 19.4614 70.748 19.8436 70.516 20.1598C70.284 20.4767 70.114 20.8049 70.009 21.1457L68.996 24.726C68.88 24.7085 68.4705 24.6952 68.3515 24.6874C68.233 24.6791 68.406 24.6791 68.2835 24.6791C68.1595 24.6791 68.035 24.6791 67.915 24.6874C67.799 24.6952 67.678 24.7085 67.554 24.726Z" fill="white"/>
<path d="M50.067 27.6604V27.7992C50.066 27.8707 50.074 27.9359 50.0935 27.9983C50.1355 28.1666 50.2725 28.2508 50.506 28.2508C50.5925 28.2508 50.6715 28.2389 50.742 28.2143C50.9015 28.1659 50.982 28.046 50.987 27.8588C50.9855 27.7305 50.9335 27.6302 50.83 27.5601C50.7555 27.5117 50.668 27.4647 50.566 27.4164L50.2585 27.2768C50.1365 27.2228 50.0345 27.1674 49.954 27.1099C49.7843 26.9914 49.6987 26.8225 49.6987 26.6009C49.7009 26.3583 49.7969 26.1872 49.9841 26.0855C50.1245 26.0091 50.315 25.9698 50.56 25.9677C50.857 25.9677 51.0725 26.0238 51.2035 26.1367C51.308 26.2271 51.3605 26.4052 51.3605 26.6703V26.7201H50.9375V26.6605L50.9295 26.5314C50.9035 26.3379 50.778 26.2433 50.5535 26.2482C50.269 26.2482 50.125 26.3625 50.1215 26.5903C50.1215 26.7355 50.2115 26.854 50.389 26.9452C50.5005 27.0034 50.6245 27.0602 50.763 27.1191C50.9035 27.1766 51.017 27.232 51.104 27.2845C51.308 27.4093 51.4105 27.5959 51.4105 27.8476C51.406 28.3013 51.1055 28.5299 50.5065 28.5299C50.25 28.5334 50.052 28.4899 49.9141 28.4029C49.7521 28.2992 49.6645 28.1533 49.6504 27.9598L49.6449 27.7599V27.6604H50.067Z" fill="white"/>
<path d="M51.6931 26.8075C51.6946 26.6027 51.7141 26.4534 51.7501 26.358C51.8076 26.2079 51.9316 26.0999 52.1236 26.0375C52.2626 25.9906 52.4116 25.9674 52.5726 25.9674C52.7301 25.9674 52.8796 25.9906 53.0206 26.0375C53.2096 26.1 53.3331 26.2079 53.3916 26.358C53.4271 26.4513 53.4476 26.6027 53.4501 26.8075V27.6426C53.4501 27.7927 53.4421 27.9238 53.4251 28.0325C53.3781 28.3613 53.0976 28.5282 52.5841 28.5296C52.2121 28.5296 51.9626 28.4532 51.8356 28.2982C51.7386 28.1825 51.6911 27.963 51.6931 27.6426V26.8075ZM52.1166 27.6398C52.1181 27.8494 52.1336 27.9869 52.1621 28.0479C52.1911 28.1096 52.2461 28.1601 52.3251 28.1965C52.4056 28.2323 52.4876 28.2505 52.5726 28.2505C52.6486 28.2505 52.7231 28.2364 52.7931 28.2049C52.9281 28.1517 53.0016 28.0563 53.0151 27.9196C53.0216 27.8417 53.0256 27.7492 53.0266 27.6398V26.8054C53.0296 26.6244 53.0086 26.4968 52.9666 26.4239C52.9001 26.3061 52.7671 26.2465 52.5726 26.2479C52.4961 26.2479 52.4251 26.259 52.3586 26.2851C52.2206 26.3321 52.1431 26.4295 52.1271 26.5747C52.1181 26.6406 52.1151 26.7177 52.1166 26.8054V27.6398Z" fill="white"/>
<path d="M53.833 26.0033H54.255V27.6658L54.2595 27.8853C54.274 28.1272 54.415 28.2492 54.6815 28.2506C54.9485 28.2506 55.095 28.137 55.1205 27.9084C55.13 27.8285 55.135 27.7478 55.1365 27.6658V26.0033H55.5595V27.6924C55.558 27.8306 55.553 27.9372 55.5445 28.0136C55.5315 28.1293 55.485 28.2261 55.4035 28.3039C55.2495 28.4546 55.013 28.5283 54.695 28.5297C54.3645 28.5283 54.126 28.4554 53.981 28.3081C53.8995 28.224 53.854 28.1265 53.8435 28.0136C53.8365 27.9463 53.833 27.8404 53.833 27.6924V26.0033Z" fill="white"/>
<path d="M56.6615 26.0033H56.914C57.0115 26.0033 57.101 26.0124 57.1825 26.0257C57.4945 26.0755 57.6525 26.2739 57.657 26.6238C57.657 26.8075 57.616 26.945 57.534 27.0424C57.454 27.1329 57.2975 27.1939 57.068 27.2268V27.2254C57.211 27.2396 57.3145 27.2612 57.3775 27.2907C57.468 27.3355 57.5245 27.4085 57.547 27.5073C57.562 27.5725 57.57 27.6504 57.5745 27.738L57.5925 28.0311C57.5995 28.1426 57.6115 28.2303 57.628 28.2941C57.637 28.3397 57.6575 28.4063 57.69 28.4939H57.25L57.207 28.3347C57.195 28.2899 57.1875 28.2324 57.184 28.163L57.167 27.9393L57.153 27.7058C57.1335 27.5277 57.047 27.4197 56.895 27.3846C56.831 27.3713 56.7545 27.3643 56.674 27.3643H56.3815V28.4939H55.9575V26.0033H56.6615ZM56.3815 26.2837V27.0831H56.684C56.7745 27.0831 56.85 27.0775 56.918 27.0676C57.047 27.0473 57.137 26.9954 57.1865 26.9112C57.219 26.8558 57.2345 26.764 57.2345 26.635C57.2345 26.4968 57.1875 26.4001 57.0925 26.3468C57.024 26.3061 56.897 26.2851 56.708 26.2837L56.3815 26.2837Z" fill="white"/>
<path d="M59.248 26.6602L59.246 26.5445C59.2355 26.3454 59.1175 26.2465 58.8905 26.2479C58.6885 26.2486 58.5575 26.3012 58.4965 26.405C58.463 26.4548 58.4445 26.5067 58.441 26.5578L58.4375 26.7626V27.7457C58.439 27.9238 58.4565 28.0388 58.4885 28.0893C58.559 28.1966 58.6795 28.2505 58.851 28.2505C59.075 28.2491 59.2025 28.1432 59.2305 27.9322L59.248 27.7716V27.6861H59.671V27.773L59.6675 27.9287C59.653 28.1145 59.591 28.2568 59.476 28.3564C59.4065 28.4174 59.3235 28.4595 59.2295 28.484C59.1175 28.5149 58.996 28.5296 58.8635 28.5296C58.75 28.5318 58.6435 28.5213 58.539 28.5002C58.1905 28.4349 58.016 28.2028 58.014 27.8018V26.8096C58.013 26.7009 58.019 26.6013 58.034 26.508C58.0495 26.3945 58.0875 26.2991 58.148 26.2248C58.2825 26.0565 58.5245 25.9702 58.873 25.9674C59.36 25.9702 59.623 26.1252 59.66 26.4309C59.667 26.4898 59.671 26.555 59.671 26.6273V26.724H59.248V26.6602Z" fill="white"/>
<path d="M60.04 26.0033H61.4235V26.2837H60.4625V27.0733H61.3635V27.3538H60.4625V28.2127H61.45V28.4939H60.04V26.0033Z" fill="white"/>
<path d="M62.5464 26.8075C62.5474 26.6027 62.5654 26.4534 62.6024 26.358C62.6589 26.2079 62.7834 26.0999 62.9759 26.0375C63.1144 25.9906 63.2639 25.9674 63.4244 25.9674C63.5824 25.9674 63.7324 25.9906 63.8739 26.0375C64.0619 26.1 64.1859 26.2079 64.2449 26.358C64.2804 26.4513 64.3004 26.6027 64.3029 26.8075V27.6426C64.3029 27.7927 64.2949 27.9238 64.2794 28.0325C64.2294 28.3613 63.9509 28.5282 63.4364 28.5296C63.0634 28.5296 62.8139 28.4532 62.6884 28.2982C62.5914 28.1825 62.5444 27.963 62.5464 27.6426V26.8075ZM62.9689 27.6398C62.9709 27.8494 62.9859 27.9869 63.0154 28.0479C63.0444 28.1096 63.0984 28.1601 63.1774 28.1965C63.2574 28.2323 63.3404 28.2505 63.4244 28.2505C63.5024 28.2505 63.5754 28.2364 63.6469 28.2049C63.7794 28.1517 63.8529 28.0563 63.8664 27.9196C63.8739 27.8417 63.8779 27.7492 63.8789 27.6398V26.8054C63.8819 26.6244 63.8614 26.4968 63.8194 26.4239C63.7519 26.3061 63.6194 26.2465 63.4244 26.2479C63.3479 26.2479 63.2779 26.259 63.2114 26.2851C63.0734 26.3321 62.9959 26.4295 62.9809 26.5747C62.9709 26.6406 62.9674 26.7177 62.9689 26.8054V27.6398Z" fill="white"/>
<path d="M66.0365 26.0033V26.2837H65.112V27.0712H66.0015V27.351H65.112V28.4939H64.6885V26.0033H66.0365Z" fill="white"/>
<path d="M67.4435 27.6604V27.7992C67.4415 27.8707 67.449 27.9359 67.469 27.9983C67.511 28.1666 67.649 28.2508 67.8805 28.2508C67.9675 28.2508 68.0465 28.2389 68.118 28.2143C68.276 28.1659 68.357 28.046 68.363 27.8588C68.3615 27.7305 68.31 27.6302 68.206 27.5601C68.1315 27.5117 68.043 27.4647 67.9415 27.4164L67.6335 27.2768C67.5125 27.2228 67.4105 27.1674 67.328 27.1099C67.1605 26.9914 67.0745 26.8225 67.0745 26.6009C67.0785 26.3583 67.172 26.1872 67.361 26.0855C67.4995 26.0091 67.692 25.9698 67.935 25.9677C68.2325 25.9677 68.447 26.0238 68.58 26.1367C68.6845 26.2271 68.736 26.4052 68.736 26.6703V26.7201H68.314V26.6605L68.3055 26.5314C68.279 26.3379 68.154 26.2433 67.929 26.2482C67.643 26.2482 67.501 26.3625 67.497 26.5903C67.497 26.7355 67.5875 26.854 67.765 26.9452C67.875 27.0034 68.0005 27.0602 68.139 27.1191C68.279 27.1766 68.393 27.232 68.4805 27.2845C68.6835 27.4093 68.7865 27.5959 68.7865 27.8476C68.7815 28.3013 68.4805 28.5299 67.8825 28.5299C67.6255 28.5334 67.4275 28.4899 67.29 28.4029C67.1275 28.2992 67.04 28.1533 67.027 27.9598L67.02 27.7599V27.6604H67.4435Z" fill="white"/>
<path d="M69.0845 26.0033H69.5065V27.6658L69.51 27.8853C69.525 28.1272 69.667 28.2492 69.932 28.2506C70.1995 28.2506 70.346 28.137 70.372 27.9084C70.38 27.8285 70.385 27.7478 70.3865 27.6658V26.0033H70.81V27.6924C70.8085 27.8306 70.8035 27.9372 70.794 28.0136C70.783 28.1293 70.736 28.2261 70.655 28.3039C70.4995 28.4546 70.2625 28.5283 69.9455 28.5297C69.615 28.5283 69.376 28.4554 69.2305 28.3081C69.1505 28.224 69.105 28.1265 69.094 28.0136C69.088 27.9463 69.0845 27.8404 69.0845 27.6924V26.0033Z" fill="white"/>
<path d="M72.4575 26.6602L72.455 26.5445C72.4455 26.3454 72.3255 26.2465 72.098 26.2479C71.897 26.2486 71.7665 26.3012 71.705 26.405C71.672 26.4548 71.6535 26.5067 71.6495 26.5578L71.646 26.7626V27.7457C71.648 27.9238 71.6645 28.0388 71.699 28.0893C71.767 28.1966 71.8885 28.2505 72.0595 28.2505C72.284 28.2491 72.411 28.1432 72.4405 27.9322L72.457 27.7716V27.6861H72.88V27.773L72.876 27.9287C72.864 28.1145 72.7985 28.2568 72.6845 28.3564C72.614 28.4174 72.532 28.4595 72.4385 28.484C72.3255 28.5149 72.204 28.5296 72.073 28.5296C71.9585 28.5318 71.8505 28.5213 71.7485 28.5002C71.4 28.4349 71.225 28.2028 71.2245 27.8018V26.8096C71.2225 26.7009 71.2285 26.6013 71.2435 26.508C71.2575 26.3945 71.2945 26.2991 71.3565 26.2248C71.4915 26.0565 71.733 25.9702 72.082 25.9674C72.57 25.9702 72.833 26.1252 72.8695 26.4309C72.876 26.4898 72.88 26.555 72.88 26.6273V26.724H72.457L72.4575 26.6602Z" fill="white"/>
<path d="M74.499 26.6602L74.497 26.5445C74.4865 26.3454 74.3695 26.2465 74.1405 26.2479C73.9385 26.2486 73.8085 26.3012 73.7465 26.405C73.713 26.4548 73.6945 26.5067 73.6925 26.5578L73.6875 26.7626V27.7457C73.689 27.9238 73.7075 28.0388 73.7395 28.0893C73.8095 28.1966 73.9305 28.2505 74.1015 28.2505C74.3265 28.2491 74.4525 28.1432 74.4815 27.9322L74.499 27.7716V27.6861H74.9215V27.773L74.918 27.9287C74.904 28.1145 74.8405 28.2568 74.7265 28.3564C74.6575 28.4174 74.5745 28.4595 74.48 28.484C74.369 28.5149 74.2455 28.5296 74.114 28.5296C74.001 28.5318 73.8925 28.5213 73.79 28.5002C73.4415 28.4349 73.267 28.2028 73.2645 27.8018V26.8096C73.2625 26.7009 73.2705 26.6013 73.285 26.508C73.2995 26.3945 73.336 26.2991 73.397 26.2248C73.5325 26.0565 73.775 25.9702 74.1235 25.9674C74.6115 25.9702 74.874 26.1252 74.911 26.4309C74.918 26.4898 74.9215 26.555 74.9215 26.6273V26.724H74.499V26.6602Z" fill="white"/>
<path d="M75.2905 26.0033H76.673V26.2837H75.713V27.0733H76.6135V27.3538H75.713V28.2127H76.7005V28.4939H75.2905V26.0033Z" fill="white"/>
<path d="M77.3215 27.6604V27.7992C77.32 27.8707 77.3285 27.9359 77.348 27.9983C77.3905 28.1666 77.527 28.2508 77.759 28.2508C77.846 28.2508 77.926 28.2389 77.997 28.2143C78.1545 28.1659 78.2365 28.046 78.243 27.8588C78.24 27.7305 78.188 27.6302 78.0845 27.5601C78.01 27.5117 77.922 27.4647 77.82 27.4164L77.513 27.2768C77.391 27.2228 77.2895 27.1674 77.208 27.1099C77.0395 26.9914 76.954 26.8225 76.954 26.6009C76.957 26.3583 77.051 26.1872 77.2395 26.0855C77.3785 26.0091 77.57 25.9698 77.8145 25.9677C78.112 25.9677 78.3265 26.0238 78.4595 26.1367C78.5635 26.2271 78.6155 26.4052 78.6155 26.6703V26.7201H78.1925V26.6605L78.184 26.5314C78.158 26.3379 78.032 26.2433 77.8075 26.2482C77.5235 26.2482 77.379 26.3625 77.3765 26.5903C77.3765 26.7355 77.466 26.854 77.643 26.9452C77.7535 27.0034 77.879 27.0602 78.0185 27.1191C78.158 27.1766 78.271 27.232 78.3595 27.2845C78.562 27.4093 78.666 27.5959 78.666 27.8476C78.661 28.3013 78.361 28.5299 77.7615 28.5299C77.503 28.5334 77.307 28.4899 77.1695 28.4029C77.006 28.2992 76.9185 28.1533 76.9065 27.9598L76.899 27.7599V27.6604H77.3215Z" fill="white"/>
<path d="M79.282 27.6604V27.7992C79.28 27.8707 79.2885 27.9359 79.3075 27.9983C79.3495 28.1666 79.4875 28.2508 79.719 28.2508C79.8065 28.2508 79.885 28.2389 79.9555 28.2143C80.1145 28.1659 80.196 28.046 80.202 27.8588C80.2 27.7305 80.1475 27.6302 80.0435 27.5601C79.97 27.5117 79.881 27.4647 79.7795 27.4164L79.473 27.2768C79.351 27.2228 79.249 27.1674 79.168 27.1099C78.998 26.9914 78.9135 26.8225 78.9135 26.6009C78.916 26.3583 79.0115 26.1872 79.1985 26.0855C79.338 26.0091 79.529 25.9698 79.7745 25.9677C80.0725 25.9677 80.2855 26.0238 80.418 26.1367C80.5225 26.2271 80.576 26.4052 80.576 26.6703V26.7201H80.153V26.6605L80.1435 26.5314C80.118 26.3379 79.992 26.2433 79.7665 26.2482C79.4835 26.2482 79.339 26.3625 79.336 26.5903C79.336 26.7355 79.4245 26.854 79.604 26.9452C79.7135 27.0034 79.839 27.0602 79.978 27.1191C80.118 27.1766 80.231 27.232 80.318 27.2845C80.522 27.4093 80.625 27.5959 80.625 27.8476C80.62 28.3013 80.3195 28.5299 79.721 28.5299C79.4645 28.5334 79.2675 28.4899 79.1295 28.4029C78.9655 28.2992 78.8785 28.1533 78.8655 27.9598L78.858 27.7599V27.6604H79.282Z" fill="white"/>
</svg>
