<svg width="80" height="40" viewBox="0 0 80 40" fill="none" xmlns="http://www.w3.org/2000/svg">
<g clip-path="url(#clip0_10_1646)">
<path d="M73.9795 25.9396H3.16004C1.41208 25.9396 0.524445 25.0479 0.16939 24.019C-0.0491047 23.3879 -0.0491047 22.702 0.128422 22.0572L1.43939 17.3104C1.8081 16.0345 2.90057 13.9081 5.57715 13.9081C5.57715 13.9081 58.9855 13.9081 76.779 13.9081C79.237 13.9081 80.316 15.6092 79.92 17.5025C79.647 18.8744 78.527 22.5099 78.527 22.5099C78.09 24.5403 76.397 25.9396 73.9795 25.9396Z" fill="#007CBA"/>
<path d="M63.8879 30.9471C59.1764 30.9471 49.754 30.9471 45.0427 30.9471C42.2022 30.9471 39.4711 28.3268 39.8534 25.5006C40.2631 22.4825 41.9564 17.7494 42.8987 14.8547C44.0185 11.3975 47.4052 8.8595 50.2319 8.8595H69.7599C73.8704 8.95555 75.6044 12.7694 74.7714 15.4583C73.8704 18.3805 72.4229 22.9901 71.5354 25.6653C70.7019 28.1621 66.7144 30.9471 63.8879 30.9471Z" fill="white"/>
<path d="M70.074 10.5195C70.074 10.5195 66.9605 10.5332 65.827 10.5195C62.741 10.4784 60.16 12.6048 59.395 15.0468L57.224 21.9475C54.807 27.9427 57.893 28.9579 60.0235 28.9442C61.307 28.9442 62.577 28.9442 63.574 28.9442C66.196 28.9442 69.077 27.0372 69.842 24.5952L72.7915 15.1565C73.5835 12.9615 72.2865 10.5195 70.074 10.5195ZM65.308 24.4443H61.184L64.052 15.28H68.176L65.308 24.4443Z" fill="#DD2027"/>
<path d="M49.481 22.1119H51.7615L51.024 24.4304H46.5722L47.1868 22.4823L47.296 22.1394L48.7572 17.5847L49.481 15.2936H58.002L58.043 15.1564L59.286 10.7937C59.286 10.7937 52.212 10.8075 51.0785 10.7937C47.9925 10.7526 45.4661 13.1123 44.9199 15.0466L42.7486 21.9473C40.0311 28.3678 43.6089 28.944 45.5481 28.944C46.8317 28.944 48.1017 28.944 49.0986 28.944C52.3075 28.944 54.602 26.8999 55.3665 24.4579L57.3465 17.5709H50.9285L49.481 22.1119Z" fill="#DD2027"/>
<path d="M36.1255 23.2095L37.0677 19.9032L35.3334 19.8895L34.3775 23.1958L32.452 23.2095L33.5035 19.766C33.8176 18.8743 34.7462 18.01 35.9889 18.0237C36.4396 18.0237 37.7778 18.0237 37.7778 18.0237C38.7747 18.0237 39.28 18.8606 39.0478 19.8346L38.01 23.1958L36.1255 23.2095Z" fill="white"/>
<path d="M33.8176 18.2571H31.2913L32.0697 16.062H34.555L33.8176 18.2571Z" fill="white"/>
<path d="M27.9592 19.5465H26.2795L27.4129 15.8835H25.4874L24.313 19.6699C24.0945 20.644 24.5862 21.4809 25.583 21.4809C25.583 21.4809 25.583 21.4809 25.5967 21.4809L25.0641 23.2095H26.9486L27.4949 21.4809C28.6829 21.4397 29.5706 20.6166 29.871 19.7523L31.0864 15.8835H29.2019L27.9592 19.5465Z" fill="white"/>
<path d="M22.9338 15.8836C22.9338 15.8836 21.5956 15.8836 21.1449 15.8836C19.9022 15.8699 18.96 16.7204 18.6595 17.6259L16.8433 23.2232H18.7551L19.3423 21.4123L21.0357 21.4261L20.5304 23.2232H22.3739L24.2175 17.6945C24.436 16.7204 23.9444 15.8836 22.9338 15.8836ZM21.6365 19.5466H19.8339L20.4485 17.7356H22.2237L21.6365 19.5466Z" fill="white"/>
<path d="M12.8421 15.8835L10.5205 23.2095H16.0922L17.2802 19.5465H15.4094L14.8358 21.3574H13.1015L14.7948 15.8835H12.8421Z" fill="white"/>
<path d="M10.2474 15.8835H6.64228L4.29346 23.2232H6.20528L6.79248 21.4123H8.47218C8.47218 21.4123 10.2201 21.4946 10.9166 19.6974C11.1351 19.1349 11.5584 17.7356 11.5584 17.7356C11.8862 16.6243 11.258 15.8835 10.2474 15.8835ZM9.08668 19.5465H7.29778L7.91228 17.7356H9.68753L9.08668 19.5465Z" fill="white"/>
<path d="M77.013 11.5561C77.1705 11.5033 77.2765 11.3544 77.2765 11.1853C77.2765 11.0555 77.2225 10.9392 77.129 10.8662C77.0105 10.7688 76.895 10.7688 76.703 10.7688H76.2765V12.1655H76.435V11.6019H76.788L77.093 12.1655H77.27L76.9435 11.5795L77.013 11.5561ZM76.8015 11.4672H76.435V10.879H76.63C76.751 10.8788 76.8545 10.881 76.947 10.9207C77.046 10.9705 77.1055 11.0666 77.1055 11.1731C77.1055 11.335 76.9745 11.4667 76.8135 11.4671L76.8015 11.4672Z" fill="white"/>
<path d="M76.7275 10.0704C75.9545 10.0704 75.325 10.7025 75.325 11.4794C75.325 12.2563 75.9545 12.8884 76.7275 12.8884C77.501 12.8884 78.13 12.2563 78.13 11.4794C78.13 10.7025 77.501 10.0704 76.7275 10.0704ZM76.7275 12.7169C76.0485 12.7169 75.496 12.1618 75.496 11.4794C75.496 10.797 76.0485 10.2419 76.7275 10.2419C77.407 10.2419 77.9595 10.797 77.9595 11.4794C77.9595 12.1618 77.407 12.7169 76.7275 12.7169Z" fill="white"/>
</g>
<defs>
<clipPath id="clip0_10_1646">
<rect width="80" height="40" fill="white"/>
</clipPath>
</defs>
</svg>
