<svg width="80" height="40" viewBox="0 0 80 40" fill="none" xmlns="http://www.w3.org/2000/svg">
<g clip-path="url(#clip0_10_1580)">
<path d="M63.195 37.131C60.8105 37.131 58.4795 36.4213 56.497 35.0918C54.5145 33.7623 52.9695 31.8726 52.057 29.6617C51.1445 27.4508 50.906 25.018 51.371 22.671C51.8365 20.324 52.985 18.1682 54.671 16.4761C56.357 14.7841 58.5055 13.632 60.844 13.1653C63.183 12.6986 65.607 12.9385 67.81 13.8545C70.0125 14.7704 71.8955 16.3215 73.22 18.3113C74.5445 20.3012 75.251 22.6406 75.251 25.0336C75.247 28.2411 73.9755 31.3161 71.7155 33.584C69.4555 35.8519 66.391 37.1275 63.195 37.131ZM63.195 14.4229C61.102 14.4229 59.056 15.0459 57.316 16.2131C55.5755 17.3802 54.2195 19.0391 53.419 20.9799C52.6185 22.9207 52.4095 25.0562 52.818 27.1163C53.227 29.1763 54.2355 31.0684 55.716 32.5531C57.197 34.0379 59.083 35.0486 61.136 35.4574C63.189 35.8662 65.3165 35.6548 67.25 34.8498C69.183 34.0449 70.835 32.6826 71.9965 30.9353C73.1585 29.188 73.7775 27.1341 73.776 25.0336C73.772 22.2187 72.656 19.5201 70.6725 17.5298C68.689 15.5395 66 14.4199 63.195 14.4165V14.4229Z" fill="#F59238"/>
<path d="M60.1195 10.2621C60.1195 10.2681 60.117 10.2738 60.113 10.2781C60.1085 10.2823 60.103 10.2847 60.097 10.2847C60.091 10.2847 60.0855 10.2823 60.081 10.2781C60.077 10.2738 60.0745 10.2681 60.0745 10.2621C59.7425 8.81744 56.741 2.7542 56.4345 2.87067C56.0815 2.99686 56.7295 9.22349 57.202 11.0596C57.202 11.0887 57.173 11.0968 57.1585 11.0742C55.063 7.72064 52.645 7.78694 52.1855 7.85329C52.1565 7.86134 52.1565 7.89859 52.1775 7.90504C55.071 9.40144 56.4655 13.6738 56.5975 14.0961C56.6015 14.1035 56.6085 14.1092 56.6165 14.1119C56.6245 14.1146 56.633 14.1141 56.641 14.1106C58.292 13.1093 60.15 12.5006 62.0715 12.3311C62.086 12.3311 62.1005 12.3166 62.094 12.302C62.0055 11.9251 61.172 8.00049 62.773 5.27624C62.7875 5.25359 62.765 5.22284 62.744 5.23094C62.3245 5.37494 60.208 6.64159 60.1195 10.2621ZM62.61 17.0824C63.1145 15.7397 65.0825 15.2398 67.004 15.9662C68.9255 16.6925 70.067 18.3717 69.5705 19.7144C69.074 21.0571 67.0975 21.557 65.178 20.8307C63.258 20.1043 62.107 18.4251 62.61 17.0824Z" fill="#F59238"/>
<path d="M5.25845 28.2383V22.1216H6.90425C7.4862 22.1216 8.03265 22.2624 8.3212 22.484C8.81445 22.8626 8.9482 23.5129 8.9482 23.8914C8.9596 24.3155 8.8221 24.7301 8.55975 25.0627C8.39855 25.2697 7.9843 25.4622 7.7038 25.5739C8.0794 26.1207 9.2158 28.324 9.2158 28.324H7.8779C7.8779 28.324 6.61575 25.7615 6.49 25.7615H6.29175V28.2415L5.25845 28.2383ZM6.8156 23.1893H6.29175V24.5887H6.8156C7.0632 24.6063 7.30965 24.5415 7.5168 24.4043C7.6023 24.3512 7.6729 24.2772 7.722 24.1892C7.77105 24.1011 7.797 24.002 7.7973 23.9011C7.8 23.7994 7.7761 23.6986 7.72805 23.609C7.68 23.5193 7.6094 23.4438 7.52325 23.3899C7.3163 23.2456 7.0672 23.175 6.8156 23.1893ZM0.5 28.2383V22.1216H2.1458C2.72772 22.1216 3.27416 22.2624 3.56109 22.484C4.05596 22.8626 4.18814 23.5129 4.18814 23.8914C4.18814 24.8022 3.59817 25.438 3.03721 25.5868C2.54265 25.6918 2.03874 25.746 1.53326 25.7486V28.2286L0.5 28.2383ZM2.06359 23.1893H1.53971V24.5887H2.06359C2.31117 24.6063 2.55763 24.5415 2.76479 24.4043C2.84961 24.3489 2.91931 24.2731 2.96756 24.1838C3.0158 24.0946 3.04107 23.9946 3.04107 23.8931C3.04107 23.7915 3.0158 23.6915 2.96756 23.6023C2.91931 23.513 2.84961 23.4372 2.76479 23.3819C2.55861 23.2418 2.31209 23.1741 2.06359 23.1893ZM54.4085 28.3208V22.2041H56.1285C56.7105 22.2041 57.2485 22.3449 57.5435 22.5681C58.0385 22.9451 58.1705 23.597 58.1705 23.9739C58.1835 24.3969 58.048 24.811 57.787 25.1436C57.626 25.3506 57.2115 25.5431 56.931 25.6548C56.5635 25.7955 55.5965 25.7664 55.5965 25.7664V28.3272H54.415L54.4085 28.3208ZM56.046 23.2702H55.5965V24.6696H56.046C56.294 24.6881 56.5405 24.6232 56.7475 24.4851C56.834 24.4314 56.9055 24.3561 56.9545 24.2665C57.0035 24.177 57.029 24.0762 57.028 23.9739C57.0305 23.8723 57.007 23.7718 56.959 23.6821C56.9115 23.5925 56.841 23.5169 56.7555 23.4627C56.5485 23.318 56.2975 23.2499 56.046 23.2702ZM22.3306 22.9677L21.5247 23.7588C21.041 23.3074 20.2786 22.9159 19.6355 22.9159C19.3589 22.9167 19.0851 22.9716 18.8295 23.0777C18.5788 23.1773 18.3504 23.3257 18.1573 23.5145C17.9571 23.7151 17.8035 23.9576 17.7076 24.2247C17.5968 24.5282 17.5421 24.8495 17.5464 25.1727C17.5464 25.8532 17.7382 26.4011 18.1218 26.8163C18.4834 27.185 18.9678 27.407 19.4823 27.4398C19.9967 27.4727 20.5052 27.314 20.9105 26.9942C21.1168 26.8244 21.3683 26.6707 21.4779 26.1854L19.6564 26.1773L19.6419 25.1274H22.7917C22.7917 26.2598 22.5853 26.8228 22.0018 27.4893C21.4183 28.1558 20.6381 28.489 19.6339 28.489C19.1768 28.4938 18.7232 28.408 18.2992 28.2366C17.9026 28.0807 17.5414 27.8463 17.2369 27.5475C16.9381 27.2502 16.7023 26.8952 16.5438 26.5041C16.3722 26.0838 16.2867 25.6332 16.2922 25.1791C16.2823 24.5845 16.4327 23.9981 16.7275 23.4822C17.0118 22.9874 17.4284 22.5822 17.93 22.3125C18.4498 22.035 19.0306 21.8926 19.6194 21.8984C20.0804 21.8909 20.5387 21.971 20.9701 22.1346C21.4538 22.3594 21.9102 22.6389 22.3306 22.9677ZM29.7891 22.1216L30.7418 28.2366H29.5763L29.0218 24.3541L27.6726 28.2366H26.6023L25.2225 24.3056L24.6793 28.2383H23.5283L24.4954 22.1233H25.5642L27.1439 26.6626L28.7204 22.1216H29.7891ZM79.213 22.3514L79.5 24.202H79.1455L78.976 23.0243L78.5715 24.202H78.249L77.8365 23.0098L77.6755 24.202H77.3285L77.617 22.3514H77.9395L78.412 23.728L78.884 22.3514H79.213ZM34.1059 22.0472H35.1569L37.6957 28.3192H36.3739L35.8581 27.046H33.424L32.9066 28.3192H31.638L34.1027 22.0472H34.1059ZM35.5003 25.8748L35.0796 24.8718C34.9458 24.5304 34.791 24.0856 34.6217 23.5388H34.5927C34.3929 24.1972 34.2462 24.6421 34.164 24.8718L33.7513 25.8634H35.5003V25.8748ZM64.915 22.0472H65.9775L68.5145 28.3192H67.1945L66.6785 27.046H64.243L63.727 28.3192H62.4585L64.915 22.0472ZM66.3095 25.8748L65.8885 24.8718C65.7565 24.5304 65.6 24.0856 65.431 23.5388H65.402C65.202 24.1972 65.0555 24.6421 64.973 24.8718L64.5605 25.8634H66.3095V25.8748ZM12.5042 22.0488H13.5568L16.094 28.3208H14.7754L14.2596 27.0476H11.8239L11.3081 28.3208H10.0395L12.5042 22.0488ZM13.8904 25.8764L13.4698 24.8718C13.3376 24.5304 13.1828 24.0856 13.0119 23.5388H12.983C12.7846 24.1972 12.6363 24.6421 12.5557 24.8718L12.1415 25.8634H13.8904V25.8764ZM37.5507 23.2411V22.0634H41.1953V23.2411H39.9782V28.3062H38.7612V23.2411H37.5507ZM76.1135 22.6927V22.3384H77.2125V22.6927H76.845V24.2247H76.476V22.6911L76.1135 22.6927ZM42.0286 28.3644V22.1297H43.2392V28.3644H42.0286ZM58.8575 28.3644V22.2041H60.0745V27.2191H61.7635V28.3596L58.8575 28.3644ZM69.496 28.3127V25.6175L67.6375 22.1669H68.766L70.0425 24.5741H70.0635L71.3405 22.1669H72.4685L70.5795 25.6175V28.3127H69.496ZM47.606 27.4601C47.3224 27.475 47.0392 27.4254 46.7774 27.315C46.5156 27.2047 46.282 27.0364 46.094 26.8228C45.7167 26.3602 45.5106 25.7809 45.5106 25.1832C45.5106 24.5855 45.7167 24.0061 46.094 23.5436C46.2857 23.3348 46.52 23.1698 46.7808 23.0598C47.0417 22.9498 47.3232 22.8975 47.606 22.9062C48.9793 22.9062 49.5322 23.817 49.5322 23.817L50.285 23.1505C50.0245 22.803 49.6953 22.5133 49.3178 22.2996C48.7978 22.0075 48.2099 21.859 47.6141 21.8693C47.0158 21.86 46.4255 22.0084 45.9021 22.2996C45.403 22.5765 44.9897 22.9863 44.7077 23.4838C44.4156 24.0002 44.2654 24.5853 44.2724 25.1791L44.2564 25.1872C44.2507 25.7831 44.4013 26.3701 44.6932 26.8891C44.9744 27.3892 45.3877 27.8018 45.8876 28.0813C46.4123 28.3659 46.9992 28.515 47.5955 28.515C48.1919 28.515 48.7788 28.3659 49.3033 28.0813C49.6873 27.8643 50.022 27.5689 50.285 27.2142L49.5242 26.4588C49.5242 26.4588 48.802 27.4245 47.606 27.4601Z" fill="white"/>
</g>
<defs>
<clipPath id="clip0_10_1580">
<rect width="80" height="40" fill="white"/>
</clipPath>
</defs>
</svg>
