<svg width="80" height="40" viewBox="0 0 80 40" fill="none" xmlns="http://www.w3.org/2000/svg">
<path d="M7.51685 16.6957C7.78675 16.6946 8.0454 16.5887 8.2366 16.4008C8.4278 16.2131 8.5363 15.9585 8.53895 15.6924C8.53895 14.8348 9.2997 14.4617 10.0565 14.4617H10.1127C10.8735 14.4617 11.6343 14.8348 11.6343 15.6924C11.6369 15.9578 11.7448 16.2117 11.9346 16.3994C12.1252 16.587 12.3825 16.6934 12.6518 16.6957C12.9243 16.6969 13.1856 16.5922 13.3801 16.4044C13.5746 16.2166 13.6864 15.9608 13.691 15.6924C13.691 13.8185 12.1906 12.4464 10.126 12.4464H10.0737C7.99515 12.4464 6.50005 13.7971 6.50005 15.6837C6.49875 15.8162 6.52385 15.9477 6.5748 16.0704C6.6251 16.1931 6.69985 16.3047 6.79445 16.3988C6.88905 16.4929 7.0015 16.5676 7.12585 16.6185C7.24955 16.6695 7.38255 16.6957 7.51685 16.6957Z" fill="#F26822"/>
<path d="M13.6909 22.5563C13.6895 22.3044 13.5823 22.0632 13.3915 21.8847C13.2008 21.7062 12.9424 21.6049 12.6722 21.6029C12.5378 21.6028 12.4053 21.6275 12.2815 21.6755C12.1576 21.7235 12.045 21.7937 11.9503 21.8824C11.8556 21.9709 11.7807 22.076 11.7297 22.1917C11.6787 22.3074 11.6529 22.4312 11.6536 22.5563C11.6536 23.3677 10.8919 23.7207 10.1302 23.7207H10.0779C9.3162 23.7207 8.55455 23.3637 8.55455 22.5563C8.55455 22.3024 8.4459 22.0588 8.2532 21.8792C8.0611 21.6997 7.7995 21.5988 7.52725 21.5988C7.2544 21.5988 6.99345 21.6997 6.8007 21.8792C6.60795 22.0588 6.5 22.3024 6.5 22.5563C6.5 24.3293 7.99685 25.6195 10.0607 25.6195H10.117C10.3812 25.6184 10.6442 25.598 10.9052 25.5586L11.802 27.1815C11.9801 27.502 12.5371 27.5872 13.0246 27.3356C13.53 27.0963 13.7863 26.6378 13.6081 26.3214L12.7378 24.6985C13.0431 24.42 13.2855 24.0866 13.4498 23.7184C13.6134 23.3502 13.6955 22.9548 13.6909 22.5563Z" fill="#F26822"/>
<path d="M8.4612 21.5818V16.3943C8.3322 16.5265 8.1786 16.6309 8.00915 16.7014C7.8397 16.7718 7.65825 16.8069 7.47555 16.8045C7.2922 16.8021 7.112 16.7623 6.94445 16.6875C6.7769 16.6127 6.6258 16.5044 6.5 16.3689V21.5987C6.6271 21.4635 6.7801 21.3561 6.9495 21.2832C7.11895 21.2104 7.30105 21.1735 7.48505 21.175C7.84985 21.1737 8.20135 21.32 8.4612 21.5818Z" fill="#F26822"/>
<path d="M11.7299 16.3689V21.5987C11.8542 21.4602 12.0043 21.3491 12.1721 21.2721C12.3393 21.1952 12.5203 21.154 12.7045 21.1512C12.8881 21.1485 13.0704 21.1841 13.2401 21.2559C13.4097 21.3278 13.563 21.4344 13.6911 21.5691V16.3943C13.5637 16.5265 13.4123 16.6311 13.2445 16.7017C13.0767 16.7722 12.8969 16.8074 12.7159 16.805C12.5342 16.8027 12.355 16.7628 12.1897 16.6878C12.0238 16.6129 11.8744 16.5044 11.7507 16.3689H11.7299Z" fill="#F26822"/>
<path d="M29.3748 16.6957C29.6328 16.6935 29.8793 16.5868 30.0612 16.3987C30.2437 16.2107 30.347 15.9563 30.3495 15.6904C30.3495 14.831 31.0783 14.4572 31.8072 14.4572H31.8572C32.5861 14.4572 33.3149 14.831 33.3149 15.6904C33.3149 15.957 33.4175 16.2127 33.6001 16.4013C33.7832 16.5898 34.031 16.6957 34.2896 16.6957C34.5482 16.6957 34.796 16.5898 34.9785 16.4013C35.1617 16.2127 35.2643 15.957 35.2643 15.6904C35.2643 13.8127 33.8358 12.4464 31.8572 12.4464H31.8072C29.8286 12.4464 28.4001 13.8127 28.4001 15.6904C28.4001 15.957 28.5028 16.2127 28.6853 16.4013C28.8684 16.5898 29.1163 16.6957 29.3748 16.6957Z" fill="#F26822"/>
<path d="M34.2863 21.5988C34.0279 21.601 33.7809 21.7082 33.5985 21.897C33.416 22.0857 33.3134 22.341 33.3122 22.6074C33.3122 23.4659 32.5838 23.8393 31.8553 23.8393H31.8053C31.0769 23.8393 30.3485 23.4616 30.3485 22.6074C30.3485 22.341 30.2458 22.0856 30.0628 21.8972C29.8804 21.7089 29.6327 21.6031 29.3743 21.6031C29.1159 21.6031 28.8682 21.7089 28.6851 21.8972C28.5027 22.0856 28.4001 22.341 28.4001 22.6074C28.4001 24.4831 29.8278 25.848 31.8053 25.848H31.8553C33.8328 25.848 35.2643 24.4831 35.2643 22.6074C35.2643 22.3399 35.1617 22.0833 34.978 21.8942C34.7943 21.705 34.546 21.5988 34.2863 21.5988Z" fill="#F26822"/>
<path d="M30.3613 21.5818V16.3943C30.2323 16.5265 30.0787 16.6309 29.9093 16.7014C29.7398 16.7718 29.5584 16.8069 29.3756 16.8045C29.1923 16.8021 29.0121 16.7623 28.8446 16.6875C28.677 16.6127 28.5259 16.5044 28.4001 16.3689V21.5987C28.5285 21.4636 28.6821 21.3563 28.8522 21.2834C29.0222 21.2106 29.205 21.1737 29.3889 21.175C29.7518 21.1797 30.0996 21.3251 30.3613 21.5818Z" fill="#F26822"/>
<path d="M46.0279 16.6957C46.2857 16.6935 46.5321 16.5868 46.7145 16.3987C46.8962 16.2107 46.9995 15.9563 47.002 15.6904C47.002 14.831 47.7304 14.4572 48.4587 14.4572H48.5252C49.2536 14.4572 49.9825 14.831 49.9825 15.6904C49.9984 15.9462 50.1085 16.1861 50.2895 16.3614C50.471 16.5366 50.71 16.6342 50.9585 16.6342C51.207 16.6342 51.4455 16.5366 51.6275 16.3614C51.8085 16.1861 51.918 15.9462 51.9345 15.6904C51.9345 13.8127 50.5025 12.4464 48.5252 12.4464H48.4752C46.4985 12.4464 45.0703 13.8127 45.0703 15.6904C45.0728 15.9534 45.1735 16.2053 45.3522 16.3928C45.5308 16.5804 45.7733 16.6891 46.0279 16.6957Z" fill="#F26822"/>
<path d="M46.8236 16.9433C46.6602 17.0408 46.4769 17.1017 46.2872 17.1216C46.097 17.1415 45.9047 17.12 45.724 17.0585L49.6141 22.2525C49.6365 22.0646 49.701 21.8839 49.8031 21.7237C49.9059 21.5635 50.043 21.4277 50.206 21.3264C50.3665 21.233 50.5445 21.1734 50.7295 21.1514C50.915 21.1295 51.102 21.1456 51.2805 21.1988L47.3983 16.042C47.3773 16.2247 47.3146 16.4005 47.215 16.5564C47.1154 16.7123 46.982 16.8445 46.8236 16.9433Z" fill="#F26822"/>
<path d="M50.957 21.5988C50.698 21.601 50.4505 21.708 50.268 21.8967C50.0855 22.0853 49.9817 22.3407 49.9792 22.6074C49.9792 23.4659 49.2512 23.8393 48.5277 23.8393H48.4733C47.7453 23.8393 47.0174 23.4616 47.0174 22.6074C47.0174 22.3411 46.9149 22.0856 46.7326 21.8973C46.5496 21.7089 46.3021 21.6031 46.0439 21.6031C45.7856 21.6031 45.5381 21.7089 45.3558 21.8973C45.1729 22.0856 45.0703 22.3411 45.0703 22.6074C45.0703 24.4832 46.4971 25.848 48.4733 25.848H48.5315C50.5035 25.848 51.9345 24.4832 51.9345 22.6074C51.935 22.4748 51.9105 22.3434 51.861 22.2208C51.8125 22.0982 51.74 21.9867 51.6495 21.8929C51.5585 21.7992 51.451 21.7249 51.332 21.6744C51.213 21.624 51.0855 21.5982 50.957 21.5988Z" fill="#F26822"/>
<path d="M21.5711 21.5989C21.3127 21.6011 21.0657 21.7082 20.8833 21.8971C20.7009 22.0859 20.5984 22.3411 20.5971 22.6075C20.5971 23.4659 19.8688 23.8393 19.1405 23.8393H19.0866C18.3621 23.8393 17.6212 23.4487 17.6212 22.6075C17.6193 22.3407 17.5154 22.0855 17.3324 21.8968C17.1494 21.7081 16.9017 21.6011 16.6434 21.5989C16.5135 21.5966 16.385 21.621 16.2646 21.6707C16.1437 21.7205 16.0347 21.7945 15.9423 21.8884C15.8498 21.9823 15.777 22.0944 15.727 22.2178C15.6776 22.3413 15.6522 22.4738 15.6522 22.6075C15.6522 24.4831 17.0841 25.848 19.0575 25.848H19.1113C21.0841 25.848 22.516 24.4831 22.516 22.6075C22.5198 22.4768 22.4983 22.3467 22.4527 22.2248C22.4071 22.1029 22.338 21.9916 22.25 21.8976C22.162 21.8036 22.0562 21.7287 21.9397 21.6774C21.8232 21.6261 21.6978 21.5994 21.5711 21.5989Z" fill="#F26822"/>
<path d="M21.5359 12.4464C21.2764 12.4486 21.0284 12.5517 20.8448 12.7335C20.6618 12.9152 20.5578 13.1611 20.5553 13.4181V21.5987C20.6803 21.466 20.8313 21.3596 20.999 21.2862C21.1667 21.2127 21.3472 21.1737 21.5308 21.1714C21.7138 21.169 21.8955 21.2035 22.0651 21.2726C22.2347 21.3418 22.3877 21.4442 22.5164 21.5738V13.4265C22.5177 13.2982 22.4929 13.1709 22.4444 13.0521C22.3953 12.9332 22.3233 12.8251 22.2321 12.734C22.1409 12.6429 22.0325 12.5706 21.9133 12.5212C21.7935 12.4718 21.6653 12.4464 21.5359 12.4464Z" fill="#F26822"/>
<path d="M17.6134 21.5738V13.4256C17.6134 13.1659 17.5104 12.9168 17.3264 12.7332C17.1424 12.5496 16.8933 12.4464 16.6328 12.4464C16.373 12.4464 16.1233 12.5496 15.9399 12.7332C15.7559 12.9168 15.6522 13.1659 15.6522 13.4256V21.5987C15.7806 21.467 15.9336 21.3625 16.1024 21.2912C16.2718 21.22 16.4533 21.1834 16.6373 21.1839C17.0008 21.1822 17.351 21.3221 17.6134 21.5738Z" fill="#F26822"/>
<path d="M26.7658 17.0629V13.3712C26.7499 13.1205 26.6391 12.8855 26.4571 12.7138C26.2751 12.542 26.0346 12.4464 25.7852 12.4464C25.5357 12.4464 25.2952 12.542 25.1132 12.7138C24.9312 12.8855 24.8205 13.1205 24.8046 13.3712V21.2723V24.8588C24.8058 25.1201 24.9089 25.3704 25.0922 25.5556C25.2754 25.7407 25.5236 25.8458 25.7832 25.848C26.0429 25.8469 26.2917 25.7429 26.4756 25.5585C26.6595 25.3742 26.7639 25.1243 26.7658 24.863V21.1502V17.0629Z" fill="#F26822"/>
<path d="M64.3555 17.0755V13.3712C64.339 13.1205 64.229 12.8855 64.047 12.7138C63.864 12.542 63.6245 12.4464 63.375 12.4464C63.1255 12.4464 62.885 12.542 62.703 12.7138C62.521 12.8855 62.41 13.1205 62.394 13.3712V21.2723V24.8588C62.395 25.1208 62.499 25.3718 62.683 25.557C62.867 25.7423 63.1165 25.8469 63.3765 25.848C63.6355 25.8458 63.8835 25.7413 64.0665 25.5571C64.249 25.3728 64.3535 25.1235 64.3555 24.863V21.1502V17.0755Z" fill="#F26822"/>
<path d="M67.951 18.4452L67.5585 17.6326L67.0705 16.637L65.99 14.4077V21.2149V24.8397C65.989 24.9719 66.014 25.1029 66.0635 25.2253C66.113 25.3476 66.1855 25.4588 66.2765 25.5524C66.368 25.6461 66.4765 25.7205 66.5965 25.7712C66.716 25.8219 66.845 25.848 66.9745 25.848C67.233 25.8458 67.48 25.7402 67.6625 25.554C67.845 25.3678 67.9485 25.1158 67.951 24.8524V21.1V18.4452Z" fill="#F26822"/>
<path d="M71.618 20.5267L69.6655 16.619L69.2025 15.6871L67.8835 13.0833C67.837 12.9557 67.7635 12.8394 67.6685 12.7417C67.5735 12.644 67.458 12.5673 67.331 12.5166C67.2035 12.4658 67.067 12.4422 66.9295 12.4472C66.7925 12.4521 66.658 12.4857 66.535 12.5455C66.412 12.6053 66.303 12.6902 66.215 12.7945C66.1275 12.8988 66.063 13.0202 66.026 13.1507C65.989 13.2814 65.98 13.4182 66.0005 13.5524C66.0205 13.6865 66.069 13.8151 66.1425 13.9294L67.4325 16.5168L67.896 17.4774L69.914 21.4832L71.63 24.9168C71.74 25.1608 71.942 25.3525 72.1935 25.4503C72.4455 25.5483 72.7255 25.5445 72.974 25.44C73.211 25.3119 73.387 25.0968 73.4645 24.8413C73.542 24.5857 73.5145 24.3103 73.3875 24.0747L71.618 20.5267Z" fill="#F26822"/>
<path d="M73.5075 21.0035V13.4082C73.5075 13.1531 73.4045 12.9085 73.221 12.7282C73.0365 12.5478 72.787 12.4464 72.527 12.4464C72.267 12.4464 72.0175 12.5478 71.834 12.7282C71.65 12.9085 71.5465 13.1531 71.5465 13.4082V19.6595L71.911 20.3911L73.5075 23.5599V21.0035Z" fill="#F26822"/>
<path d="M38.6695 17.7711L36.9775 20.1968C36.888 20.4104 36.8739 20.648 36.9395 20.8703C37.0045 21.0925 37.1448 21.2857 37.3366 21.4178C37.5278 21.55 37.7594 21.6129 37.9918 21.5961C38.2248 21.5793 38.4442 21.4839 38.6148 21.3258L40.3615 18.8077L42.2736 16.042L42.7389 15.3748L44.0074 13.5281C44.1001 13.314 44.1149 13.0748 44.0499 12.851C43.9849 12.6272 43.844 12.4325 43.6509 12.2999C43.4578 12.1672 43.2248 12.1046 42.9912 12.1227C42.7569 12.1408 42.5362 12.2385 42.3663 12.3992L41.0978 14.2332L40.6324 14.9005L38.6528 17.7585L38.6695 17.7711Z" fill="#F26822"/>
<path d="M43.1494 22.4645L41.8684 20.0548L41.5612 19.4697L41.1344 18.657L40.7629 19.1771L39.8405 20.4449L40.1094 20.9406L41.4417 23.4275L42.5901 25.5487C42.7609 25.8657 43.3072 25.9551 43.7898 25.6991C44.2802 25.4593 44.5368 25.0001 44.3614 24.6832L43.1494 22.4645Z" fill="#F26822"/>
<path d="M38.8598 16.8686V13.4074C38.8598 13.1526 38.7568 12.9082 38.5728 12.7279C38.3888 12.5477 38.139 12.4464 37.8792 12.4464C37.6193 12.4464 37.3696 12.5477 37.1856 12.7279C37.0017 12.9082 36.8986 13.1526 36.8986 13.4074V19.6375L38.3654 17.5527L38.8598 16.8686Z" fill="#F26822"/>
<path d="M37.1626 21.8112C37.0688 21.7468 36.9808 21.6758 36.8986 21.5988V24.5966C36.8992 24.8408 37.0032 25.0748 37.1868 25.2478C37.3704 25.4209 37.6191 25.5191 37.8792 25.5212C38.1393 25.5191 38.388 25.4209 38.5716 25.2478C38.7546 25.0748 38.8585 24.8408 38.8598 24.5966V21.7365C38.7469 21.8439 38.6124 21.9285 38.4645 21.9853C38.3159 22.0421 38.1565 22.07 37.9965 22.067C37.6975 22.06 37.408 21.9711 37.1626 21.8112Z" fill="#F26822"/>
<path d="M57.7995 12.4464H54.159C54.027 12.4508 53.8985 12.4806 53.7805 12.5342C53.662 12.5878 53.5565 12.6639 53.471 12.7577C53.3855 12.8515 53.322 12.961 53.2835 13.0793C53.245 13.1975 53.233 13.3219 53.2485 13.4447C53.233 13.5675 53.245 13.6919 53.2835 13.8102C53.322 13.9284 53.3855 14.0379 53.471 14.1317C53.5565 14.2255 53.662 14.3016 53.7805 14.3552C53.8985 14.4088 54.027 14.4387 54.159 14.443H57.5385C58.268 14.4971 58.586 15.4455 58.586 16.2649V16.3397C58.586 17.1716 58.2545 18.2364 57.5385 18.2905H54.159C54.027 18.2949 53.8985 18.3248 53.7805 18.3784C53.662 18.4319 53.5565 18.508 53.471 18.6018C53.3855 18.6956 53.322 18.8051 53.2835 18.9233C53.245 19.0416 53.233 19.1661 53.2485 19.2889C53.233 19.4118 53.245 19.5365 53.283 19.655C53.321 19.7734 53.385 19.8832 53.471 19.9773C53.5565 20.0714 53.6615 20.1479 53.7795 20.2019C53.898 20.256 54.027 20.2864 54.159 20.2912H57.813C57.813 20.2912 57.813 20.2913 57.813 20.2622C59.346 20.0708 60.433 18.4736 60.433 16.3272V16.2732C60.433 14.1061 59.346 12.6419 57.7995 12.4464Z" fill="#F26822"/>
<path d="M55.53 20.6477H54.427C54.267 20.6484 54.1095 20.6173 53.9625 20.5561C53.8145 20.4949 53.681 20.4049 53.569 20.2913V21.2894V24.8625C53.57 25.1228 53.673 25.3722 53.8555 25.5566C54.038 25.7411 54.285 25.8458 54.5435 25.848C54.8015 25.8458 55.048 25.7417 55.2295 25.5581C55.412 25.3746 55.5155 25.1263 55.518 24.8666V21.1678V20.6477H55.53Z" fill="#F26822"/>
<path d="M55.53 17.6757V14.7433H54.427C54.268 14.7447 54.11 14.7158 53.9625 14.6582C53.8155 14.6006 53.6815 14.5155 53.569 14.4077V18.0032C53.6805 17.8943 53.814 17.8083 53.9615 17.7506C54.1095 17.6928 54.267 17.6647 54.427 17.6677L55.53 17.6757Z" fill="#F26822"/>
</svg>
