<svg width="80" height="40" viewBox="0 0 80 40" fill="none" xmlns="http://www.w3.org/2000/svg">
<path d="M19.2066 13.4955C19.2397 12.6269 17.7613 12.9177 17.5002 12.9439C17.0277 12.9908 16.5569 13.353 16.0862 13.3605C15.6701 13.3293 15.2562 13.2723 14.8469 13.1897C16.2793 13.413 17.9397 12.8013 19.2103 12.1953C19.7398 11.9439 20.2602 12.2497 20.2455 12.8464C20.2252 13.6325 20.0855 14.3868 19.453 14.9402C19.3514 15.0699 19.2712 15.2157 19.2158 15.3718L19.7674 15.0791C19.8391 15.7996 19.4548 15.8652 18.951 16.0735C18.8609 15.8727 18.8958 15.4468 18.2872 15.1016L19.2066 13.4955Z" fill="#EE2326"/>
<path d="M6.08936 15.0998C5.72711 15.2678 5.44946 15.5817 5.32261 15.9666C4.81879 15.7583 4.43634 15.6927 4.50621 14.9722L5.05781 15.2649C5.00236 15.1088 4.92224 14.963 4.82063 14.8334C4.18811 14.2705 4.04836 13.52 4.02814 12.7395C4.01343 12.1428 4.53379 11.837 5.06336 12.0884C6.33391 12.6945 8.09726 13.3061 9.52781 13.0828C9.10351 13.2591 8.64111 13.318 8.18736 13.2536C7.72401 13.1654 7.24411 12.8783 6.77336 12.8371C6.51046 12.8108 5.03211 12.52 5.06701 13.3887L6.08936 15.0998Z" fill="#EE2326"/>
<path d="M11.6494 24.3871C10.0295 24.479 8.97587 25.4509 8.90417 26.5222C9.07517 26.389 9.18547 26.1751 9.35833 26.0644C9.53118 25.9537 9.80333 25.7942 9.97433 25.9143C10.0901 25.995 9.97433 26.3646 10.0368 26.5785C11.0279 27.1808 12.1992 27.1226 12.1716 26.4284C12.1716 26.9575 12.4971 26.95 12.771 26.9538C13.3143 26.9782 13.8463 26.7903 14.2586 26.4284C14.1446 25.8974 14.2586 25.7774 14.7201 25.9444C14.8881 26.0378 15.0412 26.1568 15.1743 26.2971L15.4942 26.5485C14.972 24.8186 13.6463 24.2745 11.6494 24.3871Z" fill="#EE2326"/>
<path d="M9.96688 23.948C10.5663 23.7603 11.1547 23.5314 11.7376 23.2988C11.8507 23.2441 11.9352 23.1421 11.9693 23.0192C12.006 22.8316 11.9693 22.6196 11.9803 22.4207C12.0269 22.1682 11.864 21.9249 11.6165 21.8773C11.6152 21.8771 11.6139 21.8768 11.6126 21.8766C11.0632 21.7223 10.5803 21.3848 10.2409 20.9178C10.0869 20.6934 9.99423 20.4311 9.97238 20.158C9.98603 19.8899 10.0199 19.6233 10.0735 19.3606C9.62858 19.3606 9.52193 19.5313 9.41528 19.8165C9.28288 20.1917 9.71128 20.582 9.04753 20.7846C9.31413 21.0135 9.64328 21.5839 10.0662 21.946C9.33068 22.1055 9.03833 21.5164 8.54923 21.2499C8.69448 22.1149 9.47963 22.2256 9.94483 22.6627L9.90618 22.734L8.48303 22.3719C8.87468 23.1318 9.65063 22.7566 10.1268 23.1581C9.66898 23.4583 9.24793 23.2932 8.82868 23.2481C8.73068 23.2594 8.63578 23.29 8.54923 23.3382C8.59403 23.4355 8.65638 23.5234 8.73308 23.5971C8.92618 23.7382 9.13788 23.8507 9.36193 23.9311C9.55828 23.9931 9.76753 23.9989 9.96688 23.948Z" fill="#EE2326"/>
<path d="M13.5635 19.8242C13.5102 19.9199 13.5838 20.2201 13.1369 20.3871C12.8359 20.4614 12.5273 20.4991 12.2176 20.4997C11.243 20.4997 10.776 20.3608 10.787 19.8242C10.6462 19.9065 10.548 20.0479 10.5186 20.2107C10.5186 20.524 10.5976 20.586 10.6583 20.6404C10.7852 20.7605 11.3405 20.7905 11.4324 20.7923C12.2304 20.8074 12.5541 20.7923 13.3502 20.7642C13.5087 20.7648 13.6583 20.6898 13.7548 20.5616C13.8377 20.4315 13.8377 20.2638 13.7548 20.1338C13.7135 20.0178 13.6483 19.9122 13.5635 19.8242Z" fill="#EE2326"/>
<path d="M15.2809 17.9104C15.8031 17.6477 15.6119 17.1899 15.6101 17.0454C15.4648 17.053 15.3206 17.0756 15.1798 17.113C15.0066 17.1973 14.8582 17.3267 14.7495 17.4882C14.7679 17.7659 14.9261 18.0905 15.2809 17.9104Z" fill="#EE2326"/>
<path d="M15.8031 22.3757L14.4186 22.7246L14.3763 22.644C14.8084 22.2106 15.634 22.1449 15.6634 21.2856C15.2258 21.5783 14.9279 22.1074 14.2126 21.9329L15.4998 20.8616C14.9353 20.6946 14.9224 20.3175 14.8966 19.9385C14.8958 19.8374 14.8629 19.7393 14.8029 19.6589C14.6483 19.5132 14.4863 19.3761 14.3174 19.248C14.2901 19.4288 14.2736 19.6111 14.2678 19.794C14.2678 19.9929 14.3303 20.1917 14.3285 20.3888C14.3195 20.5165 14.2748 20.6389 14.1998 20.7415C13.8245 21.2568 13.3148 21.6541 12.7288 21.8879C12.577 21.9446 12.4582 22.0679 12.4051 22.2237C12.3798 22.4623 12.3731 22.7026 12.3849 22.9423C12.3863 23.1091 12.4877 23.2581 12.6405 23.3175C13.2436 23.5521 13.8026 23.7753 14.3689 23.978C14.5177 24.0346 14.6807 24.0392 14.8323 23.9911C15.0912 23.88 15.3378 23.741 15.5678 23.5765C15.6507 23.4919 15.718 23.3927 15.7664 23.2838C15.6751 23.264 15.582 23.2539 15.4887 23.2537C15.2092 23.2012 14.8176 23.2218 14.6319 23.0361C15.0401 22.8691 15.5273 22.9723 15.8031 22.3757Z" fill="#EE2326"/>
<path d="M8.58243 17.2462C8.58243 17.5032 8.57138 17.7903 8.96673 17.9235C9.20023 18.0023 9.48893 17.6777 9.50548 17.4488C9.38783 17.2903 9.22743 17.1703 9.04393 17.1036C8.67618 16.9629 8.58793 16.9347 8.58243 17.2462Z" fill="#EE2326"/>
<path d="M6.05037 15.0997C6.05037 15.0997 4.64925 12.8482 6.72337 13.004L8.45177 13.4336C8.18987 13.5003 7.91892 13.5218 7.65007 13.4974C7.24922 13.4393 7.01572 13.2404 6.39607 13.3098C6.25437 13.3292 6.11837 13.3791 5.99702 13.4561C6.26917 13.6025 7.22532 14.019 7.21612 14.0471C7.10947 14.0096 6.57072 13.8914 6.41997 13.8389C6.51557 14.2404 6.30962 15.2461 7.09477 16.8409C7.34117 17.3437 7.87072 18.0942 8.31572 18.415C8.76832 18.7632 9.35147 18.8826 9.90067 18.7396C9.82137 18.6064 9.72067 18.4878 9.60282 18.3887C9.37917 18.2701 9.14527 18.1728 8.90412 18.0979C7.96632 17.7977 7.46622 17.0454 7.06537 16.2217C6.95872 16.0022 6.99732 15.7114 6.96792 15.4525L7.09847 15.4149C7.17937 15.5819 7.26212 15.7489 7.33747 15.9196C7.43407 16.1909 7.69982 16.3598 7.98107 16.3286C8.75882 16.3286 9.50902 16.4675 9.93562 17.2912C10.1526 17.7096 10.4137 18.1186 10.855 18.3118C10.8918 18.2893 10.8256 17.839 10.7484 17.6082C11.1161 17.4581 10.9672 17.2442 10.7741 17.0322C10.5112 16.7433 10.2445 16.4581 9.96687 16.1579C10.2482 16.0754 10.5976 15.8596 10.5921 15.8052H9.07142V15.7583C9.51457 15.6757 10.399 15.3549 10.3972 15.2761C9.69107 14.8333 8.85262 15.1204 8.08952 14.9909V14.8839C8.57682 14.7564 9.06407 14.6325 9.55132 14.4993C10.0386 14.3661 10.9488 13.9834 10.9377 13.9365H8.94272C9.57157 13.6475 10.125 13.231 10.8532 13.246C11.6089 13.261 12.3683 13.2948 13.1222 13.246C13.9643 13.1822 14.6281 13.5893 15.3618 13.944H13.3575C13.3483 13.9984 14.2971 14.3905 14.7826 14.5237C15.268 14.6569 15.7332 14.7751 16.2021 14.9515C15.4372 15.1391 14.6097 14.8389 13.8356 15.3455C14.2512 15.8258 14.8028 15.595 15.3066 15.8052H13.694C13.683 15.8596 14.036 16.0904 14.3118 16.1804C14.0305 16.4862 13.7602 16.7902 13.4771 17.0848C13.2656 17.308 13.2509 17.4938 13.5414 17.6176C13.4624 17.8371 13.3906 18.3081 13.4256 18.34C13.6082 18.2125 13.7804 18.0701 13.9404 17.9141C14.1113 17.7242 14.256 17.5115 14.3707 17.2818C14.755 16.4919 15.4886 16.3437 16.2094 16.3437C16.671 16.3437 16.8787 16.1917 17.0074 15.792C17.0667 15.6513 17.1362 15.5152 17.2152 15.3849C17.3991 15.854 17.252 16.1823 17.0736 16.5538C16.6029 17.5369 15.7957 18.0266 14.8285 18.3456C14.6132 18.419 14.4395 18.5839 14.3523 18.7978C14.5722 18.8287 14.7948 18.835 15.0161 18.8165C15.8398 18.6289 16.5367 18.2443 16.9983 17.4919C17.0442 17.415 17.1656 17.1167 17.2024 17.036C17.5055 16.3264 17.6854 15.5683 17.7337 14.7958C17.7595 14.5087 17.7852 14.2216 17.8147 13.8689C17.5903 13.9909 17.3476 14.0378 17.0792 14.1804C17.4235 13.8252 17.8619 13.5801 18.3405 13.4749C18.3405 13.4355 17.8165 13.2873 17.5554 13.3173C17.0847 13.3642 16.6176 13.5049 16.1488 13.5049C16.039 13.5006 15.9308 13.4772 15.8288 13.4355L17.6197 12.9908C19.6938 12.8257 18.2927 15.0866 18.2927 15.0866C19.6516 13.7732 20.2565 12.109 17.7871 12.7601C16.4319 13.1165 15.6762 13.1747 15.2717 13.1541H15.2606C15.2606 13.1541 12.7912 12.3904 9.49067 13.0828L9.19832 13.1466H9.18727C8.81952 13.1841 8.05277 13.1466 6.55417 12.7601C4.08659 12.1221 4.69338 13.792 6.05037 15.0997Z" fill="#EE2326"/>
<path d="M19.9807 20.417C19.9656 20.36 19.908 20.3263 19.8521 20.3418C19.8071 20.3543 19.7756 20.3956 19.7748 20.4432C19.7564 20.7997 19.7638 21.1506 19.7343 21.4977C19.624 22.8317 19.282 24.0925 18.3957 25.1263C18.2438 25.2697 18.0657 25.3812 17.8717 25.4546C17.8183 25.4774 17.7569 25.4517 17.7346 25.3972C17.7228 25.3685 17.7239 25.3361 17.7375 25.3083C18.0188 24.7267 18.3222 24.1544 18.5502 23.5522C18.7782 22.9499 18.9363 22.2932 19.1147 21.6572C19.131 21.6005 19.0991 21.5411 19.0436 21.5245C19.0229 21.5183 19.0009 21.5188 18.9805 21.5258C18.8481 21.5727 18.6716 21.644 18.5336 21.6984C18.4795 21.7194 18.419 21.6916 18.3985 21.6363C18.3905 21.6148 18.3895 21.5911 18.3957 21.569C18.5796 20.9555 19.1423 19.158 19.1423 19.158C19.1073 19.1974 18.7745 19.6927 18.7488 19.7378C18.4491 20.3006 18.2707 20.5108 18.0445 21.1093C17.9489 21.3607 17.8717 21.5408 17.8294 21.6365C17.8099 21.679 17.8204 21.7296 17.8551 21.7603C18.3295 22.1675 17.9287 22.9424 17.7264 23.1863C17.4486 23.5247 17.2482 23.9221 17.1399 24.3495C17.1123 24.4377 17.0737 24.5616 17.0332 24.6929C17.0149 24.7489 16.9556 24.7792 16.9007 24.7606C16.8559 24.7454 16.8267 24.7015 16.8291 24.6535C16.8659 24.1038 16.9615 23.3589 17.1399 23.1882C17.4157 22.9255 17.3568 22.0193 17.0479 21.8579C16.739 21.6966 16.6967 21.5483 16.842 21.2951C16.8721 21.2434 16.8555 21.1766 16.8049 21.1459C16.8044 21.1456 16.8039 21.1453 16.8034 21.145L15.4813 20.3776C15.4309 20.3487 15.4129 20.2835 15.4413 20.232C15.457 20.2034 15.4846 20.1838 15.5163 20.1787C16.0017 20.1093 16.3989 20.2969 16.8034 20.5539C17.0639 20.7268 17.4124 20.6514 17.5818 20.3855C17.6136 20.3357 17.6375 20.2811 17.6529 20.2237L17.7062 20.0248C17.721 19.9677 17.6876 19.9092 17.6316 19.8942C17.6307 19.8939 17.6299 19.8937 17.629 19.8935C16.9781 19.7284 16.8806 19.6946 16.8494 19.4957C16.8402 19.4374 16.8791 19.3826 16.9363 19.3733C16.9416 19.3724 16.947 19.3719 16.9523 19.3719C17.1932 19.3719 17.4561 19.4019 17.6216 19.2875C17.7443 19.1544 17.8223 18.9848 17.8441 18.8034C17.8598 18.7466 17.8274 18.6875 17.7717 18.6715C17.7488 18.6649 17.7244 18.6664 17.7025 18.6758C17.4727 18.7753 17.4102 18.7715 17.2851 18.6758C17.2386 18.639 17.2301 18.5707 17.2662 18.5232C17.267 18.5221 17.2678 18.5211 17.2686 18.5201C17.2969 18.4836 17.3289 18.4502 17.3642 18.4207C17.8441 18.0454 18.5796 15.9422 18.5484 15.338V15.066C18.5484 15.0069 18.5015 14.959 18.4436 14.959C18.4006 14.959 18.3619 14.9858 18.3461 15.0266C17.9342 16.0097 17.458 18.3137 15.0529 18.7621C14.8555 18.7746 14.6574 18.7632 14.4627 18.7284C14.4095 18.7211 14.3595 18.7559 14.3468 18.809L14.2071 19.4151C14.1751 19.5504 14.172 19.6912 14.1979 19.8278C14.2494 20.0961 14.3818 20.4264 14.5233 20.4808C16.7078 21.2725 16.2977 23.2201 16.2499 23.6047C16.2454 23.6396 16.224 23.6699 16.1929 23.6854C14.9738 24.3195 15.5677 26.192 15.7571 26.7042C15.7775 26.7595 15.7502 26.8212 15.696 26.842C15.6861 26.8458 15.6757 26.8481 15.6652 26.8487C15.5074 26.8575 15.3492 26.8411 15.1963 26.7999C14.7771 26.6844 14.3291 26.7923 14.0048 27.087L13.8209 27.2483C14.1556 26.8731 14.869 26.9988 15.2919 27.0832C15.588 27.1414 15.8307 27.359 16.1359 27.5523C16.1863 27.5834 16.2519 27.5669 16.2824 27.5154C16.2922 27.4988 16.2975 27.4798 16.2977 27.4603C16.2977 27.2127 16.2977 26.9988 16.2977 26.783C16.2977 26.5673 16.3106 26.2764 16.6158 26.2764C16.9211 26.2764 16.9247 26.556 16.9266 26.7868C16.9266 27.162 16.9266 27.5223 16.9266 27.8919C16.9259 27.9509 16.9723 27.9993 17.0302 28C17.0689 28.0005 17.1047 27.9791 17.1233 27.9444C17.3072 27.6142 17.5609 27.102 17.7025 26.7811C17.7209 26.7399 17.7411 26.6986 17.7632 26.6592L18.0684 26.7023C18.0851 26.7589 18.1436 26.7909 18.199 26.7739C18.2203 26.7674 18.2389 26.7541 18.2523 26.7361C18.8652 25.7705 19.4726 24.8073 20.0745 23.8467C20.1299 23.7637 20.1628 23.6673 20.1701 23.5672C20.3871 22.4827 20.2345 22.1056 20.1701 21.3814C20.1405 21.054 20.077 20.7307 19.9807 20.417Z" fill="#EE2326"/>
<path d="M4.30913 20.4169C4.3243 20.3599 4.38189 20.3263 4.43775 20.3418C4.48278 20.3542 4.5143 20.3956 4.51507 20.4432C4.53346 20.7997 4.5261 21.1505 4.55552 21.4976C4.66585 22.8316 5.00785 24.0925 5.89415 25.1263C6.04605 25.2697 6.2241 25.3812 6.41815 25.4546C6.4716 25.4774 6.53295 25.4517 6.5553 25.3972C6.567 25.3685 6.56595 25.3361 6.5524 25.3083C6.27105 24.7266 5.9677 24.1544 5.7397 23.5521C5.51165 22.9498 5.35355 22.2932 5.1752 21.6571C5.1589 21.6004 5.19075 21.541 5.2463 21.5244C5.267 21.5183 5.289 21.5187 5.3094 21.5258C5.4418 21.5727 5.6183 21.644 5.7562 21.6984C5.81035 21.7193 5.87085 21.6915 5.8914 21.6363C5.8994 21.6147 5.90035 21.5911 5.89415 21.5689C5.71025 20.9554 5.1476 19.158 5.1476 19.158C5.18255 19.1974 5.51535 19.6927 5.5411 19.7377C5.8408 20.3006 6.01915 20.5107 6.24535 21.1093C6.34095 21.3607 6.41815 21.5408 6.46045 21.6365C6.47995 21.679 6.46945 21.7295 6.4347 21.7603C5.9603 22.1675 6.36115 22.9423 6.56345 23.1863C6.84125 23.5247 7.04165 23.9221 7.15 24.3495C7.17755 24.4377 7.2162 24.5615 7.25665 24.6929C7.27495 24.7489 7.3343 24.7792 7.3892 24.7605C7.43395 24.7453 7.4632 24.7015 7.46075 24.6535C7.42395 24.1037 7.32835 23.3589 7.15 23.1881C6.8742 22.9255 6.933 22.0192 7.24195 21.8579C7.55085 21.6965 7.59315 21.5483 7.44785 21.295C7.41775 21.2434 7.43435 21.1766 7.48495 21.1458C7.48545 21.1455 7.48595 21.1452 7.4865 21.1449L8.80855 20.3775C8.859 20.3486 8.87695 20.2834 8.8486 20.2319C8.8329 20.2034 8.80525 20.1838 8.7736 20.1787C8.28815 20.1092 7.891 20.2969 7.4865 20.5539C7.22595 20.7267 6.87745 20.6513 6.70805 20.3855C6.6763 20.3356 6.6523 20.2811 6.637 20.2237L6.58365 20.0248C6.5689 19.9677 6.6023 19.9092 6.6583 19.8941C6.65915 19.8939 6.66 19.8937 6.6609 19.8935C7.3118 19.7284 7.40925 19.6946 7.4405 19.4957C7.44965 19.4374 7.41075 19.3825 7.35355 19.3732C7.34825 19.3724 7.3429 19.3719 7.33755 19.3719C7.09665 19.3719 6.83375 19.4019 6.66825 19.2875C6.54485 19.1546 6.46625 18.985 6.4439 18.8034C6.4282 18.7465 6.4606 18.6874 6.51635 18.6714C6.5392 18.6648 6.5636 18.6664 6.5855 18.6758C6.81535 18.7752 6.87785 18.7715 7.0029 18.6758C7.04945 18.639 7.05795 18.5706 7.02185 18.5231C7.02105 18.5221 7.02025 18.5211 7.01945 18.5201C6.99115 18.4835 6.9591 18.4502 6.92385 18.4206C6.4439 18.0454 5.7084 15.9421 5.7397 15.338V15.1504C5.75415 15.0478 5.8474 14.9767 5.9479 14.9914C6.00425 14.9997 6.05365 15.0342 6.0817 15.0847C6.4954 16.0622 6.8172 18.3043 9.23515 18.7527C9.4325 18.7651 9.6306 18.7538 9.82535 18.719C9.8785 18.7116 9.9285 18.7465 9.9412 18.7996L10.0809 19.4057C10.1129 19.541 10.116 19.6817 10.0901 19.8184C10.0386 20.0867 9.90625 20.4169 9.7647 20.4714C7.21985 21.3907 7.9903 23.2088 8.0381 23.5934C8.04305 23.6292 8.0651 23.6601 8.09695 23.676C9.31235 24.312 8.7221 26.1826 8.53275 26.6929C8.5123 26.7482 8.5397 26.8099 8.59385 26.8307C8.60375 26.8345 8.6141 26.8368 8.62465 26.8374C8.7604 26.8445 8.8964 26.8332 9.0292 26.8036C9.51725 26.697 10.0258 26.8366 10.3953 27.1789L10.4615 27.2389C9.76835 26.8637 9.5422 26.9293 8.99055 27.0738C8.6885 27.1877 8.40425 27.3457 8.1466 27.5429C8.0962 27.5739 8.0306 27.5575 8.00015 27.506C7.9903 27.4894 7.985 27.4704 7.9848 27.4509C7.9848 27.2033 7.9848 26.9894 7.9848 26.7736C7.9848 26.5578 7.9719 26.267 7.6667 26.267C7.36145 26.267 7.35775 26.5466 7.35595 26.7774C7.35595 27.1526 7.35595 27.5128 7.35595 27.8825C7.3566 27.9415 7.3102 27.9899 7.2523 27.9906C7.2136 27.991 7.17775 27.9697 7.1592 27.935C6.9753 27.6048 6.72155 27.0926 6.58 26.7717C6.5616 26.7305 6.54135 26.6892 6.5193 26.6498L6.21405 26.6929C6.1974 26.7495 6.1389 26.7815 6.0835 26.7645C6.06225 26.758 6.0436 26.7447 6.0302 26.7267C5.4173 25.7611 4.80988 24.7979 4.208 23.8373C4.15264 23.7543 4.11966 23.6579 4.11238 23.5578C3.89541 22.4733 4.04802 22.0962 4.11238 21.372C4.14507 21.0475 4.21102 20.7274 4.30913 20.4169Z" fill="#EE2326"/>
<path d="M28.5768 24.0269H26.0209L24.0829 20.9274H24.0626V24.0269H22.0088V15.9591H25.0795C25.9032 15.9591 26.567 16.1655 27.0708 16.5783C27.5746 16.991 27.8259 17.6108 27.8247 18.4376C27.8383 18.9755 27.6781 19.5029 27.3687 19.9386C27.0629 20.3608 26.6051 20.6416 26.0963 20.7191L28.5768 24.0269ZM24.0626 19.5802H24.2612C24.4384 19.581 24.6154 19.5685 24.7908 19.5427C24.9477 19.5201 25.0999 19.4713 25.2413 19.3982C25.3762 19.3285 25.489 19.2211 25.5667 19.0887C25.7267 18.766 25.7267 18.385 25.5667 18.0624C25.4888 17.9301 25.376 17.8228 25.2413 17.7528C25.0999 17.6798 24.9477 17.631 24.7908 17.6083C24.6154 17.5825 24.4384 17.57 24.2612 17.5708H24.0626V19.5802Z" fill="#EE2326"/>
<path d="M31.1843 17.7415V19.0887H33.4992V20.8636H31.1843V22.252H33.6243V24.0269H29.1322V15.9591H33.6261V17.734H31.1843V17.7415Z" fill="#EE2326"/>
<path d="M34.8929 15.9666H37.8055C38.3373 15.9634 38.8645 16.0667 39.3574 16.2705C39.8376 16.4687 40.275 16.7613 40.6445 17.1317C41.0134 17.5001 41.3072 17.9395 41.5087 18.4244C41.716 18.9208 41.8211 19.4553 41.8176 19.9948C41.8205 20.5349 41.7135 21.0696 41.5032 21.5652C41.2991 22.0485 41.0035 22.4858 40.6335 22.8523C40.2624 23.2208 39.8255 23.5132 39.3464 23.7135C38.858 23.92 38.3342 24.0252 37.8055 24.0231H34.8929V15.9553V15.9666ZM36.9468 22.2519H37.4083C37.7063 22.2543 38.0028 22.2094 38.2872 22.1187C38.5531 22.0335 38.799 21.8937 39.0099 21.7078C39.226 21.5131 39.3947 21.2696 39.5027 20.9967C39.6288 20.6793 39.6913 20.3393 39.6865 19.9967C39.6865 19.2913 39.4806 18.739 39.0687 18.34C38.6228 17.9279 38.0351 17.7127 37.4341 17.7415H36.9523V22.2444L36.9468 22.2519Z" fill="#EE2326"/>
<path d="M49.5055 24.0269H47.4479V17.7415H45.7563V15.9666H51.2025V17.7415H49.5055V24.0269H49.5055Z" fill="#EE2326"/>
<path d="M54.001 24.0269H51.9475V15.9591H54.001V24.0269Z" fill="#EE2326"/>
<path d="M63.219 19.5257C63.2155 20.1216 63.1575 20.7158 63.046 21.3007C62.933 21.811 62.717 22.2916 62.4115 22.7116C62.0555 23.2283 61.571 23.6393 61.0085 23.903C60.4255 24.1684 59.7935 24.3015 59.155 24.2933C58.576 24.2998 58.0005 24.1967 57.458 23.9893C56.957 23.7967 56.5005 23.5002 56.1175 23.1187C55.7365 22.736 55.44 22.2749 55.248 21.766C55.0405 21.2154 54.9375 20.6296 54.9445 20.0398C54.937 19.4336 55.042 18.8315 55.2535 18.2649C55.449 17.7473 55.749 17.2774 56.134 16.8859C56.521 16.4967 56.985 16.1961 57.495 16.0041C58.05 15.7965 58.6375 15.6935 59.2285 15.7001C59.982 15.68 60.726 15.8749 61.3765 16.263C62.005 16.6659 62.4985 17.255 62.7905 17.9516L60.8415 18.7846C60.713 18.4142 60.484 18.0887 60.181 17.8465C59.8795 17.6157 59.51 17.4954 59.133 17.505C58.83 17.5003 58.531 17.5739 58.2635 17.7189C58.006 17.8603 57.784 18.0599 57.6145 18.3024C57.438 18.5521 57.303 18.8297 57.2155 19.1242C57.0345 19.7271 57.0345 20.3714 57.2155 20.9742C57.3025 21.2685 57.4385 21.5452 57.618 21.7922C57.7935 22.0282 58.0195 22.2207 58.278 22.3551C58.552 22.497 58.8555 22.5685 59.1625 22.5634C59.573 22.58 59.976 22.4514 60.3045 22.1993C60.612 21.9434 60.7985 21.5662 60.8175 21.1618H59.1425V19.5163H63.217L63.219 19.5257Z" fill="#EE2326"/>
<path d="M66.214 17.7415V19.0887H68.529V20.8636H66.214V22.252H68.654V24.0269H64.162V15.9591H68.656V17.734H66.214V17.7415Z" fill="#EE2326"/>
<path d="M76.5 24.0269H73.9255L71.9875 20.9274H71.9765V24.0269H69.923V15.9591H72.9935C73.8175 15.9591 74.481 16.1655 74.985 16.5783C75.4885 16.991 75.74 17.6108 75.7385 18.4376C75.7525 18.9755 75.592 19.5029 75.2825 19.9386C74.977 20.3608 74.519 20.6416 74.0105 20.7191L76.5 24.0269ZM71.986 19.5802H72.1845C72.3615 19.581 72.5385 19.5685 72.714 19.5427C72.871 19.5201 73.023 19.4713 73.1645 19.3982C73.2995 19.3285 73.4125 19.2211 73.49 19.0887C73.65 18.766 73.65 18.385 73.49 18.0624C73.412 17.9301 73.2995 17.8228 73.1645 17.7528C73.023 17.6798 72.871 17.631 72.714 17.6083C72.5385 17.5825 72.3615 17.57 72.1845 17.5708H71.9765V19.5802H71.986Z" fill="#EE2326"/>
</svg>
