<svg width="80" height="40" viewBox="0 0 80 40" fill="none" xmlns="http://www.w3.org/2000/svg">
<path d="M8.19883 28.7084C8.19883 29.5417 7.98888 30.0973 7.49903 30.5139C7.21908 30.7917 6.79923 30.8612 6.23938 30.8612C5.53958 30.8612 5.04968 30.5834 4.62982 30.0973C4.27991 29.6112 4.13995 29.125 4.13995 28.5695C4.13995 27.875 4.27991 27.3195 4.6998 26.8334C4.90974 26.625 5.11968 26.4167 5.32963 26.2778C5.60953 26.1389 5.88948 26.0695 6.23938 26.0695C6.58928 26.0695 6.86918 26.1389 7.21908 26.2084C7.49903 26.2778 7.70898 26.4167 7.84893 26.625C7.91893 26.6945 7.91893 26.7639 7.91893 26.8334C7.91893 26.9028 7.91893 26.9723 7.84893 27.0417C7.77893 27.1112 7.70898 27.1111 7.63898 27.1111C7.56898 27.1111 7.49903 27.1112 7.42903 27.0417C7.21908 26.9028 7.07913 26.7639 6.93918 26.6945C6.72923 26.625 6.58928 26.5556 6.30933 26.5556C5.81948 26.5556 5.39958 26.7639 5.11968 27.1806C4.90974 27.5278 4.76978 27.9445 4.76978 28.4306C4.76978 29.125 4.97972 29.6112 5.32963 30.0278C5.53958 30.2362 5.81948 30.375 6.16938 30.375C6.37933 30.375 6.65923 30.3056 6.86918 30.2361C7.35908 30.0278 7.63898 29.5417 7.63898 28.9167V28.7084H6.79923C6.65923 28.7084 6.51928 28.6389 6.51928 28.4306C6.51928 28.2223 6.58928 28.1528 6.79923 28.1528H7.84893C8.05888 28.1528 8.19883 28.3612 8.19883 28.6389V28.7084Z" fill="white"/>
<path d="M76.43 28.7084C76.43 29.5417 76.22 30.0973 75.73 30.5139C75.4505 30.7917 75.0305 30.8612 74.4705 30.8612C73.771 30.8612 73.281 30.5834 72.861 30.0973C72.511 29.6112 72.371 29.125 72.371 28.5695C72.371 27.875 72.511 27.3195 72.931 26.8334C73.141 26.625 73.351 26.4167 73.561 26.2778C73.841 26.1389 74.1205 26.0695 74.4705 26.0695C74.8205 26.0695 75.1005 26.1389 75.4505 26.2084C75.73 26.2778 75.94 26.4167 76.08 26.625C76.15 26.6945 76.15 26.7639 76.15 26.8334C76.15 26.9028 76.15 26.9723 76.08 27.0417C76.01 27.1112 75.94 27.1111 75.87 27.1111C75.8 27.1111 75.73 27.1112 75.66 27.0417C75.4505 26.9028 75.3105 26.7639 75.1705 26.6945C74.9605 26.625 74.8205 26.5556 74.5405 26.5556C74.0505 26.5556 73.631 26.7639 73.351 27.1806C73.141 27.5278 73.001 27.9445 73.001 28.4306C73.001 29.125 73.211 29.6112 73.561 30.0278C73.771 30.2362 74.0505 30.375 74.4005 30.375C74.6105 30.375 74.8905 30.3056 75.1005 30.2361C75.5905 30.0278 75.87 29.5417 75.87 28.9167V28.7084H75.0305C74.8905 28.7084 74.7505 28.6389 74.7505 28.4306C74.7505 28.2223 74.8205 28.1528 75.0305 28.1528H76.08C76.36 28.1528 76.5 28.2917 76.5 28.5695V28.7084H76.43Z" fill="white"/>
<path d="M37.1009 30.5139C37.1009 30.7917 37.0309 30.9305 36.821 30.9305C36.681 30.9305 36.541 30.8611 36.541 30.6528L35.9812 26.8333L34.8615 30.6528C34.7915 30.7916 34.7216 30.8611 34.5816 30.8611C34.4416 30.8611 34.3017 30.7916 34.3017 30.6528L33.182 26.8333L32.6221 30.6528C32.6221 30.8611 32.4822 30.9305 32.2722 30.9305C32.1323 30.9305 31.9923 30.7916 31.9923 30.5833C31.9923 30.5139 31.9923 30.5139 31.9923 30.4445L32.6921 26.4861C32.6921 26.3472 32.7621 26.2778 32.8321 26.2083C32.9021 26.1389 33.042 26.0695 33.112 26.0695C33.252 26.0695 33.3219 26.0695 33.3919 26.1389C33.4619 26.2084 33.5319 26.2778 33.5319 26.3472L34.5116 29.75L35.4913 26.2778C35.4913 26.2083 35.5613 26.1389 35.6313 26.0695C35.7013 26 35.7713 26 35.9112 26C36.0512 26 36.1212 26 36.1911 26.0695C36.2611 26.1389 36.3311 26.2084 36.3311 26.3472L37.1009 30.5139Z" fill="white"/>
<path d="M48.0179 30.5833C48.0179 30.7916 47.9479 30.9305 47.738 30.9305C47.528 30.9305 47.458 30.8611 47.458 30.6527V26.4861C47.458 26.2777 47.528 26.2083 47.738 26.2083C47.9479 26.2083 48.0179 26.2777 48.0179 26.4861V30.5833Z" fill="white"/>
<path d="M62.084 30.5834C62.084 30.7917 62.014 30.8612 61.804 30.8612C61.664 30.8612 61.594 30.7917 61.454 30.6528L58.935 27.1111V30.5139C58.935 30.7223 58.865 30.7917 58.655 30.7917C58.445 30.7917 58.375 30.7223 58.375 30.5139V26.3473C58.375 26.1389 58.445 26.0695 58.585 26.0695C58.725 26.0695 58.795 26.1389 58.935 26.2778L61.384 29.8195V26.4167C61.384 26.3473 61.384 26.2778 61.454 26.2084C61.524 26.1389 61.594 26.1389 61.664 26.1389C61.874 26.1389 61.944 26.2084 61.944 26.4167V30.5834H62.084Z" fill="white"/>
<path d="M22.0551 30.6527C22.0551 30.7916 21.9851 30.8611 21.7751 30.8611C21.7052 30.8611 21.6352 30.8611 21.5652 30.7916C21.4952 30.7916 21.4952 30.7916 21.4952 30.7222L21.2153 29.8888H19.0459L18.626 30.7222C18.556 30.8611 18.486 30.9305 18.3461 30.9305C18.2061 30.9305 18.0662 30.8611 18.0662 30.7222V30.6527V30.5833L19.6057 26.5555C19.6757 26.4166 19.6757 26.3472 19.7457 26.2777C19.8157 26.2083 19.8857 26.2083 19.9556 26.2083C20.0256 26.2083 20.0956 26.2083 20.2356 26.2777C20.3055 26.3472 20.3755 26.4166 20.3755 26.5555L21.9151 30.5833C22.0551 30.5833 22.0551 30.6527 22.0551 30.6527ZM21.0053 29.3333L20.0956 26.7638L19.1159 29.3333H21.0053Z" fill="white"/>
<path d="M64.743 12.25C65.787 12.25 66.6325 11.4106 66.6325 10.375C66.6325 9.33945 65.787 8.5 64.743 8.5C63.6995 8.5 62.854 9.33945 62.854 10.375C62.854 11.4106 63.6995 12.25 64.743 12.25Z" fill="white"/>
<path d="M76.5 10.375C76.5 11.4167 75.66 12.25 74.6105 12.25C73.561 12.25 72.721 11.4167 72.721 10.375C72.721 9.33335 73.561 8.5 74.6105 8.5C75.66 8.5 76.5 9.33335 76.5 10.375Z" fill="white"/>
<path d="M64.743 21.4167C65.787 21.4167 66.6325 20.5773 66.6325 19.5417C66.6325 18.5062 65.787 17.6667 64.743 17.6667C63.6995 17.6667 62.854 18.5062 62.854 19.5417C62.854 20.5773 63.6995 21.4167 64.743 21.4167Z" fill="white"/>
<path d="M76.5 19.5417C76.5 20.5834 75.66 21.4167 74.6105 21.4167C73.561 21.4167 72.721 20.5834 72.721 19.5417C72.721 18.5001 73.561 17.6667 74.6105 17.6667C75.66 17.6667 76.5 18.5001 76.5 19.5417Z" fill="white"/>
<path d="M71.6015 14.9584C71.6015 16.0001 70.7615 16.8334 69.712 16.8334C68.662 16.8334 67.8225 16.0001 67.8225 14.9584C67.8225 13.9167 68.662 13.0834 69.712 13.0834C70.7615 13.0834 71.6015 13.9167 71.6015 14.9584Z" fill="white"/>
<path d="M59.7045 21L54.456 8.70835C54.386 8.56945 54.316 8.5 54.176 8.5H53.1265H52.9865H51.937C51.797 8.5 51.727 8.56945 51.657 8.70835L46.3383 21V21.0695C46.3383 21.2084 46.4083 21.2778 46.5483 21.2778H48.9276C49.0676 21.2778 49.1376 21.2084 49.2076 21.0695L50.327 18.2222H55.9255L57.0455 21.0695C57.1155 21.2084 57.1855 21.2778 57.3255 21.2778H59.7045C59.8445 21.2778 59.9145 21.2084 59.9145 21.0695C59.7745 21.0695 59.7745 21 59.7045 21ZM51.097 16L53.0565 11.0695L55.016 16H51.097Z" fill="white"/>
<path d="M22.4049 12.4584C22.5449 11.9722 22.7548 11.7639 22.7548 11.7639C22.7548 11.7639 23.0347 11.2778 23.6645 11C24.2944 10.7222 24.8542 10.7222 24.8542 10.7222H29.5429C29.6829 10.7222 29.8229 10.5834 29.8229 10.4445V8.7778C29.8229 8.6389 29.6829 8.5 29.5429 8.5H24.3644C21.4951 8.5 19.1858 11 19.1858 14.0556V14.8195V14.8889V15.0278V15.0972V15.8611C19.1858 18.9167 21.4951 21.4167 24.3644 21.4167H29.5429C29.6829 21.4167 29.8229 21.2778 29.8229 21.1389V19.4028C29.8229 19.2639 29.6829 19.125 29.5429 19.125H24.8542C24.8542 19.125 24.2244 19.125 23.6645 18.8472C23.0347 18.5695 22.7548 18.0834 22.7548 18.0834C22.7548 18.0834 22.5449 17.8056 22.4049 17.3889C22.2649 16.9028 22.2649 16.2778 22.2649 16.2778V16H29.5429C29.6829 16 29.8229 15.8611 29.8229 15.7222V13.9861C29.8229 13.8472 29.6829 13.7084 29.5429 13.7084H22.2649V13.5695C22.2649 13.5695 22.3349 12.9445 22.4049 12.4584Z" fill="white"/>
<path d="M38.5005 21.2778H42.7693C42.9092 21.2778 42.9792 21.1389 42.9792 21V19.2639C42.9792 19.125 42.9092 18.9861 42.7693 18.9861H38.9203C38.9203 18.9861 38.4305 18.9861 37.9406 18.7083C37.4508 18.4305 37.1708 17.9445 37.1708 17.9445C37.1708 17.9445 36.8909 17.6666 36.8909 17.1805C36.8909 16.7639 36.8909 16.2083 36.8909 16.2083V14.9584V8.70835C36.8909 8.56945 36.8209 8.5 36.681 8.5H34.4416C34.3016 8.5 34.1617 8.6389 34.1617 8.7778C34.1617 8.7778 34.1617 8.7778 34.1617 8.8472V15.0278V15.8611V17.1805V17.25C34.2316 19.4722 36.1211 21.2778 38.5005 21.2778Z" fill="white"/>
<path d="M15.5468 21L12.5377 16C14.0772 15.6528 15.127 14.6111 15.127 12.3195C15.1969 9.2639 13.0975 8.56945 10.5082 8.5H9.8784H4.27992C4.13996 8.5 4 8.6389 4 8.7778V21.0695C4 21.2084 4.13996 21.3472 4.27992 21.3472H6.5193C6.65925 21.3472 6.79925 21.2084 6.79925 21.0695V16.2778H9.94835L12.7476 21.1389C12.8175 21.2778 12.9576 21.3472 13.0975 21.3472H15.4768C15.6168 21.3472 15.6868 21.2778 15.6868 21.1389C15.5468 21.0695 15.5468 21 15.5468 21ZM10.5782 13.9861L9.8784 14.0555H6.72925V10.7916H9.94835H10.5782C12.0478 10.7916 12.4677 11.4861 12.4677 12.3889C12.3977 13.2916 11.9778 13.9861 10.5782 13.9861Z" fill="white"/>
</svg>
