<svg width="80" height="40" viewBox="0 0 80 40" fill="none" xmlns="http://www.w3.org/2000/svg">
<g clip-path="url(#clip0_10_603)">
<path d="M0.577795 13.0001H7.1269C7.4973 12.9981 7.8661 13.0484 8.2225 13.1496L8.2282 13.1514C10.719 13.8774 12.5023 15.4482 13.6446 17.7771C13.7035 17.897 13.8315 18.0543 13.6994 18.1696C13.5673 18.2849 13.4394 18.1273 13.3222 18.0594C12.5957 17.6388 11.8315 17.3275 10.9883 17.26C8.8624 17.0896 6.7326 17.224 4.60501 17.1832C4.34987 17.1784 4.26149 17.3038 4.2453 17.5531C4.21775 17.9777 4.46764 18.0133 4.78902 18.0133C6.96125 18.0078 9.1334 18.0069 11.3056 18.0106C11.5768 18.0051 11.848 18.0256 12.1153 18.0717C13.0843 18.2474 13.7843 19.0997 13.7703 20.0865C13.7717 22.3182 13.7717 24.5503 13.7703 26.7826C13.7703 27.3743 13.7655 27.3781 13.1665 27.3786C11.2228 27.3798 9.27925 27.3798 7.33555 27.3786C4.38396 27.3771 1.27153 25.2703 0.15735 22.5189C0.110748 22.4039 -0.0066735 22.265 0.099959 22.1608C0.234712 22.029 0.361893 22.1876 0.474149 22.2552C1.31079 22.7597 2.20494 23.0897 3.18644 23.0981C5.17215 23.1151 7.159 23.1096 9.14545 23.1141C9.40615 23.1148 9.58575 23.05 9.59025 22.7306C9.59505 22.3877 9.4011 22.3308 9.1242 22.32C7.3241 22.2493 5.5234 22.2987 3.72318 22.2913C3.10942 22.2888 2.49626 22.3489 1.88183 22.2822C0.87175 22.1732 0.0152496 21.317 0.00744445 20.2994C-0.009773 18.0552 0.00744445 15.8107 0.013528 13.5663C0.0139026 13.254 0.266203 13.0008 0.577795 13.0001Z" fill="url(#paint0_linear_10_603)"/>
<path d="M26.02 25.9994C26.02 24.0445 26.02 22.0895 26.02 20.1345C26.02 20.0689 26.0191 20.0034 26.0213 19.9379C26.0261 19.7923 26.024 19.6367 26.2329 19.6441C26.4188 19.6505 26.4206 19.7925 26.4224 19.927C26.4249 20.0995 26.4224 20.2721 26.4224 20.4283C26.457 20.4583 26.5092 20.4545 26.5392 20.4199C26.5455 20.4127 26.5504 20.4044 26.5539 20.3954C27.2435 19.5633 28.2013 19.2985 29.2827 19.6411C30.1252 19.9081 30.706 20.7169 30.7723 21.7499C30.8221 22.5213 30.6984 23.2454 30.1904 23.8729C29.445 24.7942 27.3841 24.8595 26.6365 23.8326C26.5812 23.7545 26.5018 23.6968 26.4106 23.6684V25.9994H26.02ZM28.441 19.9006C27.3789 19.8958 26.6532 20.5189 26.4798 21.5704C26.4372 21.8722 26.4349 22.1784 26.4727 22.4808C26.6309 24.0876 28.1318 24.452 29.1274 24.1001C30.0801 23.7636 30.5288 22.7772 30.3225 21.5225C30.1539 20.4999 29.4635 19.9051 28.4404 19.9003L28.441 19.9006ZM20.9756 17.7235C21.5954 17.6945 22.2076 17.7587 22.7702 18.0631C23.2848 18.3294 23.6265 18.8422 23.6747 19.4206C23.6902 19.5516 23.7351 19.7265 23.5288 19.7627C23.3059 19.8018 23.2938 19.6305 23.2688 19.4751C23.1503 18.7364 22.7064 18.3263 21.9914 18.1759C21.3101 18.0272 20.604 18.0354 19.9264 18.1999C19.5729 18.2863 19.2413 18.4326 19.0376 18.7578C18.6349 19.4004 18.8941 20.1449 19.6319 20.441C20.1127 20.6128 20.6092 20.7368 21.1143 20.8111C21.7687 20.9145 22.4075 21.1005 23.0154 21.3647C23.5872 21.6315 23.8214 22.1151 23.8491 22.7057C23.8761 23.2861 23.6332 23.779 23.1197 24.041C21.7713 24.7288 20.3985 24.7247 19.07 23.9918C18.4541 23.6521 18.2476 23.036 18.2495 22.3467C18.2495 22.2216 18.2799 22.1325 18.4243 22.1244C18.5767 22.1159 18.6392 22.197 18.6527 22.3383C18.6598 22.4908 18.6776 22.6426 18.706 22.7926C18.8222 23.3295 19.2223 23.7596 19.7485 23.9134C20.7139 24.2298 21.6883 24.2692 22.6449 23.875C23.2762 23.6146 23.5312 23.109 23.4075 22.4539C23.3428 22.0908 23.0846 21.7925 22.7351 21.6771C22.1668 21.4504 21.5651 21.3513 20.973 21.2169C20.4615 21.1163 19.9587 20.9755 19.4693 20.7958C18.5994 20.4466 18.2417 19.6374 18.5606 18.7704C18.7164 18.3467 19.0407 18.1066 19.4344 17.9448C19.9256 17.7591 20.4515 17.6834 20.975 17.7232L20.9756 17.7235ZM49.6994 20.306C50.2365 19.6903 50.8865 19.5036 51.6295 19.6089C52.0815 19.6543 52.4865 19.9089 52.7245 20.297C52.8055 20.4302 52.8675 20.4481 52.9505 20.3041C53.4205 19.4908 54.839 19.4099 55.543 19.8126C56.0255 20.0887 56.227 20.5435 56.2365 21.0717C56.2565 22.1207 56.245 23.1702 56.244 24.2194C56.244 24.3613 56.251 24.5274 56.045 24.5284C55.839 24.5295 55.845 24.3648 55.8445 24.222C55.8425 23.446 55.8435 22.67 55.843 21.8939C55.843 21.73 55.845 21.5659 55.842 21.4021C55.8265 20.5094 55.4515 20.0283 54.731 19.9756C53.763 19.9042 53.085 20.3709 52.982 21.2386C52.868 22.1952 52.958 23.1598 52.937 24.1207C52.9355 24.1753 52.937 24.2301 52.9395 24.2846C52.9445 24.4123 52.942 24.5342 52.7695 24.541C52.5995 24.5476 52.5375 24.4449 52.5355 24.2936C52.532 23.9439 52.5315 23.5942 52.531 23.2443C52.5305 22.6214 52.534 21.9983 52.5295 21.3753C52.5235 20.5873 52.258 20.1829 51.653 20.0258C50.924 19.8365 50.2425 20.1178 49.8967 20.748C49.7358 21.0477 49.6553 21.3841 49.6631 21.7243C49.6669 22.5441 49.6663 23.3638 49.6611 24.1835C49.6605 24.3264 49.7081 24.5245 49.4783 24.5353C49.2253 24.5468 49.262 24.3397 49.2617 24.1827C49.2594 22.8165 49.2594 21.4503 49.2627 20.084C49.2627 19.9319 49.2092 19.7167 49.4622 19.7159C49.7155 19.715 49.6454 19.9326 49.6653 20.0833C49.6737 20.1439 49.684 20.2035 49.6994 20.306ZM61.089 22.2641C60.449 22.2641 59.8095 22.2685 59.1695 22.2615C58.9625 22.2592 58.8875 22.3183 58.9045 22.5466C58.984 23.5865 59.6235 24.1941 60.6585 24.2367C61.541 24.2729 62.2655 24.0371 62.6975 23.1971C62.7505 23.0735 62.894 23.0165 63.017 23.0697C63.0215 23.0716 63.026 23.0736 63.03 23.0757C63.205 23.1508 63.0905 23.2811 63.048 23.3788C62.707 24.1589 62.0685 24.5213 61.265 24.6152C60.909 24.659 60.5485 24.6463 60.1965 24.5777C59.428 24.4234 58.8865 23.9894 58.6525 23.2385C58.316 22.1578 58.354 21.116 59.1865 20.2461C59.8545 19.5472 61.058 19.3777 62.0375 19.8063C62.8595 20.1663 63.3095 20.9574 63.3 21.9846C63.298 22.2111 63.2045 22.2661 63.008 22.2646C62.368 22.2599 61.7285 22.2629 61.089 22.2629V22.2641ZM60.816 21.8653C61.326 21.8653 61.8355 21.8653 62.345 21.8653C62.8295 21.8645 62.899 21.7711 62.7665 21.3041C62.5085 20.3967 61.726 19.9006 60.6715 19.9744C59.778 20.0302 59.047 20.7069 58.921 21.5947C58.8925 21.7998 58.954 21.8708 59.157 21.8676C59.7105 21.8596 60.263 21.8648 60.816 21.8653ZM76.362 20.5554C76.362 20.3051 76.3585 20.1027 76.363 19.9005C76.366 19.7619 76.3415 19.5916 76.5545 19.5911C76.755 19.5904 76.763 19.7465 76.7635 19.8933C76.7655 20.4719 76.765 21.0506 76.765 21.6292C76.765 22.4805 76.767 23.3324 76.762 24.184C76.7615 24.3251 76.8135 24.5268 76.5795 24.5315C76.3335 24.5364 76.368 24.3323 76.363 24.173C76.3585 24.0136 76.362 23.8515 76.362 23.6829C76.2175 23.6992 76.1815 23.804 76.119 23.8705C75.3745 24.6651 74.199 24.8778 73.2245 24.3943C72.7165 24.1512 72.3335 23.7074 72.1655 23.1692C71.8795 22.3122 71.893 21.4539 72.3535 20.6681C73.1195 19.3614 75.053 19.1823 76.0885 20.2911C76.1605 20.3682 76.24 20.438 76.362 20.5554ZM74.3375 19.9714C73.748 19.9198 73.1775 20.1924 72.846 20.6837C72.272 21.5058 72.246 22.3935 72.666 23.2896C72.8945 23.7979 73.3705 24.1508 73.922 24.2214C75.228 24.4357 76.2845 23.6097 76.351 22.2757C76.419 20.9158 75.661 19.9512 74.3375 19.9714ZM44.5203 24.6305C43.0301 24.6313 42.0613 23.645 42.0478 22.113C42.0343 20.6151 43.0633 19.5733 44.5557 19.5733C46.0164 19.5733 46.998 20.6001 46.9993 22.1291C47.0006 23.6526 46.0321 24.6298 44.5203 24.6305ZM44.5474 19.97C43.3111 19.9667 42.4549 20.8236 42.4537 22.0658C42.4524 23.3702 43.2763 24.2654 44.4846 24.2726C45.7405 24.2799 46.5925 23.4266 46.596 22.157C46.6005 20.8058 45.82 19.9734 44.5474 19.9701V19.97ZM66.015 20.3598C66.655 19.5976 67.475 19.4607 68.3795 19.6538C69.2505 19.8397 69.7225 20.4348 69.7275 21.331C69.732 22.2602 69.7285 23.1894 69.7275 24.1185C69.7285 24.2059 69.723 24.2931 69.7105 24.3796C69.6995 24.4781 69.61 24.5486 69.512 24.5371C69.507 24.5366 69.5025 24.5358 69.498 24.5348C69.4075 24.535 69.335 24.4621 69.3345 24.372C69.3345 24.3696 69.3345 24.3672 69.335 24.3647C69.329 24.2775 69.327 24.19 69.327 24.1027C69.327 23.2609 69.327 22.4191 69.327 21.5774C69.326 20.3446 68.394 19.6663 67.214 20.0378C66.4025 20.2934 65.975 20.9209 65.964 21.8963C65.956 22.6068 65.9625 23.3174 65.962 24.0279C65.962 24.1153 65.961 24.2029 65.96 24.2903C65.959 24.423 65.9245 24.5319 65.766 24.5378C65.6075 24.5438 65.5635 24.4402 65.56 24.3047C65.558 24.2172 65.557 24.1298 65.557 24.0424C65.557 22.7634 65.557 21.4844 65.557 20.2054C65.557 20.1289 65.557 20.0524 65.559 19.9753C65.5615 19.8328 65.5885 19.7062 65.77 19.7107C65.9315 19.7148 65.953 19.8305 65.962 19.9603C65.9715 20.0882 65.9445 20.2211 66.015 20.3599V20.3598ZM36.1809 20.2976C36.8883 19.3101 38.8472 19.3619 39.4851 20.094C39.7326 20.3782 39.8997 20.6835 39.9029 21.0603C39.9116 22.1088 39.9109 23.1574 39.9142 24.206C39.9142 24.3379 39.9328 24.48 39.7359 24.4884C39.5347 24.4969 39.506 24.3648 39.506 24.2095C39.5051 23.2701 39.4764 22.3297 39.5125 21.3911C39.5501 20.4132 38.8044 19.8537 37.8855 19.9282C36.775 20.0182 36.1899 20.6792 36.1857 21.8026C36.1828 22.5781 36.187 23.3536 36.1825 24.1291C36.1815 24.2727 36.2243 24.4692 35.9958 24.4787C35.7396 24.4894 35.7831 24.2786 35.7827 24.1242C35.7786 22.726 35.7792 21.3279 35.7776 19.9297C35.7776 19.7962 35.7554 19.6511 35.9553 19.6524C36.1223 19.6535 36.1802 19.7587 36.1819 19.9098C36.1819 20.0397 36.1809 20.1688 36.1809 20.2978V20.2976ZM79.098 21.1834C79.098 20.2434 79.098 19.3034 79.098 18.3635C79.098 18.2651 79.0995 18.1666 79.104 18.0684C79.093 17.9683 79.165 17.8784 79.2655 17.8677C79.279 17.8662 79.2935 17.8663 79.3075 17.8681C79.404 17.8629 79.486 17.937 79.4915 18.0336C79.492 18.0406 79.4915 18.0476 79.4915 18.0546C79.4985 18.1416 79.499 18.2292 79.499 18.3165C79.499 20.2293 79.499 22.1421 79.499 24.0549C79.499 24.0877 79.5015 24.1207 79.4985 24.1532C79.484 24.3077 79.542 24.5213 79.299 24.5298C79.039 24.5392 79.101 24.3163 79.1 24.1673C79.0955 23.1725 79.0985 22.1778 79.0985 21.1832L79.098 21.1834ZM33.5152 22.0208C33.5152 22.7091 33.5172 23.3974 33.5139 24.0855C33.513 24.2331 33.5413 24.4219 33.3083 24.4163C33.0752 24.4106 33.1148 24.2182 33.1145 24.074C33.1116 22.6865 33.1116 21.2991 33.1145 19.9117C33.1145 19.7637 33.0871 19.5752 33.3199 19.5808C33.5526 19.5865 33.5123 19.7788 33.5133 19.9233C33.5175 20.6224 33.5152 21.3216 33.5152 22.0208Z" fill="white"/>
</g>
<defs>
<linearGradient id="paint0_linear_10_603" x1="13.785" y1="21.9939" x2="0.00700896" y2="18.3104" gradientUnits="userSpaceOnUse">
<stop stop-color="#34BCD5"/>
<stop offset="1" stop-color="#A1509E"/>
</linearGradient>
<clipPath id="clip0_10_603">
<rect width="80" height="40" fill="white"/>
</clipPath>
</defs>
</svg>
