<svg width="80" height="40" viewBox="0 0 80 40" fill="none" xmlns="http://www.w3.org/2000/svg">
<path fill-rule="evenodd" clip-rule="evenodd" d="M0.11377 24.3608V22.7225H4.43761V24.6291C4.43761 26.3742 5.11186 27.2472 6.45946 27.2472H6.47656C7.81176 27.2472 8.48036 26.3771 8.48036 24.6376C8.48036 23.6437 8.19261 22.7121 7.61521 21.8419C7.03876 20.9717 6.34931 20.1762 5.54681 19.4553L3.37968 17.2189C2.48414 16.4366 1.73485 15.4672 1.13182 14.3117C0.527825 13.1552 0.225831 11.875 0.225831 10.471C0.225831 8.3102 0.79563 6.65295 1.93523 5.49745C3.07389 4.34193 4.62184 3.76465 6.57721 3.76465C8.53256 3.76465 10.034 4.34193 11.0824 5.4965C12.1309 6.6511 12.6551 8.3083 12.6551 10.4681V11.3251H8.66741V10.2083C8.66741 8.4576 7.96276 7.58175 6.55251 7.58175C5.14226 7.58175 4.43761 8.45855 4.43761 10.2102C4.43761 10.9434 4.59145 11.6426 4.8982 12.3077C5.20496 12.9729 5.60286 13.5719 6.09191 14.1066C6.58101 14.6405 7.12041 15.1686 7.70921 15.6902C8.29801 16.2127 8.88016 16.7597 9.45376 17.3313C10.0274 17.9029 10.5582 18.5142 11.0454 19.1671C11.5316 19.819 11.9276 20.59 12.2334 21.4782C12.5392 22.3672 12.6921 23.3328 12.6921 24.3769C12.6921 26.532 12.1556 28.1854 11.0824 29.3372C10.0093 30.4889 8.49461 31.0653 6.53826 31.0653C4.58196 31.0653 3.02165 30.488 1.85831 29.3334C0.694965 28.1788 0.11377 26.5207 0.11377 24.3608Z" fill="white"/>
<path fill-rule="evenodd" clip-rule="evenodd" d="M19.2996 16.9305H21.3025C21.9881 16.9305 22.5029 16.7378 22.8466 16.3532C23.1895 15.9687 23.3614 15.3167 23.3614 14.3974V10.3942C23.3614 9.47495 23.1895 8.8268 22.8466 8.4479C22.5029 8.06905 21.9881 7.88005 21.3025 7.88005H19.2996V16.9305ZM15.0879 30.7665V4.06299H21.293C25.4791 4.06299 27.5731 6.26915 27.5731 10.6805V14.1489C27.5731 18.548 25.481 20.7485 21.2977 20.7485H19.2996V30.7665H15.0879Z" fill="white"/>
<path fill-rule="evenodd" clip-rule="evenodd" d="M33.7496 16.0925H35.3963C36.2453 16.0925 36.8788 15.8751 37.2966 15.4405C37.7145 15.0059 37.9234 14.2803 37.9234 13.2618V10.6361C37.9358 8.79935 37.2245 7.88005 35.7895 7.88005H33.7496V16.0925ZM29.5378 30.7665V4.06201H35.893C38.0602 4.06201 39.6433 4.5656 40.6395 5.57185C41.6366 6.57805 42.1352 8.12475 42.1352 10.2119V12.3169C42.1352 15.0626 41.2159 16.87 39.3773 17.7393C41.2406 18.5225 42.1722 20.4169 42.1722 23.4233V27.5324V27.6996C42.1722 29.063 42.3223 30.0853 42.6214 30.7665H38.3517C38.1038 30.0106 37.9737 28.9203 37.9614 27.4946V23.3118C37.9614 22.0977 37.7458 21.2266 37.3156 20.7004C36.8845 20.1731 36.1827 19.9105 35.2093 19.9105H33.7496V30.7665H29.5378Z" fill="white"/>
<path fill-rule="evenodd" clip-rule="evenodd" d="M44.943 30.767H49.1548V4.0625H44.943V30.767Z" fill="white"/>
<path fill-rule="evenodd" clip-rule="evenodd" d="M56.4355 26.9494H58.8505C59.5865 26.9494 60.1355 26.7538 60.4975 26.3627C60.859 25.9715 61.0405 25.2922 61.0405 24.3237V21.9957C61.0405 20.7788 60.8315 19.935 60.413 19.4636C59.995 18.9912 59.3 18.7559 58.3265 18.7559H56.4355V26.9494ZM56.4355 14.9379H58.09C58.942 14.9379 59.578 14.7206 59.998 14.2859C60.4185 13.8513 60.6285 13.1314 60.6285 12.1261V10.6361C60.6405 8.7994 59.9265 7.88005 58.485 7.88005H56.4355V14.9379ZM52.224 30.7674V4.06299H58.5885C60.7595 4.06299 62.3445 4.56563 63.3425 5.5709C64.3405 6.5762 64.84 8.12195 64.84 10.2081V11.1576C64.84 13.9014 63.9295 15.6956 62.107 16.5393C64.204 17.3585 65.2515 19.2652 65.2515 22.2565V24.4352C65.2515 26.4959 64.709 28.0671 63.6235 29.1471C62.537 30.227 60.9465 30.7674 58.8505 30.7674H52.224Z" fill="white"/>
<path fill-rule="evenodd" clip-rule="evenodd" d="M67.7791 30.767V4.0625H79.2716V7.88055H71.9906V15.3106H77.7741V19.1277H71.9906V26.949H79.2716V30.767H67.7791Z" fill="white"/>
<path fill-rule="evenodd" clip-rule="evenodd" d="M0 36.2043H79.3305V32.4968H0V36.2043Z" fill="white"/>
</svg>
