<svg width="80" height="40" viewBox="0 0 80 40" fill="none" xmlns="http://www.w3.org/2000/svg">
<g clip-path="url(#clip0_10_372)">
<path d="M24.9384 18.3792L23.3959 26.9714H21.5075L23.05 18.3792H21.5796L21.9112 16.5156H26.7547L26.4231 18.3792H24.9384Z" fill="white"/>
<path d="M28.6575 26.9714L29.4359 22.6753H28.2106L27.4322 26.9714H25.5438L27.4178 16.5156H29.3062L28.5422 20.8118H29.7675L30.5315 16.5156H32.4199L30.5459 26.9714H28.6575Z" fill="white"/>
<path d="M36.903 24.5104C36.7732 25.2643 36.4273 25.8618 35.9083 26.3028C35.3605 26.758 34.7119 26.9714 33.9623 26.9714C33.1983 26.9714 32.6361 26.7438 32.2613 26.3028C31.8865 25.8476 31.7567 25.2501 31.9009 24.5104L33.328 16.5156H35.2164L33.7893 24.5104C33.746 24.7522 33.7605 24.9087 33.8325 24.9798C33.8902 25.0652 34.0488 25.1079 34.2938 25.1079C34.5389 25.1079 34.6974 25.0652 34.7984 24.9798C34.8993 24.9087 34.9713 24.7522 35.0002 24.5104L36.4273 16.5156H38.3157L36.903 24.5104Z" fill="white"/>
<path d="M41.2276 26.9714L40.132 21.9925L39.2383 26.9714H37.3499L39.2239 16.5156H40.9681L42.0637 21.4946L42.943 16.5156H44.8314L42.9574 26.9714H41.2276Z" fill="white"/>
<path d="M48.3919 16.5156C49.1559 16.5156 49.7181 16.7433 50.093 17.1842C50.4675 17.6395 50.5975 18.2369 50.4535 18.9767L49.4586 24.5104C49.3289 25.2501 48.9973 25.8476 48.464 26.3028C47.9306 26.758 47.2963 26.9714 46.5323 26.9714H43.8799L45.7539 16.5156H48.3919ZM46.0999 25.1079H46.8639C47.0945 25.1079 47.2675 25.0652 47.3684 24.9798C47.4693 24.8945 47.5414 24.738 47.5702 24.5104L48.5649 18.9767C48.6081 18.7491 48.5937 18.5926 48.5216 18.5072C48.4496 18.4219 48.3054 18.3792 48.0603 18.3792H47.2963L46.0999 25.1079Z" fill="white"/>
<path d="M53.192 18.3792L52.7595 20.8118H55.095L54.7635 22.6753H52.428L51.9955 25.1079H54.331L53.9995 26.9714H49.7758L51.6495 16.5156H55.8735L55.542 18.3792H53.192Z" fill="white"/>
<path d="M59.405 16.5156C60.169 16.5156 60.7315 16.7433 61.106 17.1842C61.481 17.6395 61.6105 18.2369 61.4665 18.9767L61.135 20.826C61.0055 21.5657 60.6735 22.1632 60.1405 22.6184L60.0825 22.6611L60.0395 26.9714H58.122L58.1655 23.287H57.4445L56.7815 26.9714H54.893L56.767 16.5156H59.405ZM57.762 21.4234H58.526C58.7565 21.4234 58.9295 21.3808 59.0305 21.3096C59.1315 21.2243 59.2035 21.0678 59.232 20.826L59.5635 18.9767C59.607 18.7491 59.5925 18.5926 59.5205 18.5072C59.4485 18.4219 59.3045 18.3792 59.059 18.3792H58.295L57.762 21.4234Z" fill="white"/>
<path d="M74.8295 25.0939C75.1035 23.5718 75.377 22.0354 75.68 20.3995L76.7035 26.2462C76.7465 26.5734 76.7325 26.8294 77.208 26.8436C77.6835 26.8579 77.7415 26.6303 77.8135 26.2604C78.361 23.2161 78.909 20.1577 79.5 17.1134C79.6155 16.5017 79.399 16.4448 78.8945 16.4733C78.592 16.5017 78.462 16.6013 78.419 16.8858C78.347 17.3979 78.246 17.9099 78.145 18.422V18.4221C77.842 19.9158 77.727 21.4522 77.1935 22.9174C76.891 21.0254 76.646 19.1192 76.372 17.2272C76.3285 16.9142 76.444 16.5017 75.853 16.4733C75.2765 16.4448 75.262 16.8004 75.19 17.1703C74.6275 20.1719 74.1085 23.1735 73.5175 26.175C73.388 26.8436 73.6475 26.8721 74.152 26.8436C74.4115 26.8294 74.5265 26.7583 74.57 26.488C74.642 26.0186 74.743 25.5634 74.8295 25.0939Z" fill="white"/>
<path d="M65.157 18.6071C65.1715 18.1092 65.1715 17.6256 64.5945 17.4975C64.0035 17.3695 63.643 17.7394 63.427 18.223C63.1675 18.7636 63.11 19.3611 63.1245 19.9585C63.1385 20.4138 63.427 20.6414 63.7875 20.8121C65.5605 21.5945 65.82 22.0781 65.373 24.3542C65.2865 24.7952 65.1855 25.2362 64.9985 25.6487C64.4935 26.801 63.0665 27.3274 61.9135 26.8152C61.135 26.4738 60.6735 25.0797 61.0915 24.3258C61.2645 24.0413 61.654 24.1266 61.942 24.1551C62.245 24.1835 62.144 24.3969 62.144 24.5676C62.1295 25.1366 62.0285 25.7768 62.8505 25.8764C63.427 25.9475 63.816 25.6203 64.0325 25.1224C64.321 24.4823 64.393 23.7994 64.4215 23.1166C64.436 22.6898 64.1765 22.4053 63.8305 22.2062C63.4845 22.007 63.11 21.8221 62.764 21.6229C62.317 21.3669 62.0575 20.9828 62.0145 20.4707C61.942 19.4322 62.115 18.4364 62.6055 17.5118C63.11 16.5586 64.148 16.1603 65.1855 16.4591C66.0795 16.7151 66.238 17.5971 66.1945 19.0197C66.1945 19.233 66.1945 19.233 65.402 19.233C65.1715 19.2473 65.1715 19.2473 65.157 18.6071Z" fill="white"/>
<path d="M71.6005 26.9289C71.1245 26.9431 71.038 26.7866 71.1245 26.3029C71.716 23.2302 72.2635 20.1575 72.8255 17.0848C72.8835 16.7434 72.941 16.4731 73.417 16.4731C73.9215 16.4731 74.0365 16.6154 73.9355 17.099C73.359 20.186 72.7825 23.2871 72.2345 26.3883C72.1625 26.8008 72.148 26.9289 71.6005 26.9289Z" fill="white"/>
<path d="M71.514 18.1943C71.4705 17.1416 70.923 16.5868 69.8705 16.5015C69.611 16.4872 69.337 16.5015 69.078 16.5015C67.795 16.4872 67.795 16.4872 67.564 17.6964C67.045 20.5415 66.512 23.3724 66.0075 26.2175C65.9785 26.4166 65.8345 26.7723 66.1515 26.815C66.4975 26.8434 66.9875 27.0568 67.074 26.3882C67.204 25.4208 67.4635 24.482 67.5785 23.5146C67.71 22.4121 67.6885 22.4147 68.7175 22.5189C69.842 22.6327 70.5915 22.0494 70.9805 21.0252C71.341 20.129 71.557 19.1759 71.514 18.1943ZM70.0435 20.4988C69.9425 20.7833 69.7985 21.0678 69.539 21.2528C69.1065 21.5515 68.573 21.58 68.1695 21.4093C67.963 21.3218 68.0445 21.2528 68.1695 20.5131C68.2995 19.7449 68.4725 18.9767 68.573 18.2085C68.631 17.7106 68.8325 17.5257 69.3515 17.5684C69.8705 17.6111 70.332 17.6395 70.404 18.2797C70.4185 18.4219 70.4185 18.5642 70.4185 18.6353C70.375 19.3181 70.2455 19.9156 70.0435 20.4988Z" fill="white"/>
<path d="M11.2439 23.0027H8.24552C7.82747 23.0027 7.42382 22.8177 7.14997 22.5048C6.87607 22.1918 6.74632 21.765 6.81842 21.3525L7.85632 14.7092C7.97162 14.0121 8.56267 13.5 9.29782 13.5H12.2962C12.7142 13.5 13.1179 13.685 13.3918 13.9979C13.6656 14.3109 13.7954 14.7376 13.7233 15.1502L12.6854 21.7935C12.5701 22.4905 11.9791 23.0027 11.2439 23.0027ZM9.28342 13.7845C8.70682 13.7845 8.21667 14.1971 8.13017 14.7519L7.09227 21.3952C7.03462 21.7224 7.13552 22.0638 7.35177 22.3198C7.56802 22.5759 7.89957 22.7181 8.23112 22.7181H11.2439C11.8205 22.7181 12.3106 22.3056 12.3971 21.7508L13.435 15.1075C13.4927 14.7803 13.3918 14.4389 13.1755 14.1828C12.9449 13.9268 12.6277 13.7845 12.2818 13.7845H9.28342Z" fill="#FFF324"/>
<path d="M18.0046 23.0026H15.0063C14.5882 23.0026 14.1846 22.8177 13.9107 22.5047C13.6368 22.1917 13.5071 21.765 13.5792 21.3524L14.617 14.7234C14.7324 14.0263 15.3234 13.5142 16.0442 13.5142H19.0425C19.4606 13.5142 19.8642 13.6991 20.1381 14.0121C20.412 14.325 20.5417 14.7518 20.4696 15.1643L19.4317 21.7934C19.3308 22.4905 18.7254 23.0026 18.0046 23.0026ZM16.0442 13.7845C15.482 13.7845 14.9774 14.197 14.8909 14.7518L13.853 21.3951C13.7954 21.7223 13.8963 22.0637 14.1125 22.3198C14.3287 22.5758 14.6603 22.7181 14.9918 22.7181H17.9902C18.5668 22.7181 19.0569 22.3055 19.1434 21.7508L20.1813 15.1074C20.239 14.7803 20.1381 14.4388 19.9219 14.1828C19.7056 13.9267 19.3741 13.7845 19.0425 13.7845H16.0442Z" fill="#FFF324"/>
<path d="M4.4544 23.0027H1.45604C1.03799 23.0027 0.634365 22.8177 0.360475 22.5048C0.086586 22.1918 -0.0431511 21.765 0.028925 21.3525L1.0524 14.7092C1.16773 14.0121 1.77317 13.5 2.49393 13.5H5.4923C5.91035 13.5 6.31395 13.685 6.58785 13.9979C6.86175 14.3109 6.9915 14.7376 6.9194 15.1502L5.8815 21.7793C5.7806 22.4905 5.17515 23.0027 4.4544 23.0027ZM2.49393 13.7845C1.93174 13.7845 1.42721 14.1971 1.34071 14.7519L0.302814 21.3952C0.245153 21.7224 0.34606 22.0638 0.56229 22.3198C0.778515 22.5759 1.11006 22.7181 1.44162 22.7181H4.43998C5.0166 22.7181 5.5067 22.3056 5.5932 21.7508L6.6311 15.1075C6.68875 14.7803 6.58785 14.4389 6.37165 14.1828C6.1554 13.9268 5.82385 13.7845 5.4923 13.7845H2.49393Z" fill="#FFF324"/>
<path d="M11.9214 14.3394L8.05811 18.5786H9.80236L8.56266 21.8504L12.4548 17.6397H10.6817L11.9214 14.3394Z" fill="#FFF324"/>
<path d="M2.26314 18.6355L3.50285 15.3636H1.75861L3.32987 13.6423H4.6849L4.38218 14.4247H6.15527L2.26314 18.6355Z" fill="#FFF324"/>
<path d="M18.884 21.0964L17.2551 22.8603H15.9144L16.2316 22.0353H14.4873L18.3506 17.8103L17.1109 21.0964H18.884Z" fill="#FFF324"/>
</g>
<defs>
<clipPath id="clip0_10_372">
<rect width="80" height="40" fill="white"/>
</clipPath>
</defs>
</svg>
