<svg width="80" height="40" viewBox="0 0 80 40" fill="none" xmlns="http://www.w3.org/2000/svg">
<path d="M26.1147 16.57L21.4024 16.7258C21.3274 16.7258 21.2467 16.772 21.189 16.8181C21.1255 16.8816 21.114 16.9566 21.114 17.0489L21.2063 18.3413C21.2236 18.4971 21.362 18.6356 21.512 18.6183L22.804 18.601L23.0982 24.6361C23.0982 24.7111 23.1443 24.7919 23.2077 24.8496C23.2712 24.913 23.3462 24.9246 23.4212 24.9246L24.8631 24.8323C25.0304 24.8149 25.1573 24.6765 25.14 24.5265L24.9727 18.5837L26.2474 18.5663C26.3224 18.5663 26.4031 18.5375 26.4608 18.474C26.5243 18.4106 26.5531 18.3356 26.5358 18.2432L26.4435 16.8758C26.4204 16.6796 26.282 16.5585 26.1147 16.57ZM31.6115 16.9566L30.1811 16.8816C30.0138 16.8816 29.8869 17.0028 29.8754 17.1758L29.8581 20.3261L29.2409 20.4646L29.0852 16.8874C29.0852 16.72 28.9468 16.5931 28.791 16.5931L27.3779 16.622C27.3029 16.622 27.2222 16.6508 27.1645 16.7143C27.1011 16.7777 27.0722 16.8527 27.0722 16.9277L27.3318 24.8726C27.3318 25.04 27.4702 25.1669 27.6375 25.1669L29.0506 25.138C29.1256 25.138 29.2063 25.1092 29.264 25.0457C29.3275 24.9823 29.3563 24.9073 29.3563 24.8323L29.2006 22.1724L29.7543 22.2186L29.8466 24.6015C29.8466 24.6765 29.8754 24.7688 29.9215 24.8149C29.985 24.8784 30.06 24.9073 30.135 24.9073L31.6115 25.0169H31.6288C31.7846 24.9996 31.9057 24.8784 31.923 24.7226V17.2624C31.923 17.1874 31.8942 17.1066 31.848 17.0489C31.7788 16.9854 31.6865 16.9566 31.6115 16.9566ZM36.9064 16.2931L35.6029 16.3854C35.4472 16.4027 35.326 16.5239 35.326 16.6912C35.326 16.6912 35.3433 21.6705 35.326 22.3167C35.3087 22.7032 35.3722 23.3437 34.9396 23.3783C34.6454 23.3956 34.5416 22.9629 34.5416 22.3628C34.5416 21.6878 34.5877 17.0604 34.5877 17.0143C34.5877 16.8585 34.4782 16.72 34.3109 16.7085L32.8343 16.5527C32.742 16.5354 32.667 16.57 32.6036 16.6277C32.5402 16.6912 32.494 16.7662 32.5113 16.8585C32.5113 16.8585 32.5748 22.6802 32.5748 22.8936C32.5921 23.6437 33.1746 24.9996 34.8185 24.9534C36.6642 24.9073 36.9814 23.8168 37.1083 22.5244C37.1544 21.9878 37.2467 17.1297 37.2467 16.5931C37.2467 16.5008 37.2179 16.4258 37.1544 16.3623C37.0795 16.3104 36.9872 16.2815 36.9064 16.2931ZM42.6224 16.6046L41.2727 16.6681C41.1977 16.6681 41.117 16.7143 41.0593 16.7777C41.0131 16.8412 40.9843 16.9162 40.9843 16.9912L41.215 20.7242L39.8192 16.87C39.7731 16.7489 39.6346 16.6566 39.4962 16.6681L38.1465 16.8239C37.9908 16.8412 37.8697 16.9797 37.8697 17.1297L38.1004 24.4861C38.1004 24.6419 38.2215 24.7803 38.3772 24.7919L39.7269 24.8842C39.8192 24.8842 39.8942 24.8553 39.9576 24.7919C40.0211 24.7284 40.0499 24.6534 40.0499 24.5611L39.8365 21.3358L41.0016 24.6822C41.0478 24.7919 41.1573 24.8669 41.2612 24.8842H42.6916C42.7089 24.8842 42.7089 24.8842 42.7204 24.8842C42.7954 24.8842 42.8589 24.8553 42.9223 24.8092C42.9858 24.7457 43.0146 24.6707 43.0146 24.5784L42.9223 16.8989C42.9223 16.8239 42.8935 16.7431 42.83 16.6854C42.7723 16.6335 42.6974 16.6046 42.6224 16.6046ZM44.4162 16.4489C44.3239 16.4489 44.2316 16.4489 44.122 16.4489C43.9663 16.4489 43.8279 16.5873 43.8279 16.7431L43.5798 24.3938C43.5798 24.5611 43.701 24.688 43.8567 24.6996C43.8567 24.6996 44.0413 24.7169 44.3008 24.7169C45.2525 24.7169 47.5078 24.5495 48.0326 22.9513C48.4652 21.6301 48.4018 19.8184 48.2922 18.9587C48.1019 17.2624 46.8272 16.4489 44.4162 16.4489ZM46.4465 21.4858C46.2792 22.7782 45.8755 22.8532 45.4313 23.009L45.6447 18.2144C45.8005 18.2606 45.9966 18.2432 46.2446 18.5837C46.5964 19.0625 46.5964 20.228 46.4465 21.4858ZM52.739 23.361L50.9745 23.4995L50.8995 21.8435L52.053 21.7801C52.2085 21.7628 52.3125 21.6589 52.3295 21.5031L52.4395 20.4877C52.4565 20.3953 52.422 20.303 52.3645 20.2396C52.301 20.1761 52.2085 20.1472 52.1335 20.1472L50.888 20.2107V18.4106H52.7335C52.9005 18.4106 53.039 18.2721 53.039 18.1048C53.039 18.0759 53.039 18.0586 53.022 18.0413L52.9125 16.9681C52.895 16.8124 52.7565 16.6912 52.6065 16.6912L49.2439 16.7662C49.0766 16.7662 48.9497 16.9047 48.9497 17.072L49.0593 24.6303C49.0593 24.7976 49.1977 24.9246 49.365 24.9246H52.774C52.941 24.9246 53.068 24.7861 53.0795 24.6303L53.1085 23.6495C53.1085 23.5571 53.0795 23.4821 53.016 23.4187C52.9125 23.3783 52.82 23.3437 52.739 23.361ZM58.242 18.9241C58.167 17.8624 57.7975 16.4489 55.4905 16.4489C55 16.4489 54.4175 16.5123 53.7715 16.6335C53.6335 16.6623 53.5235 16.7893 53.5235 16.9393L53.6335 24.3303C53.6335 24.4861 53.7545 24.6245 53.91 24.6245L54.9715 24.6996C55.0465 24.7169 55.1385 24.6822 55.202 24.6245C55.2655 24.5668 55.2945 24.4861 55.2945 24.4111V22.0282L55.831 21.9993L56.4305 24.5495C56.4595 24.688 56.5865 24.7976 56.725 24.7976C56.742 24.7976 56.742 24.7976 56.7535 24.7976L57.815 24.7226C57.907 24.7226 57.982 24.6765 58.0285 24.6015C58.0745 24.538 58.1035 24.4457 58.092 24.3534L57.342 21.5089C57.8555 21.1166 58.3455 20.3953 58.242 18.9241ZM56.321 19.9684C56.044 20.2626 55.583 20.355 55.277 20.3665V18.1855C55.3695 18.1682 55.479 18.1567 55.5715 18.1567C55.969 18.1567 56.477 18.3413 56.5405 19.201C56.5635 19.5357 56.5055 19.7838 56.321 19.9684ZM62.2795 21.0877C62.7235 20.505 63.831 19.1664 63.7095 16.8297C63.7095 16.7547 63.6635 16.6739 63.6 16.6162C63.5365 16.57 63.4615 16.5412 63.3865 16.5412L62.1295 16.6162C61.962 16.6335 61.835 16.772 61.8525 16.9393C61.8985 17.597 61.4545 19.0106 60.826 19.9049L60.918 17.0143C60.918 16.9393 60.889 16.847 60.826 16.8008C60.7625 16.7373 60.6875 16.7085 60.6125 16.7085L58.986 16.7373C58.911 16.7373 58.83 16.7662 58.7725 16.8297C58.709 16.8931 58.68 16.9681 58.6975 17.0431L58.8645 24.6938C58.8645 24.7861 58.911 24.8611 58.9745 24.9246C59.038 24.988 59.13 24.9996 59.205 24.9996L60.4625 24.8323C60.618 24.8149 60.722 24.6765 60.722 24.538L60.7395 22.2936C60.999 22.4494 61.7545 23.5398 61.8755 24.613C61.893 24.7688 62.0315 24.89 62.181 24.8726H63.5195H63.5365C63.6115 24.8726 63.675 24.8438 63.7385 24.7803C63.802 24.7169 63.831 24.6419 63.831 24.5668C63.802 24.3014 63.352 21.9474 62.2795 21.0877ZM66.057 16.3854L64.6155 16.57C64.4595 16.5873 64.3555 16.7258 64.3555 16.8643L64.3385 24.3591C64.3385 24.4341 64.3675 24.5265 64.4305 24.5726C64.494 24.6361 64.569 24.6476 64.644 24.6476C64.644 24.6476 64.644 24.6476 64.6615 24.6476L66.2305 24.5265C66.386 24.5091 66.507 24.388 66.507 24.2207L66.3975 16.645C66.3975 16.5527 66.3515 16.4777 66.288 16.4142C66.2245 16.4027 66.1495 16.3739 66.057 16.3854ZM69.1255 16.6046C68.693 16.6335 67.251 16.8989 67.13 18.9991C67.113 19.2587 67.101 19.5241 67.084 19.7664C66.9915 21.2089 66.928 22.2417 67.113 23.1475C67.2225 23.6841 67.684 24.9303 69.4485 24.9303C69.5585 24.9303 69.6795 24.9303 69.789 24.913C70.5275 24.8496 71.081 24.6188 71.433 24.2091C71.923 23.6264 71.848 22.8879 71.8195 22.4898V22.4147C71.802 22.2474 71.6635 22.1205 71.5135 22.1378L70.3945 22.184C70.3025 22.184 70.2275 22.2301 70.1815 22.2936C70.118 22.357 70.1065 22.4494 70.118 22.5417C70.1465 22.6975 70.164 23.1706 69.962 23.4014C69.916 23.4648 69.8235 23.5398 69.61 23.5398H69.593C69.4255 23.5398 69.316 23.4937 69.2065 23.3841C69.039 23.2167 68.8545 22.784 68.9125 21.757C68.9295 21.5089 68.941 21.232 68.941 20.9435C68.97 20.1761 69.0045 19.2991 69.0795 18.7452V18.7279C69.143 18.3125 69.218 18.1278 69.5585 18.1105C69.8065 18.0932 69.991 18.1567 70.083 18.2663C70.2045 18.4048 70.193 18.6529 70.1755 18.7279C70.158 18.8202 70.1755 18.9125 70.239 18.976C70.3025 19.051 70.3775 19.0856 70.4695 19.0856L71.8195 19.1029C71.9865 19.1029 72.125 18.9818 72.125 18.8087C72.125 18.7798 72.154 17.949 71.525 17.3028C71.0005 16.772 70.187 16.5239 69.1255 16.6046ZM78.1295 24.2668C78.112 24.1745 77.5295 21.8839 76.33 20.7935C76.9125 20.2396 78.095 19.1664 77.697 16.6912C77.668 16.5354 77.5295 16.4142 77.3565 16.4431L75.7875 16.6104C75.7125 16.6277 75.632 16.6566 75.574 16.7316C75.528 16.795 75.499 16.8874 75.511 16.9624C75.511 16.9912 75.834 18.7741 74.6225 19.8357L74.6515 16.795C74.6515 16.7027 74.6225 16.6277 74.542 16.5643C74.4785 16.5008 74.386 16.4719 74.311 16.4892L72.777 16.6912C72.621 16.7085 72.5 16.847 72.5 16.997L72.6845 24.6015C72.6845 24.6938 72.7305 24.7688 72.794 24.8149C72.8575 24.8611 72.9325 24.89 73.0075 24.89H73.025L74.3455 24.7342C74.5015 24.7169 74.605 24.5957 74.605 24.4399L74.715 22.057C75.13 22.4898 75.834 23.5918 75.9435 24.5322C75.9605 24.6996 76.1105 24.8092 76.2835 24.7919L77.8525 24.6245C77.945 24.6072 78.02 24.5611 78.066 24.5034C78.1295 24.4341 78.141 24.3591 78.1295 24.2668Z" fill="white"/>
<path d="M19.9086 23.7764L20.5373 19.3856L17.9129 13.8698L16.1306 14.4871L13.7946 11.9773L9.66483 9.72131L8.75928 13.0562L8.13058 11.3022L4.96981 14.4063L3.18754 17.4931L3.11256 20.7011L1.8667 20.1184L2.70881 25.2649L4.64104 28.571L9.18613 30.1404L12.9179 30.2788L19.3549 27.9306L21.2006 23.3552L19.9086 23.7764ZM17.1285 21.3358L13.4889 21.4281L13.3505 25.5304L13.1486 27.9594L9.97053 27.9306V25.6111L9.71098 21.5377L5.90418 21.705L5.76578 17.7701L11.3894 17.7239L17.1919 17.5566L17.2842 18.0817L17.1285 21.3358Z" fill="white"/>
</svg>
