<svg width="81" height="40" viewBox="0 0 81 40" fill="none" xmlns="http://www.w3.org/2000/svg">
<g clip-path="url(#clip0_10_366)">
<g filter="url(#filter0_d_10_366)">
<path d="M32.1323 21.5904C32.1323 22.3158 32.7038 22.8862 33.4142 22.8862C33.5704 22.8862 33.7257 22.852 34.1067 22.7132L34.643 24.0441C34.1239 24.2514 33.7781 24.3208 33.4142 24.3208C33.0548 24.3214 32.6988 24.2513 32.3666 24.1143C32.0344 23.9773 31.7326 23.7762 31.4784 23.5226C31.2243 23.2689 31.0228 22.9676 30.8856 22.6361C30.7483 22.3045 30.678 21.9492 30.6787 21.5904V12.7588H32.1331V14.971H34.643V16.4055H32.1331V21.5904H32.1323ZM35.6015 21.5904V17.1652C35.6015 15.6441 36.8302 14.434 38.337 14.434C39.8438 14.434 41.0725 15.6441 41.0725 17.1652V21.5896C41.0732 21.9483 41.0029 22.3036 40.8657 22.6352C40.7284 22.9668 40.527 23.268 40.2728 23.5217C40.0187 23.7754 39.7168 23.9765 39.3846 24.1134C39.0524 24.2504 38.6964 24.3206 38.337 24.3199C37.9776 24.3206 37.6215 24.2504 37.2893 24.1134C36.9571 23.9765 36.6553 23.7754 36.4012 23.5217C36.147 23.268 35.9455 22.9668 35.8083 22.6352C35.6711 22.3036 35.6008 21.9483 35.6015 21.5896V21.5904ZM38.337 15.8685C37.6445 15.8685 37.0559 16.456 37.0559 17.1652V21.5896C37.0559 22.2978 37.6445 22.8854 38.337 22.8854C39.0466 22.8854 39.6181 22.315 39.6181 21.5896V17.1652C39.6181 16.4389 39.0466 15.8685 38.337 15.8685ZM49.3023 16.8723C49.3023 16.3361 48.8526 15.8702 48.2983 15.8702C47.762 15.8702 47.2944 16.3361 47.2944 16.8723V24.1306H45.8571V16.8723C45.8571 16.3361 45.4066 15.8702 44.8532 15.8702C44.316 15.8702 43.8492 16.3361 43.8492 16.8723V24.1306H42.412V16.8723C42.4115 16.5521 42.4743 16.235 42.5968 15.9392C42.7194 15.6433 42.8991 15.3744 43.1259 15.148C43.3527 14.9216 43.622 14.7421 43.9184 14.6197C44.2147 14.4973 44.5324 14.4345 44.8532 14.4348C45.1745 14.4323 45.4931 14.4938 45.7904 14.6155C46.0877 14.7373 46.3578 14.9169 46.5847 15.144C46.8072 14.9159 47.0739 14.7354 47.3685 14.6135C47.6631 14.4916 47.9794 14.4308 48.2983 14.4348C48.6204 14.4326 48.9399 14.4939 49.2381 14.6154C49.5364 14.7369 49.8076 14.9161 50.036 15.1426C50.265 15.3692 50.446 15.6387 50.57 15.9355C50.694 16.2324 50.7575 16.5507 50.7575 16.8723V24.1306H49.3023V16.8723ZM58.4975 17.1652C58.4975 16.9972 58.4645 16.8307 58.4005 16.6754C58.336 16.5202 58.242 16.3791 58.123 16.2603C58.004 16.1415 57.8625 16.0473 57.707 15.9831C57.5515 15.919 57.3845 15.8862 57.216 15.8865C56.5235 15.8865 55.935 16.4569 55.935 17.166V24.1306H54.48V10.9611H55.935V14.7637C56.3275 14.5482 56.768 14.435 57.216 14.4348C57.5755 14.4341 57.932 14.5043 58.264 14.6414C58.5965 14.7784 58.898 14.9796 59.1525 15.2333C59.4065 15.4871 59.608 15.7884 59.745 16.1201C59.8825 16.4518 59.9525 16.8072 59.9515 17.166V24.1306H58.4975V17.1652ZM61.2425 21.5904V17.1652C61.2415 16.8063 61.3115 16.4509 61.449 16.1192C61.586 15.7876 61.7875 15.4862 62.0415 15.2325C62.296 14.9787 62.5975 14.7775 62.93 14.6405C63.262 14.5035 63.6185 14.4333 63.978 14.434C64.3375 14.4333 64.6935 14.5035 65.0255 14.6405C65.358 14.7775 65.66 14.9787 65.914 15.2325C66.168 15.4862 66.3695 15.7876 66.5065 16.1192C66.644 16.4509 66.714 16.8063 66.7135 17.1652V21.5896C66.714 21.9483 66.6435 22.3036 66.5065 22.6352C66.369 22.9668 66.168 23.268 65.9135 23.5217C65.6595 23.7754 65.3575 23.9765 65.0255 24.1134C64.693 24.2504 64.337 24.3206 63.978 24.3199C63.6185 24.3206 63.2625 24.2504 62.93 24.1134C62.598 23.9765 62.296 23.7754 62.042 23.5217C61.788 23.268 61.5865 22.9668 61.449 22.6352C61.312 22.3036 61.2415 21.9483 61.2425 21.5896V21.5904ZM63.978 15.8685C63.2855 15.8685 62.6965 16.456 62.6965 17.1652V21.5896C62.6965 22.2978 63.2855 22.8854 63.978 22.8854C64.6875 22.8854 65.259 22.315 65.259 21.5896V17.1652C65.259 16.4389 64.6875 15.8685 63.978 15.8685ZM70.736 15.8694C70.0435 15.8694 69.455 16.4569 69.455 17.166V24.1306H68.0165V17.1652C68.014 16.8073 68.0825 16.4524 68.218 16.1209C68.353 15.7895 68.553 15.4882 68.806 15.2342C69.0585 14.9803 69.359 14.7789 69.69 14.6415C70.0215 14.5042 70.3765 14.4336 70.735 14.434C71.6875 14.434 72.5885 14.935 73.1765 15.9379L71.9465 16.6633C71.601 16.1109 71.2025 15.8685 70.735 15.8685L70.736 15.8694ZM42.7895 31.0147V28.4959C42.7895 27.9067 43.2632 27.4339 43.8535 27.4339C44.2791 27.4339 44.6627 27.6883 44.8635 28.1439L44.395 28.3443C44.2791 28.0703 44.0723 27.9435 43.8535 27.9435C43.706 27.9428 43.5642 28.0006 43.4593 28.1042C43.3544 28.2078 43.295 28.3487 43.294 28.4959V31.0147C43.2956 31.1624 43.355 31.3036 43.4596 31.4082C43.5641 31.5127 43.7055 31.5722 43.8535 31.574C44.0015 31.5722 44.1429 31.5127 44.2474 31.4082C44.352 31.3036 44.4114 31.1624 44.413 31.0147V30.4683H43.6038V29.9587H44.9175V31.0147C44.9175 31.604 44.443 32.0767 43.8535 32.0767C43.2632 32.0767 42.7895 31.604 42.7895 31.0147ZM48.8046 30.5959H47.6917V32.0168H47.1863V28.5079C47.1863 27.9195 47.6608 27.4459 48.2503 27.4459C48.8406 27.4459 49.3151 27.9195 49.3151 28.5079V32.0168H48.8046V30.5959ZM48.2511 27.9495C48.1029 27.9502 47.961 28.0092 47.8563 28.1138C47.7515 28.2184 47.6923 28.36 47.6917 28.5079V30.0923H48.8046V28.5079C48.8053 28.3606 48.7474 28.2191 48.6436 28.1144C48.5398 28.0097 48.3987 27.9504 48.2511 27.9495ZM53.8645 29.0303L53.159 31.0575H52.8795L52.1795 29.0303V32.0168H51.675V27.4879H52.1855L53.0195 29.9159L53.8585 27.4879H54.369V32.0168H53.8645V29.0303ZM57.0995 27.4879H57.604V32.0168H57.0995V27.4879ZM60.804 28.9755V32.0159H60.293V27.4879H60.791L61.9165 30.5411V27.4879H62.4215V32.0168H61.9225L60.804 28.9755ZM64.756 31.0147V28.4959C64.756 27.9067 65.2315 27.4339 65.821 27.4339C66.2465 27.4339 66.63 27.6883 66.831 28.1439L66.3625 28.3443C66.2465 28.0703 66.0395 27.9435 65.822 27.9435C65.7485 27.9431 65.676 27.957 65.6085 27.9845C65.5405 28.012 65.479 28.0526 65.427 28.1039C65.375 28.1552 65.3335 28.2162 65.305 28.2835C65.277 28.3507 65.262 28.4229 65.2615 28.4959V31.0147C65.263 31.1624 65.3225 31.3036 65.427 31.4082C65.5315 31.5127 65.673 31.5722 65.821 31.574C65.969 31.5722 66.1105 31.5127 66.215 31.4082C66.3195 31.3036 66.379 31.1624 66.3805 31.0147V30.4683H65.572V29.9587H66.885V31.0147C66.885 31.604 66.4115 32.0767 65.821 32.0767C65.2315 32.0767 64.757 31.604 64.757 31.0147" fill="white"/>
<path d="M5.563 11.4209C0.835023 16.1074 0.809283 23.7306 5.50465 28.4488C5.10115 28.0223 4.88054 27.4554 4.88985 26.869C4.89916 26.2825 5.13765 25.7228 5.5545 25.3094C5.9713 24.8959 6.5335 24.6613 7.1211 24.6557C7.70875 24.65 8.27535 24.8737 8.7001 25.2791C7.28755 23.8595 6.4978 21.9381 6.50465 19.9374C6.50805 18.9467 6.7069 17.9665 7.08985 17.0525C7.4728 16.1386 8.03235 15.3089 8.73655 14.6108C9.44075 13.9127 10.2758 13.3599 11.1941 12.9839C12.1124 12.6079 13.0958 12.4161 14.0884 12.4195C16.0928 12.4263 18.0125 13.2276 19.4251 14.6472L19.4259 14.6489C19.8469 15.0721 20.4191 15.311 21.0166 15.313C21.6141 15.3151 22.188 15.0802 22.6119 14.66C23.0359 14.2398 23.2753 13.6687 23.2774 13.0723C23.2795 12.476 23.0441 11.9032 22.6231 11.48C21.5032 10.3515 20.1699 9.45598 18.7007 8.84558C17.2314 8.23518 15.6553 7.92198 14.0639 7.92408C10.9903 7.92408 7.9158 9.08888 5.563 11.4209Z" fill="url(#paint0_linear_10_366)"/>
<path d="M22.612 14.6591C22.1884 15.0791 21.615 15.3141 21.0179 15.3123C20.4208 15.3106 19.8488 15.0722 19.4277 14.6497C20.1271 15.3526 20.681 16.1861 21.0577 17.1026C21.4344 18.0191 21.6265 19.0007 21.6232 19.9914C21.6198 20.982 21.4209 21.9623 21.038 22.8762C20.655 23.7902 20.0955 24.6199 19.3913 25.318C18.687 26.0161 17.852 26.5689 16.9337 26.9449C16.0154 27.3209 15.032 27.5126 14.0394 27.5093C12.0349 27.5024 10.1153 26.7011 8.70273 25.2816L8.70188 25.2799C8.69413 25.2722 8.68553 25.2662 8.67868 25.2585C8.63083 25.2116 8.58103 25.1667 8.52938 25.124L8.52508 25.1206C8.46808 25.074 8.40883 25.0303 8.34748 24.9895L8.33633 24.9827C8.27798 24.9442 8.21783 24.9085 8.15613 24.8756L8.14153 24.8688C7.82033 24.7025 7.46383 24.6157 7.10198 24.6157C6.74018 24.6157 6.38363 24.7025 6.06243 24.8688C6.04013 24.8808 6.01953 24.8945 5.99723 24.9073C5.82118 25.0056 5.65928 25.1272 5.51583 25.2687C5.09198 25.689 4.85269 26.2601 4.8506 26.8564C4.8485 27.4528 5.08378 28.0255 5.50468 28.4487C10.2 33.1677 17.8377 33.1934 22.5648 28.507C27.2919 23.8205 27.3185 16.1973 22.6232 11.4791C23.0441 11.9024 23.2794 12.4751 23.2773 13.0714C23.2752 13.6678 23.0359 14.2388 22.612 14.6591Z" fill="url(#paint1_linear_10_366)"/>
<path d="M77.5355 17.2191C77.5355 16.4972 76.9345 15.8976 76.2285 15.8976C75.505 15.8976 74.9225 16.48 74.9225 17.2191V24.3208H73.439V17.2191C73.439 15.669 74.6925 14.4357 76.2285 14.4357C77.7645 14.4357 79 15.669 79 17.2191V24.3208H77.5355V17.2191Z" fill="white"/>
</g>
</g>
<defs>
<filter id="filter0_d_10_366" x="-2" y="7.92407" width="85" height="32.1526" filterUnits="userSpaceOnUse" color-interpolation-filters="sRGB">
<feFlood flood-opacity="0" result="BackgroundImageFix"/>
<feColorMatrix in="SourceAlpha" type="matrix" values="0 0 0 0 0 0 0 0 0 0 0 0 0 0 0 0 0 0 127 0" result="hardAlpha"/>
<feOffset dy="4"/>
<feGaussianBlur stdDeviation="2"/>
<feColorMatrix type="matrix" values="0 0 0 0 0 0 0 0 0 0 0 0 0 0 0 0 0 0 0.25 0"/>
<feBlend mode="normal" in2="BackgroundImageFix" result="effect1_dropShadow_10_366"/>
<feBlend mode="normal" in="SourceGraphic" in2="effect1_dropShadow_10_366" result="shape"/>
</filter>
<linearGradient id="paint0_linear_10_366" x1="2.00028" y1="18.1869" x2="23.277" y2="18.1869" gradientUnits="userSpaceOnUse">
<stop stop-color="#223B86"/>
<stop offset="0.29" stop-color="#26B1E7"/>
<stop offset="1" stop-color="#C7E3F8"/>
</linearGradient>
<linearGradient id="paint1_linear_10_366" x1="4.84998" y1="21.7419" x2="26.1275" y2="21.7419" gradientUnits="userSpaceOnUse">
<stop stop-color="#C7E3F8"/>
<stop offset="0.677" stop-color="#26B1E7"/>
<stop offset="1" stop-color="#223B86"/>
</linearGradient>
<clipPath id="clip0_10_366">
<rect width="81" height="40" fill="white"/>
</clipPath>
</defs>
</svg>
