<svg width="80" height="40" viewBox="0 0 80 40" fill="none" xmlns="http://www.w3.org/2000/svg">
<path d="M73.0585 16.1659H74.4815V21.3562H77.5V22.6538H73.0585V16.1659ZM70.4495 22.6538H71.8725V16.1659H70.4495V22.6538ZM64.254 21.6656C65.0305 22.3607 66.019 22.7037 66.9985 22.7037C68.394 22.7037 69.3735 21.9807 69.3735 20.6923V20.6739C69.3735 19.5431 68.6345 19.0705 67.322 18.7274C66.204 18.4401 65.9265 18.301 65.9265 17.8747V17.8561C65.9265 17.541 66.213 17.2908 66.7585 17.2908C67.3035 17.2908 67.8675 17.5317 68.4405 17.9303L69.1795 16.8551C68.5235 16.3268 67.7195 16.0303 66.777 16.0303C65.4555 16.0303 64.5125 16.8088 64.5125 17.9859V18.0044C64.5125 19.2928 65.3535 19.6543 66.6565 19.988C67.738 20.266 67.9595 20.4514 67.9595 20.8128V20.8314C67.9595 21.2114 67.6085 21.4432 67.0265 21.4432C66.287 21.4432 65.677 21.1372 65.095 20.6553L64.254 21.6656ZM63.963 22.677L61.1905 16.1427H59.8785L57.106 22.677H58.557L60.516 17.8574L61.367 19.9507H60.2245L59.719 21.2059H61.877L62.475 22.677H63.963ZM46.9342 16.166C48.9673 16.166 50.372 17.5654 50.372 19.3914V19.41C50.372 21.2358 48.9673 22.6539 46.9342 22.6539H44.7109V16.166H46.9342ZM48.8841 19.41C48.8841 18.2606 48.0984 17.4542 46.9342 17.4542H46.134V21.3655H46.9342C48.0984 21.3655 48.8841 20.5777 48.8841 19.4284V19.41ZM41.5333 19.2761V20.3923H42.204V21.0783C41.8436 21.338 41.3815 21.4675 40.8638 21.4675C39.7181 21.4675 38.9049 20.5963 38.9049 19.41V19.3913C38.9049 18.2884 39.7272 17.3708 40.7624 17.3708C41.5109 17.3708 41.9545 17.6118 42.4535 18.0289L43.35 16.9445C42.6754 16.3698 41.9729 16.0547 40.8085 16.0547C38.8494 16.0547 37.417 17.5654 37.417 19.41V19.4284C37.417 21.347 38.8033 22.7651 40.8177 22.7651C42.0006 22.7651 42.9155 22.3016 43.5808 21.7363V19.2761H41.5333ZM34.4272 19.2761V20.3923H35.0979V21.0783C34.7375 21.338 34.2754 21.4675 33.758 21.4675C32.6121 21.4675 31.7989 20.5963 31.7989 19.41V19.3913C31.7989 18.2884 32.6213 17.3708 33.6564 17.3708C34.4048 17.3708 34.8484 17.6118 35.3474 18.0289L36.2439 16.9445C35.5692 16.3698 34.8669 16.0547 33.7025 16.0547C31.7433 16.0547 30.311 17.5654 30.311 19.41V19.4284C30.311 21.347 31.6972 22.7651 33.7118 22.7651C34.8946 22.7651 35.8094 22.3016 36.4749 21.7363V19.2761H34.4272ZM26.5566 22.6539H27.9799V20.561L30.4657 16.1659H28.8485L27.2776 19.0526L25.7341 16.1659H24.0707L26.5566 20.5889V22.6539ZM55.0835 20.3368C55.906 20.0309 56.4695 19.3728 56.4695 18.3255V18.307C56.4695 17.6952 56.2755 17.1854 55.915 16.824C55.49 16.3976 54.8525 16.1659 54.03 16.1659H51.2865V22.6538H52.7095V17.4542H53.91C54.603 17.4542 55.028 17.7694 55.028 18.3811V18.3996C55.028 18.9464 54.6305 19.3172 53.9375 19.3172H53.236V20.5777H53.614L55 22.6538H56.6635L55.0835 20.3368Z" fill="white"/>
<path d="M20.6369 20.5272C20.5929 21.2419 20.4641 21.9556 20.2471 22.6526C16.8193 22.4477 13.7533 20.9016 11.5681 18.5327C9.3833 20.9011 6.31815 22.447 2.89122 22.6525C2.67707 21.9622 2.54563 21.2484 2.5 20.5271C3.64922 20.4859 4.75234 20.264 5.78165 19.8889C4.86975 19.1332 3.81245 18.5465 2.6579 18.1767C2.7967 17.4837 3.01837 16.8002 3.32569 16.1409C5.04505 16.6937 6.5884 17.6384 7.85015 18.8697C8.6165 18.383 9.31675 17.8017 9.9344 17.1424C7.8189 16.7754 5.94405 15.7082 4.55775 14.1886C5.02205 13.6249 5.54315 13.13 6.10695 12.7066C6.92215 13.6135 7.9605 14.3162 9.1358 14.7285C8.71595 13.7124 8.4229 12.6306 8.2763 11.503C8.9521 11.2414 9.65615 11.0615 10.3724 10.9663C10.5196 12.3628 10.9357 13.6794 11.5681 14.8632C12.2008 13.6788 12.617 12.3617 12.764 10.9644C13.4734 11.0579 14.1771 11.2361 14.86 11.5019C14.7134 12.6299 14.4203 13.712 14.0003 14.7285C15.1749 14.3165 16.2127 13.6143 17.0277 12.7083C17.6133 13.1474 18.1315 13.6449 18.5797 14.1872C17.1933 15.7075 15.3179 16.7753 13.2017 17.1424C13.8194 17.8017 14.5197 18.383 15.286 18.8697C16.5478 17.6384 18.0912 16.6937 19.8106 16.1409C20.1128 16.793 20.3356 17.4771 20.476 18.1775C19.3223 18.5473 18.2658 19.1337 17.3545 19.8889C18.384 20.2641 19.4874 20.486 20.6369 20.5272ZM12.6403 28.9715V25.9263L15.7205 21.9157C15.0587 21.6252 14.418 21.2785 13.8113 20.8826L11.5681 23.8035L9.3248 20.8826C8.71815 21.2785 8.0775 21.6252 7.4156 21.9157L10.4959 25.9263V28.9734C11.2112 29.0576 11.9312 29.0559 12.6403 28.9715Z" fill="#FA6432"/>
</svg>
